G75*
%MOIN*%
%OFA0B0*%
%FSLAX25Y25*%
%IPPOS*%
%LPD*%
%AMOC8*
5,1,8,0,0,1.08239X$1,22.5*
%
%ADD10C,0.00394*%
%ADD11C,0.00000*%
D10*
X0100593Y0075862D02*
X0120278Y0075862D01*
X0120278Y0046335D01*
X0120280Y0046183D01*
X0120286Y0046031D01*
X0120296Y0045879D01*
X0120309Y0045728D01*
X0120327Y0045577D01*
X0120348Y0045426D01*
X0120374Y0045276D01*
X0120403Y0045127D01*
X0120436Y0044978D01*
X0120473Y0044831D01*
X0120513Y0044684D01*
X0120558Y0044539D01*
X0120606Y0044395D01*
X0120658Y0044252D01*
X0120713Y0044110D01*
X0120772Y0043970D01*
X0120835Y0043831D01*
X0120901Y0043694D01*
X0120971Y0043559D01*
X0121044Y0043426D01*
X0121121Y0043295D01*
X0121201Y0043165D01*
X0121284Y0043038D01*
X0121370Y0042913D01*
X0121460Y0042790D01*
X0121553Y0042670D01*
X0121649Y0042552D01*
X0121748Y0042436D01*
X0121850Y0042323D01*
X0121954Y0042213D01*
X0122062Y0042105D01*
X0122172Y0042001D01*
X0122285Y0041899D01*
X0122401Y0041800D01*
X0122519Y0041704D01*
X0122639Y0041611D01*
X0122762Y0041521D01*
X0122887Y0041435D01*
X0123014Y0041352D01*
X0123144Y0041272D01*
X0123275Y0041195D01*
X0123408Y0041122D01*
X0123543Y0041052D01*
X0123680Y0040986D01*
X0123819Y0040923D01*
X0123959Y0040864D01*
X0124101Y0040809D01*
X0124244Y0040757D01*
X0124388Y0040709D01*
X0124533Y0040664D01*
X0124680Y0040624D01*
X0124827Y0040587D01*
X0124976Y0040554D01*
X0125125Y0040525D01*
X0125275Y0040499D01*
X0125426Y0040478D01*
X0125577Y0040460D01*
X0125728Y0040447D01*
X0125880Y0040437D01*
X0126032Y0040431D01*
X0126184Y0040429D01*
X0663585Y0040429D01*
X0663737Y0040431D01*
X0663889Y0040437D01*
X0664041Y0040447D01*
X0664192Y0040460D01*
X0664343Y0040478D01*
X0664494Y0040499D01*
X0664644Y0040525D01*
X0664793Y0040554D01*
X0664942Y0040587D01*
X0665089Y0040624D01*
X0665236Y0040664D01*
X0665381Y0040709D01*
X0665525Y0040757D01*
X0665668Y0040809D01*
X0665810Y0040864D01*
X0665950Y0040923D01*
X0666089Y0040986D01*
X0666226Y0041052D01*
X0666361Y0041122D01*
X0666494Y0041195D01*
X0666625Y0041272D01*
X0666755Y0041352D01*
X0666882Y0041435D01*
X0667007Y0041521D01*
X0667130Y0041611D01*
X0667250Y0041704D01*
X0667368Y0041800D01*
X0667484Y0041899D01*
X0667597Y0042001D01*
X0667707Y0042105D01*
X0667815Y0042213D01*
X0667919Y0042323D01*
X0668021Y0042436D01*
X0668120Y0042552D01*
X0668216Y0042670D01*
X0668309Y0042790D01*
X0668399Y0042913D01*
X0668485Y0043038D01*
X0668568Y0043165D01*
X0668648Y0043295D01*
X0668725Y0043426D01*
X0668798Y0043559D01*
X0668868Y0043694D01*
X0668934Y0043831D01*
X0668997Y0043970D01*
X0669056Y0044110D01*
X0669111Y0044252D01*
X0669163Y0044395D01*
X0669211Y0044539D01*
X0669256Y0044684D01*
X0669296Y0044831D01*
X0669333Y0044978D01*
X0669366Y0045127D01*
X0669395Y0045276D01*
X0669421Y0045426D01*
X0669442Y0045577D01*
X0669460Y0045728D01*
X0669473Y0045879D01*
X0669483Y0046031D01*
X0669489Y0046183D01*
X0669491Y0046335D01*
X0669491Y0408539D01*
X0669489Y0408691D01*
X0669483Y0408843D01*
X0669473Y0408995D01*
X0669460Y0409146D01*
X0669442Y0409297D01*
X0669421Y0409448D01*
X0669395Y0409598D01*
X0669366Y0409747D01*
X0669333Y0409896D01*
X0669296Y0410043D01*
X0669256Y0410190D01*
X0669211Y0410335D01*
X0669163Y0410479D01*
X0669111Y0410622D01*
X0669056Y0410764D01*
X0668997Y0410904D01*
X0668934Y0411043D01*
X0668868Y0411180D01*
X0668798Y0411315D01*
X0668725Y0411448D01*
X0668648Y0411579D01*
X0668568Y0411709D01*
X0668485Y0411836D01*
X0668399Y0411961D01*
X0668309Y0412084D01*
X0668216Y0412204D01*
X0668120Y0412322D01*
X0668021Y0412438D01*
X0667919Y0412551D01*
X0667815Y0412661D01*
X0667707Y0412769D01*
X0667597Y0412873D01*
X0667484Y0412975D01*
X0667368Y0413074D01*
X0667250Y0413170D01*
X0667130Y0413263D01*
X0667007Y0413353D01*
X0666882Y0413439D01*
X0666755Y0413522D01*
X0666625Y0413602D01*
X0666494Y0413679D01*
X0666361Y0413752D01*
X0666226Y0413822D01*
X0666089Y0413888D01*
X0665950Y0413951D01*
X0665810Y0414010D01*
X0665668Y0414065D01*
X0665525Y0414117D01*
X0665381Y0414165D01*
X0665236Y0414210D01*
X0665089Y0414250D01*
X0664942Y0414287D01*
X0664793Y0414320D01*
X0664644Y0414349D01*
X0664494Y0414375D01*
X0664343Y0414396D01*
X0664192Y0414414D01*
X0664041Y0414427D01*
X0663889Y0414437D01*
X0663737Y0414443D01*
X0663585Y0414445D01*
X0126184Y0414445D01*
X0126032Y0414443D01*
X0125880Y0414437D01*
X0125728Y0414427D01*
X0125577Y0414414D01*
X0125426Y0414396D01*
X0125275Y0414375D01*
X0125125Y0414349D01*
X0124976Y0414320D01*
X0124827Y0414287D01*
X0124680Y0414250D01*
X0124533Y0414210D01*
X0124388Y0414165D01*
X0124244Y0414117D01*
X0124101Y0414065D01*
X0123959Y0414010D01*
X0123819Y0413951D01*
X0123680Y0413888D01*
X0123543Y0413822D01*
X0123408Y0413752D01*
X0123275Y0413679D01*
X0123144Y0413602D01*
X0123014Y0413522D01*
X0122887Y0413439D01*
X0122762Y0413353D01*
X0122639Y0413263D01*
X0122519Y0413170D01*
X0122401Y0413074D01*
X0122285Y0412975D01*
X0122172Y0412873D01*
X0122062Y0412769D01*
X0121954Y0412661D01*
X0121850Y0412551D01*
X0121748Y0412438D01*
X0121649Y0412322D01*
X0121553Y0412204D01*
X0121460Y0412084D01*
X0121370Y0411961D01*
X0121284Y0411836D01*
X0121201Y0411709D01*
X0121121Y0411579D01*
X0121044Y0411448D01*
X0120971Y0411315D01*
X0120901Y0411180D01*
X0120835Y0411043D01*
X0120772Y0410904D01*
X0120713Y0410764D01*
X0120658Y0410622D01*
X0120606Y0410479D01*
X0120558Y0410335D01*
X0120513Y0410190D01*
X0120473Y0410043D01*
X0120436Y0409896D01*
X0120403Y0409747D01*
X0120374Y0409598D01*
X0120348Y0409448D01*
X0120327Y0409297D01*
X0120309Y0409146D01*
X0120296Y0408995D01*
X0120286Y0408843D01*
X0120280Y0408691D01*
X0120278Y0408539D01*
X0120278Y0379012D01*
X0100593Y0379012D01*
X0100441Y0379010D01*
X0100289Y0379004D01*
X0100137Y0378994D01*
X0099986Y0378981D01*
X0099835Y0378963D01*
X0099684Y0378942D01*
X0099534Y0378916D01*
X0099385Y0378887D01*
X0099236Y0378854D01*
X0099089Y0378817D01*
X0098942Y0378777D01*
X0098797Y0378732D01*
X0098653Y0378684D01*
X0098510Y0378632D01*
X0098368Y0378577D01*
X0098228Y0378518D01*
X0098089Y0378455D01*
X0097952Y0378389D01*
X0097817Y0378319D01*
X0097684Y0378246D01*
X0097553Y0378169D01*
X0097423Y0378089D01*
X0097296Y0378006D01*
X0097171Y0377920D01*
X0097048Y0377830D01*
X0096928Y0377737D01*
X0096810Y0377641D01*
X0096694Y0377542D01*
X0096581Y0377440D01*
X0096471Y0377336D01*
X0096363Y0377228D01*
X0096259Y0377118D01*
X0096157Y0377005D01*
X0096058Y0376889D01*
X0095962Y0376771D01*
X0095869Y0376651D01*
X0095779Y0376528D01*
X0095693Y0376403D01*
X0095610Y0376276D01*
X0095530Y0376146D01*
X0095453Y0376015D01*
X0095380Y0375882D01*
X0095310Y0375747D01*
X0095244Y0375610D01*
X0095181Y0375471D01*
X0095122Y0375331D01*
X0095067Y0375189D01*
X0095015Y0375046D01*
X0094967Y0374902D01*
X0094922Y0374757D01*
X0094882Y0374610D01*
X0094845Y0374463D01*
X0094812Y0374314D01*
X0094783Y0374165D01*
X0094757Y0374015D01*
X0094736Y0373864D01*
X0094718Y0373713D01*
X0094705Y0373562D01*
X0094695Y0373410D01*
X0094689Y0373258D01*
X0094687Y0373106D01*
X0094688Y0373106D02*
X0094688Y0081768D01*
X0094687Y0081768D02*
X0094689Y0081616D01*
X0094695Y0081464D01*
X0094705Y0081312D01*
X0094718Y0081161D01*
X0094736Y0081010D01*
X0094757Y0080859D01*
X0094783Y0080709D01*
X0094812Y0080560D01*
X0094845Y0080411D01*
X0094882Y0080264D01*
X0094922Y0080117D01*
X0094967Y0079972D01*
X0095015Y0079828D01*
X0095067Y0079685D01*
X0095122Y0079543D01*
X0095181Y0079403D01*
X0095244Y0079264D01*
X0095310Y0079127D01*
X0095380Y0078992D01*
X0095453Y0078859D01*
X0095530Y0078728D01*
X0095610Y0078598D01*
X0095693Y0078471D01*
X0095779Y0078346D01*
X0095869Y0078223D01*
X0095962Y0078103D01*
X0096058Y0077985D01*
X0096157Y0077869D01*
X0096259Y0077756D01*
X0096363Y0077646D01*
X0096471Y0077538D01*
X0096581Y0077434D01*
X0096694Y0077332D01*
X0096810Y0077233D01*
X0096928Y0077137D01*
X0097048Y0077044D01*
X0097171Y0076954D01*
X0097296Y0076868D01*
X0097423Y0076785D01*
X0097553Y0076705D01*
X0097684Y0076628D01*
X0097817Y0076555D01*
X0097952Y0076485D01*
X0098089Y0076419D01*
X0098228Y0076356D01*
X0098368Y0076297D01*
X0098510Y0076242D01*
X0098653Y0076190D01*
X0098797Y0076142D01*
X0098942Y0076097D01*
X0099089Y0076057D01*
X0099236Y0076020D01*
X0099385Y0075987D01*
X0099534Y0075958D01*
X0099684Y0075932D01*
X0099835Y0075911D01*
X0099986Y0075893D01*
X0100137Y0075880D01*
X0100289Y0075870D01*
X0100441Y0075864D01*
X0100593Y0075862D01*
D11*
X0131696Y0062083D02*
X0131698Y0062241D01*
X0131704Y0062399D01*
X0131714Y0062557D01*
X0131728Y0062715D01*
X0131746Y0062872D01*
X0131767Y0063029D01*
X0131793Y0063185D01*
X0131823Y0063341D01*
X0131856Y0063496D01*
X0131894Y0063649D01*
X0131935Y0063802D01*
X0131980Y0063954D01*
X0132029Y0064105D01*
X0132082Y0064254D01*
X0132138Y0064402D01*
X0132198Y0064548D01*
X0132262Y0064693D01*
X0132330Y0064836D01*
X0132401Y0064978D01*
X0132475Y0065118D01*
X0132553Y0065255D01*
X0132635Y0065391D01*
X0132719Y0065525D01*
X0132808Y0065656D01*
X0132899Y0065785D01*
X0132994Y0065912D01*
X0133091Y0066037D01*
X0133192Y0066159D01*
X0133296Y0066278D01*
X0133403Y0066395D01*
X0133513Y0066509D01*
X0133626Y0066620D01*
X0133741Y0066729D01*
X0133859Y0066834D01*
X0133980Y0066936D01*
X0134103Y0067036D01*
X0134229Y0067132D01*
X0134357Y0067225D01*
X0134487Y0067315D01*
X0134620Y0067401D01*
X0134755Y0067485D01*
X0134891Y0067564D01*
X0135030Y0067641D01*
X0135171Y0067713D01*
X0135313Y0067783D01*
X0135457Y0067848D01*
X0135603Y0067910D01*
X0135750Y0067968D01*
X0135899Y0068023D01*
X0136049Y0068074D01*
X0136200Y0068121D01*
X0136352Y0068164D01*
X0136505Y0068203D01*
X0136660Y0068239D01*
X0136815Y0068270D01*
X0136971Y0068298D01*
X0137127Y0068322D01*
X0137284Y0068342D01*
X0137442Y0068358D01*
X0137599Y0068370D01*
X0137758Y0068378D01*
X0137916Y0068382D01*
X0138074Y0068382D01*
X0138232Y0068378D01*
X0138391Y0068370D01*
X0138548Y0068358D01*
X0138706Y0068342D01*
X0138863Y0068322D01*
X0139019Y0068298D01*
X0139175Y0068270D01*
X0139330Y0068239D01*
X0139485Y0068203D01*
X0139638Y0068164D01*
X0139790Y0068121D01*
X0139941Y0068074D01*
X0140091Y0068023D01*
X0140240Y0067968D01*
X0140387Y0067910D01*
X0140533Y0067848D01*
X0140677Y0067783D01*
X0140819Y0067713D01*
X0140960Y0067641D01*
X0141099Y0067564D01*
X0141235Y0067485D01*
X0141370Y0067401D01*
X0141503Y0067315D01*
X0141633Y0067225D01*
X0141761Y0067132D01*
X0141887Y0067036D01*
X0142010Y0066936D01*
X0142131Y0066834D01*
X0142249Y0066729D01*
X0142364Y0066620D01*
X0142477Y0066509D01*
X0142587Y0066395D01*
X0142694Y0066278D01*
X0142798Y0066159D01*
X0142899Y0066037D01*
X0142996Y0065912D01*
X0143091Y0065785D01*
X0143182Y0065656D01*
X0143271Y0065525D01*
X0143355Y0065391D01*
X0143437Y0065255D01*
X0143515Y0065118D01*
X0143589Y0064978D01*
X0143660Y0064836D01*
X0143728Y0064693D01*
X0143792Y0064548D01*
X0143852Y0064402D01*
X0143908Y0064254D01*
X0143961Y0064105D01*
X0144010Y0063954D01*
X0144055Y0063802D01*
X0144096Y0063649D01*
X0144134Y0063496D01*
X0144167Y0063341D01*
X0144197Y0063185D01*
X0144223Y0063029D01*
X0144244Y0062872D01*
X0144262Y0062715D01*
X0144276Y0062557D01*
X0144286Y0062399D01*
X0144292Y0062241D01*
X0144294Y0062083D01*
X0144292Y0061925D01*
X0144286Y0061767D01*
X0144276Y0061609D01*
X0144262Y0061451D01*
X0144244Y0061294D01*
X0144223Y0061137D01*
X0144197Y0060981D01*
X0144167Y0060825D01*
X0144134Y0060670D01*
X0144096Y0060517D01*
X0144055Y0060364D01*
X0144010Y0060212D01*
X0143961Y0060061D01*
X0143908Y0059912D01*
X0143852Y0059764D01*
X0143792Y0059618D01*
X0143728Y0059473D01*
X0143660Y0059330D01*
X0143589Y0059188D01*
X0143515Y0059048D01*
X0143437Y0058911D01*
X0143355Y0058775D01*
X0143271Y0058641D01*
X0143182Y0058510D01*
X0143091Y0058381D01*
X0142996Y0058254D01*
X0142899Y0058129D01*
X0142798Y0058007D01*
X0142694Y0057888D01*
X0142587Y0057771D01*
X0142477Y0057657D01*
X0142364Y0057546D01*
X0142249Y0057437D01*
X0142131Y0057332D01*
X0142010Y0057230D01*
X0141887Y0057130D01*
X0141761Y0057034D01*
X0141633Y0056941D01*
X0141503Y0056851D01*
X0141370Y0056765D01*
X0141235Y0056681D01*
X0141099Y0056602D01*
X0140960Y0056525D01*
X0140819Y0056453D01*
X0140677Y0056383D01*
X0140533Y0056318D01*
X0140387Y0056256D01*
X0140240Y0056198D01*
X0140091Y0056143D01*
X0139941Y0056092D01*
X0139790Y0056045D01*
X0139638Y0056002D01*
X0139485Y0055963D01*
X0139330Y0055927D01*
X0139175Y0055896D01*
X0139019Y0055868D01*
X0138863Y0055844D01*
X0138706Y0055824D01*
X0138548Y0055808D01*
X0138391Y0055796D01*
X0138232Y0055788D01*
X0138074Y0055784D01*
X0137916Y0055784D01*
X0137758Y0055788D01*
X0137599Y0055796D01*
X0137442Y0055808D01*
X0137284Y0055824D01*
X0137127Y0055844D01*
X0136971Y0055868D01*
X0136815Y0055896D01*
X0136660Y0055927D01*
X0136505Y0055963D01*
X0136352Y0056002D01*
X0136200Y0056045D01*
X0136049Y0056092D01*
X0135899Y0056143D01*
X0135750Y0056198D01*
X0135603Y0056256D01*
X0135457Y0056318D01*
X0135313Y0056383D01*
X0135171Y0056453D01*
X0135030Y0056525D01*
X0134891Y0056602D01*
X0134755Y0056681D01*
X0134620Y0056765D01*
X0134487Y0056851D01*
X0134357Y0056941D01*
X0134229Y0057034D01*
X0134103Y0057130D01*
X0133980Y0057230D01*
X0133859Y0057332D01*
X0133741Y0057437D01*
X0133626Y0057546D01*
X0133513Y0057657D01*
X0133403Y0057771D01*
X0133296Y0057888D01*
X0133192Y0058007D01*
X0133091Y0058129D01*
X0132994Y0058254D01*
X0132899Y0058381D01*
X0132808Y0058510D01*
X0132719Y0058641D01*
X0132635Y0058775D01*
X0132553Y0058911D01*
X0132475Y0059048D01*
X0132401Y0059188D01*
X0132330Y0059330D01*
X0132262Y0059473D01*
X0132198Y0059618D01*
X0132138Y0059764D01*
X0132082Y0059912D01*
X0132029Y0060061D01*
X0131980Y0060212D01*
X0131935Y0060364D01*
X0131894Y0060517D01*
X0131856Y0060670D01*
X0131823Y0060825D01*
X0131793Y0060981D01*
X0131767Y0061137D01*
X0131746Y0061294D01*
X0131728Y0061451D01*
X0131714Y0061609D01*
X0131704Y0061767D01*
X0131698Y0061925D01*
X0131696Y0062083D01*
X0131696Y0392791D02*
X0131698Y0392949D01*
X0131704Y0393107D01*
X0131714Y0393265D01*
X0131728Y0393423D01*
X0131746Y0393580D01*
X0131767Y0393737D01*
X0131793Y0393893D01*
X0131823Y0394049D01*
X0131856Y0394204D01*
X0131894Y0394357D01*
X0131935Y0394510D01*
X0131980Y0394662D01*
X0132029Y0394813D01*
X0132082Y0394962D01*
X0132138Y0395110D01*
X0132198Y0395256D01*
X0132262Y0395401D01*
X0132330Y0395544D01*
X0132401Y0395686D01*
X0132475Y0395826D01*
X0132553Y0395963D01*
X0132635Y0396099D01*
X0132719Y0396233D01*
X0132808Y0396364D01*
X0132899Y0396493D01*
X0132994Y0396620D01*
X0133091Y0396745D01*
X0133192Y0396867D01*
X0133296Y0396986D01*
X0133403Y0397103D01*
X0133513Y0397217D01*
X0133626Y0397328D01*
X0133741Y0397437D01*
X0133859Y0397542D01*
X0133980Y0397644D01*
X0134103Y0397744D01*
X0134229Y0397840D01*
X0134357Y0397933D01*
X0134487Y0398023D01*
X0134620Y0398109D01*
X0134755Y0398193D01*
X0134891Y0398272D01*
X0135030Y0398349D01*
X0135171Y0398421D01*
X0135313Y0398491D01*
X0135457Y0398556D01*
X0135603Y0398618D01*
X0135750Y0398676D01*
X0135899Y0398731D01*
X0136049Y0398782D01*
X0136200Y0398829D01*
X0136352Y0398872D01*
X0136505Y0398911D01*
X0136660Y0398947D01*
X0136815Y0398978D01*
X0136971Y0399006D01*
X0137127Y0399030D01*
X0137284Y0399050D01*
X0137442Y0399066D01*
X0137599Y0399078D01*
X0137758Y0399086D01*
X0137916Y0399090D01*
X0138074Y0399090D01*
X0138232Y0399086D01*
X0138391Y0399078D01*
X0138548Y0399066D01*
X0138706Y0399050D01*
X0138863Y0399030D01*
X0139019Y0399006D01*
X0139175Y0398978D01*
X0139330Y0398947D01*
X0139485Y0398911D01*
X0139638Y0398872D01*
X0139790Y0398829D01*
X0139941Y0398782D01*
X0140091Y0398731D01*
X0140240Y0398676D01*
X0140387Y0398618D01*
X0140533Y0398556D01*
X0140677Y0398491D01*
X0140819Y0398421D01*
X0140960Y0398349D01*
X0141099Y0398272D01*
X0141235Y0398193D01*
X0141370Y0398109D01*
X0141503Y0398023D01*
X0141633Y0397933D01*
X0141761Y0397840D01*
X0141887Y0397744D01*
X0142010Y0397644D01*
X0142131Y0397542D01*
X0142249Y0397437D01*
X0142364Y0397328D01*
X0142477Y0397217D01*
X0142587Y0397103D01*
X0142694Y0396986D01*
X0142798Y0396867D01*
X0142899Y0396745D01*
X0142996Y0396620D01*
X0143091Y0396493D01*
X0143182Y0396364D01*
X0143271Y0396233D01*
X0143355Y0396099D01*
X0143437Y0395963D01*
X0143515Y0395826D01*
X0143589Y0395686D01*
X0143660Y0395544D01*
X0143728Y0395401D01*
X0143792Y0395256D01*
X0143852Y0395110D01*
X0143908Y0394962D01*
X0143961Y0394813D01*
X0144010Y0394662D01*
X0144055Y0394510D01*
X0144096Y0394357D01*
X0144134Y0394204D01*
X0144167Y0394049D01*
X0144197Y0393893D01*
X0144223Y0393737D01*
X0144244Y0393580D01*
X0144262Y0393423D01*
X0144276Y0393265D01*
X0144286Y0393107D01*
X0144292Y0392949D01*
X0144294Y0392791D01*
X0144292Y0392633D01*
X0144286Y0392475D01*
X0144276Y0392317D01*
X0144262Y0392159D01*
X0144244Y0392002D01*
X0144223Y0391845D01*
X0144197Y0391689D01*
X0144167Y0391533D01*
X0144134Y0391378D01*
X0144096Y0391225D01*
X0144055Y0391072D01*
X0144010Y0390920D01*
X0143961Y0390769D01*
X0143908Y0390620D01*
X0143852Y0390472D01*
X0143792Y0390326D01*
X0143728Y0390181D01*
X0143660Y0390038D01*
X0143589Y0389896D01*
X0143515Y0389756D01*
X0143437Y0389619D01*
X0143355Y0389483D01*
X0143271Y0389349D01*
X0143182Y0389218D01*
X0143091Y0389089D01*
X0142996Y0388962D01*
X0142899Y0388837D01*
X0142798Y0388715D01*
X0142694Y0388596D01*
X0142587Y0388479D01*
X0142477Y0388365D01*
X0142364Y0388254D01*
X0142249Y0388145D01*
X0142131Y0388040D01*
X0142010Y0387938D01*
X0141887Y0387838D01*
X0141761Y0387742D01*
X0141633Y0387649D01*
X0141503Y0387559D01*
X0141370Y0387473D01*
X0141235Y0387389D01*
X0141099Y0387310D01*
X0140960Y0387233D01*
X0140819Y0387161D01*
X0140677Y0387091D01*
X0140533Y0387026D01*
X0140387Y0386964D01*
X0140240Y0386906D01*
X0140091Y0386851D01*
X0139941Y0386800D01*
X0139790Y0386753D01*
X0139638Y0386710D01*
X0139485Y0386671D01*
X0139330Y0386635D01*
X0139175Y0386604D01*
X0139019Y0386576D01*
X0138863Y0386552D01*
X0138706Y0386532D01*
X0138548Y0386516D01*
X0138391Y0386504D01*
X0138232Y0386496D01*
X0138074Y0386492D01*
X0137916Y0386492D01*
X0137758Y0386496D01*
X0137599Y0386504D01*
X0137442Y0386516D01*
X0137284Y0386532D01*
X0137127Y0386552D01*
X0136971Y0386576D01*
X0136815Y0386604D01*
X0136660Y0386635D01*
X0136505Y0386671D01*
X0136352Y0386710D01*
X0136200Y0386753D01*
X0136049Y0386800D01*
X0135899Y0386851D01*
X0135750Y0386906D01*
X0135603Y0386964D01*
X0135457Y0387026D01*
X0135313Y0387091D01*
X0135171Y0387161D01*
X0135030Y0387233D01*
X0134891Y0387310D01*
X0134755Y0387389D01*
X0134620Y0387473D01*
X0134487Y0387559D01*
X0134357Y0387649D01*
X0134229Y0387742D01*
X0134103Y0387838D01*
X0133980Y0387938D01*
X0133859Y0388040D01*
X0133741Y0388145D01*
X0133626Y0388254D01*
X0133513Y0388365D01*
X0133403Y0388479D01*
X0133296Y0388596D01*
X0133192Y0388715D01*
X0133091Y0388837D01*
X0132994Y0388962D01*
X0132899Y0389089D01*
X0132808Y0389218D01*
X0132719Y0389349D01*
X0132635Y0389483D01*
X0132553Y0389619D01*
X0132475Y0389756D01*
X0132401Y0389896D01*
X0132330Y0390038D01*
X0132262Y0390181D01*
X0132198Y0390326D01*
X0132138Y0390472D01*
X0132082Y0390620D01*
X0132029Y0390769D01*
X0131980Y0390920D01*
X0131935Y0391072D01*
X0131894Y0391225D01*
X0131856Y0391378D01*
X0131823Y0391533D01*
X0131793Y0391689D01*
X0131767Y0391845D01*
X0131746Y0392002D01*
X0131728Y0392159D01*
X0131714Y0392317D01*
X0131704Y0392475D01*
X0131698Y0392633D01*
X0131696Y0392791D01*
M02*
