G75*
%MOIN*%
%OFA0B0*%
%FSLAX25Y25*%
%IPPOS*%
%LPD*%
%AMOC8*
5,1,8,0,0,1.08239X$1,22.5*
%
%ADD10C,0.00500*%
%ADD11C,0.00300*%
%ADD12C,0.00400*%
D10*
X0220888Y0080879D02*
X0220888Y0091379D01*
X0289138Y0091379D01*
X0289138Y0080879D01*
X0220888Y0080879D01*
X0222638Y0083629D02*
X0222640Y0083699D01*
X0222646Y0083769D01*
X0222656Y0083838D01*
X0222669Y0083907D01*
X0222687Y0083975D01*
X0222708Y0084042D01*
X0222733Y0084107D01*
X0222762Y0084171D01*
X0222794Y0084234D01*
X0222830Y0084294D01*
X0222869Y0084352D01*
X0222911Y0084408D01*
X0222956Y0084462D01*
X0223004Y0084513D01*
X0223055Y0084561D01*
X0223109Y0084606D01*
X0223165Y0084648D01*
X0223223Y0084687D01*
X0223283Y0084723D01*
X0223346Y0084755D01*
X0223410Y0084784D01*
X0223475Y0084809D01*
X0223542Y0084830D01*
X0223610Y0084848D01*
X0223679Y0084861D01*
X0223748Y0084871D01*
X0223818Y0084877D01*
X0223888Y0084879D01*
X0223958Y0084877D01*
X0224028Y0084871D01*
X0224097Y0084861D01*
X0224166Y0084848D01*
X0224234Y0084830D01*
X0224301Y0084809D01*
X0224366Y0084784D01*
X0224430Y0084755D01*
X0224493Y0084723D01*
X0224553Y0084687D01*
X0224611Y0084648D01*
X0224667Y0084606D01*
X0224721Y0084561D01*
X0224772Y0084513D01*
X0224820Y0084462D01*
X0224865Y0084408D01*
X0224907Y0084352D01*
X0224946Y0084294D01*
X0224982Y0084234D01*
X0225014Y0084171D01*
X0225043Y0084107D01*
X0225068Y0084042D01*
X0225089Y0083975D01*
X0225107Y0083907D01*
X0225120Y0083838D01*
X0225130Y0083769D01*
X0225136Y0083699D01*
X0225138Y0083629D01*
X0225136Y0083559D01*
X0225130Y0083489D01*
X0225120Y0083420D01*
X0225107Y0083351D01*
X0225089Y0083283D01*
X0225068Y0083216D01*
X0225043Y0083151D01*
X0225014Y0083087D01*
X0224982Y0083024D01*
X0224946Y0082964D01*
X0224907Y0082906D01*
X0224865Y0082850D01*
X0224820Y0082796D01*
X0224772Y0082745D01*
X0224721Y0082697D01*
X0224667Y0082652D01*
X0224611Y0082610D01*
X0224553Y0082571D01*
X0224493Y0082535D01*
X0224430Y0082503D01*
X0224366Y0082474D01*
X0224301Y0082449D01*
X0224234Y0082428D01*
X0224166Y0082410D01*
X0224097Y0082397D01*
X0224028Y0082387D01*
X0223958Y0082381D01*
X0223888Y0082379D01*
X0223818Y0082381D01*
X0223748Y0082387D01*
X0223679Y0082397D01*
X0223610Y0082410D01*
X0223542Y0082428D01*
X0223475Y0082449D01*
X0223410Y0082474D01*
X0223346Y0082503D01*
X0223283Y0082535D01*
X0223223Y0082571D01*
X0223165Y0082610D01*
X0223109Y0082652D01*
X0223055Y0082697D01*
X0223004Y0082745D01*
X0222956Y0082796D01*
X0222911Y0082850D01*
X0222869Y0082906D01*
X0222830Y0082964D01*
X0222794Y0083024D01*
X0222762Y0083087D01*
X0222733Y0083151D01*
X0222708Y0083216D01*
X0222687Y0083283D01*
X0222669Y0083351D01*
X0222656Y0083420D01*
X0222646Y0083489D01*
X0222640Y0083559D01*
X0222638Y0083629D01*
X0222638Y0088404D02*
X0222640Y0088474D01*
X0222646Y0088544D01*
X0222656Y0088613D01*
X0222669Y0088682D01*
X0222687Y0088750D01*
X0222708Y0088817D01*
X0222733Y0088882D01*
X0222762Y0088946D01*
X0222794Y0089009D01*
X0222830Y0089069D01*
X0222869Y0089127D01*
X0222911Y0089183D01*
X0222956Y0089237D01*
X0223004Y0089288D01*
X0223055Y0089336D01*
X0223109Y0089381D01*
X0223165Y0089423D01*
X0223223Y0089462D01*
X0223283Y0089498D01*
X0223346Y0089530D01*
X0223410Y0089559D01*
X0223475Y0089584D01*
X0223542Y0089605D01*
X0223610Y0089623D01*
X0223679Y0089636D01*
X0223748Y0089646D01*
X0223818Y0089652D01*
X0223888Y0089654D01*
X0223958Y0089652D01*
X0224028Y0089646D01*
X0224097Y0089636D01*
X0224166Y0089623D01*
X0224234Y0089605D01*
X0224301Y0089584D01*
X0224366Y0089559D01*
X0224430Y0089530D01*
X0224493Y0089498D01*
X0224553Y0089462D01*
X0224611Y0089423D01*
X0224667Y0089381D01*
X0224721Y0089336D01*
X0224772Y0089288D01*
X0224820Y0089237D01*
X0224865Y0089183D01*
X0224907Y0089127D01*
X0224946Y0089069D01*
X0224982Y0089009D01*
X0225014Y0088946D01*
X0225043Y0088882D01*
X0225068Y0088817D01*
X0225089Y0088750D01*
X0225107Y0088682D01*
X0225120Y0088613D01*
X0225130Y0088544D01*
X0225136Y0088474D01*
X0225138Y0088404D01*
X0225136Y0088334D01*
X0225130Y0088264D01*
X0225120Y0088195D01*
X0225107Y0088126D01*
X0225089Y0088058D01*
X0225068Y0087991D01*
X0225043Y0087926D01*
X0225014Y0087862D01*
X0224982Y0087799D01*
X0224946Y0087739D01*
X0224907Y0087681D01*
X0224865Y0087625D01*
X0224820Y0087571D01*
X0224772Y0087520D01*
X0224721Y0087472D01*
X0224667Y0087427D01*
X0224611Y0087385D01*
X0224553Y0087346D01*
X0224493Y0087310D01*
X0224430Y0087278D01*
X0224366Y0087249D01*
X0224301Y0087224D01*
X0224234Y0087203D01*
X0224166Y0087185D01*
X0224097Y0087172D01*
X0224028Y0087162D01*
X0223958Y0087156D01*
X0223888Y0087154D01*
X0223818Y0087156D01*
X0223748Y0087162D01*
X0223679Y0087172D01*
X0223610Y0087185D01*
X0223542Y0087203D01*
X0223475Y0087224D01*
X0223410Y0087249D01*
X0223346Y0087278D01*
X0223283Y0087310D01*
X0223223Y0087346D01*
X0223165Y0087385D01*
X0223109Y0087427D01*
X0223055Y0087472D01*
X0223004Y0087520D01*
X0222956Y0087571D01*
X0222911Y0087625D01*
X0222869Y0087681D01*
X0222830Y0087739D01*
X0222794Y0087799D01*
X0222762Y0087862D01*
X0222733Y0087926D01*
X0222708Y0087991D01*
X0222687Y0088058D01*
X0222669Y0088126D01*
X0222656Y0088195D01*
X0222646Y0088264D01*
X0222640Y0088334D01*
X0222638Y0088404D01*
X0227413Y0088404D02*
X0227415Y0088474D01*
X0227421Y0088544D01*
X0227431Y0088613D01*
X0227444Y0088682D01*
X0227462Y0088750D01*
X0227483Y0088817D01*
X0227508Y0088882D01*
X0227537Y0088946D01*
X0227569Y0089009D01*
X0227605Y0089069D01*
X0227644Y0089127D01*
X0227686Y0089183D01*
X0227731Y0089237D01*
X0227779Y0089288D01*
X0227830Y0089336D01*
X0227884Y0089381D01*
X0227940Y0089423D01*
X0227998Y0089462D01*
X0228058Y0089498D01*
X0228121Y0089530D01*
X0228185Y0089559D01*
X0228250Y0089584D01*
X0228317Y0089605D01*
X0228385Y0089623D01*
X0228454Y0089636D01*
X0228523Y0089646D01*
X0228593Y0089652D01*
X0228663Y0089654D01*
X0228733Y0089652D01*
X0228803Y0089646D01*
X0228872Y0089636D01*
X0228941Y0089623D01*
X0229009Y0089605D01*
X0229076Y0089584D01*
X0229141Y0089559D01*
X0229205Y0089530D01*
X0229268Y0089498D01*
X0229328Y0089462D01*
X0229386Y0089423D01*
X0229442Y0089381D01*
X0229496Y0089336D01*
X0229547Y0089288D01*
X0229595Y0089237D01*
X0229640Y0089183D01*
X0229682Y0089127D01*
X0229721Y0089069D01*
X0229757Y0089009D01*
X0229789Y0088946D01*
X0229818Y0088882D01*
X0229843Y0088817D01*
X0229864Y0088750D01*
X0229882Y0088682D01*
X0229895Y0088613D01*
X0229905Y0088544D01*
X0229911Y0088474D01*
X0229913Y0088404D01*
X0229911Y0088334D01*
X0229905Y0088264D01*
X0229895Y0088195D01*
X0229882Y0088126D01*
X0229864Y0088058D01*
X0229843Y0087991D01*
X0229818Y0087926D01*
X0229789Y0087862D01*
X0229757Y0087799D01*
X0229721Y0087739D01*
X0229682Y0087681D01*
X0229640Y0087625D01*
X0229595Y0087571D01*
X0229547Y0087520D01*
X0229496Y0087472D01*
X0229442Y0087427D01*
X0229386Y0087385D01*
X0229328Y0087346D01*
X0229268Y0087310D01*
X0229205Y0087278D01*
X0229141Y0087249D01*
X0229076Y0087224D01*
X0229009Y0087203D01*
X0228941Y0087185D01*
X0228872Y0087172D01*
X0228803Y0087162D01*
X0228733Y0087156D01*
X0228663Y0087154D01*
X0228593Y0087156D01*
X0228523Y0087162D01*
X0228454Y0087172D01*
X0228385Y0087185D01*
X0228317Y0087203D01*
X0228250Y0087224D01*
X0228185Y0087249D01*
X0228121Y0087278D01*
X0228058Y0087310D01*
X0227998Y0087346D01*
X0227940Y0087385D01*
X0227884Y0087427D01*
X0227830Y0087472D01*
X0227779Y0087520D01*
X0227731Y0087571D01*
X0227686Y0087625D01*
X0227644Y0087681D01*
X0227605Y0087739D01*
X0227569Y0087799D01*
X0227537Y0087862D01*
X0227508Y0087926D01*
X0227483Y0087991D01*
X0227462Y0088058D01*
X0227444Y0088126D01*
X0227431Y0088195D01*
X0227421Y0088264D01*
X0227415Y0088334D01*
X0227413Y0088404D01*
X0227413Y0083629D02*
X0227415Y0083699D01*
X0227421Y0083769D01*
X0227431Y0083838D01*
X0227444Y0083907D01*
X0227462Y0083975D01*
X0227483Y0084042D01*
X0227508Y0084107D01*
X0227537Y0084171D01*
X0227569Y0084234D01*
X0227605Y0084294D01*
X0227644Y0084352D01*
X0227686Y0084408D01*
X0227731Y0084462D01*
X0227779Y0084513D01*
X0227830Y0084561D01*
X0227884Y0084606D01*
X0227940Y0084648D01*
X0227998Y0084687D01*
X0228058Y0084723D01*
X0228121Y0084755D01*
X0228185Y0084784D01*
X0228250Y0084809D01*
X0228317Y0084830D01*
X0228385Y0084848D01*
X0228454Y0084861D01*
X0228523Y0084871D01*
X0228593Y0084877D01*
X0228663Y0084879D01*
X0228733Y0084877D01*
X0228803Y0084871D01*
X0228872Y0084861D01*
X0228941Y0084848D01*
X0229009Y0084830D01*
X0229076Y0084809D01*
X0229141Y0084784D01*
X0229205Y0084755D01*
X0229268Y0084723D01*
X0229328Y0084687D01*
X0229386Y0084648D01*
X0229442Y0084606D01*
X0229496Y0084561D01*
X0229547Y0084513D01*
X0229595Y0084462D01*
X0229640Y0084408D01*
X0229682Y0084352D01*
X0229721Y0084294D01*
X0229757Y0084234D01*
X0229789Y0084171D01*
X0229818Y0084107D01*
X0229843Y0084042D01*
X0229864Y0083975D01*
X0229882Y0083907D01*
X0229895Y0083838D01*
X0229905Y0083769D01*
X0229911Y0083699D01*
X0229913Y0083629D01*
X0229911Y0083559D01*
X0229905Y0083489D01*
X0229895Y0083420D01*
X0229882Y0083351D01*
X0229864Y0083283D01*
X0229843Y0083216D01*
X0229818Y0083151D01*
X0229789Y0083087D01*
X0229757Y0083024D01*
X0229721Y0082964D01*
X0229682Y0082906D01*
X0229640Y0082850D01*
X0229595Y0082796D01*
X0229547Y0082745D01*
X0229496Y0082697D01*
X0229442Y0082652D01*
X0229386Y0082610D01*
X0229328Y0082571D01*
X0229268Y0082535D01*
X0229205Y0082503D01*
X0229141Y0082474D01*
X0229076Y0082449D01*
X0229009Y0082428D01*
X0228941Y0082410D01*
X0228872Y0082397D01*
X0228803Y0082387D01*
X0228733Y0082381D01*
X0228663Y0082379D01*
X0228593Y0082381D01*
X0228523Y0082387D01*
X0228454Y0082397D01*
X0228385Y0082410D01*
X0228317Y0082428D01*
X0228250Y0082449D01*
X0228185Y0082474D01*
X0228121Y0082503D01*
X0228058Y0082535D01*
X0227998Y0082571D01*
X0227940Y0082610D01*
X0227884Y0082652D01*
X0227830Y0082697D01*
X0227779Y0082745D01*
X0227731Y0082796D01*
X0227686Y0082850D01*
X0227644Y0082906D01*
X0227605Y0082964D01*
X0227569Y0083024D01*
X0227537Y0083087D01*
X0227508Y0083151D01*
X0227483Y0083216D01*
X0227462Y0083283D01*
X0227444Y0083351D01*
X0227431Y0083420D01*
X0227421Y0083489D01*
X0227415Y0083559D01*
X0227413Y0083629D01*
X0232188Y0083629D02*
X0232190Y0083699D01*
X0232196Y0083769D01*
X0232206Y0083838D01*
X0232219Y0083907D01*
X0232237Y0083975D01*
X0232258Y0084042D01*
X0232283Y0084107D01*
X0232312Y0084171D01*
X0232344Y0084234D01*
X0232380Y0084294D01*
X0232419Y0084352D01*
X0232461Y0084408D01*
X0232506Y0084462D01*
X0232554Y0084513D01*
X0232605Y0084561D01*
X0232659Y0084606D01*
X0232715Y0084648D01*
X0232773Y0084687D01*
X0232833Y0084723D01*
X0232896Y0084755D01*
X0232960Y0084784D01*
X0233025Y0084809D01*
X0233092Y0084830D01*
X0233160Y0084848D01*
X0233229Y0084861D01*
X0233298Y0084871D01*
X0233368Y0084877D01*
X0233438Y0084879D01*
X0233508Y0084877D01*
X0233578Y0084871D01*
X0233647Y0084861D01*
X0233716Y0084848D01*
X0233784Y0084830D01*
X0233851Y0084809D01*
X0233916Y0084784D01*
X0233980Y0084755D01*
X0234043Y0084723D01*
X0234103Y0084687D01*
X0234161Y0084648D01*
X0234217Y0084606D01*
X0234271Y0084561D01*
X0234322Y0084513D01*
X0234370Y0084462D01*
X0234415Y0084408D01*
X0234457Y0084352D01*
X0234496Y0084294D01*
X0234532Y0084234D01*
X0234564Y0084171D01*
X0234593Y0084107D01*
X0234618Y0084042D01*
X0234639Y0083975D01*
X0234657Y0083907D01*
X0234670Y0083838D01*
X0234680Y0083769D01*
X0234686Y0083699D01*
X0234688Y0083629D01*
X0234686Y0083559D01*
X0234680Y0083489D01*
X0234670Y0083420D01*
X0234657Y0083351D01*
X0234639Y0083283D01*
X0234618Y0083216D01*
X0234593Y0083151D01*
X0234564Y0083087D01*
X0234532Y0083024D01*
X0234496Y0082964D01*
X0234457Y0082906D01*
X0234415Y0082850D01*
X0234370Y0082796D01*
X0234322Y0082745D01*
X0234271Y0082697D01*
X0234217Y0082652D01*
X0234161Y0082610D01*
X0234103Y0082571D01*
X0234043Y0082535D01*
X0233980Y0082503D01*
X0233916Y0082474D01*
X0233851Y0082449D01*
X0233784Y0082428D01*
X0233716Y0082410D01*
X0233647Y0082397D01*
X0233578Y0082387D01*
X0233508Y0082381D01*
X0233438Y0082379D01*
X0233368Y0082381D01*
X0233298Y0082387D01*
X0233229Y0082397D01*
X0233160Y0082410D01*
X0233092Y0082428D01*
X0233025Y0082449D01*
X0232960Y0082474D01*
X0232896Y0082503D01*
X0232833Y0082535D01*
X0232773Y0082571D01*
X0232715Y0082610D01*
X0232659Y0082652D01*
X0232605Y0082697D01*
X0232554Y0082745D01*
X0232506Y0082796D01*
X0232461Y0082850D01*
X0232419Y0082906D01*
X0232380Y0082964D01*
X0232344Y0083024D01*
X0232312Y0083087D01*
X0232283Y0083151D01*
X0232258Y0083216D01*
X0232237Y0083283D01*
X0232219Y0083351D01*
X0232206Y0083420D01*
X0232196Y0083489D01*
X0232190Y0083559D01*
X0232188Y0083629D01*
X0232188Y0088404D02*
X0232190Y0088474D01*
X0232196Y0088544D01*
X0232206Y0088613D01*
X0232219Y0088682D01*
X0232237Y0088750D01*
X0232258Y0088817D01*
X0232283Y0088882D01*
X0232312Y0088946D01*
X0232344Y0089009D01*
X0232380Y0089069D01*
X0232419Y0089127D01*
X0232461Y0089183D01*
X0232506Y0089237D01*
X0232554Y0089288D01*
X0232605Y0089336D01*
X0232659Y0089381D01*
X0232715Y0089423D01*
X0232773Y0089462D01*
X0232833Y0089498D01*
X0232896Y0089530D01*
X0232960Y0089559D01*
X0233025Y0089584D01*
X0233092Y0089605D01*
X0233160Y0089623D01*
X0233229Y0089636D01*
X0233298Y0089646D01*
X0233368Y0089652D01*
X0233438Y0089654D01*
X0233508Y0089652D01*
X0233578Y0089646D01*
X0233647Y0089636D01*
X0233716Y0089623D01*
X0233784Y0089605D01*
X0233851Y0089584D01*
X0233916Y0089559D01*
X0233980Y0089530D01*
X0234043Y0089498D01*
X0234103Y0089462D01*
X0234161Y0089423D01*
X0234217Y0089381D01*
X0234271Y0089336D01*
X0234322Y0089288D01*
X0234370Y0089237D01*
X0234415Y0089183D01*
X0234457Y0089127D01*
X0234496Y0089069D01*
X0234532Y0089009D01*
X0234564Y0088946D01*
X0234593Y0088882D01*
X0234618Y0088817D01*
X0234639Y0088750D01*
X0234657Y0088682D01*
X0234670Y0088613D01*
X0234680Y0088544D01*
X0234686Y0088474D01*
X0234688Y0088404D01*
X0234686Y0088334D01*
X0234680Y0088264D01*
X0234670Y0088195D01*
X0234657Y0088126D01*
X0234639Y0088058D01*
X0234618Y0087991D01*
X0234593Y0087926D01*
X0234564Y0087862D01*
X0234532Y0087799D01*
X0234496Y0087739D01*
X0234457Y0087681D01*
X0234415Y0087625D01*
X0234370Y0087571D01*
X0234322Y0087520D01*
X0234271Y0087472D01*
X0234217Y0087427D01*
X0234161Y0087385D01*
X0234103Y0087346D01*
X0234043Y0087310D01*
X0233980Y0087278D01*
X0233916Y0087249D01*
X0233851Y0087224D01*
X0233784Y0087203D01*
X0233716Y0087185D01*
X0233647Y0087172D01*
X0233578Y0087162D01*
X0233508Y0087156D01*
X0233438Y0087154D01*
X0233368Y0087156D01*
X0233298Y0087162D01*
X0233229Y0087172D01*
X0233160Y0087185D01*
X0233092Y0087203D01*
X0233025Y0087224D01*
X0232960Y0087249D01*
X0232896Y0087278D01*
X0232833Y0087310D01*
X0232773Y0087346D01*
X0232715Y0087385D01*
X0232659Y0087427D01*
X0232605Y0087472D01*
X0232554Y0087520D01*
X0232506Y0087571D01*
X0232461Y0087625D01*
X0232419Y0087681D01*
X0232380Y0087739D01*
X0232344Y0087799D01*
X0232312Y0087862D01*
X0232283Y0087926D01*
X0232258Y0087991D01*
X0232237Y0088058D01*
X0232219Y0088126D01*
X0232206Y0088195D01*
X0232196Y0088264D01*
X0232190Y0088334D01*
X0232188Y0088404D01*
X0236963Y0088404D02*
X0236965Y0088474D01*
X0236971Y0088544D01*
X0236981Y0088613D01*
X0236994Y0088682D01*
X0237012Y0088750D01*
X0237033Y0088817D01*
X0237058Y0088882D01*
X0237087Y0088946D01*
X0237119Y0089009D01*
X0237155Y0089069D01*
X0237194Y0089127D01*
X0237236Y0089183D01*
X0237281Y0089237D01*
X0237329Y0089288D01*
X0237380Y0089336D01*
X0237434Y0089381D01*
X0237490Y0089423D01*
X0237548Y0089462D01*
X0237608Y0089498D01*
X0237671Y0089530D01*
X0237735Y0089559D01*
X0237800Y0089584D01*
X0237867Y0089605D01*
X0237935Y0089623D01*
X0238004Y0089636D01*
X0238073Y0089646D01*
X0238143Y0089652D01*
X0238213Y0089654D01*
X0238283Y0089652D01*
X0238353Y0089646D01*
X0238422Y0089636D01*
X0238491Y0089623D01*
X0238559Y0089605D01*
X0238626Y0089584D01*
X0238691Y0089559D01*
X0238755Y0089530D01*
X0238818Y0089498D01*
X0238878Y0089462D01*
X0238936Y0089423D01*
X0238992Y0089381D01*
X0239046Y0089336D01*
X0239097Y0089288D01*
X0239145Y0089237D01*
X0239190Y0089183D01*
X0239232Y0089127D01*
X0239271Y0089069D01*
X0239307Y0089009D01*
X0239339Y0088946D01*
X0239368Y0088882D01*
X0239393Y0088817D01*
X0239414Y0088750D01*
X0239432Y0088682D01*
X0239445Y0088613D01*
X0239455Y0088544D01*
X0239461Y0088474D01*
X0239463Y0088404D01*
X0239461Y0088334D01*
X0239455Y0088264D01*
X0239445Y0088195D01*
X0239432Y0088126D01*
X0239414Y0088058D01*
X0239393Y0087991D01*
X0239368Y0087926D01*
X0239339Y0087862D01*
X0239307Y0087799D01*
X0239271Y0087739D01*
X0239232Y0087681D01*
X0239190Y0087625D01*
X0239145Y0087571D01*
X0239097Y0087520D01*
X0239046Y0087472D01*
X0238992Y0087427D01*
X0238936Y0087385D01*
X0238878Y0087346D01*
X0238818Y0087310D01*
X0238755Y0087278D01*
X0238691Y0087249D01*
X0238626Y0087224D01*
X0238559Y0087203D01*
X0238491Y0087185D01*
X0238422Y0087172D01*
X0238353Y0087162D01*
X0238283Y0087156D01*
X0238213Y0087154D01*
X0238143Y0087156D01*
X0238073Y0087162D01*
X0238004Y0087172D01*
X0237935Y0087185D01*
X0237867Y0087203D01*
X0237800Y0087224D01*
X0237735Y0087249D01*
X0237671Y0087278D01*
X0237608Y0087310D01*
X0237548Y0087346D01*
X0237490Y0087385D01*
X0237434Y0087427D01*
X0237380Y0087472D01*
X0237329Y0087520D01*
X0237281Y0087571D01*
X0237236Y0087625D01*
X0237194Y0087681D01*
X0237155Y0087739D01*
X0237119Y0087799D01*
X0237087Y0087862D01*
X0237058Y0087926D01*
X0237033Y0087991D01*
X0237012Y0088058D01*
X0236994Y0088126D01*
X0236981Y0088195D01*
X0236971Y0088264D01*
X0236965Y0088334D01*
X0236963Y0088404D01*
X0236963Y0083629D02*
X0236965Y0083699D01*
X0236971Y0083769D01*
X0236981Y0083838D01*
X0236994Y0083907D01*
X0237012Y0083975D01*
X0237033Y0084042D01*
X0237058Y0084107D01*
X0237087Y0084171D01*
X0237119Y0084234D01*
X0237155Y0084294D01*
X0237194Y0084352D01*
X0237236Y0084408D01*
X0237281Y0084462D01*
X0237329Y0084513D01*
X0237380Y0084561D01*
X0237434Y0084606D01*
X0237490Y0084648D01*
X0237548Y0084687D01*
X0237608Y0084723D01*
X0237671Y0084755D01*
X0237735Y0084784D01*
X0237800Y0084809D01*
X0237867Y0084830D01*
X0237935Y0084848D01*
X0238004Y0084861D01*
X0238073Y0084871D01*
X0238143Y0084877D01*
X0238213Y0084879D01*
X0238283Y0084877D01*
X0238353Y0084871D01*
X0238422Y0084861D01*
X0238491Y0084848D01*
X0238559Y0084830D01*
X0238626Y0084809D01*
X0238691Y0084784D01*
X0238755Y0084755D01*
X0238818Y0084723D01*
X0238878Y0084687D01*
X0238936Y0084648D01*
X0238992Y0084606D01*
X0239046Y0084561D01*
X0239097Y0084513D01*
X0239145Y0084462D01*
X0239190Y0084408D01*
X0239232Y0084352D01*
X0239271Y0084294D01*
X0239307Y0084234D01*
X0239339Y0084171D01*
X0239368Y0084107D01*
X0239393Y0084042D01*
X0239414Y0083975D01*
X0239432Y0083907D01*
X0239445Y0083838D01*
X0239455Y0083769D01*
X0239461Y0083699D01*
X0239463Y0083629D01*
X0239461Y0083559D01*
X0239455Y0083489D01*
X0239445Y0083420D01*
X0239432Y0083351D01*
X0239414Y0083283D01*
X0239393Y0083216D01*
X0239368Y0083151D01*
X0239339Y0083087D01*
X0239307Y0083024D01*
X0239271Y0082964D01*
X0239232Y0082906D01*
X0239190Y0082850D01*
X0239145Y0082796D01*
X0239097Y0082745D01*
X0239046Y0082697D01*
X0238992Y0082652D01*
X0238936Y0082610D01*
X0238878Y0082571D01*
X0238818Y0082535D01*
X0238755Y0082503D01*
X0238691Y0082474D01*
X0238626Y0082449D01*
X0238559Y0082428D01*
X0238491Y0082410D01*
X0238422Y0082397D01*
X0238353Y0082387D01*
X0238283Y0082381D01*
X0238213Y0082379D01*
X0238143Y0082381D01*
X0238073Y0082387D01*
X0238004Y0082397D01*
X0237935Y0082410D01*
X0237867Y0082428D01*
X0237800Y0082449D01*
X0237735Y0082474D01*
X0237671Y0082503D01*
X0237608Y0082535D01*
X0237548Y0082571D01*
X0237490Y0082610D01*
X0237434Y0082652D01*
X0237380Y0082697D01*
X0237329Y0082745D01*
X0237281Y0082796D01*
X0237236Y0082850D01*
X0237194Y0082906D01*
X0237155Y0082964D01*
X0237119Y0083024D01*
X0237087Y0083087D01*
X0237058Y0083151D01*
X0237033Y0083216D01*
X0237012Y0083283D01*
X0236994Y0083351D01*
X0236981Y0083420D01*
X0236971Y0083489D01*
X0236965Y0083559D01*
X0236963Y0083629D01*
X0241738Y0083629D02*
X0241740Y0083699D01*
X0241746Y0083769D01*
X0241756Y0083838D01*
X0241769Y0083907D01*
X0241787Y0083975D01*
X0241808Y0084042D01*
X0241833Y0084107D01*
X0241862Y0084171D01*
X0241894Y0084234D01*
X0241930Y0084294D01*
X0241969Y0084352D01*
X0242011Y0084408D01*
X0242056Y0084462D01*
X0242104Y0084513D01*
X0242155Y0084561D01*
X0242209Y0084606D01*
X0242265Y0084648D01*
X0242323Y0084687D01*
X0242383Y0084723D01*
X0242446Y0084755D01*
X0242510Y0084784D01*
X0242575Y0084809D01*
X0242642Y0084830D01*
X0242710Y0084848D01*
X0242779Y0084861D01*
X0242848Y0084871D01*
X0242918Y0084877D01*
X0242988Y0084879D01*
X0243058Y0084877D01*
X0243128Y0084871D01*
X0243197Y0084861D01*
X0243266Y0084848D01*
X0243334Y0084830D01*
X0243401Y0084809D01*
X0243466Y0084784D01*
X0243530Y0084755D01*
X0243593Y0084723D01*
X0243653Y0084687D01*
X0243711Y0084648D01*
X0243767Y0084606D01*
X0243821Y0084561D01*
X0243872Y0084513D01*
X0243920Y0084462D01*
X0243965Y0084408D01*
X0244007Y0084352D01*
X0244046Y0084294D01*
X0244082Y0084234D01*
X0244114Y0084171D01*
X0244143Y0084107D01*
X0244168Y0084042D01*
X0244189Y0083975D01*
X0244207Y0083907D01*
X0244220Y0083838D01*
X0244230Y0083769D01*
X0244236Y0083699D01*
X0244238Y0083629D01*
X0244236Y0083559D01*
X0244230Y0083489D01*
X0244220Y0083420D01*
X0244207Y0083351D01*
X0244189Y0083283D01*
X0244168Y0083216D01*
X0244143Y0083151D01*
X0244114Y0083087D01*
X0244082Y0083024D01*
X0244046Y0082964D01*
X0244007Y0082906D01*
X0243965Y0082850D01*
X0243920Y0082796D01*
X0243872Y0082745D01*
X0243821Y0082697D01*
X0243767Y0082652D01*
X0243711Y0082610D01*
X0243653Y0082571D01*
X0243593Y0082535D01*
X0243530Y0082503D01*
X0243466Y0082474D01*
X0243401Y0082449D01*
X0243334Y0082428D01*
X0243266Y0082410D01*
X0243197Y0082397D01*
X0243128Y0082387D01*
X0243058Y0082381D01*
X0242988Y0082379D01*
X0242918Y0082381D01*
X0242848Y0082387D01*
X0242779Y0082397D01*
X0242710Y0082410D01*
X0242642Y0082428D01*
X0242575Y0082449D01*
X0242510Y0082474D01*
X0242446Y0082503D01*
X0242383Y0082535D01*
X0242323Y0082571D01*
X0242265Y0082610D01*
X0242209Y0082652D01*
X0242155Y0082697D01*
X0242104Y0082745D01*
X0242056Y0082796D01*
X0242011Y0082850D01*
X0241969Y0082906D01*
X0241930Y0082964D01*
X0241894Y0083024D01*
X0241862Y0083087D01*
X0241833Y0083151D01*
X0241808Y0083216D01*
X0241787Y0083283D01*
X0241769Y0083351D01*
X0241756Y0083420D01*
X0241746Y0083489D01*
X0241740Y0083559D01*
X0241738Y0083629D01*
X0241738Y0088404D02*
X0241740Y0088474D01*
X0241746Y0088544D01*
X0241756Y0088613D01*
X0241769Y0088682D01*
X0241787Y0088750D01*
X0241808Y0088817D01*
X0241833Y0088882D01*
X0241862Y0088946D01*
X0241894Y0089009D01*
X0241930Y0089069D01*
X0241969Y0089127D01*
X0242011Y0089183D01*
X0242056Y0089237D01*
X0242104Y0089288D01*
X0242155Y0089336D01*
X0242209Y0089381D01*
X0242265Y0089423D01*
X0242323Y0089462D01*
X0242383Y0089498D01*
X0242446Y0089530D01*
X0242510Y0089559D01*
X0242575Y0089584D01*
X0242642Y0089605D01*
X0242710Y0089623D01*
X0242779Y0089636D01*
X0242848Y0089646D01*
X0242918Y0089652D01*
X0242988Y0089654D01*
X0243058Y0089652D01*
X0243128Y0089646D01*
X0243197Y0089636D01*
X0243266Y0089623D01*
X0243334Y0089605D01*
X0243401Y0089584D01*
X0243466Y0089559D01*
X0243530Y0089530D01*
X0243593Y0089498D01*
X0243653Y0089462D01*
X0243711Y0089423D01*
X0243767Y0089381D01*
X0243821Y0089336D01*
X0243872Y0089288D01*
X0243920Y0089237D01*
X0243965Y0089183D01*
X0244007Y0089127D01*
X0244046Y0089069D01*
X0244082Y0089009D01*
X0244114Y0088946D01*
X0244143Y0088882D01*
X0244168Y0088817D01*
X0244189Y0088750D01*
X0244207Y0088682D01*
X0244220Y0088613D01*
X0244230Y0088544D01*
X0244236Y0088474D01*
X0244238Y0088404D01*
X0244236Y0088334D01*
X0244230Y0088264D01*
X0244220Y0088195D01*
X0244207Y0088126D01*
X0244189Y0088058D01*
X0244168Y0087991D01*
X0244143Y0087926D01*
X0244114Y0087862D01*
X0244082Y0087799D01*
X0244046Y0087739D01*
X0244007Y0087681D01*
X0243965Y0087625D01*
X0243920Y0087571D01*
X0243872Y0087520D01*
X0243821Y0087472D01*
X0243767Y0087427D01*
X0243711Y0087385D01*
X0243653Y0087346D01*
X0243593Y0087310D01*
X0243530Y0087278D01*
X0243466Y0087249D01*
X0243401Y0087224D01*
X0243334Y0087203D01*
X0243266Y0087185D01*
X0243197Y0087172D01*
X0243128Y0087162D01*
X0243058Y0087156D01*
X0242988Y0087154D01*
X0242918Y0087156D01*
X0242848Y0087162D01*
X0242779Y0087172D01*
X0242710Y0087185D01*
X0242642Y0087203D01*
X0242575Y0087224D01*
X0242510Y0087249D01*
X0242446Y0087278D01*
X0242383Y0087310D01*
X0242323Y0087346D01*
X0242265Y0087385D01*
X0242209Y0087427D01*
X0242155Y0087472D01*
X0242104Y0087520D01*
X0242056Y0087571D01*
X0242011Y0087625D01*
X0241969Y0087681D01*
X0241930Y0087739D01*
X0241894Y0087799D01*
X0241862Y0087862D01*
X0241833Y0087926D01*
X0241808Y0087991D01*
X0241787Y0088058D01*
X0241769Y0088126D01*
X0241756Y0088195D01*
X0241746Y0088264D01*
X0241740Y0088334D01*
X0241738Y0088404D01*
X0246513Y0088404D02*
X0246515Y0088474D01*
X0246521Y0088544D01*
X0246531Y0088613D01*
X0246544Y0088682D01*
X0246562Y0088750D01*
X0246583Y0088817D01*
X0246608Y0088882D01*
X0246637Y0088946D01*
X0246669Y0089009D01*
X0246705Y0089069D01*
X0246744Y0089127D01*
X0246786Y0089183D01*
X0246831Y0089237D01*
X0246879Y0089288D01*
X0246930Y0089336D01*
X0246984Y0089381D01*
X0247040Y0089423D01*
X0247098Y0089462D01*
X0247158Y0089498D01*
X0247221Y0089530D01*
X0247285Y0089559D01*
X0247350Y0089584D01*
X0247417Y0089605D01*
X0247485Y0089623D01*
X0247554Y0089636D01*
X0247623Y0089646D01*
X0247693Y0089652D01*
X0247763Y0089654D01*
X0247833Y0089652D01*
X0247903Y0089646D01*
X0247972Y0089636D01*
X0248041Y0089623D01*
X0248109Y0089605D01*
X0248176Y0089584D01*
X0248241Y0089559D01*
X0248305Y0089530D01*
X0248368Y0089498D01*
X0248428Y0089462D01*
X0248486Y0089423D01*
X0248542Y0089381D01*
X0248596Y0089336D01*
X0248647Y0089288D01*
X0248695Y0089237D01*
X0248740Y0089183D01*
X0248782Y0089127D01*
X0248821Y0089069D01*
X0248857Y0089009D01*
X0248889Y0088946D01*
X0248918Y0088882D01*
X0248943Y0088817D01*
X0248964Y0088750D01*
X0248982Y0088682D01*
X0248995Y0088613D01*
X0249005Y0088544D01*
X0249011Y0088474D01*
X0249013Y0088404D01*
X0249011Y0088334D01*
X0249005Y0088264D01*
X0248995Y0088195D01*
X0248982Y0088126D01*
X0248964Y0088058D01*
X0248943Y0087991D01*
X0248918Y0087926D01*
X0248889Y0087862D01*
X0248857Y0087799D01*
X0248821Y0087739D01*
X0248782Y0087681D01*
X0248740Y0087625D01*
X0248695Y0087571D01*
X0248647Y0087520D01*
X0248596Y0087472D01*
X0248542Y0087427D01*
X0248486Y0087385D01*
X0248428Y0087346D01*
X0248368Y0087310D01*
X0248305Y0087278D01*
X0248241Y0087249D01*
X0248176Y0087224D01*
X0248109Y0087203D01*
X0248041Y0087185D01*
X0247972Y0087172D01*
X0247903Y0087162D01*
X0247833Y0087156D01*
X0247763Y0087154D01*
X0247693Y0087156D01*
X0247623Y0087162D01*
X0247554Y0087172D01*
X0247485Y0087185D01*
X0247417Y0087203D01*
X0247350Y0087224D01*
X0247285Y0087249D01*
X0247221Y0087278D01*
X0247158Y0087310D01*
X0247098Y0087346D01*
X0247040Y0087385D01*
X0246984Y0087427D01*
X0246930Y0087472D01*
X0246879Y0087520D01*
X0246831Y0087571D01*
X0246786Y0087625D01*
X0246744Y0087681D01*
X0246705Y0087739D01*
X0246669Y0087799D01*
X0246637Y0087862D01*
X0246608Y0087926D01*
X0246583Y0087991D01*
X0246562Y0088058D01*
X0246544Y0088126D01*
X0246531Y0088195D01*
X0246521Y0088264D01*
X0246515Y0088334D01*
X0246513Y0088404D01*
X0246513Y0083629D02*
X0246515Y0083699D01*
X0246521Y0083769D01*
X0246531Y0083838D01*
X0246544Y0083907D01*
X0246562Y0083975D01*
X0246583Y0084042D01*
X0246608Y0084107D01*
X0246637Y0084171D01*
X0246669Y0084234D01*
X0246705Y0084294D01*
X0246744Y0084352D01*
X0246786Y0084408D01*
X0246831Y0084462D01*
X0246879Y0084513D01*
X0246930Y0084561D01*
X0246984Y0084606D01*
X0247040Y0084648D01*
X0247098Y0084687D01*
X0247158Y0084723D01*
X0247221Y0084755D01*
X0247285Y0084784D01*
X0247350Y0084809D01*
X0247417Y0084830D01*
X0247485Y0084848D01*
X0247554Y0084861D01*
X0247623Y0084871D01*
X0247693Y0084877D01*
X0247763Y0084879D01*
X0247833Y0084877D01*
X0247903Y0084871D01*
X0247972Y0084861D01*
X0248041Y0084848D01*
X0248109Y0084830D01*
X0248176Y0084809D01*
X0248241Y0084784D01*
X0248305Y0084755D01*
X0248368Y0084723D01*
X0248428Y0084687D01*
X0248486Y0084648D01*
X0248542Y0084606D01*
X0248596Y0084561D01*
X0248647Y0084513D01*
X0248695Y0084462D01*
X0248740Y0084408D01*
X0248782Y0084352D01*
X0248821Y0084294D01*
X0248857Y0084234D01*
X0248889Y0084171D01*
X0248918Y0084107D01*
X0248943Y0084042D01*
X0248964Y0083975D01*
X0248982Y0083907D01*
X0248995Y0083838D01*
X0249005Y0083769D01*
X0249011Y0083699D01*
X0249013Y0083629D01*
X0249011Y0083559D01*
X0249005Y0083489D01*
X0248995Y0083420D01*
X0248982Y0083351D01*
X0248964Y0083283D01*
X0248943Y0083216D01*
X0248918Y0083151D01*
X0248889Y0083087D01*
X0248857Y0083024D01*
X0248821Y0082964D01*
X0248782Y0082906D01*
X0248740Y0082850D01*
X0248695Y0082796D01*
X0248647Y0082745D01*
X0248596Y0082697D01*
X0248542Y0082652D01*
X0248486Y0082610D01*
X0248428Y0082571D01*
X0248368Y0082535D01*
X0248305Y0082503D01*
X0248241Y0082474D01*
X0248176Y0082449D01*
X0248109Y0082428D01*
X0248041Y0082410D01*
X0247972Y0082397D01*
X0247903Y0082387D01*
X0247833Y0082381D01*
X0247763Y0082379D01*
X0247693Y0082381D01*
X0247623Y0082387D01*
X0247554Y0082397D01*
X0247485Y0082410D01*
X0247417Y0082428D01*
X0247350Y0082449D01*
X0247285Y0082474D01*
X0247221Y0082503D01*
X0247158Y0082535D01*
X0247098Y0082571D01*
X0247040Y0082610D01*
X0246984Y0082652D01*
X0246930Y0082697D01*
X0246879Y0082745D01*
X0246831Y0082796D01*
X0246786Y0082850D01*
X0246744Y0082906D01*
X0246705Y0082964D01*
X0246669Y0083024D01*
X0246637Y0083087D01*
X0246608Y0083151D01*
X0246583Y0083216D01*
X0246562Y0083283D01*
X0246544Y0083351D01*
X0246531Y0083420D01*
X0246521Y0083489D01*
X0246515Y0083559D01*
X0246513Y0083629D01*
X0251288Y0083629D02*
X0251290Y0083699D01*
X0251296Y0083769D01*
X0251306Y0083838D01*
X0251319Y0083907D01*
X0251337Y0083975D01*
X0251358Y0084042D01*
X0251383Y0084107D01*
X0251412Y0084171D01*
X0251444Y0084234D01*
X0251480Y0084294D01*
X0251519Y0084352D01*
X0251561Y0084408D01*
X0251606Y0084462D01*
X0251654Y0084513D01*
X0251705Y0084561D01*
X0251759Y0084606D01*
X0251815Y0084648D01*
X0251873Y0084687D01*
X0251933Y0084723D01*
X0251996Y0084755D01*
X0252060Y0084784D01*
X0252125Y0084809D01*
X0252192Y0084830D01*
X0252260Y0084848D01*
X0252329Y0084861D01*
X0252398Y0084871D01*
X0252468Y0084877D01*
X0252538Y0084879D01*
X0252608Y0084877D01*
X0252678Y0084871D01*
X0252747Y0084861D01*
X0252816Y0084848D01*
X0252884Y0084830D01*
X0252951Y0084809D01*
X0253016Y0084784D01*
X0253080Y0084755D01*
X0253143Y0084723D01*
X0253203Y0084687D01*
X0253261Y0084648D01*
X0253317Y0084606D01*
X0253371Y0084561D01*
X0253422Y0084513D01*
X0253470Y0084462D01*
X0253515Y0084408D01*
X0253557Y0084352D01*
X0253596Y0084294D01*
X0253632Y0084234D01*
X0253664Y0084171D01*
X0253693Y0084107D01*
X0253718Y0084042D01*
X0253739Y0083975D01*
X0253757Y0083907D01*
X0253770Y0083838D01*
X0253780Y0083769D01*
X0253786Y0083699D01*
X0253788Y0083629D01*
X0253786Y0083559D01*
X0253780Y0083489D01*
X0253770Y0083420D01*
X0253757Y0083351D01*
X0253739Y0083283D01*
X0253718Y0083216D01*
X0253693Y0083151D01*
X0253664Y0083087D01*
X0253632Y0083024D01*
X0253596Y0082964D01*
X0253557Y0082906D01*
X0253515Y0082850D01*
X0253470Y0082796D01*
X0253422Y0082745D01*
X0253371Y0082697D01*
X0253317Y0082652D01*
X0253261Y0082610D01*
X0253203Y0082571D01*
X0253143Y0082535D01*
X0253080Y0082503D01*
X0253016Y0082474D01*
X0252951Y0082449D01*
X0252884Y0082428D01*
X0252816Y0082410D01*
X0252747Y0082397D01*
X0252678Y0082387D01*
X0252608Y0082381D01*
X0252538Y0082379D01*
X0252468Y0082381D01*
X0252398Y0082387D01*
X0252329Y0082397D01*
X0252260Y0082410D01*
X0252192Y0082428D01*
X0252125Y0082449D01*
X0252060Y0082474D01*
X0251996Y0082503D01*
X0251933Y0082535D01*
X0251873Y0082571D01*
X0251815Y0082610D01*
X0251759Y0082652D01*
X0251705Y0082697D01*
X0251654Y0082745D01*
X0251606Y0082796D01*
X0251561Y0082850D01*
X0251519Y0082906D01*
X0251480Y0082964D01*
X0251444Y0083024D01*
X0251412Y0083087D01*
X0251383Y0083151D01*
X0251358Y0083216D01*
X0251337Y0083283D01*
X0251319Y0083351D01*
X0251306Y0083420D01*
X0251296Y0083489D01*
X0251290Y0083559D01*
X0251288Y0083629D01*
X0251288Y0088404D02*
X0251290Y0088474D01*
X0251296Y0088544D01*
X0251306Y0088613D01*
X0251319Y0088682D01*
X0251337Y0088750D01*
X0251358Y0088817D01*
X0251383Y0088882D01*
X0251412Y0088946D01*
X0251444Y0089009D01*
X0251480Y0089069D01*
X0251519Y0089127D01*
X0251561Y0089183D01*
X0251606Y0089237D01*
X0251654Y0089288D01*
X0251705Y0089336D01*
X0251759Y0089381D01*
X0251815Y0089423D01*
X0251873Y0089462D01*
X0251933Y0089498D01*
X0251996Y0089530D01*
X0252060Y0089559D01*
X0252125Y0089584D01*
X0252192Y0089605D01*
X0252260Y0089623D01*
X0252329Y0089636D01*
X0252398Y0089646D01*
X0252468Y0089652D01*
X0252538Y0089654D01*
X0252608Y0089652D01*
X0252678Y0089646D01*
X0252747Y0089636D01*
X0252816Y0089623D01*
X0252884Y0089605D01*
X0252951Y0089584D01*
X0253016Y0089559D01*
X0253080Y0089530D01*
X0253143Y0089498D01*
X0253203Y0089462D01*
X0253261Y0089423D01*
X0253317Y0089381D01*
X0253371Y0089336D01*
X0253422Y0089288D01*
X0253470Y0089237D01*
X0253515Y0089183D01*
X0253557Y0089127D01*
X0253596Y0089069D01*
X0253632Y0089009D01*
X0253664Y0088946D01*
X0253693Y0088882D01*
X0253718Y0088817D01*
X0253739Y0088750D01*
X0253757Y0088682D01*
X0253770Y0088613D01*
X0253780Y0088544D01*
X0253786Y0088474D01*
X0253788Y0088404D01*
X0253786Y0088334D01*
X0253780Y0088264D01*
X0253770Y0088195D01*
X0253757Y0088126D01*
X0253739Y0088058D01*
X0253718Y0087991D01*
X0253693Y0087926D01*
X0253664Y0087862D01*
X0253632Y0087799D01*
X0253596Y0087739D01*
X0253557Y0087681D01*
X0253515Y0087625D01*
X0253470Y0087571D01*
X0253422Y0087520D01*
X0253371Y0087472D01*
X0253317Y0087427D01*
X0253261Y0087385D01*
X0253203Y0087346D01*
X0253143Y0087310D01*
X0253080Y0087278D01*
X0253016Y0087249D01*
X0252951Y0087224D01*
X0252884Y0087203D01*
X0252816Y0087185D01*
X0252747Y0087172D01*
X0252678Y0087162D01*
X0252608Y0087156D01*
X0252538Y0087154D01*
X0252468Y0087156D01*
X0252398Y0087162D01*
X0252329Y0087172D01*
X0252260Y0087185D01*
X0252192Y0087203D01*
X0252125Y0087224D01*
X0252060Y0087249D01*
X0251996Y0087278D01*
X0251933Y0087310D01*
X0251873Y0087346D01*
X0251815Y0087385D01*
X0251759Y0087427D01*
X0251705Y0087472D01*
X0251654Y0087520D01*
X0251606Y0087571D01*
X0251561Y0087625D01*
X0251519Y0087681D01*
X0251480Y0087739D01*
X0251444Y0087799D01*
X0251412Y0087862D01*
X0251383Y0087926D01*
X0251358Y0087991D01*
X0251337Y0088058D01*
X0251319Y0088126D01*
X0251306Y0088195D01*
X0251296Y0088264D01*
X0251290Y0088334D01*
X0251288Y0088404D01*
X0256063Y0088404D02*
X0256065Y0088474D01*
X0256071Y0088544D01*
X0256081Y0088613D01*
X0256094Y0088682D01*
X0256112Y0088750D01*
X0256133Y0088817D01*
X0256158Y0088882D01*
X0256187Y0088946D01*
X0256219Y0089009D01*
X0256255Y0089069D01*
X0256294Y0089127D01*
X0256336Y0089183D01*
X0256381Y0089237D01*
X0256429Y0089288D01*
X0256480Y0089336D01*
X0256534Y0089381D01*
X0256590Y0089423D01*
X0256648Y0089462D01*
X0256708Y0089498D01*
X0256771Y0089530D01*
X0256835Y0089559D01*
X0256900Y0089584D01*
X0256967Y0089605D01*
X0257035Y0089623D01*
X0257104Y0089636D01*
X0257173Y0089646D01*
X0257243Y0089652D01*
X0257313Y0089654D01*
X0257383Y0089652D01*
X0257453Y0089646D01*
X0257522Y0089636D01*
X0257591Y0089623D01*
X0257659Y0089605D01*
X0257726Y0089584D01*
X0257791Y0089559D01*
X0257855Y0089530D01*
X0257918Y0089498D01*
X0257978Y0089462D01*
X0258036Y0089423D01*
X0258092Y0089381D01*
X0258146Y0089336D01*
X0258197Y0089288D01*
X0258245Y0089237D01*
X0258290Y0089183D01*
X0258332Y0089127D01*
X0258371Y0089069D01*
X0258407Y0089009D01*
X0258439Y0088946D01*
X0258468Y0088882D01*
X0258493Y0088817D01*
X0258514Y0088750D01*
X0258532Y0088682D01*
X0258545Y0088613D01*
X0258555Y0088544D01*
X0258561Y0088474D01*
X0258563Y0088404D01*
X0258561Y0088334D01*
X0258555Y0088264D01*
X0258545Y0088195D01*
X0258532Y0088126D01*
X0258514Y0088058D01*
X0258493Y0087991D01*
X0258468Y0087926D01*
X0258439Y0087862D01*
X0258407Y0087799D01*
X0258371Y0087739D01*
X0258332Y0087681D01*
X0258290Y0087625D01*
X0258245Y0087571D01*
X0258197Y0087520D01*
X0258146Y0087472D01*
X0258092Y0087427D01*
X0258036Y0087385D01*
X0257978Y0087346D01*
X0257918Y0087310D01*
X0257855Y0087278D01*
X0257791Y0087249D01*
X0257726Y0087224D01*
X0257659Y0087203D01*
X0257591Y0087185D01*
X0257522Y0087172D01*
X0257453Y0087162D01*
X0257383Y0087156D01*
X0257313Y0087154D01*
X0257243Y0087156D01*
X0257173Y0087162D01*
X0257104Y0087172D01*
X0257035Y0087185D01*
X0256967Y0087203D01*
X0256900Y0087224D01*
X0256835Y0087249D01*
X0256771Y0087278D01*
X0256708Y0087310D01*
X0256648Y0087346D01*
X0256590Y0087385D01*
X0256534Y0087427D01*
X0256480Y0087472D01*
X0256429Y0087520D01*
X0256381Y0087571D01*
X0256336Y0087625D01*
X0256294Y0087681D01*
X0256255Y0087739D01*
X0256219Y0087799D01*
X0256187Y0087862D01*
X0256158Y0087926D01*
X0256133Y0087991D01*
X0256112Y0088058D01*
X0256094Y0088126D01*
X0256081Y0088195D01*
X0256071Y0088264D01*
X0256065Y0088334D01*
X0256063Y0088404D01*
X0256063Y0083629D02*
X0256065Y0083699D01*
X0256071Y0083769D01*
X0256081Y0083838D01*
X0256094Y0083907D01*
X0256112Y0083975D01*
X0256133Y0084042D01*
X0256158Y0084107D01*
X0256187Y0084171D01*
X0256219Y0084234D01*
X0256255Y0084294D01*
X0256294Y0084352D01*
X0256336Y0084408D01*
X0256381Y0084462D01*
X0256429Y0084513D01*
X0256480Y0084561D01*
X0256534Y0084606D01*
X0256590Y0084648D01*
X0256648Y0084687D01*
X0256708Y0084723D01*
X0256771Y0084755D01*
X0256835Y0084784D01*
X0256900Y0084809D01*
X0256967Y0084830D01*
X0257035Y0084848D01*
X0257104Y0084861D01*
X0257173Y0084871D01*
X0257243Y0084877D01*
X0257313Y0084879D01*
X0257383Y0084877D01*
X0257453Y0084871D01*
X0257522Y0084861D01*
X0257591Y0084848D01*
X0257659Y0084830D01*
X0257726Y0084809D01*
X0257791Y0084784D01*
X0257855Y0084755D01*
X0257918Y0084723D01*
X0257978Y0084687D01*
X0258036Y0084648D01*
X0258092Y0084606D01*
X0258146Y0084561D01*
X0258197Y0084513D01*
X0258245Y0084462D01*
X0258290Y0084408D01*
X0258332Y0084352D01*
X0258371Y0084294D01*
X0258407Y0084234D01*
X0258439Y0084171D01*
X0258468Y0084107D01*
X0258493Y0084042D01*
X0258514Y0083975D01*
X0258532Y0083907D01*
X0258545Y0083838D01*
X0258555Y0083769D01*
X0258561Y0083699D01*
X0258563Y0083629D01*
X0258561Y0083559D01*
X0258555Y0083489D01*
X0258545Y0083420D01*
X0258532Y0083351D01*
X0258514Y0083283D01*
X0258493Y0083216D01*
X0258468Y0083151D01*
X0258439Y0083087D01*
X0258407Y0083024D01*
X0258371Y0082964D01*
X0258332Y0082906D01*
X0258290Y0082850D01*
X0258245Y0082796D01*
X0258197Y0082745D01*
X0258146Y0082697D01*
X0258092Y0082652D01*
X0258036Y0082610D01*
X0257978Y0082571D01*
X0257918Y0082535D01*
X0257855Y0082503D01*
X0257791Y0082474D01*
X0257726Y0082449D01*
X0257659Y0082428D01*
X0257591Y0082410D01*
X0257522Y0082397D01*
X0257453Y0082387D01*
X0257383Y0082381D01*
X0257313Y0082379D01*
X0257243Y0082381D01*
X0257173Y0082387D01*
X0257104Y0082397D01*
X0257035Y0082410D01*
X0256967Y0082428D01*
X0256900Y0082449D01*
X0256835Y0082474D01*
X0256771Y0082503D01*
X0256708Y0082535D01*
X0256648Y0082571D01*
X0256590Y0082610D01*
X0256534Y0082652D01*
X0256480Y0082697D01*
X0256429Y0082745D01*
X0256381Y0082796D01*
X0256336Y0082850D01*
X0256294Y0082906D01*
X0256255Y0082964D01*
X0256219Y0083024D01*
X0256187Y0083087D01*
X0256158Y0083151D01*
X0256133Y0083216D01*
X0256112Y0083283D01*
X0256094Y0083351D01*
X0256081Y0083420D01*
X0256071Y0083489D01*
X0256065Y0083559D01*
X0256063Y0083629D01*
X0260838Y0083629D02*
X0260840Y0083699D01*
X0260846Y0083769D01*
X0260856Y0083838D01*
X0260869Y0083907D01*
X0260887Y0083975D01*
X0260908Y0084042D01*
X0260933Y0084107D01*
X0260962Y0084171D01*
X0260994Y0084234D01*
X0261030Y0084294D01*
X0261069Y0084352D01*
X0261111Y0084408D01*
X0261156Y0084462D01*
X0261204Y0084513D01*
X0261255Y0084561D01*
X0261309Y0084606D01*
X0261365Y0084648D01*
X0261423Y0084687D01*
X0261483Y0084723D01*
X0261546Y0084755D01*
X0261610Y0084784D01*
X0261675Y0084809D01*
X0261742Y0084830D01*
X0261810Y0084848D01*
X0261879Y0084861D01*
X0261948Y0084871D01*
X0262018Y0084877D01*
X0262088Y0084879D01*
X0262158Y0084877D01*
X0262228Y0084871D01*
X0262297Y0084861D01*
X0262366Y0084848D01*
X0262434Y0084830D01*
X0262501Y0084809D01*
X0262566Y0084784D01*
X0262630Y0084755D01*
X0262693Y0084723D01*
X0262753Y0084687D01*
X0262811Y0084648D01*
X0262867Y0084606D01*
X0262921Y0084561D01*
X0262972Y0084513D01*
X0263020Y0084462D01*
X0263065Y0084408D01*
X0263107Y0084352D01*
X0263146Y0084294D01*
X0263182Y0084234D01*
X0263214Y0084171D01*
X0263243Y0084107D01*
X0263268Y0084042D01*
X0263289Y0083975D01*
X0263307Y0083907D01*
X0263320Y0083838D01*
X0263330Y0083769D01*
X0263336Y0083699D01*
X0263338Y0083629D01*
X0263336Y0083559D01*
X0263330Y0083489D01*
X0263320Y0083420D01*
X0263307Y0083351D01*
X0263289Y0083283D01*
X0263268Y0083216D01*
X0263243Y0083151D01*
X0263214Y0083087D01*
X0263182Y0083024D01*
X0263146Y0082964D01*
X0263107Y0082906D01*
X0263065Y0082850D01*
X0263020Y0082796D01*
X0262972Y0082745D01*
X0262921Y0082697D01*
X0262867Y0082652D01*
X0262811Y0082610D01*
X0262753Y0082571D01*
X0262693Y0082535D01*
X0262630Y0082503D01*
X0262566Y0082474D01*
X0262501Y0082449D01*
X0262434Y0082428D01*
X0262366Y0082410D01*
X0262297Y0082397D01*
X0262228Y0082387D01*
X0262158Y0082381D01*
X0262088Y0082379D01*
X0262018Y0082381D01*
X0261948Y0082387D01*
X0261879Y0082397D01*
X0261810Y0082410D01*
X0261742Y0082428D01*
X0261675Y0082449D01*
X0261610Y0082474D01*
X0261546Y0082503D01*
X0261483Y0082535D01*
X0261423Y0082571D01*
X0261365Y0082610D01*
X0261309Y0082652D01*
X0261255Y0082697D01*
X0261204Y0082745D01*
X0261156Y0082796D01*
X0261111Y0082850D01*
X0261069Y0082906D01*
X0261030Y0082964D01*
X0260994Y0083024D01*
X0260962Y0083087D01*
X0260933Y0083151D01*
X0260908Y0083216D01*
X0260887Y0083283D01*
X0260869Y0083351D01*
X0260856Y0083420D01*
X0260846Y0083489D01*
X0260840Y0083559D01*
X0260838Y0083629D01*
X0260838Y0088404D02*
X0260840Y0088474D01*
X0260846Y0088544D01*
X0260856Y0088613D01*
X0260869Y0088682D01*
X0260887Y0088750D01*
X0260908Y0088817D01*
X0260933Y0088882D01*
X0260962Y0088946D01*
X0260994Y0089009D01*
X0261030Y0089069D01*
X0261069Y0089127D01*
X0261111Y0089183D01*
X0261156Y0089237D01*
X0261204Y0089288D01*
X0261255Y0089336D01*
X0261309Y0089381D01*
X0261365Y0089423D01*
X0261423Y0089462D01*
X0261483Y0089498D01*
X0261546Y0089530D01*
X0261610Y0089559D01*
X0261675Y0089584D01*
X0261742Y0089605D01*
X0261810Y0089623D01*
X0261879Y0089636D01*
X0261948Y0089646D01*
X0262018Y0089652D01*
X0262088Y0089654D01*
X0262158Y0089652D01*
X0262228Y0089646D01*
X0262297Y0089636D01*
X0262366Y0089623D01*
X0262434Y0089605D01*
X0262501Y0089584D01*
X0262566Y0089559D01*
X0262630Y0089530D01*
X0262693Y0089498D01*
X0262753Y0089462D01*
X0262811Y0089423D01*
X0262867Y0089381D01*
X0262921Y0089336D01*
X0262972Y0089288D01*
X0263020Y0089237D01*
X0263065Y0089183D01*
X0263107Y0089127D01*
X0263146Y0089069D01*
X0263182Y0089009D01*
X0263214Y0088946D01*
X0263243Y0088882D01*
X0263268Y0088817D01*
X0263289Y0088750D01*
X0263307Y0088682D01*
X0263320Y0088613D01*
X0263330Y0088544D01*
X0263336Y0088474D01*
X0263338Y0088404D01*
X0263336Y0088334D01*
X0263330Y0088264D01*
X0263320Y0088195D01*
X0263307Y0088126D01*
X0263289Y0088058D01*
X0263268Y0087991D01*
X0263243Y0087926D01*
X0263214Y0087862D01*
X0263182Y0087799D01*
X0263146Y0087739D01*
X0263107Y0087681D01*
X0263065Y0087625D01*
X0263020Y0087571D01*
X0262972Y0087520D01*
X0262921Y0087472D01*
X0262867Y0087427D01*
X0262811Y0087385D01*
X0262753Y0087346D01*
X0262693Y0087310D01*
X0262630Y0087278D01*
X0262566Y0087249D01*
X0262501Y0087224D01*
X0262434Y0087203D01*
X0262366Y0087185D01*
X0262297Y0087172D01*
X0262228Y0087162D01*
X0262158Y0087156D01*
X0262088Y0087154D01*
X0262018Y0087156D01*
X0261948Y0087162D01*
X0261879Y0087172D01*
X0261810Y0087185D01*
X0261742Y0087203D01*
X0261675Y0087224D01*
X0261610Y0087249D01*
X0261546Y0087278D01*
X0261483Y0087310D01*
X0261423Y0087346D01*
X0261365Y0087385D01*
X0261309Y0087427D01*
X0261255Y0087472D01*
X0261204Y0087520D01*
X0261156Y0087571D01*
X0261111Y0087625D01*
X0261069Y0087681D01*
X0261030Y0087739D01*
X0260994Y0087799D01*
X0260962Y0087862D01*
X0260933Y0087926D01*
X0260908Y0087991D01*
X0260887Y0088058D01*
X0260869Y0088126D01*
X0260856Y0088195D01*
X0260846Y0088264D01*
X0260840Y0088334D01*
X0260838Y0088404D01*
X0265613Y0088404D02*
X0265615Y0088474D01*
X0265621Y0088544D01*
X0265631Y0088613D01*
X0265644Y0088682D01*
X0265662Y0088750D01*
X0265683Y0088817D01*
X0265708Y0088882D01*
X0265737Y0088946D01*
X0265769Y0089009D01*
X0265805Y0089069D01*
X0265844Y0089127D01*
X0265886Y0089183D01*
X0265931Y0089237D01*
X0265979Y0089288D01*
X0266030Y0089336D01*
X0266084Y0089381D01*
X0266140Y0089423D01*
X0266198Y0089462D01*
X0266258Y0089498D01*
X0266321Y0089530D01*
X0266385Y0089559D01*
X0266450Y0089584D01*
X0266517Y0089605D01*
X0266585Y0089623D01*
X0266654Y0089636D01*
X0266723Y0089646D01*
X0266793Y0089652D01*
X0266863Y0089654D01*
X0266933Y0089652D01*
X0267003Y0089646D01*
X0267072Y0089636D01*
X0267141Y0089623D01*
X0267209Y0089605D01*
X0267276Y0089584D01*
X0267341Y0089559D01*
X0267405Y0089530D01*
X0267468Y0089498D01*
X0267528Y0089462D01*
X0267586Y0089423D01*
X0267642Y0089381D01*
X0267696Y0089336D01*
X0267747Y0089288D01*
X0267795Y0089237D01*
X0267840Y0089183D01*
X0267882Y0089127D01*
X0267921Y0089069D01*
X0267957Y0089009D01*
X0267989Y0088946D01*
X0268018Y0088882D01*
X0268043Y0088817D01*
X0268064Y0088750D01*
X0268082Y0088682D01*
X0268095Y0088613D01*
X0268105Y0088544D01*
X0268111Y0088474D01*
X0268113Y0088404D01*
X0268111Y0088334D01*
X0268105Y0088264D01*
X0268095Y0088195D01*
X0268082Y0088126D01*
X0268064Y0088058D01*
X0268043Y0087991D01*
X0268018Y0087926D01*
X0267989Y0087862D01*
X0267957Y0087799D01*
X0267921Y0087739D01*
X0267882Y0087681D01*
X0267840Y0087625D01*
X0267795Y0087571D01*
X0267747Y0087520D01*
X0267696Y0087472D01*
X0267642Y0087427D01*
X0267586Y0087385D01*
X0267528Y0087346D01*
X0267468Y0087310D01*
X0267405Y0087278D01*
X0267341Y0087249D01*
X0267276Y0087224D01*
X0267209Y0087203D01*
X0267141Y0087185D01*
X0267072Y0087172D01*
X0267003Y0087162D01*
X0266933Y0087156D01*
X0266863Y0087154D01*
X0266793Y0087156D01*
X0266723Y0087162D01*
X0266654Y0087172D01*
X0266585Y0087185D01*
X0266517Y0087203D01*
X0266450Y0087224D01*
X0266385Y0087249D01*
X0266321Y0087278D01*
X0266258Y0087310D01*
X0266198Y0087346D01*
X0266140Y0087385D01*
X0266084Y0087427D01*
X0266030Y0087472D01*
X0265979Y0087520D01*
X0265931Y0087571D01*
X0265886Y0087625D01*
X0265844Y0087681D01*
X0265805Y0087739D01*
X0265769Y0087799D01*
X0265737Y0087862D01*
X0265708Y0087926D01*
X0265683Y0087991D01*
X0265662Y0088058D01*
X0265644Y0088126D01*
X0265631Y0088195D01*
X0265621Y0088264D01*
X0265615Y0088334D01*
X0265613Y0088404D01*
X0265613Y0083629D02*
X0265615Y0083699D01*
X0265621Y0083769D01*
X0265631Y0083838D01*
X0265644Y0083907D01*
X0265662Y0083975D01*
X0265683Y0084042D01*
X0265708Y0084107D01*
X0265737Y0084171D01*
X0265769Y0084234D01*
X0265805Y0084294D01*
X0265844Y0084352D01*
X0265886Y0084408D01*
X0265931Y0084462D01*
X0265979Y0084513D01*
X0266030Y0084561D01*
X0266084Y0084606D01*
X0266140Y0084648D01*
X0266198Y0084687D01*
X0266258Y0084723D01*
X0266321Y0084755D01*
X0266385Y0084784D01*
X0266450Y0084809D01*
X0266517Y0084830D01*
X0266585Y0084848D01*
X0266654Y0084861D01*
X0266723Y0084871D01*
X0266793Y0084877D01*
X0266863Y0084879D01*
X0266933Y0084877D01*
X0267003Y0084871D01*
X0267072Y0084861D01*
X0267141Y0084848D01*
X0267209Y0084830D01*
X0267276Y0084809D01*
X0267341Y0084784D01*
X0267405Y0084755D01*
X0267468Y0084723D01*
X0267528Y0084687D01*
X0267586Y0084648D01*
X0267642Y0084606D01*
X0267696Y0084561D01*
X0267747Y0084513D01*
X0267795Y0084462D01*
X0267840Y0084408D01*
X0267882Y0084352D01*
X0267921Y0084294D01*
X0267957Y0084234D01*
X0267989Y0084171D01*
X0268018Y0084107D01*
X0268043Y0084042D01*
X0268064Y0083975D01*
X0268082Y0083907D01*
X0268095Y0083838D01*
X0268105Y0083769D01*
X0268111Y0083699D01*
X0268113Y0083629D01*
X0268111Y0083559D01*
X0268105Y0083489D01*
X0268095Y0083420D01*
X0268082Y0083351D01*
X0268064Y0083283D01*
X0268043Y0083216D01*
X0268018Y0083151D01*
X0267989Y0083087D01*
X0267957Y0083024D01*
X0267921Y0082964D01*
X0267882Y0082906D01*
X0267840Y0082850D01*
X0267795Y0082796D01*
X0267747Y0082745D01*
X0267696Y0082697D01*
X0267642Y0082652D01*
X0267586Y0082610D01*
X0267528Y0082571D01*
X0267468Y0082535D01*
X0267405Y0082503D01*
X0267341Y0082474D01*
X0267276Y0082449D01*
X0267209Y0082428D01*
X0267141Y0082410D01*
X0267072Y0082397D01*
X0267003Y0082387D01*
X0266933Y0082381D01*
X0266863Y0082379D01*
X0266793Y0082381D01*
X0266723Y0082387D01*
X0266654Y0082397D01*
X0266585Y0082410D01*
X0266517Y0082428D01*
X0266450Y0082449D01*
X0266385Y0082474D01*
X0266321Y0082503D01*
X0266258Y0082535D01*
X0266198Y0082571D01*
X0266140Y0082610D01*
X0266084Y0082652D01*
X0266030Y0082697D01*
X0265979Y0082745D01*
X0265931Y0082796D01*
X0265886Y0082850D01*
X0265844Y0082906D01*
X0265805Y0082964D01*
X0265769Y0083024D01*
X0265737Y0083087D01*
X0265708Y0083151D01*
X0265683Y0083216D01*
X0265662Y0083283D01*
X0265644Y0083351D01*
X0265631Y0083420D01*
X0265621Y0083489D01*
X0265615Y0083559D01*
X0265613Y0083629D01*
X0270388Y0083629D02*
X0270390Y0083699D01*
X0270396Y0083769D01*
X0270406Y0083838D01*
X0270419Y0083907D01*
X0270437Y0083975D01*
X0270458Y0084042D01*
X0270483Y0084107D01*
X0270512Y0084171D01*
X0270544Y0084234D01*
X0270580Y0084294D01*
X0270619Y0084352D01*
X0270661Y0084408D01*
X0270706Y0084462D01*
X0270754Y0084513D01*
X0270805Y0084561D01*
X0270859Y0084606D01*
X0270915Y0084648D01*
X0270973Y0084687D01*
X0271033Y0084723D01*
X0271096Y0084755D01*
X0271160Y0084784D01*
X0271225Y0084809D01*
X0271292Y0084830D01*
X0271360Y0084848D01*
X0271429Y0084861D01*
X0271498Y0084871D01*
X0271568Y0084877D01*
X0271638Y0084879D01*
X0271708Y0084877D01*
X0271778Y0084871D01*
X0271847Y0084861D01*
X0271916Y0084848D01*
X0271984Y0084830D01*
X0272051Y0084809D01*
X0272116Y0084784D01*
X0272180Y0084755D01*
X0272243Y0084723D01*
X0272303Y0084687D01*
X0272361Y0084648D01*
X0272417Y0084606D01*
X0272471Y0084561D01*
X0272522Y0084513D01*
X0272570Y0084462D01*
X0272615Y0084408D01*
X0272657Y0084352D01*
X0272696Y0084294D01*
X0272732Y0084234D01*
X0272764Y0084171D01*
X0272793Y0084107D01*
X0272818Y0084042D01*
X0272839Y0083975D01*
X0272857Y0083907D01*
X0272870Y0083838D01*
X0272880Y0083769D01*
X0272886Y0083699D01*
X0272888Y0083629D01*
X0272886Y0083559D01*
X0272880Y0083489D01*
X0272870Y0083420D01*
X0272857Y0083351D01*
X0272839Y0083283D01*
X0272818Y0083216D01*
X0272793Y0083151D01*
X0272764Y0083087D01*
X0272732Y0083024D01*
X0272696Y0082964D01*
X0272657Y0082906D01*
X0272615Y0082850D01*
X0272570Y0082796D01*
X0272522Y0082745D01*
X0272471Y0082697D01*
X0272417Y0082652D01*
X0272361Y0082610D01*
X0272303Y0082571D01*
X0272243Y0082535D01*
X0272180Y0082503D01*
X0272116Y0082474D01*
X0272051Y0082449D01*
X0271984Y0082428D01*
X0271916Y0082410D01*
X0271847Y0082397D01*
X0271778Y0082387D01*
X0271708Y0082381D01*
X0271638Y0082379D01*
X0271568Y0082381D01*
X0271498Y0082387D01*
X0271429Y0082397D01*
X0271360Y0082410D01*
X0271292Y0082428D01*
X0271225Y0082449D01*
X0271160Y0082474D01*
X0271096Y0082503D01*
X0271033Y0082535D01*
X0270973Y0082571D01*
X0270915Y0082610D01*
X0270859Y0082652D01*
X0270805Y0082697D01*
X0270754Y0082745D01*
X0270706Y0082796D01*
X0270661Y0082850D01*
X0270619Y0082906D01*
X0270580Y0082964D01*
X0270544Y0083024D01*
X0270512Y0083087D01*
X0270483Y0083151D01*
X0270458Y0083216D01*
X0270437Y0083283D01*
X0270419Y0083351D01*
X0270406Y0083420D01*
X0270396Y0083489D01*
X0270390Y0083559D01*
X0270388Y0083629D01*
X0270388Y0088404D02*
X0270390Y0088474D01*
X0270396Y0088544D01*
X0270406Y0088613D01*
X0270419Y0088682D01*
X0270437Y0088750D01*
X0270458Y0088817D01*
X0270483Y0088882D01*
X0270512Y0088946D01*
X0270544Y0089009D01*
X0270580Y0089069D01*
X0270619Y0089127D01*
X0270661Y0089183D01*
X0270706Y0089237D01*
X0270754Y0089288D01*
X0270805Y0089336D01*
X0270859Y0089381D01*
X0270915Y0089423D01*
X0270973Y0089462D01*
X0271033Y0089498D01*
X0271096Y0089530D01*
X0271160Y0089559D01*
X0271225Y0089584D01*
X0271292Y0089605D01*
X0271360Y0089623D01*
X0271429Y0089636D01*
X0271498Y0089646D01*
X0271568Y0089652D01*
X0271638Y0089654D01*
X0271708Y0089652D01*
X0271778Y0089646D01*
X0271847Y0089636D01*
X0271916Y0089623D01*
X0271984Y0089605D01*
X0272051Y0089584D01*
X0272116Y0089559D01*
X0272180Y0089530D01*
X0272243Y0089498D01*
X0272303Y0089462D01*
X0272361Y0089423D01*
X0272417Y0089381D01*
X0272471Y0089336D01*
X0272522Y0089288D01*
X0272570Y0089237D01*
X0272615Y0089183D01*
X0272657Y0089127D01*
X0272696Y0089069D01*
X0272732Y0089009D01*
X0272764Y0088946D01*
X0272793Y0088882D01*
X0272818Y0088817D01*
X0272839Y0088750D01*
X0272857Y0088682D01*
X0272870Y0088613D01*
X0272880Y0088544D01*
X0272886Y0088474D01*
X0272888Y0088404D01*
X0272886Y0088334D01*
X0272880Y0088264D01*
X0272870Y0088195D01*
X0272857Y0088126D01*
X0272839Y0088058D01*
X0272818Y0087991D01*
X0272793Y0087926D01*
X0272764Y0087862D01*
X0272732Y0087799D01*
X0272696Y0087739D01*
X0272657Y0087681D01*
X0272615Y0087625D01*
X0272570Y0087571D01*
X0272522Y0087520D01*
X0272471Y0087472D01*
X0272417Y0087427D01*
X0272361Y0087385D01*
X0272303Y0087346D01*
X0272243Y0087310D01*
X0272180Y0087278D01*
X0272116Y0087249D01*
X0272051Y0087224D01*
X0271984Y0087203D01*
X0271916Y0087185D01*
X0271847Y0087172D01*
X0271778Y0087162D01*
X0271708Y0087156D01*
X0271638Y0087154D01*
X0271568Y0087156D01*
X0271498Y0087162D01*
X0271429Y0087172D01*
X0271360Y0087185D01*
X0271292Y0087203D01*
X0271225Y0087224D01*
X0271160Y0087249D01*
X0271096Y0087278D01*
X0271033Y0087310D01*
X0270973Y0087346D01*
X0270915Y0087385D01*
X0270859Y0087427D01*
X0270805Y0087472D01*
X0270754Y0087520D01*
X0270706Y0087571D01*
X0270661Y0087625D01*
X0270619Y0087681D01*
X0270580Y0087739D01*
X0270544Y0087799D01*
X0270512Y0087862D01*
X0270483Y0087926D01*
X0270458Y0087991D01*
X0270437Y0088058D01*
X0270419Y0088126D01*
X0270406Y0088195D01*
X0270396Y0088264D01*
X0270390Y0088334D01*
X0270388Y0088404D01*
X0275163Y0088404D02*
X0275165Y0088474D01*
X0275171Y0088544D01*
X0275181Y0088613D01*
X0275194Y0088682D01*
X0275212Y0088750D01*
X0275233Y0088817D01*
X0275258Y0088882D01*
X0275287Y0088946D01*
X0275319Y0089009D01*
X0275355Y0089069D01*
X0275394Y0089127D01*
X0275436Y0089183D01*
X0275481Y0089237D01*
X0275529Y0089288D01*
X0275580Y0089336D01*
X0275634Y0089381D01*
X0275690Y0089423D01*
X0275748Y0089462D01*
X0275808Y0089498D01*
X0275871Y0089530D01*
X0275935Y0089559D01*
X0276000Y0089584D01*
X0276067Y0089605D01*
X0276135Y0089623D01*
X0276204Y0089636D01*
X0276273Y0089646D01*
X0276343Y0089652D01*
X0276413Y0089654D01*
X0276483Y0089652D01*
X0276553Y0089646D01*
X0276622Y0089636D01*
X0276691Y0089623D01*
X0276759Y0089605D01*
X0276826Y0089584D01*
X0276891Y0089559D01*
X0276955Y0089530D01*
X0277018Y0089498D01*
X0277078Y0089462D01*
X0277136Y0089423D01*
X0277192Y0089381D01*
X0277246Y0089336D01*
X0277297Y0089288D01*
X0277345Y0089237D01*
X0277390Y0089183D01*
X0277432Y0089127D01*
X0277471Y0089069D01*
X0277507Y0089009D01*
X0277539Y0088946D01*
X0277568Y0088882D01*
X0277593Y0088817D01*
X0277614Y0088750D01*
X0277632Y0088682D01*
X0277645Y0088613D01*
X0277655Y0088544D01*
X0277661Y0088474D01*
X0277663Y0088404D01*
X0277661Y0088334D01*
X0277655Y0088264D01*
X0277645Y0088195D01*
X0277632Y0088126D01*
X0277614Y0088058D01*
X0277593Y0087991D01*
X0277568Y0087926D01*
X0277539Y0087862D01*
X0277507Y0087799D01*
X0277471Y0087739D01*
X0277432Y0087681D01*
X0277390Y0087625D01*
X0277345Y0087571D01*
X0277297Y0087520D01*
X0277246Y0087472D01*
X0277192Y0087427D01*
X0277136Y0087385D01*
X0277078Y0087346D01*
X0277018Y0087310D01*
X0276955Y0087278D01*
X0276891Y0087249D01*
X0276826Y0087224D01*
X0276759Y0087203D01*
X0276691Y0087185D01*
X0276622Y0087172D01*
X0276553Y0087162D01*
X0276483Y0087156D01*
X0276413Y0087154D01*
X0276343Y0087156D01*
X0276273Y0087162D01*
X0276204Y0087172D01*
X0276135Y0087185D01*
X0276067Y0087203D01*
X0276000Y0087224D01*
X0275935Y0087249D01*
X0275871Y0087278D01*
X0275808Y0087310D01*
X0275748Y0087346D01*
X0275690Y0087385D01*
X0275634Y0087427D01*
X0275580Y0087472D01*
X0275529Y0087520D01*
X0275481Y0087571D01*
X0275436Y0087625D01*
X0275394Y0087681D01*
X0275355Y0087739D01*
X0275319Y0087799D01*
X0275287Y0087862D01*
X0275258Y0087926D01*
X0275233Y0087991D01*
X0275212Y0088058D01*
X0275194Y0088126D01*
X0275181Y0088195D01*
X0275171Y0088264D01*
X0275165Y0088334D01*
X0275163Y0088404D01*
X0275163Y0083629D02*
X0275165Y0083699D01*
X0275171Y0083769D01*
X0275181Y0083838D01*
X0275194Y0083907D01*
X0275212Y0083975D01*
X0275233Y0084042D01*
X0275258Y0084107D01*
X0275287Y0084171D01*
X0275319Y0084234D01*
X0275355Y0084294D01*
X0275394Y0084352D01*
X0275436Y0084408D01*
X0275481Y0084462D01*
X0275529Y0084513D01*
X0275580Y0084561D01*
X0275634Y0084606D01*
X0275690Y0084648D01*
X0275748Y0084687D01*
X0275808Y0084723D01*
X0275871Y0084755D01*
X0275935Y0084784D01*
X0276000Y0084809D01*
X0276067Y0084830D01*
X0276135Y0084848D01*
X0276204Y0084861D01*
X0276273Y0084871D01*
X0276343Y0084877D01*
X0276413Y0084879D01*
X0276483Y0084877D01*
X0276553Y0084871D01*
X0276622Y0084861D01*
X0276691Y0084848D01*
X0276759Y0084830D01*
X0276826Y0084809D01*
X0276891Y0084784D01*
X0276955Y0084755D01*
X0277018Y0084723D01*
X0277078Y0084687D01*
X0277136Y0084648D01*
X0277192Y0084606D01*
X0277246Y0084561D01*
X0277297Y0084513D01*
X0277345Y0084462D01*
X0277390Y0084408D01*
X0277432Y0084352D01*
X0277471Y0084294D01*
X0277507Y0084234D01*
X0277539Y0084171D01*
X0277568Y0084107D01*
X0277593Y0084042D01*
X0277614Y0083975D01*
X0277632Y0083907D01*
X0277645Y0083838D01*
X0277655Y0083769D01*
X0277661Y0083699D01*
X0277663Y0083629D01*
X0277661Y0083559D01*
X0277655Y0083489D01*
X0277645Y0083420D01*
X0277632Y0083351D01*
X0277614Y0083283D01*
X0277593Y0083216D01*
X0277568Y0083151D01*
X0277539Y0083087D01*
X0277507Y0083024D01*
X0277471Y0082964D01*
X0277432Y0082906D01*
X0277390Y0082850D01*
X0277345Y0082796D01*
X0277297Y0082745D01*
X0277246Y0082697D01*
X0277192Y0082652D01*
X0277136Y0082610D01*
X0277078Y0082571D01*
X0277018Y0082535D01*
X0276955Y0082503D01*
X0276891Y0082474D01*
X0276826Y0082449D01*
X0276759Y0082428D01*
X0276691Y0082410D01*
X0276622Y0082397D01*
X0276553Y0082387D01*
X0276483Y0082381D01*
X0276413Y0082379D01*
X0276343Y0082381D01*
X0276273Y0082387D01*
X0276204Y0082397D01*
X0276135Y0082410D01*
X0276067Y0082428D01*
X0276000Y0082449D01*
X0275935Y0082474D01*
X0275871Y0082503D01*
X0275808Y0082535D01*
X0275748Y0082571D01*
X0275690Y0082610D01*
X0275634Y0082652D01*
X0275580Y0082697D01*
X0275529Y0082745D01*
X0275481Y0082796D01*
X0275436Y0082850D01*
X0275394Y0082906D01*
X0275355Y0082964D01*
X0275319Y0083024D01*
X0275287Y0083087D01*
X0275258Y0083151D01*
X0275233Y0083216D01*
X0275212Y0083283D01*
X0275194Y0083351D01*
X0275181Y0083420D01*
X0275171Y0083489D01*
X0275165Y0083559D01*
X0275163Y0083629D01*
X0279938Y0083629D02*
X0279940Y0083699D01*
X0279946Y0083769D01*
X0279956Y0083838D01*
X0279969Y0083907D01*
X0279987Y0083975D01*
X0280008Y0084042D01*
X0280033Y0084107D01*
X0280062Y0084171D01*
X0280094Y0084234D01*
X0280130Y0084294D01*
X0280169Y0084352D01*
X0280211Y0084408D01*
X0280256Y0084462D01*
X0280304Y0084513D01*
X0280355Y0084561D01*
X0280409Y0084606D01*
X0280465Y0084648D01*
X0280523Y0084687D01*
X0280583Y0084723D01*
X0280646Y0084755D01*
X0280710Y0084784D01*
X0280775Y0084809D01*
X0280842Y0084830D01*
X0280910Y0084848D01*
X0280979Y0084861D01*
X0281048Y0084871D01*
X0281118Y0084877D01*
X0281188Y0084879D01*
X0281258Y0084877D01*
X0281328Y0084871D01*
X0281397Y0084861D01*
X0281466Y0084848D01*
X0281534Y0084830D01*
X0281601Y0084809D01*
X0281666Y0084784D01*
X0281730Y0084755D01*
X0281793Y0084723D01*
X0281853Y0084687D01*
X0281911Y0084648D01*
X0281967Y0084606D01*
X0282021Y0084561D01*
X0282072Y0084513D01*
X0282120Y0084462D01*
X0282165Y0084408D01*
X0282207Y0084352D01*
X0282246Y0084294D01*
X0282282Y0084234D01*
X0282314Y0084171D01*
X0282343Y0084107D01*
X0282368Y0084042D01*
X0282389Y0083975D01*
X0282407Y0083907D01*
X0282420Y0083838D01*
X0282430Y0083769D01*
X0282436Y0083699D01*
X0282438Y0083629D01*
X0282436Y0083559D01*
X0282430Y0083489D01*
X0282420Y0083420D01*
X0282407Y0083351D01*
X0282389Y0083283D01*
X0282368Y0083216D01*
X0282343Y0083151D01*
X0282314Y0083087D01*
X0282282Y0083024D01*
X0282246Y0082964D01*
X0282207Y0082906D01*
X0282165Y0082850D01*
X0282120Y0082796D01*
X0282072Y0082745D01*
X0282021Y0082697D01*
X0281967Y0082652D01*
X0281911Y0082610D01*
X0281853Y0082571D01*
X0281793Y0082535D01*
X0281730Y0082503D01*
X0281666Y0082474D01*
X0281601Y0082449D01*
X0281534Y0082428D01*
X0281466Y0082410D01*
X0281397Y0082397D01*
X0281328Y0082387D01*
X0281258Y0082381D01*
X0281188Y0082379D01*
X0281118Y0082381D01*
X0281048Y0082387D01*
X0280979Y0082397D01*
X0280910Y0082410D01*
X0280842Y0082428D01*
X0280775Y0082449D01*
X0280710Y0082474D01*
X0280646Y0082503D01*
X0280583Y0082535D01*
X0280523Y0082571D01*
X0280465Y0082610D01*
X0280409Y0082652D01*
X0280355Y0082697D01*
X0280304Y0082745D01*
X0280256Y0082796D01*
X0280211Y0082850D01*
X0280169Y0082906D01*
X0280130Y0082964D01*
X0280094Y0083024D01*
X0280062Y0083087D01*
X0280033Y0083151D01*
X0280008Y0083216D01*
X0279987Y0083283D01*
X0279969Y0083351D01*
X0279956Y0083420D01*
X0279946Y0083489D01*
X0279940Y0083559D01*
X0279938Y0083629D01*
X0279938Y0088404D02*
X0279940Y0088474D01*
X0279946Y0088544D01*
X0279956Y0088613D01*
X0279969Y0088682D01*
X0279987Y0088750D01*
X0280008Y0088817D01*
X0280033Y0088882D01*
X0280062Y0088946D01*
X0280094Y0089009D01*
X0280130Y0089069D01*
X0280169Y0089127D01*
X0280211Y0089183D01*
X0280256Y0089237D01*
X0280304Y0089288D01*
X0280355Y0089336D01*
X0280409Y0089381D01*
X0280465Y0089423D01*
X0280523Y0089462D01*
X0280583Y0089498D01*
X0280646Y0089530D01*
X0280710Y0089559D01*
X0280775Y0089584D01*
X0280842Y0089605D01*
X0280910Y0089623D01*
X0280979Y0089636D01*
X0281048Y0089646D01*
X0281118Y0089652D01*
X0281188Y0089654D01*
X0281258Y0089652D01*
X0281328Y0089646D01*
X0281397Y0089636D01*
X0281466Y0089623D01*
X0281534Y0089605D01*
X0281601Y0089584D01*
X0281666Y0089559D01*
X0281730Y0089530D01*
X0281793Y0089498D01*
X0281853Y0089462D01*
X0281911Y0089423D01*
X0281967Y0089381D01*
X0282021Y0089336D01*
X0282072Y0089288D01*
X0282120Y0089237D01*
X0282165Y0089183D01*
X0282207Y0089127D01*
X0282246Y0089069D01*
X0282282Y0089009D01*
X0282314Y0088946D01*
X0282343Y0088882D01*
X0282368Y0088817D01*
X0282389Y0088750D01*
X0282407Y0088682D01*
X0282420Y0088613D01*
X0282430Y0088544D01*
X0282436Y0088474D01*
X0282438Y0088404D01*
X0282436Y0088334D01*
X0282430Y0088264D01*
X0282420Y0088195D01*
X0282407Y0088126D01*
X0282389Y0088058D01*
X0282368Y0087991D01*
X0282343Y0087926D01*
X0282314Y0087862D01*
X0282282Y0087799D01*
X0282246Y0087739D01*
X0282207Y0087681D01*
X0282165Y0087625D01*
X0282120Y0087571D01*
X0282072Y0087520D01*
X0282021Y0087472D01*
X0281967Y0087427D01*
X0281911Y0087385D01*
X0281853Y0087346D01*
X0281793Y0087310D01*
X0281730Y0087278D01*
X0281666Y0087249D01*
X0281601Y0087224D01*
X0281534Y0087203D01*
X0281466Y0087185D01*
X0281397Y0087172D01*
X0281328Y0087162D01*
X0281258Y0087156D01*
X0281188Y0087154D01*
X0281118Y0087156D01*
X0281048Y0087162D01*
X0280979Y0087172D01*
X0280910Y0087185D01*
X0280842Y0087203D01*
X0280775Y0087224D01*
X0280710Y0087249D01*
X0280646Y0087278D01*
X0280583Y0087310D01*
X0280523Y0087346D01*
X0280465Y0087385D01*
X0280409Y0087427D01*
X0280355Y0087472D01*
X0280304Y0087520D01*
X0280256Y0087571D01*
X0280211Y0087625D01*
X0280169Y0087681D01*
X0280130Y0087739D01*
X0280094Y0087799D01*
X0280062Y0087862D01*
X0280033Y0087926D01*
X0280008Y0087991D01*
X0279987Y0088058D01*
X0279969Y0088126D01*
X0279956Y0088195D01*
X0279946Y0088264D01*
X0279940Y0088334D01*
X0279938Y0088404D01*
X0284713Y0088404D02*
X0284715Y0088474D01*
X0284721Y0088544D01*
X0284731Y0088613D01*
X0284744Y0088682D01*
X0284762Y0088750D01*
X0284783Y0088817D01*
X0284808Y0088882D01*
X0284837Y0088946D01*
X0284869Y0089009D01*
X0284905Y0089069D01*
X0284944Y0089127D01*
X0284986Y0089183D01*
X0285031Y0089237D01*
X0285079Y0089288D01*
X0285130Y0089336D01*
X0285184Y0089381D01*
X0285240Y0089423D01*
X0285298Y0089462D01*
X0285358Y0089498D01*
X0285421Y0089530D01*
X0285485Y0089559D01*
X0285550Y0089584D01*
X0285617Y0089605D01*
X0285685Y0089623D01*
X0285754Y0089636D01*
X0285823Y0089646D01*
X0285893Y0089652D01*
X0285963Y0089654D01*
X0286033Y0089652D01*
X0286103Y0089646D01*
X0286172Y0089636D01*
X0286241Y0089623D01*
X0286309Y0089605D01*
X0286376Y0089584D01*
X0286441Y0089559D01*
X0286505Y0089530D01*
X0286568Y0089498D01*
X0286628Y0089462D01*
X0286686Y0089423D01*
X0286742Y0089381D01*
X0286796Y0089336D01*
X0286847Y0089288D01*
X0286895Y0089237D01*
X0286940Y0089183D01*
X0286982Y0089127D01*
X0287021Y0089069D01*
X0287057Y0089009D01*
X0287089Y0088946D01*
X0287118Y0088882D01*
X0287143Y0088817D01*
X0287164Y0088750D01*
X0287182Y0088682D01*
X0287195Y0088613D01*
X0287205Y0088544D01*
X0287211Y0088474D01*
X0287213Y0088404D01*
X0287211Y0088334D01*
X0287205Y0088264D01*
X0287195Y0088195D01*
X0287182Y0088126D01*
X0287164Y0088058D01*
X0287143Y0087991D01*
X0287118Y0087926D01*
X0287089Y0087862D01*
X0287057Y0087799D01*
X0287021Y0087739D01*
X0286982Y0087681D01*
X0286940Y0087625D01*
X0286895Y0087571D01*
X0286847Y0087520D01*
X0286796Y0087472D01*
X0286742Y0087427D01*
X0286686Y0087385D01*
X0286628Y0087346D01*
X0286568Y0087310D01*
X0286505Y0087278D01*
X0286441Y0087249D01*
X0286376Y0087224D01*
X0286309Y0087203D01*
X0286241Y0087185D01*
X0286172Y0087172D01*
X0286103Y0087162D01*
X0286033Y0087156D01*
X0285963Y0087154D01*
X0285893Y0087156D01*
X0285823Y0087162D01*
X0285754Y0087172D01*
X0285685Y0087185D01*
X0285617Y0087203D01*
X0285550Y0087224D01*
X0285485Y0087249D01*
X0285421Y0087278D01*
X0285358Y0087310D01*
X0285298Y0087346D01*
X0285240Y0087385D01*
X0285184Y0087427D01*
X0285130Y0087472D01*
X0285079Y0087520D01*
X0285031Y0087571D01*
X0284986Y0087625D01*
X0284944Y0087681D01*
X0284905Y0087739D01*
X0284869Y0087799D01*
X0284837Y0087862D01*
X0284808Y0087926D01*
X0284783Y0087991D01*
X0284762Y0088058D01*
X0284744Y0088126D01*
X0284731Y0088195D01*
X0284721Y0088264D01*
X0284715Y0088334D01*
X0284713Y0088404D01*
X0284713Y0083629D02*
X0284715Y0083699D01*
X0284721Y0083769D01*
X0284731Y0083838D01*
X0284744Y0083907D01*
X0284762Y0083975D01*
X0284783Y0084042D01*
X0284808Y0084107D01*
X0284837Y0084171D01*
X0284869Y0084234D01*
X0284905Y0084294D01*
X0284944Y0084352D01*
X0284986Y0084408D01*
X0285031Y0084462D01*
X0285079Y0084513D01*
X0285130Y0084561D01*
X0285184Y0084606D01*
X0285240Y0084648D01*
X0285298Y0084687D01*
X0285358Y0084723D01*
X0285421Y0084755D01*
X0285485Y0084784D01*
X0285550Y0084809D01*
X0285617Y0084830D01*
X0285685Y0084848D01*
X0285754Y0084861D01*
X0285823Y0084871D01*
X0285893Y0084877D01*
X0285963Y0084879D01*
X0286033Y0084877D01*
X0286103Y0084871D01*
X0286172Y0084861D01*
X0286241Y0084848D01*
X0286309Y0084830D01*
X0286376Y0084809D01*
X0286441Y0084784D01*
X0286505Y0084755D01*
X0286568Y0084723D01*
X0286628Y0084687D01*
X0286686Y0084648D01*
X0286742Y0084606D01*
X0286796Y0084561D01*
X0286847Y0084513D01*
X0286895Y0084462D01*
X0286940Y0084408D01*
X0286982Y0084352D01*
X0287021Y0084294D01*
X0287057Y0084234D01*
X0287089Y0084171D01*
X0287118Y0084107D01*
X0287143Y0084042D01*
X0287164Y0083975D01*
X0287182Y0083907D01*
X0287195Y0083838D01*
X0287205Y0083769D01*
X0287211Y0083699D01*
X0287213Y0083629D01*
X0287211Y0083559D01*
X0287205Y0083489D01*
X0287195Y0083420D01*
X0287182Y0083351D01*
X0287164Y0083283D01*
X0287143Y0083216D01*
X0287118Y0083151D01*
X0287089Y0083087D01*
X0287057Y0083024D01*
X0287021Y0082964D01*
X0286982Y0082906D01*
X0286940Y0082850D01*
X0286895Y0082796D01*
X0286847Y0082745D01*
X0286796Y0082697D01*
X0286742Y0082652D01*
X0286686Y0082610D01*
X0286628Y0082571D01*
X0286568Y0082535D01*
X0286505Y0082503D01*
X0286441Y0082474D01*
X0286376Y0082449D01*
X0286309Y0082428D01*
X0286241Y0082410D01*
X0286172Y0082397D01*
X0286103Y0082387D01*
X0286033Y0082381D01*
X0285963Y0082379D01*
X0285893Y0082381D01*
X0285823Y0082387D01*
X0285754Y0082397D01*
X0285685Y0082410D01*
X0285617Y0082428D01*
X0285550Y0082449D01*
X0285485Y0082474D01*
X0285421Y0082503D01*
X0285358Y0082535D01*
X0285298Y0082571D01*
X0285240Y0082610D01*
X0285184Y0082652D01*
X0285130Y0082697D01*
X0285079Y0082745D01*
X0285031Y0082796D01*
X0284986Y0082850D01*
X0284944Y0082906D01*
X0284905Y0082964D01*
X0284869Y0083024D01*
X0284837Y0083087D01*
X0284808Y0083151D01*
X0284783Y0083216D01*
X0284762Y0083283D01*
X0284744Y0083351D01*
X0284731Y0083420D01*
X0284721Y0083489D01*
X0284715Y0083559D01*
X0284713Y0083629D01*
X0359846Y0094930D02*
X0360597Y0094179D01*
X0362849Y0094179D01*
X0362849Y0098683D01*
X0360597Y0098683D01*
X0359846Y0097932D01*
X0359846Y0097182D01*
X0360597Y0096431D01*
X0362849Y0096431D01*
X0360597Y0096431D02*
X0359846Y0095680D01*
X0359846Y0094930D01*
X0364417Y0094179D02*
X0365918Y0094179D01*
X0365167Y0094179D02*
X0365167Y0098683D01*
X0364417Y0098683D02*
X0365918Y0098683D01*
X0367519Y0097932D02*
X0368270Y0098683D01*
X0370522Y0098683D01*
X0370522Y0094179D01*
X0368270Y0094179D01*
X0367519Y0094930D01*
X0367519Y0097932D01*
X0376727Y0097932D02*
X0379730Y0094930D01*
X0379730Y0094179D01*
X0376727Y0094179D01*
X0376727Y0097932D02*
X0376727Y0098683D01*
X0379730Y0098683D01*
X0381331Y0098683D02*
X0384334Y0098683D01*
X0384334Y0094179D01*
X0381331Y0094179D01*
X0382832Y0096431D02*
X0384334Y0096431D01*
X0385935Y0094179D02*
X0388938Y0094179D01*
X0388938Y0098683D01*
X0385935Y0098683D01*
X0387436Y0096431D02*
X0388938Y0096431D01*
X0510318Y0073437D02*
X0510318Y0050421D01*
X0518058Y0050421D01*
X0518058Y0073437D01*
X0510318Y0073437D01*
X0503253Y0393162D02*
X0503253Y0397666D01*
X0501002Y0397666D01*
X0500251Y0396915D01*
X0500251Y0395414D01*
X0501002Y0394663D01*
X0503253Y0394663D01*
X0504855Y0395414D02*
X0504855Y0396915D01*
X0505605Y0397666D01*
X0507107Y0397666D01*
X0507857Y0396915D01*
X0507857Y0395414D01*
X0507107Y0394663D01*
X0505605Y0394663D01*
X0504855Y0395414D01*
X0509459Y0396915D02*
X0512461Y0396915D01*
X0514063Y0397666D02*
X0517065Y0394663D01*
X0514063Y0394663D01*
X0514063Y0397666D02*
X0517065Y0397666D01*
X0518667Y0396915D02*
X0518667Y0396165D01*
X0521669Y0396165D01*
X0521669Y0396915D02*
X0520919Y0397666D01*
X0519417Y0397666D01*
X0518667Y0396915D01*
X0519417Y0394663D02*
X0520919Y0394663D01*
X0521669Y0395414D01*
X0521669Y0396915D01*
X0523271Y0396915D02*
X0523271Y0396165D01*
X0526273Y0396165D01*
X0526273Y0396915D02*
X0525522Y0397666D01*
X0524021Y0397666D01*
X0523271Y0396915D01*
X0524021Y0394663D02*
X0525522Y0394663D01*
X0526273Y0395414D01*
X0526273Y0396915D01*
X0527874Y0399167D02*
X0530877Y0394663D01*
X0532478Y0394663D02*
X0532478Y0396915D01*
X0533229Y0397666D01*
X0533980Y0396915D01*
X0533980Y0394663D01*
X0535481Y0394663D02*
X0535481Y0397666D01*
X0534730Y0397666D01*
X0533980Y0396915D01*
X0537082Y0396915D02*
X0537833Y0397666D01*
X0539334Y0397666D01*
X0540085Y0396915D01*
X0540085Y0395414D01*
X0539334Y0394663D01*
X0537833Y0394663D01*
X0537082Y0395414D01*
X0537082Y0396915D01*
X0541686Y0397666D02*
X0543938Y0397666D01*
X0544689Y0396915D01*
X0544689Y0395414D01*
X0543938Y0394663D01*
X0541686Y0394663D01*
X0546240Y0394663D02*
X0546991Y0394663D01*
X0546991Y0395414D01*
X0546240Y0395414D01*
X0546240Y0394663D01*
X0548592Y0395414D02*
X0548592Y0396915D01*
X0549343Y0397666D01*
X0551595Y0397666D01*
X0551595Y0399167D02*
X0551595Y0394663D01*
X0549343Y0394663D01*
X0548592Y0395414D01*
X0553196Y0394663D02*
X0553196Y0397666D01*
X0556199Y0397666D02*
X0556199Y0395414D01*
X0555448Y0394663D01*
X0553196Y0394663D01*
X0557800Y0394663D02*
X0557800Y0396915D01*
X0558551Y0397666D01*
X0560052Y0397666D01*
X0560803Y0396915D01*
X0562371Y0397666D02*
X0563872Y0397666D01*
X0563121Y0398417D02*
X0563121Y0395414D01*
X0562371Y0394663D01*
X0560803Y0394663D02*
X0560803Y0399167D01*
X0561637Y0402163D02*
X0564639Y0402163D01*
X0563138Y0402163D02*
X0563138Y0406667D01*
X0564639Y0405166D01*
X0566240Y0405166D02*
X0569243Y0402163D01*
X0566240Y0402163D01*
X0566190Y0399918D02*
X0566190Y0399167D01*
X0566190Y0397666D02*
X0566190Y0394663D01*
X0565440Y0394663D02*
X0566941Y0394663D01*
X0568542Y0394663D02*
X0570794Y0394663D01*
X0571545Y0395414D01*
X0571545Y0396915D01*
X0570794Y0397666D01*
X0568542Y0397666D01*
X0568542Y0393913D01*
X0569293Y0393162D01*
X0570044Y0393162D01*
X0566941Y0397666D02*
X0566190Y0397666D01*
X0570844Y0402914D02*
X0571595Y0402163D01*
X0573096Y0402163D01*
X0573847Y0402914D01*
X0570844Y0405917D01*
X0570844Y0402914D01*
X0570844Y0405917D02*
X0571595Y0406667D01*
X0573096Y0406667D01*
X0573847Y0405917D01*
X0573847Y0402914D01*
X0575448Y0402163D02*
X0578451Y0402163D01*
X0575448Y0405166D01*
X0575448Y0405917D01*
X0576199Y0406667D01*
X0577700Y0406667D01*
X0578451Y0405917D01*
X0580052Y0406667D02*
X0583055Y0402163D01*
X0584656Y0399167D02*
X0584656Y0394663D01*
X0586908Y0394663D01*
X0587659Y0395414D01*
X0587659Y0396915D01*
X0586908Y0397666D01*
X0584656Y0397666D01*
X0583055Y0396915D02*
X0582304Y0397666D01*
X0580803Y0397666D01*
X0580052Y0396915D01*
X0580052Y0396165D01*
X0583055Y0396165D01*
X0583055Y0396915D02*
X0583055Y0395414D01*
X0582304Y0394663D01*
X0580803Y0394663D01*
X0578451Y0394663D02*
X0578451Y0395414D01*
X0577700Y0395414D01*
X0577700Y0394663D01*
X0578451Y0394663D01*
X0578451Y0396915D02*
X0578451Y0397666D01*
X0577700Y0397666D01*
X0577700Y0396915D01*
X0578451Y0396915D01*
X0587659Y0402163D02*
X0587659Y0402914D01*
X0584656Y0405917D01*
X0584656Y0406667D01*
X0587659Y0406667D01*
X0589260Y0405917D02*
X0592263Y0402914D01*
X0591512Y0402163D01*
X0590011Y0402163D01*
X0589260Y0402914D01*
X0589260Y0405917D01*
X0590011Y0406667D01*
X0591512Y0406667D01*
X0592263Y0405917D01*
X0592263Y0402914D01*
X0593831Y0402163D02*
X0595332Y0403665D01*
X0595332Y0405166D01*
X0593831Y0406667D01*
X0601537Y0405917D02*
X0601537Y0405166D01*
X0602288Y0404415D01*
X0603789Y0404415D01*
X0604540Y0405166D01*
X0604540Y0405917D01*
X0603789Y0406667D01*
X0602288Y0406667D01*
X0601537Y0405917D01*
X0602288Y0404415D02*
X0601537Y0403665D01*
X0601537Y0402914D01*
X0602288Y0402163D01*
X0603789Y0402163D01*
X0604540Y0402914D01*
X0604540Y0403665D01*
X0603789Y0404415D01*
X0606141Y0403665D02*
X0606892Y0404415D01*
X0609144Y0404415D01*
X0609144Y0402914D01*
X0608393Y0402163D01*
X0606892Y0402163D01*
X0606141Y0402914D01*
X0606141Y0403665D01*
X0607642Y0405917D02*
X0606141Y0406667D01*
X0607642Y0405917D02*
X0609144Y0404415D01*
X0610745Y0402163D02*
X0613748Y0402163D01*
X0612246Y0402163D02*
X0612246Y0406667D01*
X0613748Y0405166D01*
X0615349Y0405917D02*
X0615349Y0402914D01*
X0616100Y0402163D01*
X0617601Y0402163D01*
X0618352Y0402914D01*
X0618352Y0405917D01*
X0617601Y0406667D01*
X0616100Y0406667D01*
X0615349Y0405917D01*
X0619920Y0406667D02*
X0621421Y0406667D01*
X0620670Y0406667D02*
X0620670Y0402163D01*
X0619920Y0402163D02*
X0621421Y0402163D01*
X0623022Y0402163D02*
X0623022Y0406667D01*
X0624523Y0405166D01*
X0626025Y0406667D01*
X0626025Y0402163D01*
X0625324Y0397666D02*
X0627576Y0397666D01*
X0628327Y0396915D01*
X0627576Y0396165D01*
X0626075Y0396165D01*
X0625324Y0395414D01*
X0626075Y0394663D01*
X0628327Y0394663D01*
X0623723Y0395414D02*
X0622972Y0394663D01*
X0621471Y0394663D01*
X0620720Y0395414D01*
X0620720Y0396915D01*
X0621471Y0397666D01*
X0622972Y0397666D01*
X0623723Y0396915D01*
X0623723Y0395414D01*
X0619119Y0395414D02*
X0618368Y0394663D01*
X0616116Y0394663D01*
X0616116Y0397666D01*
X0614515Y0397666D02*
X0614515Y0394663D01*
X0614515Y0396165D02*
X0613014Y0397666D01*
X0612263Y0397666D01*
X0610678Y0396915D02*
X0610678Y0395414D01*
X0609928Y0394663D01*
X0607676Y0394663D01*
X0606074Y0395414D02*
X0606074Y0396915D01*
X0605324Y0397666D01*
X0603823Y0397666D01*
X0603072Y0396915D01*
X0603072Y0396165D01*
X0606074Y0396165D01*
X0606074Y0395414D02*
X0605324Y0394663D01*
X0603823Y0394663D01*
X0607676Y0397666D02*
X0609928Y0397666D01*
X0610678Y0396915D01*
X0619119Y0397666D02*
X0619119Y0395414D01*
X0632230Y0402914D02*
X0632230Y0403665D01*
X0632981Y0404415D01*
X0635233Y0404415D01*
X0635233Y0402163D02*
X0635233Y0406667D01*
X0632981Y0406667D01*
X0632230Y0405917D01*
X0632230Y0405166D01*
X0632981Y0404415D01*
X0632230Y0402914D02*
X0632981Y0402163D01*
X0635233Y0402163D01*
X0636801Y0402163D02*
X0638302Y0402163D01*
X0637551Y0402163D02*
X0637551Y0406667D01*
X0636801Y0406667D02*
X0638302Y0406667D01*
X0639903Y0405917D02*
X0640654Y0406667D01*
X0642906Y0406667D01*
X0642906Y0402163D01*
X0640654Y0402163D01*
X0639903Y0402914D01*
X0639903Y0405917D01*
X0646776Y0399918D02*
X0646776Y0399167D01*
X0646776Y0397666D02*
X0646776Y0393913D01*
X0647526Y0393162D01*
X0648277Y0393162D01*
X0649878Y0395414D02*
X0649878Y0396915D01*
X0650629Y0397666D01*
X0652130Y0397666D01*
X0652881Y0396915D01*
X0652881Y0395414D01*
X0652130Y0394663D01*
X0650629Y0394663D01*
X0649878Y0395414D01*
X0645208Y0395414D02*
X0645208Y0396915D01*
X0644457Y0397666D01*
X0642956Y0397666D01*
X0642205Y0396915D01*
X0642205Y0396165D01*
X0645208Y0396165D01*
X0645208Y0395414D02*
X0644457Y0394663D01*
X0642956Y0394663D01*
X0640604Y0395414D02*
X0639853Y0394663D01*
X0637601Y0394663D01*
X0635249Y0395414D02*
X0634499Y0394663D01*
X0635249Y0395414D02*
X0635249Y0398417D01*
X0634499Y0397666D02*
X0636000Y0397666D01*
X0637601Y0397666D02*
X0639853Y0397666D01*
X0640604Y0396915D01*
X0640604Y0395414D01*
X0649111Y0402163D02*
X0652114Y0402163D01*
X0652114Y0402914D01*
X0649111Y0405917D01*
X0649111Y0406667D01*
X0652114Y0406667D01*
X0653715Y0406667D02*
X0656718Y0406667D01*
X0656718Y0402163D01*
X0653715Y0402163D01*
X0655216Y0404415D02*
X0656718Y0404415D01*
X0658319Y0402163D02*
X0661322Y0402163D01*
X0661322Y0406667D01*
X0658319Y0406667D01*
X0659820Y0404415D02*
X0661322Y0404415D01*
X0661322Y0399167D02*
X0659070Y0399167D01*
X0658319Y0398417D01*
X0658319Y0396915D01*
X0659070Y0396165D01*
X0661322Y0396165D01*
X0661322Y0394663D02*
X0661322Y0399167D01*
X0656718Y0397666D02*
X0656718Y0394663D01*
X0656718Y0396165D02*
X0655216Y0397666D01*
X0654466Y0397666D01*
X0596867Y0396915D02*
X0596867Y0395414D01*
X0596116Y0394663D01*
X0593864Y0394663D01*
X0592263Y0395414D02*
X0591512Y0394663D01*
X0590011Y0394663D01*
X0589260Y0395414D01*
X0589260Y0396915D01*
X0590011Y0397666D01*
X0591512Y0397666D01*
X0592263Y0396915D01*
X0592263Y0395414D01*
X0593864Y0397666D02*
X0596116Y0397666D01*
X0596867Y0396915D01*
X0569243Y0405917D02*
X0568492Y0406667D01*
X0566991Y0406667D01*
X0566240Y0405917D01*
X0566240Y0405166D01*
X0555431Y0405166D02*
X0555431Y0402163D01*
X0555431Y0403665D02*
X0553930Y0405166D01*
X0553179Y0405166D01*
X0551595Y0405917D02*
X0550844Y0406667D01*
X0549343Y0406667D01*
X0548592Y0405917D01*
X0548592Y0405166D01*
X0551595Y0402163D01*
X0548592Y0402163D01*
X0546991Y0402163D02*
X0544739Y0402163D01*
X0543988Y0402914D01*
X0543988Y0403665D01*
X0544739Y0404415D01*
X0546991Y0404415D01*
X0546991Y0402163D02*
X0546991Y0406667D01*
X0544739Y0406667D01*
X0543988Y0405917D01*
X0543988Y0405166D01*
X0544739Y0404415D01*
X0542387Y0404415D02*
X0540886Y0405166D01*
X0540135Y0405166D01*
X0539384Y0404415D01*
X0539384Y0402914D01*
X0540135Y0402163D01*
X0541636Y0402163D01*
X0542387Y0402914D01*
X0542387Y0404415D02*
X0542387Y0406667D01*
X0539384Y0406667D01*
X0537783Y0406667D02*
X0536282Y0405166D01*
X0536282Y0403665D01*
X0537783Y0402163D01*
X0498650Y0396915D02*
X0497899Y0397666D01*
X0496398Y0397666D01*
X0495647Y0396915D01*
X0495647Y0396165D01*
X0498650Y0396165D01*
X0498650Y0396915D02*
X0498650Y0395414D01*
X0497899Y0394663D01*
X0496398Y0394663D01*
X0494046Y0394663D02*
X0494046Y0397666D01*
X0491794Y0397666D01*
X0491043Y0396915D01*
X0491043Y0394663D01*
D11*
X0214585Y0063246D02*
X0215553Y0062278D01*
X0216520Y0062278D01*
X0217488Y0063246D01*
X0217004Y0064257D02*
X0215553Y0064257D01*
X0217004Y0064257D02*
X0217488Y0064741D01*
X0217004Y0065225D01*
X0217488Y0065708D01*
X0217004Y0066192D01*
X0215553Y0066192D01*
X0216036Y0067204D02*
X0216520Y0067204D01*
X0216520Y0069139D01*
X0217004Y0069139D02*
X0216036Y0069139D01*
X0215553Y0068655D01*
X0215553Y0067688D01*
X0216036Y0067204D01*
X0217488Y0067688D02*
X0217488Y0068655D01*
X0217004Y0069139D01*
X0217488Y0070136D02*
X0217488Y0071103D01*
X0217488Y0070619D02*
X0215553Y0070619D01*
X0215553Y0071103D01*
X0215553Y0072115D02*
X0217488Y0073082D01*
X0215553Y0074050D01*
X0214585Y0070619D02*
X0214101Y0070619D01*
X0221935Y0069406D02*
X0221935Y0068438D01*
X0222419Y0067955D01*
X0222903Y0067955D01*
X0223386Y0068438D01*
X0223870Y0067955D01*
X0224354Y0067955D01*
X0224838Y0068438D01*
X0224838Y0069406D01*
X0224354Y0069890D01*
X0223386Y0068922D02*
X0223386Y0068438D01*
X0223870Y0066943D02*
X0221935Y0066943D01*
X0221935Y0065008D02*
X0223870Y0065008D01*
X0224838Y0065976D01*
X0223870Y0066943D01*
X0224354Y0063997D02*
X0224838Y0063513D01*
X0224838Y0062545D01*
X0224354Y0062062D01*
X0223870Y0062062D01*
X0223386Y0062545D01*
X0223386Y0063029D01*
X0223386Y0062545D02*
X0222903Y0062062D01*
X0222419Y0062062D01*
X0221935Y0062545D01*
X0221935Y0063513D01*
X0222419Y0063997D01*
X0226735Y0063997D02*
X0229154Y0063997D01*
X0229638Y0063513D01*
X0229638Y0062545D01*
X0229154Y0062062D01*
X0226735Y0062062D01*
X0226735Y0061050D02*
X0229638Y0061050D01*
X0229638Y0059115D01*
X0229638Y0057136D02*
X0226735Y0057136D01*
X0226735Y0056169D02*
X0226735Y0058104D01*
X0234438Y0062062D02*
X0234438Y0063997D01*
X0231535Y0063997D01*
X0232019Y0065008D02*
X0231535Y0065492D01*
X0231535Y0066459D01*
X0232019Y0066943D01*
X0233954Y0066943D01*
X0234438Y0066459D01*
X0234438Y0065492D01*
X0233954Y0065008D01*
X0236335Y0065492D02*
X0236335Y0066943D01*
X0239238Y0066943D01*
X0239238Y0065492D01*
X0238754Y0065008D01*
X0236819Y0065008D01*
X0236335Y0065492D01*
X0236335Y0067955D02*
X0239238Y0067955D01*
X0236335Y0069890D01*
X0239238Y0069890D01*
X0238754Y0070901D02*
X0237786Y0070901D01*
X0237786Y0071869D01*
X0236819Y0072836D02*
X0238754Y0072836D01*
X0239238Y0072352D01*
X0239238Y0071385D01*
X0238754Y0070901D01*
X0236819Y0070901D02*
X0236335Y0071385D01*
X0236335Y0072352D01*
X0236819Y0072836D01*
X0234438Y0072352D02*
X0233954Y0072836D01*
X0234438Y0072352D02*
X0234438Y0071385D01*
X0233954Y0070901D01*
X0233470Y0070901D01*
X0232986Y0071385D01*
X0232986Y0072352D01*
X0232503Y0072836D01*
X0232019Y0072836D01*
X0231535Y0072352D01*
X0231535Y0071385D01*
X0232019Y0070901D01*
X0232019Y0069890D02*
X0232503Y0069890D01*
X0232986Y0069406D01*
X0232986Y0068438D01*
X0233470Y0067955D01*
X0233954Y0067955D01*
X0234438Y0068438D01*
X0234438Y0069406D01*
X0233954Y0069890D01*
X0232019Y0069890D02*
X0231535Y0069406D01*
X0231535Y0068438D01*
X0232019Y0067955D01*
X0229638Y0066943D02*
X0227703Y0066943D01*
X0226735Y0065976D01*
X0227703Y0065008D01*
X0229638Y0065008D01*
X0228186Y0065008D02*
X0228186Y0066943D01*
X0226735Y0067955D02*
X0226735Y0069890D01*
X0229638Y0069890D01*
X0229638Y0070901D02*
X0226735Y0070901D01*
X0228186Y0069890D02*
X0228186Y0068922D01*
X0229638Y0070901D02*
X0226735Y0072836D01*
X0229638Y0072836D01*
X0229154Y0076794D02*
X0229638Y0077278D01*
X0229638Y0078245D01*
X0229154Y0078729D01*
X0228186Y0077762D02*
X0228186Y0077278D01*
X0228670Y0076794D01*
X0229154Y0076794D01*
X0228186Y0077278D02*
X0227703Y0076794D01*
X0227219Y0076794D01*
X0226735Y0077278D01*
X0226735Y0078245D01*
X0227219Y0078729D01*
X0224838Y0078729D02*
X0224838Y0076794D01*
X0224838Y0077762D02*
X0221935Y0077762D01*
X0222903Y0078729D01*
X0217488Y0078975D02*
X0216036Y0078975D01*
X0215553Y0078491D01*
X0216036Y0078008D01*
X0217488Y0078008D01*
X0216036Y0078975D02*
X0215553Y0079459D01*
X0215553Y0079943D01*
X0217488Y0079943D01*
X0217004Y0080954D02*
X0216036Y0080954D01*
X0215553Y0081438D01*
X0215553Y0082405D01*
X0216036Y0082889D01*
X0217004Y0082889D01*
X0217488Y0082405D01*
X0217488Y0081438D01*
X0217004Y0080954D01*
X0217488Y0083886D02*
X0217004Y0084370D01*
X0215069Y0084370D01*
X0215553Y0084854D02*
X0215553Y0083886D01*
X0215553Y0085850D02*
X0215553Y0086818D01*
X0215069Y0086334D02*
X0217004Y0086334D01*
X0217488Y0085850D01*
X0217004Y0087829D02*
X0216036Y0087829D01*
X0215553Y0088313D01*
X0215553Y0089281D01*
X0216036Y0089764D01*
X0217004Y0089764D01*
X0217488Y0089281D01*
X0217488Y0088313D01*
X0217004Y0087829D01*
X0217004Y0090776D02*
X0216036Y0090776D01*
X0215553Y0091260D01*
X0215553Y0092711D01*
X0214585Y0092711D02*
X0217488Y0092711D01*
X0217488Y0091260D01*
X0217004Y0090776D01*
X0217488Y0093708D02*
X0216520Y0094675D01*
X0215553Y0094675D01*
X0214585Y0093708D01*
X0215069Y0098633D02*
X0215553Y0098633D01*
X0216036Y0099117D01*
X0216036Y0100568D01*
X0214585Y0100568D02*
X0214585Y0099117D01*
X0215069Y0098633D01*
X0216036Y0099117D02*
X0216520Y0098633D01*
X0217004Y0098633D01*
X0217488Y0099117D01*
X0217488Y0100568D01*
X0214585Y0100568D01*
X0214585Y0101565D02*
X0214585Y0102533D01*
X0214585Y0102049D02*
X0217488Y0102049D01*
X0217488Y0102533D02*
X0217488Y0101565D01*
X0217004Y0103544D02*
X0215069Y0103544D01*
X0214585Y0104028D01*
X0214585Y0105479D01*
X0217488Y0105479D01*
X0217488Y0104028D01*
X0217004Y0103544D01*
X0221935Y0104265D02*
X0224354Y0104265D01*
X0224838Y0103781D01*
X0224838Y0102814D01*
X0224354Y0102330D01*
X0221935Y0102330D01*
X0221935Y0101319D02*
X0224838Y0099384D01*
X0226735Y0099384D02*
X0226735Y0101319D01*
X0226735Y0100351D02*
X0229638Y0100351D01*
X0231535Y0099867D02*
X0232019Y0099384D01*
X0231535Y0099867D02*
X0231535Y0100835D01*
X0232019Y0101319D01*
X0233954Y0101319D01*
X0234438Y0100835D01*
X0234438Y0099867D01*
X0233954Y0099384D01*
X0236335Y0100351D02*
X0237303Y0099384D01*
X0239238Y0099384D01*
X0237786Y0099384D02*
X0237786Y0101319D01*
X0237303Y0101319D02*
X0239238Y0101319D01*
X0238754Y0102330D02*
X0236819Y0102330D01*
X0236335Y0102814D01*
X0236335Y0104265D01*
X0239238Y0104265D01*
X0239238Y0102814D01*
X0238754Y0102330D01*
X0237303Y0101319D02*
X0236335Y0100351D01*
X0234438Y0102330D02*
X0231535Y0102330D01*
X0229638Y0102330D02*
X0229638Y0104265D01*
X0226735Y0104265D01*
X0226735Y0102330D01*
X0228186Y0103298D02*
X0228186Y0104265D01*
X0228670Y0105277D02*
X0229154Y0105277D01*
X0229638Y0105760D01*
X0229638Y0106728D01*
X0229154Y0107212D01*
X0228186Y0106728D02*
X0228186Y0105760D01*
X0228670Y0105277D01*
X0227219Y0105277D02*
X0226735Y0105760D01*
X0226735Y0106728D01*
X0227219Y0107212D01*
X0227703Y0107212D01*
X0228186Y0106728D01*
X0226735Y0108223D02*
X0226735Y0110158D01*
X0229638Y0110158D01*
X0229638Y0108223D01*
X0228186Y0109191D02*
X0228186Y0110158D01*
X0228186Y0111170D02*
X0228670Y0111654D01*
X0228670Y0113105D01*
X0229638Y0113105D02*
X0226735Y0113105D01*
X0226735Y0111654D01*
X0227219Y0111170D01*
X0228186Y0111170D01*
X0228670Y0112137D02*
X0229638Y0111170D01*
X0231535Y0109675D02*
X0231535Y0108707D01*
X0232019Y0108223D01*
X0232019Y0107212D02*
X0232986Y0106244D01*
X0234438Y0106244D01*
X0232986Y0106244D02*
X0232019Y0105277D01*
X0231535Y0105277D01*
X0231535Y0104265D02*
X0234438Y0102330D01*
X0234438Y0104265D02*
X0231535Y0104265D01*
X0231535Y0107212D02*
X0232019Y0107212D01*
X0233470Y0108223D02*
X0233954Y0108223D01*
X0234438Y0108707D01*
X0234438Y0109675D01*
X0233954Y0110158D01*
X0232986Y0109675D02*
X0232986Y0108707D01*
X0233470Y0108223D01*
X0232986Y0109675D02*
X0232503Y0110158D01*
X0232019Y0110158D01*
X0231535Y0109675D01*
X0236335Y0109675D02*
X0236819Y0110158D01*
X0237303Y0110158D01*
X0237786Y0109675D01*
X0237786Y0108707D01*
X0238270Y0108223D01*
X0238754Y0108223D01*
X0239238Y0108707D01*
X0239238Y0109675D01*
X0238754Y0110158D01*
X0236335Y0109675D02*
X0236335Y0108707D01*
X0236819Y0108223D01*
X0236819Y0107212D02*
X0237303Y0107212D01*
X0237786Y0106728D01*
X0237786Y0105760D01*
X0238270Y0105277D01*
X0238754Y0105277D01*
X0239238Y0105760D01*
X0239238Y0106728D01*
X0238754Y0107212D01*
X0236819Y0107212D02*
X0236335Y0106728D01*
X0236335Y0105760D01*
X0236819Y0105277D01*
X0241135Y0105760D02*
X0241619Y0105277D01*
X0242586Y0105277D01*
X0243070Y0105760D01*
X0243070Y0107212D01*
X0244038Y0107212D02*
X0241135Y0107212D01*
X0241135Y0105760D01*
X0241619Y0104265D02*
X0241135Y0103781D01*
X0241135Y0102814D01*
X0241619Y0102330D01*
X0243554Y0102330D01*
X0244038Y0102814D01*
X0244038Y0103781D01*
X0243554Y0104265D01*
X0241619Y0104265D01*
X0243070Y0103298D02*
X0244038Y0102330D01*
X0245935Y0102814D02*
X0245935Y0104265D01*
X0248838Y0104265D01*
X0248838Y0102814D01*
X0248354Y0102330D01*
X0247870Y0102330D01*
X0247386Y0102814D01*
X0247386Y0104265D01*
X0247870Y0105277D02*
X0248354Y0105277D01*
X0248838Y0105760D01*
X0248838Y0106728D01*
X0248354Y0107212D01*
X0248354Y0108223D02*
X0248838Y0108707D01*
X0248838Y0109675D01*
X0248354Y0110158D01*
X0246419Y0110158D01*
X0245935Y0109675D01*
X0245935Y0108707D01*
X0246419Y0108223D01*
X0246419Y0107212D02*
X0246903Y0107212D01*
X0247386Y0106728D01*
X0247386Y0105760D01*
X0247870Y0105277D01*
X0246419Y0105277D02*
X0245935Y0105760D01*
X0245935Y0106728D01*
X0246419Y0107212D01*
X0244038Y0108209D02*
X0244038Y0109176D01*
X0244038Y0108692D02*
X0241135Y0108692D01*
X0241135Y0108209D02*
X0241135Y0109176D01*
X0243070Y0106244D02*
X0244038Y0105277D01*
X0245935Y0102814D02*
X0246419Y0102330D01*
X0246903Y0102330D01*
X0247386Y0102814D01*
X0250735Y0102814D02*
X0251219Y0102330D01*
X0253154Y0102330D01*
X0253638Y0102814D01*
X0253638Y0103781D01*
X0253154Y0104265D01*
X0251219Y0104265D01*
X0250735Y0103781D01*
X0250735Y0102814D01*
X0251219Y0105277D02*
X0250735Y0105760D01*
X0250735Y0106728D01*
X0251219Y0107212D01*
X0251703Y0107212D01*
X0252186Y0106728D01*
X0252186Y0105760D01*
X0252670Y0105277D01*
X0253154Y0105277D01*
X0253638Y0105760D01*
X0253638Y0106728D01*
X0253154Y0107212D01*
X0253638Y0108209D02*
X0253638Y0109176D01*
X0253638Y0108692D02*
X0250735Y0108692D01*
X0250735Y0108209D02*
X0250735Y0109176D01*
X0250735Y0110188D02*
X0253638Y0110188D01*
X0253638Y0112123D02*
X0250735Y0112123D01*
X0251703Y0111155D01*
X0250735Y0110188D01*
X0255535Y0109675D02*
X0255535Y0108707D01*
X0256019Y0108223D01*
X0256986Y0108223D02*
X0256986Y0109191D01*
X0256986Y0108223D02*
X0257954Y0108223D01*
X0258438Y0108707D01*
X0258438Y0109675D01*
X0257954Y0110158D01*
X0256019Y0110158D01*
X0255535Y0109675D01*
X0255535Y0107212D02*
X0258438Y0105277D01*
X0255535Y0105277D01*
X0255535Y0104265D02*
X0255535Y0102814D01*
X0256019Y0102330D01*
X0257954Y0102330D01*
X0258438Y0102814D01*
X0258438Y0104265D01*
X0255535Y0104265D01*
X0255535Y0107212D02*
X0258438Y0107212D01*
X0260335Y0106244D02*
X0261303Y0105277D01*
X0263238Y0105277D01*
X0263238Y0104265D02*
X0261303Y0102330D01*
X0260819Y0102330D01*
X0260335Y0102814D01*
X0260335Y0103781D01*
X0260819Y0104265D01*
X0261786Y0105277D02*
X0261786Y0107212D01*
X0261303Y0107212D02*
X0260335Y0106244D01*
X0261303Y0107212D02*
X0263238Y0107212D01*
X0265135Y0107212D02*
X0268038Y0105277D01*
X0265135Y0105277D01*
X0265135Y0104265D02*
X0265135Y0102814D01*
X0265619Y0102330D01*
X0267554Y0102330D01*
X0268038Y0102814D01*
X0268038Y0104265D01*
X0265135Y0104265D01*
X0263238Y0104265D02*
X0263238Y0102330D01*
X0263238Y0098372D02*
X0263238Y0096437D01*
X0263238Y0097405D02*
X0260335Y0097405D01*
X0261303Y0098372D01*
X0258438Y0098372D02*
X0258438Y0096437D01*
X0258438Y0097405D02*
X0255535Y0097405D01*
X0256503Y0098372D01*
X0253638Y0098372D02*
X0253638Y0096437D01*
X0253638Y0097405D02*
X0250735Y0097405D01*
X0251703Y0098372D01*
X0248838Y0098372D02*
X0248838Y0096437D01*
X0248838Y0097405D02*
X0245935Y0097405D01*
X0246903Y0098372D01*
X0244038Y0098372D02*
X0244038Y0096437D01*
X0244038Y0097405D02*
X0241135Y0097405D01*
X0242103Y0098372D01*
X0241619Y0095426D02*
X0241135Y0094942D01*
X0241135Y0093974D01*
X0241619Y0093491D01*
X0243554Y0095426D01*
X0244038Y0094942D01*
X0244038Y0093974D01*
X0243554Y0093491D01*
X0241619Y0093491D01*
X0241619Y0095426D02*
X0243554Y0095426D01*
X0245935Y0094942D02*
X0246419Y0095426D01*
X0245935Y0094942D02*
X0245935Y0093974D01*
X0246419Y0093491D01*
X0246903Y0093491D01*
X0248838Y0095426D01*
X0248838Y0093491D01*
X0250735Y0093974D02*
X0252186Y0095426D01*
X0252186Y0093491D01*
X0250735Y0093974D02*
X0253638Y0093974D01*
X0255535Y0093491D02*
X0256019Y0094458D01*
X0256986Y0095426D01*
X0256986Y0093974D01*
X0257470Y0093491D01*
X0257954Y0093491D01*
X0258438Y0093974D01*
X0258438Y0094942D01*
X0257954Y0095426D01*
X0256986Y0095426D01*
X0260335Y0094942D02*
X0260335Y0093974D01*
X0260819Y0093491D01*
X0261303Y0093491D01*
X0261786Y0093974D01*
X0261786Y0094942D01*
X0261303Y0095426D01*
X0260819Y0095426D01*
X0260335Y0094942D01*
X0261786Y0094942D02*
X0262270Y0095426D01*
X0262754Y0095426D01*
X0263238Y0094942D01*
X0263238Y0093974D01*
X0262754Y0093491D01*
X0262270Y0093491D01*
X0261786Y0093974D01*
X0265135Y0093974D02*
X0265619Y0093491D01*
X0267554Y0095426D01*
X0268038Y0094942D01*
X0268038Y0093974D01*
X0267554Y0093491D01*
X0265619Y0093491D01*
X0265135Y0093974D02*
X0265135Y0094942D01*
X0265619Y0095426D01*
X0267554Y0095426D01*
X0268038Y0096437D02*
X0268038Y0098372D01*
X0266103Y0096437D01*
X0265619Y0096437D01*
X0265135Y0096921D01*
X0265135Y0097888D01*
X0265619Y0098372D01*
X0269935Y0097888D02*
X0270419Y0098372D01*
X0269935Y0097888D02*
X0269935Y0096921D01*
X0270419Y0096437D01*
X0270903Y0096437D01*
X0272838Y0098372D01*
X0272838Y0096437D01*
X0272838Y0095426D02*
X0270903Y0093491D01*
X0270419Y0093491D01*
X0269935Y0093974D01*
X0269935Y0094942D01*
X0270419Y0095426D01*
X0272838Y0095426D02*
X0272838Y0093491D01*
X0274735Y0093974D02*
X0276186Y0095426D01*
X0276186Y0093491D01*
X0274735Y0093974D02*
X0277638Y0093974D01*
X0279535Y0093491D02*
X0280019Y0094458D01*
X0280986Y0095426D01*
X0280986Y0093974D01*
X0281470Y0093491D01*
X0281954Y0093491D01*
X0282438Y0093974D01*
X0282438Y0094942D01*
X0281954Y0095426D01*
X0280986Y0095426D01*
X0280503Y0096437D02*
X0280019Y0096437D01*
X0279535Y0096921D01*
X0279535Y0097888D01*
X0280019Y0098372D01*
X0280503Y0096437D02*
X0282438Y0098372D01*
X0282438Y0096437D01*
X0284335Y0096921D02*
X0284335Y0097888D01*
X0284819Y0098372D01*
X0284335Y0096921D02*
X0284819Y0096437D01*
X0285303Y0096437D01*
X0287238Y0098372D01*
X0287238Y0096437D01*
X0286754Y0095426D02*
X0286270Y0095426D01*
X0285786Y0094942D01*
X0285786Y0093974D01*
X0286270Y0093491D01*
X0286754Y0093491D01*
X0287238Y0093974D01*
X0287238Y0094942D01*
X0286754Y0095426D01*
X0285786Y0094942D02*
X0285303Y0095426D01*
X0284819Y0095426D01*
X0284335Y0094942D01*
X0284335Y0093974D01*
X0284819Y0093491D01*
X0285303Y0093491D01*
X0285786Y0093974D01*
X0277638Y0096437D02*
X0277638Y0098372D01*
X0275703Y0096437D01*
X0275219Y0096437D01*
X0274735Y0096921D01*
X0274735Y0097888D01*
X0275219Y0098372D01*
X0274735Y0102330D02*
X0276670Y0102330D01*
X0277638Y0103298D01*
X0276670Y0104265D01*
X0274735Y0104265D01*
X0274735Y0105277D02*
X0274735Y0107212D01*
X0276186Y0107212D01*
X0275703Y0106244D01*
X0275703Y0105760D01*
X0276186Y0105277D01*
X0277154Y0105277D01*
X0277638Y0105760D01*
X0277638Y0106728D01*
X0277154Y0107212D01*
X0276186Y0108223D02*
X0276186Y0110158D01*
X0275219Y0109191D02*
X0277154Y0109191D01*
X0279535Y0108707D02*
X0279535Y0109675D01*
X0280019Y0110158D01*
X0281954Y0110158D01*
X0282438Y0109675D01*
X0282438Y0108707D01*
X0281954Y0108223D01*
X0280019Y0108223D01*
X0279535Y0108707D01*
X0280019Y0107212D02*
X0281954Y0107212D01*
X0282438Y0106728D01*
X0282438Y0105760D01*
X0281954Y0105277D01*
X0280019Y0105277D01*
X0279535Y0105760D01*
X0279535Y0106728D01*
X0280019Y0107212D01*
X0279535Y0104265D02*
X0279535Y0102330D01*
X0279535Y0103298D02*
X0282438Y0103298D01*
X0284335Y0104265D02*
X0287238Y0102330D01*
X0287238Y0104265D02*
X0284335Y0102330D01*
X0284335Y0105277D02*
X0284335Y0107212D01*
X0284335Y0106244D02*
X0287238Y0106244D01*
X0287721Y0108223D02*
X0287721Y0110158D01*
X0287238Y0112137D02*
X0284335Y0112137D01*
X0284335Y0111170D02*
X0284335Y0113105D01*
X0284819Y0114116D02*
X0285786Y0114116D01*
X0286270Y0114600D01*
X0286270Y0116051D01*
X0286270Y0115084D02*
X0287238Y0114116D01*
X0287238Y0116051D02*
X0284335Y0116051D01*
X0284335Y0114600D01*
X0284819Y0114116D01*
X0282438Y0113105D02*
X0282438Y0111654D01*
X0281954Y0111170D01*
X0281470Y0111170D01*
X0280986Y0111654D01*
X0280986Y0113105D01*
X0279535Y0113105D02*
X0279535Y0111654D01*
X0280019Y0111170D01*
X0280503Y0111170D01*
X0280986Y0111654D01*
X0282438Y0113105D02*
X0279535Y0113105D01*
X0284335Y0118030D02*
X0285303Y0117063D01*
X0287238Y0117063D01*
X0285786Y0117063D02*
X0285786Y0118998D01*
X0285303Y0118998D02*
X0284335Y0118030D01*
X0285303Y0118998D02*
X0287238Y0118998D01*
X0286754Y0120009D02*
X0284335Y0120009D01*
X0284335Y0121944D02*
X0286754Y0121944D01*
X0287238Y0121461D01*
X0287238Y0120493D01*
X0286754Y0120009D01*
X0272354Y0112137D02*
X0270419Y0112137D01*
X0271386Y0111170D02*
X0271386Y0113105D01*
X0270903Y0110158D02*
X0269935Y0109191D01*
X0272838Y0109191D01*
X0272838Y0110158D02*
X0272838Y0108223D01*
X0272838Y0107212D02*
X0270903Y0105277D01*
X0270419Y0105277D01*
X0269935Y0105760D01*
X0269935Y0106728D01*
X0270419Y0107212D01*
X0268038Y0107212D02*
X0265135Y0107212D01*
X0265619Y0108223D02*
X0265135Y0108707D01*
X0265135Y0109675D01*
X0265619Y0110158D01*
X0267554Y0110158D01*
X0268038Y0109675D01*
X0268038Y0108707D01*
X0267554Y0108223D01*
X0266586Y0108223D01*
X0266586Y0109191D01*
X0269935Y0104265D02*
X0271870Y0104265D01*
X0272838Y0103298D01*
X0271870Y0102330D01*
X0269935Y0102330D01*
X0272838Y0105277D02*
X0272838Y0107212D01*
X0239238Y0094942D02*
X0238754Y0095426D01*
X0238270Y0095426D01*
X0237786Y0094942D01*
X0237786Y0093974D01*
X0238270Y0093491D01*
X0238754Y0093491D01*
X0239238Y0093974D01*
X0239238Y0094942D01*
X0237786Y0094942D02*
X0237303Y0095426D01*
X0236819Y0095426D01*
X0236335Y0094942D01*
X0236335Y0093974D01*
X0236819Y0093491D01*
X0237303Y0093491D01*
X0237786Y0093974D01*
X0234438Y0093974D02*
X0233954Y0093491D01*
X0233470Y0093491D01*
X0232986Y0093974D01*
X0232986Y0095426D01*
X0233954Y0095426D01*
X0234438Y0094942D01*
X0234438Y0093974D01*
X0232986Y0095426D02*
X0232019Y0094458D01*
X0231535Y0093491D01*
X0229638Y0093974D02*
X0226735Y0093974D01*
X0228186Y0095426D01*
X0228186Y0093491D01*
X0224838Y0093491D02*
X0224838Y0095426D01*
X0222903Y0093491D01*
X0222419Y0093491D01*
X0221935Y0093974D01*
X0221935Y0094942D01*
X0222419Y0095426D01*
X0221935Y0099384D02*
X0224838Y0101319D01*
X0224838Y0105277D02*
X0222903Y0105277D01*
X0221935Y0106244D01*
X0222903Y0107212D01*
X0224838Y0107212D01*
X0223870Y0108223D02*
X0221935Y0108223D01*
X0223386Y0107212D02*
X0223386Y0105277D01*
X0223870Y0108223D02*
X0224838Y0109191D01*
X0223870Y0110158D01*
X0221935Y0110158D01*
X0223386Y0111170D02*
X0223386Y0113105D01*
X0222419Y0112137D02*
X0224354Y0112137D01*
X0226735Y0114116D02*
X0229638Y0114116D01*
X0226735Y0116051D01*
X0229638Y0116051D01*
X0231535Y0078729D02*
X0232986Y0078729D01*
X0232503Y0077762D01*
X0232503Y0077278D01*
X0232986Y0076794D01*
X0233954Y0076794D01*
X0234438Y0077278D01*
X0234438Y0078245D01*
X0233954Y0078729D01*
X0236335Y0078729D02*
X0236335Y0076794D01*
X0236819Y0076794D01*
X0238754Y0078729D01*
X0239238Y0078729D01*
X0241135Y0078245D02*
X0241619Y0078729D01*
X0242103Y0078729D01*
X0242586Y0078245D01*
X0242586Y0076794D01*
X0241619Y0076794D02*
X0241135Y0077278D01*
X0241135Y0078245D01*
X0241619Y0076794D02*
X0243554Y0076794D01*
X0244038Y0077278D01*
X0244038Y0078245D01*
X0243554Y0078729D01*
X0245935Y0077762D02*
X0248838Y0077762D01*
X0248838Y0078729D02*
X0248838Y0076794D01*
X0248838Y0075783D02*
X0248838Y0073848D01*
X0248838Y0074815D02*
X0245935Y0074815D01*
X0246903Y0075783D01*
X0245935Y0077762D02*
X0246903Y0078729D01*
X0250735Y0077762D02*
X0253638Y0077762D01*
X0253638Y0078729D02*
X0253638Y0076794D01*
X0253154Y0075783D02*
X0253638Y0075299D01*
X0253638Y0074331D01*
X0253154Y0073848D01*
X0252670Y0073848D01*
X0252186Y0074331D01*
X0252186Y0074815D01*
X0252186Y0074331D02*
X0251703Y0073848D01*
X0251219Y0073848D01*
X0250735Y0074331D01*
X0250735Y0075299D01*
X0251219Y0075783D01*
X0250735Y0077762D02*
X0251703Y0078729D01*
X0255535Y0077762D02*
X0258438Y0077762D01*
X0258438Y0078729D02*
X0258438Y0076794D01*
X0257954Y0075783D02*
X0258438Y0075299D01*
X0258438Y0074331D01*
X0257954Y0073848D01*
X0256986Y0073848D01*
X0256503Y0074331D01*
X0256503Y0074815D01*
X0256986Y0075783D01*
X0255535Y0075783D01*
X0255535Y0073848D01*
X0255535Y0077762D02*
X0256503Y0078729D01*
X0260335Y0077762D02*
X0263238Y0077762D01*
X0263238Y0078729D02*
X0263238Y0076794D01*
X0263238Y0075783D02*
X0262754Y0075783D01*
X0260819Y0073848D01*
X0260335Y0073848D01*
X0260335Y0075783D01*
X0260335Y0077762D02*
X0261303Y0078729D01*
X0265135Y0077762D02*
X0268038Y0077762D01*
X0268038Y0078729D02*
X0268038Y0076794D01*
X0267554Y0075783D02*
X0268038Y0075299D01*
X0268038Y0074331D01*
X0267554Y0073848D01*
X0265619Y0073848D01*
X0265135Y0074331D01*
X0265135Y0075299D01*
X0265619Y0075783D01*
X0266103Y0075783D01*
X0266586Y0075299D01*
X0266586Y0073848D01*
X0269935Y0074815D02*
X0272838Y0074815D01*
X0272838Y0073848D02*
X0272838Y0075783D01*
X0272838Y0076794D02*
X0272838Y0078729D01*
X0270903Y0076794D01*
X0270419Y0076794D01*
X0269935Y0077278D01*
X0269935Y0078245D01*
X0270419Y0078729D01*
X0270903Y0075783D02*
X0269935Y0074815D01*
X0274735Y0074331D02*
X0275219Y0073848D01*
X0275703Y0073848D01*
X0276186Y0074331D01*
X0276670Y0073848D01*
X0277154Y0073848D01*
X0277638Y0074331D01*
X0277638Y0075299D01*
X0277154Y0075783D01*
X0277638Y0076794D02*
X0277638Y0078729D01*
X0275703Y0076794D01*
X0275219Y0076794D01*
X0274735Y0077278D01*
X0274735Y0078245D01*
X0275219Y0078729D01*
X0275219Y0075783D02*
X0274735Y0075299D01*
X0274735Y0074331D01*
X0276186Y0074331D02*
X0276186Y0074815D01*
X0279535Y0073848D02*
X0279535Y0075783D01*
X0280986Y0075783D01*
X0280503Y0074815D01*
X0280503Y0074331D01*
X0280986Y0073848D01*
X0281954Y0073848D01*
X0282438Y0074331D01*
X0282438Y0075299D01*
X0281954Y0075783D01*
X0282438Y0076794D02*
X0282438Y0078729D01*
X0280503Y0076794D01*
X0280019Y0076794D01*
X0279535Y0077278D01*
X0279535Y0078245D01*
X0280019Y0078729D01*
X0284335Y0078245D02*
X0284819Y0078729D01*
X0284335Y0078245D02*
X0284335Y0077278D01*
X0284819Y0076794D01*
X0285303Y0076794D01*
X0287238Y0078729D01*
X0287238Y0076794D01*
X0287238Y0075783D02*
X0286754Y0075783D01*
X0284819Y0073848D01*
X0284335Y0073848D01*
X0284335Y0075783D01*
X0284335Y0069890D02*
X0286754Y0069890D01*
X0287238Y0069406D01*
X0287238Y0068438D01*
X0286754Y0067955D01*
X0284335Y0067955D01*
X0285303Y0066943D02*
X0284335Y0065976D01*
X0285303Y0065008D01*
X0287238Y0065008D01*
X0287238Y0063997D02*
X0284335Y0063997D01*
X0284335Y0062545D01*
X0284819Y0062062D01*
X0285786Y0062062D01*
X0286270Y0062545D01*
X0286270Y0063997D01*
X0286270Y0063029D02*
X0287238Y0062062D01*
X0287238Y0060083D02*
X0284335Y0060083D01*
X0284335Y0061050D02*
X0284335Y0059115D01*
X0287721Y0058104D02*
X0287721Y0056169D01*
X0287238Y0055157D02*
X0284335Y0055157D01*
X0284335Y0053706D01*
X0284819Y0053222D01*
X0285786Y0053222D01*
X0286270Y0053706D01*
X0286270Y0055157D01*
X0286270Y0054190D02*
X0287238Y0053222D01*
X0287238Y0052210D02*
X0284335Y0050275D01*
X0284335Y0052210D02*
X0287238Y0050275D01*
X0281954Y0062062D02*
X0280019Y0062062D01*
X0279535Y0062545D01*
X0279535Y0063997D01*
X0282438Y0063997D01*
X0282438Y0062545D01*
X0281954Y0062062D01*
X0282438Y0065008D02*
X0279535Y0065008D01*
X0279535Y0066943D02*
X0282438Y0065008D01*
X0282438Y0066943D02*
X0279535Y0066943D01*
X0280019Y0067955D02*
X0279535Y0068438D01*
X0279535Y0069406D01*
X0280019Y0069890D01*
X0281954Y0069890D01*
X0282438Y0069406D01*
X0282438Y0068438D01*
X0281954Y0067955D01*
X0280986Y0067955D01*
X0280986Y0068922D01*
X0277154Y0068922D02*
X0275219Y0068922D01*
X0276186Y0067955D02*
X0276186Y0069890D01*
X0276186Y0066943D02*
X0275703Y0065976D01*
X0275703Y0065492D01*
X0276186Y0065008D01*
X0277154Y0065008D01*
X0277638Y0065492D01*
X0277638Y0066459D01*
X0277154Y0066943D01*
X0276186Y0066943D02*
X0274735Y0066943D01*
X0274735Y0065008D01*
X0274735Y0063997D02*
X0276670Y0063997D01*
X0277638Y0063029D01*
X0276670Y0062062D01*
X0274735Y0062062D01*
X0272838Y0062062D02*
X0272838Y0063997D01*
X0270903Y0062062D01*
X0270419Y0062062D01*
X0269935Y0062545D01*
X0269935Y0063513D01*
X0270419Y0063997D01*
X0269935Y0065976D02*
X0272838Y0065976D01*
X0272838Y0066943D02*
X0272838Y0065008D01*
X0270903Y0066943D02*
X0269935Y0065976D01*
X0268038Y0065976D02*
X0265135Y0065976D01*
X0266103Y0066943D01*
X0266103Y0067955D02*
X0268038Y0067955D01*
X0268038Y0066943D02*
X0268038Y0065008D01*
X0266586Y0067955D02*
X0266586Y0069890D01*
X0266103Y0069890D02*
X0265135Y0068922D01*
X0266103Y0067955D01*
X0266103Y0069890D02*
X0268038Y0069890D01*
X0270419Y0068922D02*
X0272354Y0068922D01*
X0271386Y0069890D02*
X0271386Y0067955D01*
X0271870Y0061050D02*
X0272838Y0060083D01*
X0271870Y0059115D01*
X0269935Y0059115D01*
X0269935Y0061050D02*
X0271870Y0061050D01*
X0263238Y0065492D02*
X0263238Y0066459D01*
X0262754Y0066943D01*
X0260819Y0065008D01*
X0262754Y0065008D01*
X0263238Y0065492D01*
X0262754Y0066943D02*
X0260819Y0066943D01*
X0260335Y0066459D01*
X0260335Y0065492D01*
X0260819Y0065008D01*
X0258438Y0065492D02*
X0257954Y0065008D01*
X0256019Y0065008D01*
X0255535Y0065492D01*
X0255535Y0066459D01*
X0256019Y0066943D01*
X0257954Y0066943D01*
X0258438Y0066459D01*
X0258438Y0065492D01*
X0257954Y0063997D02*
X0258438Y0063513D01*
X0258438Y0062545D01*
X0257954Y0062062D01*
X0257470Y0062062D01*
X0256986Y0062545D01*
X0256986Y0063513D01*
X0256503Y0063997D01*
X0256019Y0063997D01*
X0255535Y0063513D01*
X0255535Y0062545D01*
X0256019Y0062062D01*
X0255535Y0061050D02*
X0255535Y0060083D01*
X0255535Y0060566D02*
X0258438Y0060566D01*
X0258438Y0060083D02*
X0258438Y0061050D01*
X0253638Y0061050D02*
X0250735Y0061050D01*
X0252186Y0060566D02*
X0253638Y0059115D01*
X0252670Y0061050D02*
X0250735Y0059115D01*
X0248354Y0062062D02*
X0246419Y0062062D01*
X0245935Y0062545D01*
X0245935Y0063997D01*
X0248838Y0063997D01*
X0248838Y0062545D01*
X0248354Y0062062D01*
X0248838Y0065008D02*
X0245935Y0065008D01*
X0244038Y0065008D02*
X0242103Y0065008D01*
X0241135Y0065976D01*
X0242103Y0066943D01*
X0244038Y0066943D01*
X0243554Y0067955D02*
X0244038Y0068438D01*
X0244038Y0069406D01*
X0243554Y0069890D01*
X0243554Y0070901D02*
X0244038Y0071385D01*
X0244038Y0072352D01*
X0243554Y0072836D01*
X0241619Y0072836D01*
X0241135Y0072352D01*
X0241135Y0071385D01*
X0241619Y0070901D01*
X0241619Y0069890D02*
X0242103Y0069890D01*
X0242586Y0069406D01*
X0242586Y0068438D01*
X0243070Y0067955D01*
X0243554Y0067955D01*
X0242586Y0066943D02*
X0242586Y0065008D01*
X0241619Y0067955D02*
X0241135Y0068438D01*
X0241135Y0069406D01*
X0241619Y0069890D01*
X0245935Y0069406D02*
X0246419Y0069890D01*
X0248354Y0069890D01*
X0248838Y0069406D01*
X0248838Y0068438D01*
X0248354Y0067955D01*
X0247386Y0067955D01*
X0247386Y0068922D01*
X0246419Y0067955D02*
X0245935Y0068438D01*
X0245935Y0069406D01*
X0245935Y0066943D02*
X0248838Y0065008D01*
X0248838Y0066943D02*
X0245935Y0066943D01*
X0250735Y0066459D02*
X0251219Y0066943D01*
X0253154Y0066943D01*
X0253638Y0066459D01*
X0253638Y0065492D01*
X0253154Y0065008D01*
X0253638Y0063997D02*
X0253638Y0062062D01*
X0253638Y0063997D02*
X0250735Y0063997D01*
X0251219Y0065008D02*
X0250735Y0065492D01*
X0250735Y0066459D01*
X0251219Y0067955D02*
X0250735Y0068438D01*
X0250735Y0069406D01*
X0251219Y0069890D01*
X0251703Y0069890D01*
X0252186Y0069406D01*
X0252186Y0068438D01*
X0252670Y0067955D01*
X0253154Y0067955D01*
X0253638Y0068438D01*
X0253638Y0069406D01*
X0253154Y0069890D01*
X0255535Y0069890D02*
X0256503Y0068922D01*
X0255535Y0067955D01*
X0258438Y0067955D01*
X0258438Y0069890D02*
X0255535Y0069890D01*
X0260335Y0068922D02*
X0261303Y0067955D01*
X0263238Y0067955D01*
X0261786Y0067955D02*
X0261786Y0069890D01*
X0261303Y0069890D02*
X0260335Y0068922D01*
X0261303Y0069890D02*
X0263238Y0069890D01*
X0265135Y0077762D02*
X0266103Y0078729D01*
X0285303Y0066943D02*
X0287238Y0066943D01*
X0285786Y0066943D02*
X0285786Y0065008D01*
X0231535Y0076794D02*
X0231535Y0078729D01*
X0224354Y0071869D02*
X0222419Y0071869D01*
X0223386Y0072836D02*
X0223386Y0070901D01*
X0222419Y0069890D02*
X0221935Y0069406D01*
D12*
X0508959Y0074379D02*
X0511362Y0074379D01*
X0510161Y0074379D02*
X0510161Y0077982D01*
X0511362Y0076781D01*
X0512643Y0076181D02*
X0513243Y0075580D01*
X0515045Y0075580D01*
X0515045Y0074379D02*
X0515045Y0077982D01*
X0513243Y0077982D01*
X0512643Y0077382D01*
X0512643Y0076181D01*
X0516326Y0077982D02*
X0517527Y0077982D01*
X0516926Y0077982D02*
X0516926Y0074980D01*
X0517527Y0074379D01*
X0518127Y0074379D01*
X0518728Y0074980D01*
M02*
