%
M48
M72
T01C0.01575
T02C0.03543
T03C0.03937
T04C0.04331
T05C0.05118
T06C0.05512
T07C0.12598
%
T01
X179688Y141520
X174688Y155270
X194438Y163020
X203438Y161520
X206688Y158770
X210438Y161770
X210688Y155020
X207938Y151520
X213938Y151270
X217438Y139020
X208188Y139270
X200938Y151520
X227438Y162520
X230938Y173770
X236938Y185520
X227688Y189520
X233188Y202520
X233188Y219520
X226438Y222270
X218688Y220020
X218688Y232770
X226688Y234520
X233188Y234770
X255188Y252020
X259938Y250020
X258438Y241020
X287188Y239020
X286438Y227520
X289438Y223520
X284938Y216770
X266688Y216770
X266688Y204770
X275938Y202270
X271938Y192270
X268938Y182020
X279688Y182770
X293438Y182770
X290938Y173770
X282688Y171270
X273938Y172270
X260938Y173770
X257438Y162520
X263938Y139270
X248957Y136289
X233938Y139270
X278938Y136270
X288938Y139270
X299688Y134020
X302688Y131020
X299688Y128020
X295188Y126770
X311438Y137020
X323938Y140270
X341438Y144520
X355938Y157270
X355938Y167770
X338938Y170770
X329188Y171020
X320688Y173770
X308938Y171520
X299188Y171020
X287438Y162520
X282688Y157270
X317188Y162520
X341938Y182270
X341938Y193520
X348438Y192520
X355938Y200770
X372438Y192020
X376438Y199270
X380688Y207520
X373938Y215770
X380688Y229770
X394938Y222020
X398688Y217270
X414938Y228770
X419438Y217270
X426688Y219770
X441938Y206520
X441938Y202270
X447938Y202270
X449688Y206520
X461938Y200270
X460188Y196270
X458438Y192020
X467938Y192020
X467938Y196270
X467938Y200520
X467938Y184520
X482188Y180270
X495938Y183520
X494188Y199520
X490688Y202020
X500938Y215520
X505938Y220270
X512438Y233270
X526688Y246520
X536188Y255770
X542938Y265020
X548188Y265020
X553438Y265020
X557438Y258020
X562188Y257020
X555938Y250270
X560938Y245520
X565688Y245020
X578688Y242020
X587438Y249770
X597188Y243020
X602188Y248020
X612188Y258270
X603188Y264770
X609438Y276770
X610188Y281020
X605938Y281770
X602688Y284520
X618688Y279020
X621188Y283020
X632188Y279270
X641438Y268820
X637888Y262170
X630938Y258520
X626188Y253770
X621688Y249270
X613688Y236520
X606938Y233020
X608938Y222270
X601688Y218270
X593188Y207020
X585188Y197520
X585188Y194520
X578188Y206770
X575188Y206770
X568938Y213520
X575188Y217270
X578188Y217270
X577938Y226270
X574938Y226270
X569188Y227270
X561688Y211270
X540438Y228770
X541188Y237520
X545938Y242270
X585688Y266020
X588688Y263020
X555688Y285270
X547188Y282270
X544188Y279270
X541188Y276270
X532438Y281020
X524688Y282770
X516438Y275270
X504938Y266770
X499938Y273270
X488438Y275020
X482188Y275020
X483438Y269020
X477438Y263520
X472688Y267270
X467188Y272270
X462438Y272270
X455438Y259020
X451438Y254520
X443688Y254520
X443938Y258770
X432938Y251770
X436938Y248020
X432938Y245770
X426688Y244520
X427688Y234770
X438188Y238020
X441644Y241563
X453188Y241520
X458938Y251270
X464688Y238020
X470438Y221270
X473438Y218270
X477688Y218770
X431938Y201770
X426688Y196520
X409938Y188520
X409938Y185020
X409938Y181520
X409938Y178020
X406438Y178020
X406438Y181520
X406438Y185020
X406438Y188520
X391188Y177520
X390688Y190270
X371938Y184270
X369438Y179520
X394438Y162520
X403188Y170020
X408938Y167270
X408938Y157270
X413688Y157270
X415188Y152270
X426188Y152270
X427938Y167020
X438188Y170270
X431938Y176520
X426438Y176770
X402938Y152270
X388188Y152270
X447688Y127020
X465438Y121270
X468938Y111020
X475938Y110770
X490938Y105520
X500938Y100770
X504438Y94020
X510938Y94020
X510938Y82770
X504438Y81020
X495938Y81020
X495938Y94020
X479188Y100020
X472438Y100020
X460438Y100020
X479188Y127520
X490938Y135520
X479188Y141520
X487188Y152520
X490438Y149520
X520938Y135520
X515938Y126520
X532188Y127520
X544188Y135520
X544688Y141020
X549188Y146020
X555188Y151270
X563188Y157270
X563188Y162520
X532188Y141520
X559188Y137770
X569188Y126770
X574188Y135520
X613688Y160020
X632938Y172020
X640688Y180270
X648438Y180270
X655688Y189020
X646438Y193270
X641438Y193270
X641438Y205770
X646438Y205770
X629688Y205520
X636188Y218520
X630438Y225770
X630438Y228770
X630438Y233520
X630438Y236270
X643188Y241270
X650438Y249270
X654188Y230520
X650438Y217770
X607938Y200520
X600688Y196020
X607938Y184770
X644438Y148770
X574188Y105520
X569188Y105520
X591188Y94520
X577438Y87270
X544188Y105520
X532188Y100020
X520938Y105520
X515938Y105520
X528688Y110520
X453938Y141270
X392188Y97020
X394938Y94020
X364438Y94770
X295938Y193270
X304938Y205270
X305438Y227770
X305688Y232520
X312438Y241770
X306188Y249520
X298938Y251770
X290938Y249520
X289438Y273770
X282688Y283270
X278438Y289520
X271438Y283020
X264688Y278770
X258188Y278770
X252938Y283270
X248688Y289520
X241438Y283270
X236688Y289520
X241438Y302270
X236688Y308020
X232438Y303270
X248688Y308020
X252938Y301770
X258188Y311770
X252938Y316270
X248688Y322520
X241438Y316270
X236688Y322520
X241438Y335020
X236688Y341270
X241438Y349520
X236688Y355770
X248688Y355770
X252938Y349520
X258188Y345020
X248688Y341270
X252938Y335020
X266688Y322520
X271188Y316020
X271188Y311770
X282688Y316270
X278438Y322520
X289438Y320020
X307438Y301020
X307438Y295020
X289438Y290270
X266688Y289520
X248688Y275020
X252938Y268770
X241438Y269020
X236688Y270270
X236688Y275020
X205188Y245770
X186438Y228270
X196938Y224020
X186438Y208270
X196938Y203770
X183688Y190270
X179688Y178520
X252688Y192270
X330438Y236770
X339438Y229020
X349438Y225520
X355938Y243770
X341938Y244770
X330438Y248770
X339188Y256770
X358938Y272270
X376438Y269270
X371938Y259270
X371938Y254270
X390688Y257770
X391188Y246020
X403188Y237520
X406438Y245270
X409938Y245270
X409938Y248770
X409938Y252270
X409938Y255770
X406438Y255770
X406438Y252270
X406438Y248770
X408688Y270520
X425438Y268770
X428438Y291020
X433438Y298520
X428438Y305520
X420188Y299520
X438688Y308770
X448438Y312770
X453938Y324020
X448438Y328270
X438688Y324270
X428438Y320020
X420188Y313770
X420188Y328270
X428438Y334520
X438688Y339770
X448438Y343770
X460938Y343270
X466938Y343270
X463438Y332770
X464438Y312520
X470438Y312520
X462438Y302020
X468188Y294770
X465188Y291770
X452938Y292520
X448438Y297270
X482938Y294770
X491188Y305770
X500938Y294770
X511938Y312020
X523688Y302520
X530188Y293270
X539938Y286020
X542938Y289020
X556688Y294270
X561688Y298520
X566188Y302520
X565188Y308520
X577938Y310270
X580188Y314020
X584438Y314149
X583688Y318270
X577688Y317520
X573188Y327520
X569188Y325520
X563438Y327270
X569938Y334270
X575188Y334520
X556438Y335270
X546438Y333270
X540188Y324520
X551438Y313770
X571438Y291270
X568438Y288020
X583938Y299020
X588188Y297270
X593188Y300770
X594188Y308270
X598438Y308270
X593938Y312520
X589188Y314270
X592188Y317520
X604438Y320770
X614188Y330520
X609188Y335020
X604438Y340020
X599688Y344770
X595188Y349770
X595938Y353770
X591688Y353270
X587938Y350770
X577188Y356270
X579438Y361520
X548438Y360770
X542438Y360770
X536188Y356020
X539188Y353020
X533938Y345520
X545688Y344270
X526921Y365520
X490438Y344270
X478938Y360020
X474688Y360020
X461938Y367770
X468688Y372520
X468688Y378520
X468688Y382770
X468688Y390020
X463438Y394770
X453938Y385520
X448438Y390270
X438688Y386270
X428438Y392520
X420188Y386520
X428438Y378020
X420188Y372020
X428438Y363520
X420188Y357520
X428438Y349020
X420188Y343020
X438688Y355270
X448438Y359270
X455438Y359270
X448438Y374770
X438688Y370770
X433438Y398270
X420188Y401020
X421438Y408770
X414938Y408770
X411688Y408770
X401938Y409270
X394188Y409270
X384938Y409270
X376688Y414770
X368188Y409520
X383688Y396270
X383688Y381770
X383938Y367270
X383688Y352770
X365188Y343020
X362188Y343020
X350688Y343770
X343938Y343770
X335938Y343770
X336938Y333270
X343938Y333270
X339438Y318520
X342938Y312020
X345938Y312020
X358688Y311270
X383688Y309270
X383688Y323770
X383688Y338270
X355688Y366270
X352688Y366270
X345688Y371270
X338938Y366520
X335938Y366520
X328688Y370020
X342188Y380020
X331688Y383770
X327938Y392020
X289438Y381770
X282688Y381770
X278438Y388020
X266688Y388020
X270938Y381520
X270938Y377270
X258188Y377270
X252938Y382520
X248688Y374270
X241688Y382520
X236688Y374270
X241438Y368020
X252938Y368020
X266688Y355770
X278438Y355770
X282688Y349520
X289438Y348270
X271188Y349270
X271188Y345020
X248688Y388770
X236688Y388770
X228688Y391520
X195438Y390020
X187688Y368520
X132688Y402520
X161688Y421270
X186188Y418020
X189938Y424270
X197688Y418020
X201438Y424270
X210938Y418020
X214938Y424270
X218188Y420520
X226188Y424270
X236688Y421270
X248688Y421270
X248688Y429520
X236688Y434520
X214938Y434770
X266688Y434770
X278438Y429520
X284688Y429520
X292438Y434770
X278438Y421270
X266688Y421270
X289188Y420020
X292188Y420020
X332188Y358270
X358938Y295020
X383688Y294770
X408688Y204520
X580938Y306520
X601688Y302520
X605938Y302520
X613938Y310770
X623688Y320520
X634188Y322270
X634188Y318020
X630438Y352770
X644188Y352520
X644188Y367770
X650188Y368020
X640438Y375770
X629688Y370770
X622938Y367770
X615688Y367520
X616438Y375770
X596438Y410020
X593438Y410020
X590688Y421020
X599188Y421020
X604688Y418520
X641438Y422020
X656938Y415520
X444688Y410020
X424938Y419020
X414938Y419770
X411938Y419770
X406438Y420770
T02
X595938Y130770
X605938Y130770
X606938Y121770
X596938Y121770
X626938Y121770
X636938Y121770
X646938Y121770
X645938Y130770
X655938Y130770
X635938Y130770
T03
X439333Y115232
X429333Y115232
X419333Y115232
X409333Y115232
X399333Y115232
X389333Y115232
X379333Y115232
X369333Y115232
X359333Y115232
X349333Y115232
X339333Y115232
X329333Y115232
X319333Y115232
X309333Y115232
X309333Y105232
X319333Y105232
X329333Y105232
X339333Y105232
X349333Y105232
X359333Y105232
X369333Y105232
X379333Y105232
X389333Y105232
X399333Y105232
X409333Y105232
X419333Y105232
X429333Y105232
X439333Y105232
X647438Y285520
X647438Y295520
X647438Y305520
X647438Y315520
X647438Y325520
X647438Y335520
T04
X582188Y179270
T05
X166932Y173441
X166932Y188441
X166932Y203441
X166932Y218441
X166932Y233441
X166932Y248441
X166932Y269425
X166932Y284425
X166932Y299425
X166932Y314425
X166932Y329425
X166932Y344425
X166932Y359425
X166932Y374425
X116932Y374425
X116932Y359425
X116932Y344425
X116932Y329425
X116932Y314425
X116932Y299425
X116932Y284425
X116932Y269425
X116932Y248441
X116932Y233441
X116932Y218441
X116932Y203441
X116932Y188441
X116932Y173441
X116932Y158441
X116932Y143441
X166932Y143441
X166932Y158441
T06
X618845Y88020
X638530Y88020
T07
X137995Y87673
X137995Y87673
X137995Y418382
X137995Y418382
M30
