%
M48
M72
T01C0.01575
T02C0.02756
T03C0.03150
T04C0.03543
T05C0.03937
T06C0.04331
T07C0.05118
T08C0.05512
T09C0.12598
%
T01
X214188Y131770
X215188Y139770
X219938Y146020
X224688Y142020
X217688Y153020
X220688Y155770
X213938Y156020
X228688Y158270
X232438Y162520
X235938Y173770
X245438Y185520
X240438Y190020
X241938Y205520
X241938Y220020
X241938Y232270
X235938Y230770
X235938Y234520
X216938Y233020
X206438Y241020
X213688Y246770
X182438Y251770
X182688Y234520
X182438Y217020
X178938Y202770
X190938Y186020
X205188Y186020
X208938Y179770
X214438Y178270
X221188Y178270
X198688Y161520
X198688Y152270
X240188Y139270
X253957Y136289
X268938Y139270
X283938Y136270
X291438Y139020
X304688Y134020
X307688Y131020
X304688Y128020
X300188Y126770
X316438Y138770
X328938Y140270
X346438Y144520
X361188Y148770
X355938Y157270
X361188Y167270
X355938Y167770
X343938Y170770
X334188Y171020
X325688Y173770
X313938Y171520
X304188Y171020
X295938Y173770
X302188Y182770
X304688Y193270
X313688Y205270
X293688Y216770
X298188Y223520
X295188Y227520
X293188Y239020
X296188Y249270
X307938Y247520
X314688Y245520
X318938Y239770
X314438Y232520
X314188Y227770
X332188Y243020
X336688Y243020
X338438Y248270
X348438Y256770
X355938Y243770
X371938Y254270
X371938Y259270
X376438Y269270
X357688Y272270
X357688Y290520
X349938Y312020
X346938Y312020
X343438Y318520
X340938Y333270
X347938Y333270
X357688Y333770
X354688Y343770
X360938Y343770
X366188Y343020
X369188Y343020
X347938Y343770
X339938Y343770
X336188Y358270
X339938Y366520
X342938Y366520
X349688Y371270
X356688Y366270
X359688Y366270
X342188Y380020
X331688Y383770
X327938Y392020
X332688Y370020
X287438Y381770
X282688Y381770
X278438Y388020
X266688Y388020
X270938Y381520
X261438Y381020
X252938Y382520
X248688Y374270
X241438Y382520
X236688Y374270
X241438Y368020
X252938Y368020
X261438Y364770
X266688Y355770
X278438Y355770
X282688Y349520
X287438Y348270
X271188Y349270
X261438Y348270
X252938Y349520
X248688Y355770
X241438Y349520
X236688Y355770
X236688Y341270
X241438Y335020
X248688Y341270
X252938Y335020
X261438Y331770
X266688Y322520
X271188Y316020
X278438Y322520
X282688Y316270
X287438Y320020
X261438Y315020
X256938Y311770
X252938Y316270
X248688Y322520
X241438Y316270
X236688Y322520
X236688Y308020
X232438Y303270
X241438Y302270
X248688Y308020
X252938Y301770
X261438Y298520
X266688Y289520
X271188Y283020
X278438Y289520
X282688Y283270
X287438Y290270
X307438Y297520
X261438Y282020
X256938Y278770
X252938Y283270
X248688Y289520
X241438Y283270
X236688Y289520
X236688Y275020
X233938Y270270
X241438Y269020
X248688Y275020
X252938Y268770
X261438Y265520
X263938Y249520
X268688Y247520
X267188Y241020
X275438Y216770
X275438Y204770
X284688Y202270
X280688Y192270
X288438Y182770
X284688Y175270
X278938Y172270
X265938Y173770
X273938Y181520
X261438Y192270
X216938Y215270
X206438Y222020
X262438Y162520
X284688Y157270
X292438Y162520
X322188Y162520
X332188Y188520
X338938Y197520
X348438Y192520
X355938Y200770
X372438Y192020
X376438Y199270
X380688Y207520
X373938Y215770
X380688Y229770
X391188Y238020
X390688Y246020
X390688Y257770
X406438Y255770
X409938Y255770
X409938Y252270
X409938Y248770
X409938Y245270
X406438Y245270
X406438Y248770
X406438Y252270
X426688Y244520
X431688Y246270
X435938Y248270
X438938Y251270
X443188Y251520
X447438Y250770
X447438Y256770
X451688Y257520
X447438Y263020
X442188Y259520
X425438Y269020
X408688Y270520
X436438Y291020
X441438Y298520
X436438Y305520
X428188Y299520
X446688Y308770
X456438Y312770
X461938Y324020
X456438Y328270
X446688Y324270
X436438Y320020
X428188Y313770
X428188Y328270
X436438Y334520
X446688Y339770
X456438Y343770
X468938Y343270
X474938Y343270
X471438Y332770
X490438Y344270
X486938Y360020
X482688Y360020
X476688Y372520
X469938Y367770
X463438Y359270
X456438Y359270
X446688Y355270
X436438Y363520
X428188Y357520
X436438Y349020
X428188Y343020
X403938Y343270
X403938Y357770
X403688Y372270
X403688Y386770
X399188Y396270
X402188Y409270
X409938Y409270
X419688Y408770
X422938Y408770
X429438Y408770
X428188Y401020
X436438Y392520
X428188Y386520
X436438Y378020
X428188Y372020
X446688Y370770
X456438Y374770
X461938Y385520
X456438Y390270
X446688Y386270
X441438Y398270
X452688Y410020
X432938Y419020
X422938Y419770
X419938Y419770
X414438Y420770
X392938Y409270
X384688Y414770
X364688Y419520
X292188Y420020
X289188Y420020
X284688Y429520
X292438Y434770
X266688Y434770
X266688Y424770
X236688Y422770
X226188Y424270
X218188Y420520
X214938Y424270
X210938Y418020
X201438Y424270
X197688Y418020
X189938Y424270
X186188Y418020
X161688Y421270
X132688Y402520
X142938Y395270
X142938Y392270
X195438Y390020
X228688Y391520
X236688Y388770
X248688Y388770
X195438Y362270
X214938Y434770
X236688Y434520
X382188Y317770
X399188Y323770
X399188Y309270
X399188Y294770
X456438Y297270
X460938Y292520
X472188Y292270
X476188Y294770
X482938Y294770
X491188Y306270
X478438Y312520
X472438Y312520
X470438Y302020
X500938Y294770
X522438Y302520
X530188Y293270
X524688Y282770
X532438Y281020
X539938Y286020
X542938Y289020
X547188Y282270
X544188Y279270
X541188Y276270
X542938Y265020
X548188Y265020
X553438Y265020
X557438Y258020
X562188Y257020
X555938Y250270
X560938Y245520
X565688Y245020
X578688Y242020
X587438Y249770
X588688Y263020
X585688Y266020
X603188Y264770
X609438Y276770
X610188Y281020
X605938Y281770
X602688Y284520
X618688Y279020
X621188Y283020
X633938Y279770
X641438Y268820
X637888Y262170
X643188Y257020
X646188Y257020
X649188Y257020
X652188Y257020
X638938Y254770
X638938Y251770
X638938Y248770
X626188Y253770
X621688Y249270
X611938Y254270
X602188Y248020
X597438Y238270
X606938Y233020
X613688Y236520
X624688Y222770
X627438Y222770
X635188Y225770
X641438Y225770
X636188Y218520
X650438Y217770
X646438Y205770
X641438Y205770
X629688Y205520
X641438Y193270
X646438Y193270
X655688Y189020
X648438Y180270
X640688Y180270
X632938Y172020
X613688Y160020
X587438Y179770
X577438Y188020
X567938Y196020
X564938Y196020
X551688Y195270
X548188Y192770
X566438Y180520
X563188Y162520
X563188Y157270
X549188Y146020
X544188Y135520
X532188Y141520
X520938Y135520
X515938Y126520
X532188Y127520
X528688Y110520
X523438Y110270
X516688Y105520
X532188Y100020
X523438Y94520
X523438Y86270
X508688Y81020
X504438Y79270
X495938Y79270
X495938Y94020
X504438Y94020
X508688Y94020
X500938Y100770
X490938Y105520
X479188Y100020
X472438Y100020
X460438Y100020
X468938Y111020
X475938Y110770
X465438Y121270
X479188Y127520
X490938Y135520
X479188Y141520
X487188Y152520
X490438Y149520
X453938Y141270
X447688Y127020
X426188Y152270
X415188Y152270
X413688Y157270
X408938Y157270
X402938Y152270
X394438Y162520
X388188Y152270
X408938Y167270
X409938Y178020
X409938Y181520
X409938Y185020
X409938Y188520
X406438Y188520
X406438Y185020
X406438Y181520
X406438Y178020
X390688Y178520
X390688Y173520
X371938Y184270
X369438Y179520
X390688Y190270
X408688Y204520
X398688Y217270
X394938Y222020
X414938Y228770
X419438Y217270
X426688Y219770
X435438Y217270
X431938Y201770
X426688Y196520
X458438Y194020
X461188Y197270
X463688Y200770
X466688Y205270
X470188Y191520
X480188Y180270
X495938Y183520
X494188Y199520
X490688Y202020
X494938Y206270
X493938Y210770
X475688Y217020
X472688Y220020
X469688Y223270
X500688Y234270
X504938Y233020
X505188Y228770
X509438Y228770
X526688Y246520
X531938Y256020
X545938Y242020
X541188Y237520
X570438Y227270
X575188Y217270
X578188Y217270
X568938Y213520
X571688Y209270
X561688Y211270
X555938Y214020
X552188Y211770
X548188Y213770
X544688Y211270
X510938Y201020
X581688Y209270
X607938Y200520
X607938Y184770
X644438Y148770
X574188Y135520
X569188Y126770
X559188Y137770
X569188Y105520
X574188Y105520
X591188Y94520
X577438Y87270
X544188Y105520
X438188Y170270
X431938Y176520
X426438Y176770
X427938Y167020
X349438Y225520
X339438Y229020
X427688Y234770
X434438Y234770
X440144Y240563
X473688Y260520
X476938Y257520
X479938Y254520
X482938Y251520
X477438Y263520
X472688Y267270
X470188Y272270
X462438Y272270
X482188Y275020
X483438Y269020
X488438Y275020
X499938Y273270
X504938Y266770
X513438Y277520
X555688Y285270
X556688Y294270
X561688Y298520
X566188Y302520
X565188Y308520
X577938Y310270
X580188Y314020
X584438Y314149
X583688Y318270
X577688Y317520
X573188Y327520
X569188Y325520
X564438Y327270
X556438Y335270
X546438Y333270
X539688Y325520
X551438Y313770
X574938Y335020
X592188Y317520
X589188Y314270
X593938Y312520
X594188Y308270
X598438Y308270
X601688Y302520
X605938Y302520
X593188Y300770
X588188Y297270
X583938Y299020
X580938Y306520
X604188Y320770
X614188Y330520
X609188Y335020
X604438Y340020
X599688Y344770
X595188Y349770
X595938Y353770
X591688Y353270
X587938Y350770
X577188Y356270
X579438Y361520
X615688Y367520
X622938Y367770
X629688Y370770
X640438Y375770
X644188Y367770
X650188Y368020
X644188Y352520
X630438Y352770
X616438Y375770
X596438Y410020
X593438Y410020
X590688Y421020
X604688Y418520
X641438Y422020
X656938Y415520
X545688Y344270
X533938Y345520
X511938Y312020
X568438Y288020
X571438Y291270
X618438Y310770
X623688Y320520
X634188Y322270
X634188Y318020
X653938Y268770
X630938Y258520
X476688Y378520
X476688Y382770
X476688Y390020
X471438Y394770
X392188Y97020
X394938Y94020
X364438Y94770
T02
X378152Y306177
X378152Y314051
X378152Y321925
X378152Y329799
X378152Y337673
X378152Y345547
X378152Y353421
X378152Y361295
X378152Y369169
X378152Y377043
X307286Y377043
X307286Y369169
X307286Y361295
X307286Y353421
X307286Y345547
X307286Y337673
X307286Y329799
X307286Y321925
X307286Y314051
X307286Y306177
X187207Y306177
X187207Y314051
X187207Y321925
X187207Y329799
X187207Y337673
X187207Y345547
X187207Y353421
X187207Y361295
X187207Y369169
X187207Y377043
T03
X178188Y370457
X178188Y362583
X178188Y337457
X178188Y329583
X178188Y304457
X178188Y296583
X178188Y271457
X178188Y263583
T04
X178814Y175520
X186688Y175520
X194562Y175520
X194812Y134770
X186938Y134770
X179064Y134770
X595938Y130770
X605938Y130770
X606938Y121770
X596938Y121770
X626938Y121770
X636938Y121770
X646938Y121770
X645938Y130770
X655938Y130770
X635938Y130770
T05
X439333Y115232
X429333Y115232
X419333Y115232
X409333Y115232
X399333Y115232
X389333Y115232
X379333Y115232
X369333Y115232
X359333Y115232
X349333Y115232
X339333Y115232
X329333Y115232
X319333Y115232
X309333Y115232
X309333Y105232
X319333Y105232
X329333Y105232
X339333Y105232
X349333Y105232
X359333Y105232
X369333Y105232
X379333Y105232
X389333Y105232
X399333Y105232
X409333Y105232
X419333Y105232
X429333Y105232
X439333Y105232
X647438Y285520
X647438Y295520
X647438Y305520
X647438Y315520
X647438Y325520
X647438Y335520
T06
X561938Y173020
T07
X166932Y173441
X166932Y188441
X166932Y203441
X166932Y218441
X166932Y233441
X166932Y248441
X166932Y269425
X166932Y284425
X166932Y299425
X166932Y314425
X166932Y329425
X166932Y344425
X166932Y359425
X166932Y374425
X116932Y374425
X116932Y359425
X116932Y344425
X116932Y329425
X116932Y314425
X116932Y299425
X116932Y284425
X116932Y269425
X116932Y248441
X116932Y233441
X116932Y218441
X116932Y203441
X116932Y188441
X116932Y173441
X116932Y158441
X116932Y143441
X166932Y143441
X166932Y158441
T08
X618845Y88020
X638530Y88020
T09
X137995Y87673
X137995Y87673
X137995Y418382
X137995Y418382
M30
