%
M48
M72
T01C0.01575
T02C0.03543
T03C0.03937
T04C0.05118
T05C0.05512
T06C0.12598
%
T01
X208188Y139270
X217438Y139020
X213938Y151270
X207938Y151520
X200938Y151520
X203438Y161520
X210438Y161770
X194438Y163020
X179688Y170520
X175188Y181520
X175188Y157270
X179688Y146020
X220438Y173020
X215688Y177770
X230938Y173770
X236938Y185520
X227688Y189520
X233188Y202520
X233188Y219520
X226438Y222270
X218688Y220020
X201188Y211520
X186938Y211770
X186938Y231770
X201188Y231770
X218688Y232770
X226688Y234520
X205188Y245770
X236688Y270270
X236688Y275020
X241438Y269020
X248688Y275020
X252938Y268770
X258188Y278770
X264688Y278770
X271438Y283020
X266688Y289520
X278438Y289520
X282688Y283270
X289438Y290270
X289438Y273770
X307438Y295020
X307438Y301020
X289438Y320020
X282688Y316270
X278438Y322520
X271188Y316020
X271188Y311770
X266688Y322520
X258188Y311770
X252938Y316270
X248688Y322520
X241438Y316270
X236688Y322520
X241438Y335020
X252938Y335020
X248688Y341270
X258188Y345020
X252938Y349520
X248688Y355770
X241438Y349520
X236688Y355770
X241438Y368020
X252938Y368020
X248688Y374270
X252938Y382520
X258188Y377270
X270938Y377270
X270938Y381520
X282688Y381770
X289438Y381770
X278438Y388020
X266688Y388020
X248688Y388770
X241688Y382520
X236688Y374270
X236688Y388770
X218188Y420520
X214938Y424270
X210938Y418020
X201438Y424270
X197688Y418020
X189938Y424270
X186188Y418020
X214938Y434770
X226188Y424270
X236688Y424770
X236688Y434520
X266688Y434770
X266688Y424770
X272938Y424520
X284688Y429520
X292438Y434770
X296938Y423270
X327938Y392020
X331688Y383770
X342188Y380020
X345688Y371270
X338938Y366520
X335938Y366520
X328688Y370020
X332188Y358270
X335938Y343770
X343938Y343770
X350688Y343770
X362188Y343020
X365188Y343020
X383688Y338270
X383688Y352770
X383938Y367270
X383688Y381770
X383688Y396270
X384938Y409270
X394188Y409270
X401938Y409270
X413688Y408770
X416688Y408770
X423938Y408770
X420188Y401020
X428438Y392520
X420188Y386520
X428438Y378020
X420188Y372020
X428438Y363520
X420188Y357520
X428438Y349020
X420188Y343020
X428438Y334520
X420188Y328270
X428438Y320020
X420188Y313770
X428438Y305520
X433438Y298520
X428438Y291020
X420188Y299520
X438688Y308770
X448438Y312770
X453938Y324020
X448438Y328270
X438688Y324270
X438688Y339770
X448438Y343770
X463438Y332770
X490438Y344270
X478938Y360020
X474688Y360020
X461938Y367770
X455438Y359270
X448438Y359270
X438688Y355270
X438688Y370770
X448438Y374770
X453938Y385520
X448438Y390270
X438688Y386270
X433438Y398270
X444688Y410020
X427938Y418770
X416188Y419770
X413188Y419770
X406438Y420770
X376688Y414770
X368188Y409520
X355688Y366270
X352688Y366270
X343938Y333270
X336938Y333270
X339438Y318520
X342938Y312020
X345938Y312020
X358688Y311270
X358938Y295020
X383688Y294770
X383688Y309270
X383688Y323770
X448438Y297270
X452938Y292520
X465188Y291770
X468188Y294770
X462438Y302020
X482938Y294770
X491188Y305770
X500938Y294770
X523688Y302520
X530188Y293270
X524688Y282770
X532438Y281020
X539938Y286020
X542938Y289020
X547188Y282270
X544188Y279270
X541188Y276270
X542938Y265020
X548188Y265020
X553438Y265020
X536188Y255770
X526688Y246520
X541188Y237520
X545938Y242270
X556688Y250770
X562938Y251520
X567438Y251270
X563938Y243270
X581438Y242020
X587438Y249770
X597188Y243020
X606938Y233020
X608938Y221020
X600688Y218520
X593188Y207020
X585188Y197520
X585188Y194520
X600688Y196020
X607938Y200520
X607938Y184770
X632938Y172020
X640688Y180270
X648438Y180270
X655688Y189020
X646438Y193270
X641438Y193270
X641438Y205770
X646438Y205770
X650438Y217770
X636188Y218520
X627688Y225770
X627688Y228770
X636938Y234520
X636938Y237520
X643188Y241270
X650438Y249270
X637888Y262170
X630938Y258520
X626188Y253770
X621688Y249270
X612188Y258270
X603188Y264770
X609438Y276770
X610188Y281020
X605938Y281770
X602688Y284520
X618688Y279020
X621188Y283020
X632188Y279270
X641438Y268820
X605938Y302520
X601688Y302520
X598438Y308270
X594188Y308270
X593938Y312520
X589188Y314270
X592188Y317520
X584438Y314149
X583688Y318270
X580188Y314020
X577688Y317520
X577938Y310270
X580938Y306520
X583938Y299020
X588188Y297270
X593188Y300770
X613938Y310770
X623688Y320520
X634188Y322270
X634188Y318020
X614188Y330520
X609188Y335020
X604438Y340020
X599688Y344770
X595188Y349770
X595938Y353770
X591688Y353270
X587938Y350770
X577188Y356270
X579438Y361520
X548438Y360770
X542438Y360770
X536188Y356020
X539188Y353020
X533938Y345520
X545688Y344270
X546438Y333270
X556438Y335270
X563438Y327270
X569188Y325520
X573188Y327520
X575188Y334520
X569938Y334270
X551438Y313770
X565188Y308520
X566188Y302520
X561688Y298520
X556688Y294270
X567188Y292520
X571438Y291770
X555688Y285270
X582438Y269270
X585688Y266020
X588688Y263020
X568688Y223520
X570938Y221270
X562688Y217020
X564688Y215020
X555188Y218020
X547938Y221770
X554688Y209520
X556688Y207270
X527438Y234020
X505938Y220270
X500938Y215520
X477688Y218770
X473438Y218270
X470438Y221270
X465938Y238270
X453188Y241520
X441644Y241563
X438188Y238020
X427688Y234770
X430188Y229770
X426688Y219770
X419438Y217270
X408688Y204520
X409938Y188520
X409938Y185020
X409938Y181520
X409938Y178020
X406438Y178020
X406438Y181520
X406438Y185020
X406438Y188520
X391188Y177520
X403188Y170020
X394438Y162520
X391438Y149520
X398688Y149270
X413938Y157270
X419438Y149270
X426688Y151520
X432438Y157270
X432438Y167270
X427938Y168520
X428438Y176520
X438188Y171770
X467938Y187770
X467938Y192020
X467938Y196270
X467938Y200520
X461938Y200270
X460188Y196270
X458438Y192020
X447938Y202270
X449688Y206520
X441938Y206520
X441938Y202270
X428438Y200520
X398688Y217270
X394938Y222020
X384688Y229770
X377438Y218020
X380688Y207520
X376438Y199270
X374188Y192020
X374188Y184270
X369438Y179520
X355938Y167770
X355938Y157270
X341438Y144520
X333938Y151020
X323938Y140270
X311438Y137020
X302688Y131020
X299688Y134020
X299688Y128020
X295188Y126770
X278938Y136270
X288938Y139020
X300438Y151020
X287438Y162520
X278188Y157270
X273938Y151020
X263938Y139270
X248957Y136289
X233938Y139270
X240938Y151020
X243938Y151020
X257438Y162520
X273938Y172270
X278188Y176020
X283938Y173770
X282188Y186020
X272188Y192020
X268938Y182020
X260938Y173770
X252688Y192270
X266688Y204770
X275688Y202270
X280438Y212770
X289438Y223520
X286438Y227520
X297938Y236770
X305688Y232520
X305438Y227770
X312438Y241770
X306188Y249520
X298938Y251770
X290938Y249520
X259938Y250020
X255188Y252020
X258438Y241020
X266688Y216770
X297938Y196520
X304938Y205270
X298938Y182020
X313688Y173770
X308938Y171520
X299188Y171020
X317188Y162520
X329188Y171020
X338938Y170770
X341938Y182270
X341938Y193520
X348438Y192520
X355938Y200770
X349438Y225520
X339438Y229020
X330438Y236770
X330438Y248770
X339188Y256770
X341938Y244770
X355938Y243770
X374188Y254270
X374188Y259270
X376438Y269270
X358938Y272270
X391188Y246020
X403188Y237520
X406438Y245270
X409938Y245270
X409938Y248770
X409938Y252270
X409938Y255770
X406438Y255770
X406438Y252270
X406438Y248770
X426188Y251770
X430188Y248020
X426188Y245770
X443688Y254520
X443938Y258770
X449688Y254020
X462438Y272270
X467188Y272270
X469688Y268520
X473938Y267270
X473188Y261770
X478688Y263520
X476938Y255020
X472188Y255770
X482188Y255020
X488438Y275020
X483438Y276270
X499938Y273270
X504688Y267020
X516438Y275270
X511938Y312020
X540188Y324520
X526921Y365520
X463438Y394770
X593438Y409520
X596438Y409520
X594688Y420770
X604688Y418520
X641438Y422020
X656938Y415520
X629688Y370770
X622938Y367770
X615688Y367520
X630438Y352770
X618188Y347520
X641438Y367770
X648688Y368020
X649188Y352520
X604438Y320770
X654188Y230520
X629688Y205520
X613688Y160020
X644438Y148770
X574188Y135520
X569188Y126770
X569188Y105520
X574188Y105520
X591188Y94520
X577438Y87270
X544188Y105520
X532188Y100020
X520938Y105520
X515938Y105520
X528688Y110520
X532188Y127520
X520938Y135520
X515938Y126520
X532188Y141520
X544188Y135520
X568188Y157270
X568188Y162520
X495938Y170520
X479188Y141520
X490938Y135520
X479188Y127520
X465438Y121270
X468938Y111020
X475938Y110770
X490938Y105520
X500938Y100770
X504438Y94020
X510938Y94020
X510938Y82770
X504438Y81020
X495938Y81020
X495938Y94020
X479188Y100020
X472438Y100020
X460438Y100020
X447688Y127020
X453938Y141270
X392188Y97020
X394938Y94020
X364438Y94770
X227438Y162520
X408688Y270520
X289438Y348270
X282688Y349520
X278438Y355770
X271188Y349270
X271188Y345020
X266688Y355770
X236688Y341270
X236688Y308020
X232438Y303270
X241438Y302270
X248688Y308020
X252938Y301770
X248688Y289520
X252938Y283270
X241438Y283270
X236688Y289520
X187688Y368520
X195438Y390020
T02
X595938Y130770
X596938Y121770
X606938Y121770
X605938Y130770
X626938Y121770
X636938Y121770
X635938Y130770
X645938Y130770
X655938Y130770
X646938Y121770
T03
X439333Y115232
X429333Y115232
X419333Y115232
X409333Y115232
X399333Y115232
X389333Y115232
X379333Y115232
X369333Y115232
X359333Y115232
X349333Y115232
X339333Y115232
X329333Y115232
X319333Y115232
X309333Y115232
X309333Y105232
X319333Y105232
X329333Y105232
X339333Y105232
X349333Y105232
X359333Y105232
X369333Y105232
X379333Y105232
X389333Y105232
X399333Y105232
X409333Y105232
X419333Y105232
X429333Y105232
X439333Y105232
X647438Y285520
X647438Y295520
X647438Y305520
X647438Y315520
X647438Y325520
X647438Y335520
T04
X168113Y329425
X168113Y314425
X168113Y299425
X168113Y284425
X168113Y269425
X168113Y248441
X168113Y233441
X168113Y218441
X168113Y203441
X168113Y188441
X168113Y173441
X168113Y158441
X168113Y143441
X118113Y143441
X118113Y158441
X118113Y173441
X118113Y188441
X118113Y203441
X118113Y218441
X118113Y233441
X118113Y248441
X118113Y269425
X118113Y284425
X118113Y299425
X118113Y314425
X118113Y329425
X118113Y344425
X118113Y359425
X118113Y374425
X168113Y374425
X168113Y359425
X168113Y344425
T05
X618845Y88020
X638530Y88020
T06
X137995Y87673
X137995Y87673
X137995Y418382
X137995Y418382
M30
