G75*
%MOIN*%
%OFA0B0*%
%FSLAX25Y25*%
%IPPOS*%
%LPD*%
%AMOC8*
5,1,8,0,0,1.08239X$1,22.5*
%
%ADD10C,0.00500*%
D10*
X0359846Y0120520D02*
X0360597Y0119770D01*
X0362849Y0119770D01*
X0362849Y0124274D01*
X0360597Y0124274D01*
X0359846Y0123523D01*
X0359846Y0122772D01*
X0360597Y0122022D01*
X0362849Y0122022D01*
X0360597Y0122022D02*
X0359846Y0121271D01*
X0359846Y0120520D01*
X0364417Y0119770D02*
X0365918Y0119770D01*
X0365167Y0119770D02*
X0365167Y0124274D01*
X0364417Y0124274D02*
X0365918Y0124274D01*
X0367519Y0123523D02*
X0368270Y0124274D01*
X0370522Y0124274D01*
X0370522Y0119770D01*
X0368270Y0119770D01*
X0367519Y0120520D01*
X0367519Y0123523D01*
X0376727Y0123523D02*
X0379730Y0120520D01*
X0379730Y0119770D01*
X0376727Y0119770D01*
X0376727Y0123523D02*
X0376727Y0124274D01*
X0379730Y0124274D01*
X0381331Y0124274D02*
X0384334Y0124274D01*
X0384334Y0119770D01*
X0381331Y0119770D01*
X0382832Y0122022D02*
X0384334Y0122022D01*
X0385935Y0124274D02*
X0388938Y0124274D01*
X0388938Y0119770D01*
X0385935Y0119770D01*
X0387436Y0122022D02*
X0388938Y0122022D01*
X0491043Y0420254D02*
X0491043Y0422506D01*
X0491794Y0423256D01*
X0494046Y0423256D01*
X0494046Y0420254D01*
X0495647Y0421755D02*
X0498650Y0421755D01*
X0498650Y0421005D02*
X0498650Y0422506D01*
X0497899Y0423256D01*
X0496398Y0423256D01*
X0495647Y0422506D01*
X0495647Y0421755D01*
X0496398Y0420254D02*
X0497899Y0420254D01*
X0498650Y0421005D01*
X0500251Y0421005D02*
X0501002Y0420254D01*
X0503253Y0420254D01*
X0503253Y0418753D02*
X0503253Y0423256D01*
X0501002Y0423256D01*
X0500251Y0422506D01*
X0500251Y0421005D01*
X0504855Y0421005D02*
X0504855Y0422506D01*
X0505605Y0423256D01*
X0507107Y0423256D01*
X0507857Y0422506D01*
X0507857Y0421005D01*
X0507107Y0420254D01*
X0505605Y0420254D01*
X0504855Y0421005D01*
X0509459Y0422506D02*
X0512461Y0422506D01*
X0514063Y0423256D02*
X0517065Y0420254D01*
X0514063Y0420254D01*
X0514063Y0423256D02*
X0517065Y0423256D01*
X0518667Y0422506D02*
X0518667Y0421755D01*
X0521669Y0421755D01*
X0521669Y0421005D02*
X0521669Y0422506D01*
X0520919Y0423256D01*
X0519417Y0423256D01*
X0518667Y0422506D01*
X0519417Y0420254D02*
X0520919Y0420254D01*
X0521669Y0421005D01*
X0523271Y0421755D02*
X0526273Y0421755D01*
X0526273Y0421005D02*
X0526273Y0422506D01*
X0525522Y0423256D01*
X0524021Y0423256D01*
X0523271Y0422506D01*
X0523271Y0421755D01*
X0524021Y0420254D02*
X0525522Y0420254D01*
X0526273Y0421005D01*
X0527874Y0424758D02*
X0530877Y0420254D01*
X0532478Y0420254D02*
X0532478Y0422506D01*
X0533229Y0423256D01*
X0533980Y0422506D01*
X0533980Y0420254D01*
X0535481Y0420254D02*
X0535481Y0423256D01*
X0534730Y0423256D01*
X0533980Y0422506D01*
X0537082Y0422506D02*
X0537833Y0423256D01*
X0539334Y0423256D01*
X0540085Y0422506D01*
X0540085Y0421005D01*
X0539334Y0420254D01*
X0537833Y0420254D01*
X0537082Y0421005D01*
X0537082Y0422506D01*
X0541686Y0423256D02*
X0543938Y0423256D01*
X0544689Y0422506D01*
X0544689Y0421005D01*
X0543938Y0420254D01*
X0541686Y0420254D01*
X0546240Y0420254D02*
X0546991Y0420254D01*
X0546991Y0421005D01*
X0546240Y0421005D01*
X0546240Y0420254D01*
X0548592Y0421005D02*
X0548592Y0422506D01*
X0549343Y0423256D01*
X0551595Y0423256D01*
X0551595Y0424758D02*
X0551595Y0420254D01*
X0549343Y0420254D01*
X0548592Y0421005D01*
X0553196Y0420254D02*
X0553196Y0423256D01*
X0553196Y0420254D02*
X0555448Y0420254D01*
X0556199Y0421005D01*
X0556199Y0423256D01*
X0557800Y0422506D02*
X0557800Y0420254D01*
X0557800Y0422506D02*
X0558551Y0423256D01*
X0560052Y0423256D01*
X0560803Y0422506D01*
X0562371Y0423256D02*
X0563872Y0423256D01*
X0563121Y0424007D02*
X0563121Y0421005D01*
X0562371Y0420254D01*
X0560803Y0420254D02*
X0560803Y0424758D01*
X0562387Y0427754D02*
X0563888Y0427754D01*
X0564639Y0428505D01*
X0561637Y0431507D01*
X0561637Y0428505D01*
X0562387Y0427754D01*
X0564639Y0428505D02*
X0564639Y0431507D01*
X0563888Y0432258D01*
X0562387Y0432258D01*
X0561637Y0431507D01*
X0566240Y0431507D02*
X0566240Y0430756D01*
X0569243Y0427754D01*
X0566240Y0427754D01*
X0566190Y0425508D02*
X0566190Y0424758D01*
X0566190Y0423256D02*
X0566190Y0420254D01*
X0565440Y0420254D02*
X0566941Y0420254D01*
X0568542Y0420254D02*
X0570794Y0420254D01*
X0571545Y0421005D01*
X0571545Y0422506D01*
X0570794Y0423256D01*
X0568542Y0423256D01*
X0568542Y0419503D01*
X0569293Y0418753D01*
X0570044Y0418753D01*
X0566941Y0423256D02*
X0566190Y0423256D01*
X0570844Y0428505D02*
X0571595Y0427754D01*
X0573096Y0427754D01*
X0573847Y0428505D01*
X0570844Y0431507D01*
X0570844Y0428505D01*
X0570844Y0431507D02*
X0571595Y0432258D01*
X0573096Y0432258D01*
X0573847Y0431507D01*
X0573847Y0428505D01*
X0575448Y0427754D02*
X0578451Y0427754D01*
X0575448Y0430756D01*
X0575448Y0431507D01*
X0576199Y0432258D01*
X0577700Y0432258D01*
X0578451Y0431507D01*
X0580052Y0432258D02*
X0583055Y0427754D01*
X0584656Y0428505D02*
X0585407Y0427754D01*
X0586908Y0427754D01*
X0587659Y0428505D01*
X0587659Y0430006D02*
X0586157Y0430756D01*
X0585407Y0430756D01*
X0584656Y0430006D01*
X0584656Y0428505D01*
X0587659Y0430006D02*
X0587659Y0432258D01*
X0584656Y0432258D01*
X0589260Y0431507D02*
X0592263Y0428505D01*
X0591512Y0427754D01*
X0590011Y0427754D01*
X0589260Y0428505D01*
X0589260Y0431507D01*
X0590011Y0432258D01*
X0591512Y0432258D01*
X0592263Y0431507D01*
X0592263Y0428505D01*
X0593831Y0427754D02*
X0595332Y0429255D01*
X0595332Y0430756D01*
X0593831Y0432258D01*
X0601537Y0431507D02*
X0601537Y0430756D01*
X0602288Y0430006D01*
X0603789Y0430006D01*
X0604540Y0430756D01*
X0604540Y0431507D01*
X0603789Y0432258D01*
X0602288Y0432258D01*
X0601537Y0431507D01*
X0602288Y0430006D02*
X0601537Y0429255D01*
X0601537Y0428505D01*
X0602288Y0427754D01*
X0603789Y0427754D01*
X0604540Y0428505D01*
X0604540Y0429255D01*
X0603789Y0430006D01*
X0606141Y0429255D02*
X0606892Y0430006D01*
X0609144Y0430006D01*
X0609144Y0428505D01*
X0608393Y0427754D01*
X0606892Y0427754D01*
X0606141Y0428505D01*
X0606141Y0429255D01*
X0607642Y0431507D02*
X0606141Y0432258D01*
X0607642Y0431507D02*
X0609144Y0430006D01*
X0610745Y0427754D02*
X0613748Y0427754D01*
X0612246Y0427754D02*
X0612246Y0432258D01*
X0613748Y0430756D01*
X0615349Y0431507D02*
X0616100Y0432258D01*
X0617601Y0432258D01*
X0618352Y0431507D01*
X0618352Y0428505D01*
X0617601Y0427754D01*
X0616100Y0427754D01*
X0615349Y0428505D01*
X0615349Y0431507D01*
X0619920Y0432258D02*
X0621421Y0432258D01*
X0620670Y0432258D02*
X0620670Y0427754D01*
X0619920Y0427754D02*
X0621421Y0427754D01*
X0623022Y0427754D02*
X0623022Y0432258D01*
X0624523Y0430756D01*
X0626025Y0432258D01*
X0626025Y0427754D01*
X0625324Y0423256D02*
X0627576Y0423256D01*
X0628327Y0422506D01*
X0627576Y0421755D01*
X0626075Y0421755D01*
X0625324Y0421005D01*
X0626075Y0420254D01*
X0628327Y0420254D01*
X0623723Y0421005D02*
X0623723Y0422506D01*
X0622972Y0423256D01*
X0621471Y0423256D01*
X0620720Y0422506D01*
X0620720Y0421005D01*
X0621471Y0420254D01*
X0622972Y0420254D01*
X0623723Y0421005D01*
X0619119Y0421005D02*
X0619119Y0423256D01*
X0619119Y0421005D02*
X0618368Y0420254D01*
X0616116Y0420254D01*
X0616116Y0423256D01*
X0614515Y0423256D02*
X0614515Y0420254D01*
X0614515Y0421755D02*
X0613014Y0423256D01*
X0612263Y0423256D01*
X0610678Y0422506D02*
X0610678Y0421005D01*
X0609928Y0420254D01*
X0607676Y0420254D01*
X0606074Y0421005D02*
X0606074Y0422506D01*
X0605324Y0423256D01*
X0603823Y0423256D01*
X0603072Y0422506D01*
X0603072Y0421755D01*
X0606074Y0421755D01*
X0606074Y0421005D02*
X0605324Y0420254D01*
X0603823Y0420254D01*
X0607676Y0423256D02*
X0609928Y0423256D01*
X0610678Y0422506D01*
X0596867Y0422506D02*
X0596867Y0421005D01*
X0596116Y0420254D01*
X0593864Y0420254D01*
X0592263Y0421005D02*
X0592263Y0422506D01*
X0591512Y0423256D01*
X0590011Y0423256D01*
X0589260Y0422506D01*
X0589260Y0421005D01*
X0590011Y0420254D01*
X0591512Y0420254D01*
X0592263Y0421005D01*
X0593864Y0423256D02*
X0596116Y0423256D01*
X0596867Y0422506D01*
X0587659Y0422506D02*
X0587659Y0421005D01*
X0586908Y0420254D01*
X0584656Y0420254D01*
X0584656Y0424758D01*
X0584656Y0423256D02*
X0586908Y0423256D01*
X0587659Y0422506D01*
X0583055Y0422506D02*
X0583055Y0421005D01*
X0582304Y0420254D01*
X0580803Y0420254D01*
X0580052Y0421755D02*
X0583055Y0421755D01*
X0583055Y0422506D02*
X0582304Y0423256D01*
X0580803Y0423256D01*
X0580052Y0422506D01*
X0580052Y0421755D01*
X0578451Y0421005D02*
X0578451Y0420254D01*
X0577700Y0420254D01*
X0577700Y0421005D01*
X0578451Y0421005D01*
X0578451Y0422506D02*
X0578451Y0423256D01*
X0577700Y0423256D01*
X0577700Y0422506D01*
X0578451Y0422506D01*
X0569243Y0431507D02*
X0568492Y0432258D01*
X0566991Y0432258D01*
X0566240Y0431507D01*
X0555431Y0430756D02*
X0555431Y0427754D01*
X0555431Y0429255D02*
X0553930Y0430756D01*
X0553179Y0430756D01*
X0551595Y0430756D02*
X0550093Y0432258D01*
X0550093Y0427754D01*
X0548592Y0427754D02*
X0551595Y0427754D01*
X0546991Y0427754D02*
X0546991Y0432258D01*
X0544739Y0432258D01*
X0543988Y0431507D01*
X0543988Y0430756D01*
X0544739Y0430006D01*
X0546991Y0430006D01*
X0546991Y0427754D02*
X0544739Y0427754D01*
X0543988Y0428505D01*
X0543988Y0429255D01*
X0544739Y0430006D01*
X0542387Y0431507D02*
X0541636Y0432258D01*
X0540135Y0432258D01*
X0539384Y0431507D01*
X0539384Y0430756D01*
X0542387Y0427754D01*
X0539384Y0427754D01*
X0537783Y0427754D02*
X0536282Y0429255D01*
X0536282Y0430756D01*
X0537783Y0432258D01*
X0632230Y0431507D02*
X0632230Y0430756D01*
X0632981Y0430006D01*
X0635233Y0430006D01*
X0635233Y0427754D02*
X0635233Y0432258D01*
X0632981Y0432258D01*
X0632230Y0431507D01*
X0632981Y0430006D02*
X0632230Y0429255D01*
X0632230Y0428505D01*
X0632981Y0427754D01*
X0635233Y0427754D01*
X0636801Y0427754D02*
X0638302Y0427754D01*
X0637551Y0427754D02*
X0637551Y0432258D01*
X0636801Y0432258D02*
X0638302Y0432258D01*
X0639903Y0431507D02*
X0640654Y0432258D01*
X0642906Y0432258D01*
X0642906Y0427754D01*
X0640654Y0427754D01*
X0639903Y0428505D01*
X0639903Y0431507D01*
X0649111Y0431507D02*
X0652114Y0428505D01*
X0652114Y0427754D01*
X0649111Y0427754D01*
X0646776Y0425508D02*
X0646776Y0424758D01*
X0646776Y0423256D02*
X0646776Y0419503D01*
X0647526Y0418753D01*
X0648277Y0418753D01*
X0649878Y0421005D02*
X0649878Y0422506D01*
X0650629Y0423256D01*
X0652130Y0423256D01*
X0652881Y0422506D01*
X0652881Y0421005D01*
X0652130Y0420254D01*
X0650629Y0420254D01*
X0649878Y0421005D01*
X0645208Y0421005D02*
X0645208Y0422506D01*
X0644457Y0423256D01*
X0642956Y0423256D01*
X0642205Y0422506D01*
X0642205Y0421755D01*
X0645208Y0421755D01*
X0645208Y0421005D02*
X0644457Y0420254D01*
X0642956Y0420254D01*
X0640604Y0421005D02*
X0640604Y0422506D01*
X0639853Y0423256D01*
X0637601Y0423256D01*
X0636000Y0423256D02*
X0634499Y0423256D01*
X0635249Y0424007D02*
X0635249Y0421005D01*
X0634499Y0420254D01*
X0637601Y0420254D02*
X0639853Y0420254D01*
X0640604Y0421005D01*
X0654466Y0423256D02*
X0655216Y0423256D01*
X0656718Y0421755D01*
X0656718Y0420254D02*
X0656718Y0423256D01*
X0658319Y0422506D02*
X0659070Y0421755D01*
X0661322Y0421755D01*
X0661322Y0420254D02*
X0661322Y0424758D01*
X0659070Y0424758D01*
X0658319Y0424007D01*
X0658319Y0422506D01*
X0658319Y0427754D02*
X0661322Y0427754D01*
X0661322Y0432258D01*
X0658319Y0432258D01*
X0656718Y0432258D02*
X0656718Y0427754D01*
X0653715Y0427754D01*
X0655216Y0430006D02*
X0656718Y0430006D01*
X0656718Y0432258D02*
X0653715Y0432258D01*
X0652114Y0432258D02*
X0649111Y0432258D01*
X0649111Y0431507D01*
X0659820Y0430006D02*
X0661322Y0430006D01*
M02*
