G75*
%MOIN*%
%OFA0B0*%
%FSLAX25Y25*%
%IPPOS*%
%LPD*%
%AMOC8*
5,1,8,0,0,1.08239X$1,22.5*
%
%ADD10R,0.06500X0.13500*%
%ADD11C,0.13098*%
%ADD12OC8,0.06406*%
%ADD13R,0.06406X0.06406*%
%ADD14C,0.00500*%
%ADD15OC8,0.08177*%
%ADD16C,0.08177*%
%ADD17OC8,0.09555*%
%ADD18R,0.05815X0.05815*%
%ADD19OC8,0.05815*%
%ADD20OC8,0.06996*%
%ADD21C,0.05815*%
%ADD22R,0.04634X0.04634*%
%ADD23OC8,0.04634*%
%ADD24C,0.05500*%
%ADD25C,0.22154*%
D10*
X0408188Y0183270D03*
X0408188Y0250520D03*
D11*
X0137995Y0087673D03*
X0137995Y0418382D03*
D12*
X0309333Y0115232D03*
X0319333Y0115232D03*
X0329333Y0115232D03*
X0339333Y0115232D03*
X0349333Y0115232D03*
X0359333Y0115232D03*
X0369333Y0115232D03*
X0379333Y0115232D03*
X0389333Y0115232D03*
X0399333Y0115232D03*
X0409333Y0115232D03*
X0419333Y0115232D03*
X0429333Y0115232D03*
X0439333Y0115232D03*
X0439333Y0105232D03*
X0429333Y0105232D03*
X0419333Y0105232D03*
X0409333Y0105232D03*
X0399333Y0105232D03*
X0389333Y0105232D03*
X0379333Y0105232D03*
X0369333Y0105232D03*
X0359333Y0105232D03*
X0349333Y0105232D03*
X0339333Y0105232D03*
X0329333Y0105232D03*
X0319333Y0105232D03*
X0647438Y0285520D03*
X0647438Y0295520D03*
X0647438Y0305520D03*
X0647438Y0315520D03*
X0647438Y0325520D03*
X0647438Y0335520D03*
D13*
X0309333Y0105232D03*
D14*
X0652680Y0077831D02*
X0652756Y0078699D01*
X0652981Y0079541D01*
X0653350Y0080331D01*
X0653850Y0081045D01*
X0654466Y0081661D01*
X0655180Y0082161D01*
X0655970Y0082529D01*
X0656812Y0082755D01*
X0657680Y0082831D01*
X0658548Y0082755D01*
X0659390Y0082529D01*
X0660180Y0082161D01*
X0660894Y0081661D01*
X0661510Y0081045D01*
X0662010Y0080331D01*
X0662378Y0079541D01*
X0662604Y0078699D01*
X0662680Y0077831D01*
X0662604Y0076962D01*
X0662378Y0076121D01*
X0662010Y0075331D01*
X0661510Y0074617D01*
X0660894Y0074000D01*
X0660180Y0073501D01*
X0659390Y0073132D01*
X0658548Y0072907D01*
X0657680Y0072831D01*
X0656812Y0072907D01*
X0655970Y0073132D01*
X0655180Y0073501D01*
X0654466Y0074000D01*
X0653850Y0074617D01*
X0653350Y0075331D01*
X0652981Y0076121D01*
X0652756Y0076962D01*
X0652680Y0077831D01*
X0652693Y0077984D02*
X0662666Y0077984D01*
X0662650Y0077485D02*
X0652710Y0077485D01*
X0652754Y0076987D02*
X0662606Y0076987D01*
X0662477Y0076488D02*
X0652883Y0076488D01*
X0653042Y0075990D02*
X0662317Y0075990D01*
X0662085Y0075491D02*
X0653275Y0075491D01*
X0653586Y0074993D02*
X0661773Y0074993D01*
X0661388Y0074494D02*
X0653972Y0074494D01*
X0654472Y0073996D02*
X0660887Y0073996D01*
X0660173Y0073497D02*
X0655187Y0073497D01*
X0656468Y0072999D02*
X0658892Y0072999D01*
X0662623Y0078482D02*
X0652737Y0078482D01*
X0652831Y0078981D02*
X0662528Y0078981D01*
X0662395Y0079479D02*
X0652965Y0079479D01*
X0653185Y0079978D02*
X0662174Y0079978D01*
X0661908Y0080477D02*
X0653452Y0080477D01*
X0653801Y0080975D02*
X0661559Y0080975D01*
X0661081Y0081474D02*
X0654278Y0081474D01*
X0654910Y0081972D02*
X0660449Y0081972D01*
X0659516Y0082471D02*
X0655844Y0082471D01*
X0160894Y0426363D02*
X0160180Y0425863D01*
X0159390Y0425494D01*
X0158548Y0425269D01*
X0157680Y0425193D01*
X0156812Y0425269D01*
X0155970Y0425494D01*
X0155180Y0425863D01*
X0154466Y0426363D01*
X0153850Y0426979D01*
X0153350Y0427693D01*
X0152981Y0428483D01*
X0152756Y0429325D01*
X0152680Y0430193D01*
X0152756Y0431061D01*
X0152981Y0431903D01*
X0153350Y0432693D01*
X0153850Y0433407D01*
X0154466Y0434023D01*
X0155180Y0434523D01*
X0155970Y0434891D01*
X0156812Y0435117D01*
X0157680Y0435193D01*
X0158548Y0435117D01*
X0159390Y0434891D01*
X0160180Y0434523D01*
X0160894Y0434023D01*
X0161510Y0433407D01*
X0162010Y0432693D01*
X0162378Y0431903D01*
X0162604Y0431061D01*
X0162680Y0430193D01*
X0162604Y0429325D01*
X0162378Y0428483D01*
X0162010Y0427693D01*
X0161510Y0426979D01*
X0160894Y0426363D01*
X0160974Y0426443D02*
X0154385Y0426443D01*
X0153887Y0426942D02*
X0161473Y0426942D01*
X0161833Y0427440D02*
X0153526Y0427440D01*
X0153235Y0427939D02*
X0162125Y0427939D01*
X0162357Y0428437D02*
X0153002Y0428437D01*
X0152860Y0428936D02*
X0162500Y0428936D01*
X0162613Y0429434D02*
X0152746Y0429434D01*
X0152703Y0429933D02*
X0162657Y0429933D01*
X0162659Y0430431D02*
X0152701Y0430431D01*
X0152744Y0430930D02*
X0162615Y0430930D01*
X0162505Y0431428D02*
X0152854Y0431428D01*
X0152992Y0431927D02*
X0162367Y0431927D01*
X0162135Y0432426D02*
X0153225Y0432426D01*
X0153511Y0432924D02*
X0161848Y0432924D01*
X0161494Y0433423D02*
X0153865Y0433423D01*
X0154364Y0433921D02*
X0160996Y0433921D01*
X0160328Y0434420D02*
X0155032Y0434420D01*
X0156069Y0434918D02*
X0159290Y0434918D01*
X0160297Y0425945D02*
X0155063Y0425945D01*
X0156149Y0425446D02*
X0159210Y0425446D01*
D15*
X0166932Y0374425D03*
X0166932Y0248441D03*
D16*
X0166932Y0233441D03*
X0166932Y0218441D03*
X0166932Y0203441D03*
X0166932Y0188441D03*
X0166932Y0173441D03*
X0166932Y0158441D03*
X0166932Y0143441D03*
X0116932Y0143441D03*
X0116932Y0158441D03*
X0116932Y0173441D03*
X0116932Y0188441D03*
X0116932Y0203441D03*
X0116932Y0218441D03*
X0116932Y0233441D03*
X0116932Y0248441D03*
X0116932Y0269425D03*
X0116932Y0284425D03*
X0116932Y0299425D03*
X0116932Y0314425D03*
X0116932Y0329425D03*
X0116932Y0344425D03*
X0116932Y0359425D03*
X0116932Y0374425D03*
X0166932Y0359425D03*
X0166932Y0344425D03*
X0166932Y0329425D03*
X0166932Y0314425D03*
X0166932Y0299425D03*
X0166932Y0284425D03*
X0166932Y0269425D03*
D17*
X0618845Y0088020D03*
X0638530Y0088020D03*
D18*
X0596938Y0121770D03*
X0595938Y0130770D03*
D19*
X0605938Y0130770D03*
X0606938Y0121770D03*
X0626938Y0121770D03*
X0636938Y0121770D03*
X0646938Y0121770D03*
X0645938Y0130770D03*
X0655938Y0130770D03*
X0635938Y0130770D03*
X0194812Y0134770D03*
X0194562Y0175520D03*
D20*
X0561938Y0173020D03*
D21*
X0186688Y0175520D03*
X0178814Y0175520D03*
X0179064Y0134770D03*
X0186938Y0134770D03*
D22*
X0187207Y0377043D03*
X0307286Y0377043D03*
X0378152Y0377043D03*
D23*
X0378152Y0369169D03*
X0378152Y0361295D03*
X0378152Y0353421D03*
X0378152Y0345547D03*
X0378152Y0337673D03*
X0378152Y0329799D03*
X0378152Y0321925D03*
X0378152Y0314051D03*
X0378152Y0306177D03*
X0307286Y0306177D03*
X0307286Y0314051D03*
X0307286Y0321925D03*
X0307286Y0329799D03*
X0307286Y0337673D03*
X0307286Y0345547D03*
X0307286Y0353421D03*
X0307286Y0361295D03*
X0307286Y0369169D03*
X0187207Y0369169D03*
X0187207Y0361295D03*
X0187207Y0353421D03*
X0187207Y0345547D03*
X0187207Y0337673D03*
X0187207Y0329799D03*
X0187207Y0321925D03*
X0187207Y0314051D03*
X0187207Y0306177D03*
D24*
X0178188Y0304457D03*
X0178188Y0296583D03*
X0178188Y0271457D03*
X0178188Y0263583D03*
X0178188Y0329583D03*
X0178188Y0337457D03*
X0178188Y0362583D03*
X0178188Y0370457D03*
D25*
X0137995Y0087673D03*
X0137995Y0418382D03*
M02*
