%
M48
M72
T01C0.01575
T02C0.03150
T03C0.03543
T04C0.03937
T05C0.04331
T06C0.05118
T07C0.05512
T08C0.12598
%
T01
X205438Y114329
X224188Y125929
X220688Y130929
X209938Y134679
X228438Y146679
X233438Y150429
X236188Y146679
X226938Y155179
X230438Y157929
X221938Y158179
X212688Y165929
X205188Y158429
X200438Y175929
X200188Y181929
X207138Y193979
X196688Y205929
X186688Y204329
X182688Y208929
X193298Y220289
X182438Y225179
X190760Y229179
X210688Y238179
X217438Y240679
X210688Y252679
X215438Y256929
X210688Y267179
X202438Y260929
X202438Y246679
X222438Y227929
X235188Y239679
X230688Y244429
X239938Y244429
X244688Y249179
X235188Y256679
X230688Y259929
X242688Y259679
X236188Y271179
X230688Y275429
X240938Y283429
X245688Y279929
X252438Y285929
X249438Y300429
X248938Y306929
X245938Y310929
X240938Y314679
X230688Y321929
X236188Y333179
X230688Y337429
X240938Y345679
X245688Y341929
X257288Y341279
X248938Y334679
X271488Y339979
X278588Y338529
X278588Y351629
X279238Y356229
X271488Y356229
X267038Y351229
X269538Y363479
X276538Y366479
X279288Y370429
X293588Y349979
X288038Y322429
X289438Y287679
X285188Y287679
X280938Y287679
X280938Y274929
X285188Y273179
X289438Y270929
X295938Y263929
X313438Y249429
X304188Y247429
X307438Y238929
X333188Y238179
X344438Y249179
X351688Y246929
X360688Y246679
X359188Y259179
X354938Y259179
X369938Y263929
X390438Y263929
X397688Y263179
X397688Y258179
X416438Y261679
X416438Y249929
X432188Y249179
X435688Y249179
X435688Y252679
X435688Y256179
X435688Y259679
X432188Y259679
X432188Y256179
X432188Y252679
X452438Y248429
X453438Y238679
X456688Y232929
X460188Y238679
X471188Y242429
X473188Y246179
X476438Y249179
X473438Y252179
X469438Y253929
X468688Y258429
X464688Y261429
X452938Y258429
X451188Y270429
X430438Y270879
X402188Y273179
X433588Y300629
X442788Y300529
X447538Y296629
X452588Y298479
X467688Y285429
X481938Y289679
X482928Y285429
X486638Y293579
X490138Y291579
X495038Y294629
X486788Y297629
X489438Y309679
X483138Y322129
X492488Y323529
X491338Y329329
X502438Y323429
X515688Y308179
X520438Y312929
X528188Y320679
X532938Y325429
X530388Y329279
X541688Y326929
X545188Y329179
X556688Y324679
X555938Y320429
X560638Y316929
X552388Y310779
X548288Y313529
X550938Y316910
X559688Y304329
X567938Y309079
X570438Y312229
X570888Y306279
X563938Y294629
X561788Y291079
X564888Y288529
X567338Y285279
X570238Y282479
X573138Y279729
X592638Y284729
X593238Y289079
X597038Y291579
X591588Y295079
X605188Y307429
X609938Y302429
X621188Y301179
X624438Y298679
X627438Y295929
X630438Y292929
X628938Y280929
X633188Y276179
X635438Y274179
X633188Y266929
X625188Y272179
X606438Y272429
X603438Y269429
X594988Y260929
X592288Y257929
X588288Y253329
X584888Y255729
X582788Y251179
X577188Y248429
X580188Y245429
X575688Y240879
X572738Y238129
X571288Y242779
X565038Y245079
X560838Y245579
X555588Y247029
X556988Y241079
X554688Y237229
X551938Y239829
X549338Y242579
X546938Y239629
X548388Y235829
X543588Y243379
X541188Y246329
X546288Y246929
X536038Y248329
X527688Y256929
X529188Y260779
X533138Y262179
X516088Y268879
X510588Y277329
X498288Y277079
X497938Y271679
X498438Y263929
X486938Y267179
X518188Y242429
X522938Y237429
X511938Y236929
X494838Y230329
X489738Y229779
X484388Y224579
X481638Y227179
X478088Y225379
X474488Y223579
X461188Y222179
X452438Y223679
X441188Y225179
X436188Y223429
X428438Y225429
X420688Y225929
X412438Y230929
X403838Y223979
X402738Y219779
X398638Y218329
X404438Y212679
X402188Y204679
X392688Y200679
X398188Y197429
X397688Y189679
X384688Y186179
X371178Y198919
X363688Y190679
X354188Y195679
X353938Y203179
X344938Y191179
X338788Y183479
X334088Y185429
X320938Y190179
X301688Y190179
X291838Y183179
X275438Y175929
X262188Y183679
X266638Y193679
X279438Y195179
X282188Y203429
X262188Y221629
X252438Y230829
X247688Y230679
X247938Y235429
X277438Y239679
X282688Y230179
X278688Y224679
X243838Y207129
X234688Y210279
X234238Y205479
X218938Y211229
X234588Y193929
X243938Y183679
X251738Y197529
X292938Y169429
X300938Y167179
X310938Y167179
X316188Y161929
X322488Y169229
X330938Y166429
X340938Y167429
X346188Y161929
X352938Y169429
X360938Y167679
X370938Y166179
X375938Y161929
X382688Y169429
X390938Y166429
X400938Y166179
X414438Y159179
X420438Y159429
X430188Y157429
X439188Y160229
X438688Y166729
X447188Y160229
X462338Y170779
X466138Y174129
X466238Y177929
X467888Y182979
X460538Y178979
X456688Y181179
X452188Y182179
X453688Y172929
X435688Y183429
X435688Y186929
X435688Y190429
X435688Y193929
X432188Y193929
X432188Y190429
X432188Y186929
X432188Y183429
X416438Y183929
X416438Y178929
X420188Y168679
X385788Y146379
X390988Y144129
X395988Y143979
X365938Y144179
X360888Y144579
X336188Y144179
X330938Y144429
X313488Y140629
X306188Y145179
X300938Y144679
X288188Y154979
X272038Y150729
X267988Y150779
X257188Y154979
X272038Y138129
X267988Y134079
X234188Y133979
X234188Y128129
X178938Y177179
X182438Y191429
X157688Y223429
X158938Y228679
X202438Y275429
X210688Y281679
X215688Y276679
X217438Y286929
X210688Y296179
X216688Y302679
X210688Y310679
X215438Y316429
X210688Y325179
X215438Y330929
X210688Y339679
X215688Y345429
X202438Y348179
X199688Y362179
X191938Y362179
X209438Y361679
X212688Y361679
X219188Y361679
X230438Y352929
X235588Y366829
X219188Y374679
X212688Y373229
X209688Y373229
X199688Y385429
X174938Y385929
X164888Y391879
X161788Y391879
X174438Y367679
X148615Y357606
X128288Y369629
X128288Y372629
X202438Y333679
X202438Y319179
X202438Y304679
X202438Y290179
X230688Y290929
X236188Y301929
X230688Y306429
X257188Y263929
X315688Y214679
X333938Y214679
X338338Y215579
X335438Y225429
X357438Y221679
X366938Y218929
X374938Y221179
X366438Y229929
X377438Y241929
X336438Y268679
X422338Y325229
X428988Y322179
X434188Y311579
X455138Y322029
X461838Y323779
X466488Y334629
X454988Y338529
X479288Y331079
X521688Y289029
X526438Y276429
X534938Y276429
X537338Y286129
X561238Y258279
X565038Y256529
X567888Y253879
X568088Y250079
X564288Y250279
X571938Y251429
X571388Y262729
X590538Y265329
X595388Y245779
X603438Y244429
X604888Y239279
X593938Y234929
X585088Y230029
X581688Y232329
X581838Y218429
X577438Y218679
X572888Y214179
X570738Y209929
X567638Y212529
X564988Y215879
X551838Y218229
X558338Y226579
X560388Y230179
X561188Y237629
X538488Y232129
X533438Y226679
X538138Y221629
X530188Y218429
X550438Y204679
X544938Y197479
X547788Y194929
X545138Y192179
X542813Y188704
X540038Y185904
X533588Y194329
X539688Y196179
X527238Y197579
X524438Y202229
X524288Y180229
X524338Y176429
X535138Y169429
X529988Y166479
X531538Y160579
X532288Y156329
X528688Y154279
X524888Y153129
X520938Y151029
X521488Y147079
X516388Y149279
X513438Y146829
X517138Y153079
X521438Y160579
X513638Y162979
X510438Y166879
X512688Y170029
X513788Y173979
X507288Y173479
X503488Y172879
X510488Y180279
X492388Y174029
X487538Y176454
X481713Y171654
X477888Y171629
X469938Y170629
X468563Y164429
X478463Y156704
X482413Y156779
X482438Y152729
X479888Y147229
X475938Y147679
X493238Y155479
X493088Y162979
X496888Y163029
X500788Y163029
X508288Y162979
X503638Y151529
X506038Y146829
X498588Y148179
X485663Y159279
X488388Y162129
X489688Y168929
X488088Y193579
X487038Y198179
X480738Y198529
X478188Y201379
X475588Y198279
X467988Y193529
X462688Y193429
X461438Y197679
X458438Y194679
X452438Y201929
X453888Y212729
X474438Y209979
X436188Y197429
X431688Y209429
X416438Y195679
X389188Y210929
X440688Y232679
X539088Y176029
X542888Y177279
X547688Y168429
X547688Y158479
X570438Y152679
X570438Y136429
X573688Y131679
X570438Y125179
X562688Y117429
X555688Y122679
X539188Y122679
X532688Y117429
X524438Y119679
X524438Y126679
X509938Y124679
X495688Y124429
X490938Y117429
X481938Y119679
X481938Y126429
X454088Y113379
X450388Y104729
X465438Y94529
X469188Y86679
X475938Y92679
X479188Y81929
X472438Y76429
X460438Y74429
X490938Y87429
X500938Y82679
X509688Y83929
X515688Y87429
X523438Y92179
X524438Y84679
X524438Y77679
X532688Y87429
X557688Y87429
X562688Y87429
X557438Y108679
X574688Y113679
X595938Y116929
X601188Y121929
X596188Y126929
X596188Y136929
X586438Y136679
X602938Y153679
X608188Y164429
X608188Y167429
X600188Y166179
X582938Y171929
X574188Y178779
X606188Y188679
X606188Y193679
X617188Y193679
X617188Y188679
X622188Y180929
X629438Y179679
X637188Y179929
X616188Y176429
X635438Y153679
X658938Y157179
X658938Y160179
X661438Y164429
X661438Y167429
X658688Y183429
X661688Y193929
X634438Y200929
X631438Y200929
X637788Y212829
X627788Y216579
X624788Y216579
X624788Y231579
X627788Y231579
X614688Y243429
X611438Y246179
X608188Y249179
X631688Y256929
X641538Y246329
X604188Y283179
X594688Y317429
X589938Y322179
X581538Y325929
X585688Y332679
X574438Y336929
X570038Y341079
X562588Y342710
X570988Y358129
X571388Y362429
X572588Y366579
X572638Y370779
X584488Y375779
X586288Y370279
X588188Y362279
X591138Y358879
X593788Y354429
X586788Y350879
X593788Y342579
X608738Y337229
X613988Y331329
X611088Y325829
X656938Y337329
X651688Y358679
X601188Y370429
X605438Y384179
X634038Y403129
X634088Y406229
X645488Y400429
X648188Y395429
X548988Y381879
X548988Y374179
X402788Y338529
X564388Y208379
X633938Y132679
X647938Y110429
X650188Y103929
X650188Y100929
X620938Y89179
X620938Y86429
X620688Y78429
X620688Y75429
X637688Y74679
X664438Y74679
X664438Y133429
X520938Y108429
X515938Y108429
X504438Y68429
X495938Y68429
X508688Y55429
X504438Y53679
X495938Y53679
X521938Y60679
X437882Y118179
X430188Y141079
X324938Y200179
X315688Y202679
X364438Y69179
X392188Y71429
X394938Y68429
T02
X366341Y379012
X358467Y379012
X350593Y379012
X342719Y379012
X342719Y386886
X350593Y386886
X358467Y386886
X366341Y386886
X334845Y386886
X334845Y379012
X287601Y379012
X279727Y379012
X279727Y386886
X287601Y386886
X271853Y386886
X263979Y386886
X256105Y386886
X256105Y379012
X263979Y379012
X271853Y379012
T03
X194562Y145929
X186688Y145929
X178814Y145929
X178814Y126929
X186688Y126929
X194562Y126929
T04
X299412Y121295
X299412Y111295
X309412Y111295
X319412Y111295
X329412Y111295
X339412Y111295
X349412Y111295
X359412Y111295
X369412Y111295
X379412Y111295
X389412Y111295
X399412Y111295
X409412Y111295
X419412Y111295
X429412Y111295
X429412Y121295
X419412Y121295
X409412Y121295
X399412Y121295
X389412Y121295
X379412Y121295
X369412Y121295
X359412Y121295
X349412Y121295
X339412Y121295
X329412Y121295
X319412Y121295
X309412Y121295
X309333Y89642
X319333Y89642
X319333Y79642
X309333Y79642
X329333Y79642
X339333Y79642
X339333Y89642
X329333Y89642
X349333Y89642
X359333Y89642
X369333Y89642
X369333Y79642
X359333Y79642
X349333Y79642
X379333Y79642
X389333Y79642
X389333Y89642
X379333Y89642
X399333Y89642
X409333Y89642
X409333Y79642
X399333Y79642
X419333Y79642
X429333Y79642
X439333Y79642
X439333Y89642
X429333Y89642
X419333Y89642
X419412Y355390
X429412Y355390
X429412Y365390
X419412Y365390
X409412Y365390
X399412Y365390
X389412Y365390
X379412Y365390
X369412Y365390
X359412Y365390
X349412Y365390
X339412Y365390
X329412Y365390
X319412Y365390
X309412Y365390
X299412Y365390
X299412Y355390
X309412Y355390
X319412Y355390
X329412Y355390
X339412Y355390
X349412Y355390
X359412Y355390
X369412Y355390
X379412Y355390
X389412Y355390
X399412Y355390
X409412Y355390
X479688Y380679
X489688Y380679
X499688Y380679
X509688Y380679
X519688Y380679
X529688Y380679
T05
X658188Y207679
T06
X166932Y207850
X166932Y192850
X166932Y177850
X166932Y162850
X166932Y147850
X166932Y132850
X166932Y117850
X116932Y117850
X116932Y132850
X116932Y147850
X116932Y162850
X116932Y177850
X116932Y192850
X116932Y207850
X116932Y222850
X166932Y222850
T07
X116735Y243835
X116735Y258835
X116735Y273835
X116735Y288835
X116735Y303835
X116735Y318835
X116735Y333835
X116735Y348835
X618845Y62429
X638530Y62429
T08
X137995Y62083
X137995Y62083
X137995Y392791
X137995Y392791
M30
