999
dxfrw 0.6.3
  0
SECTION
  2
HEADER
  9
$ACADVER
  1
AC1021
  9
$DWGCODEPAGE
  3
ANSI_1252
  9
$INSBASE
 10
0
 20
0
 30
0
  9
$EXTMIN
 10
-17.0299
 20
-10.45
 30
0
  9
$EXTMAX
 10
40.95
 20
119.3495
 30
0
  9
$LIMMIN
 10
0
 20
0
  9
$LIMMAX
 10
420
 20
297
  9
$ORTHOMODE
 70
    0
  9
$REGENMODE
 70
    1
  9
$FILLMODE
 70
    1
  9
$QTEXTMODE
 70
    0
  9
$MIRRTEXT
 70
    0
  9
$LTSCALE
 40
1
  9
$ATTMODE
 70
    0
  9
$TEXTSIZE
 40
2.5
  9
$TRACEWID
 40
15.68
  9
$TEXTSTYLE
  7
STANDARD
  9
$CLAYER
  8
0
  9
$CELTYPE
  6
BYLAYER
  9
$CECOLOR
 62
  256
  9
$CELTSCALE
 40
1
  9
$DISPSILH
 70
    0
  9
$DIMSCALE
 40
2.5
  9
$DIMASZ
 40
2.5
  9
$DIMEXO
 40
0.625
  9
$DIMDLI
 40
3.75
  9
$DIMRND
 40
0
  9
$DIMDLE
 40
0
  9
$DIMEXE
 40
1.25
  9
$DIMTP
 40
0
  9
$DIMTM
 40
0
  9
$DIMTXT
 40
2.5
  9
$DIMCEN
 40
2.5
  9
$DIMTSZ
 40
0
  9
$DIMTOL
 70
    0
  9
$DIMLIM
 70
    0
  9
$DIMTIH
 70
    0
  9
$DIMTOH
 70
    0
  9
$DIMSE1
 70
    0
  9
$DIMSE2
 70
    0
  9
$DIMTAD
 70
    1
  9
$DIMZIN
 70
    8
  9
$DIMBLK
  1

  9
$DIMASO
 70
    1
  9
$DIMSHO
 70
    1
  9
$DIMPOST
  1

  9
$DIMAPOST
  1

  9
$DIMALT
 70
    0
  9
$DIMALTD
 70
    3
  9
$DIMALTF
 40
0.03937
  9
$DIMLFAC
 40
1
  9
$DIMTOFL
 70
    1
  9
$DIMTVP
 40
0
  9
$DIMTIX
 70
    0
  9
$DIMSOXD
 70
    0
  9
$DIMSAH
 70
    0
  9
$DIMBLK1
  1

  9
$DIMBLK2
  1

  9
$DIMSTYLE
  2
Standard
  9
$DIMCLRD
 70
    0
  9
$DIMCLRE
 70
    0
  9
$DIMCLRT
 70
    0
  9
$DIMTFAC
 40
1
  9
$DIMGAP
 40
0.625
  9
$DIMJUST
 70
    0
  9
$DIMSD1
 70
    0
  9
$DIMSD2
 70
    0
  9
$DIMTOLJ
 70
    0
  9
$DIMTZIN
 70
    8
  9
$DIMALTZ
 70
    0
  9
$DIMALTTZ
 70
    0
  9
$DIMUPT
 70
    0
  9
$DIMDEC
 70
    2
  9
$DIMTDEC
 70
    2
  9
$DIMALTU
 70
    2
  9
$DIMALTTD
 70
    3
  9
$DIMTXSTY
  7
STANDARD
  9
$DIMAUNIT
 70
    0
  9
$DIMADEC
 70
    0
  9
$DIMALTRND
 40
0
  9
$DIMAZIN
 70
    0
  9
$DIMDSEP
 70
   44
  9
$DIMATFIT
 70
    3
  9
$DIMFRAC
 70
    0
  9
$DIMLDRBLK
  1
STANDARD
  9
$DIMLUNIT
 70
    2
  9
$DIMLWD
 70
   -2
  9
$DIMLWE
 70
   -2
  9
$DIMTMOVE
 70
    0
  9
$DIMFXL
 40
1
  9
$DIMFXLON
 70
    0
  9
$DIMJOGANG
 40
0.7854
  9
$DIMTFILL
 70
    0
  9
$DIMTFILLCLR
 70
    0
  9
$DIMARCSYM
 70
    0
  9
$DIMLTYPE
  6

  9
$DIMLTEX1
  6

  9
$DIMLTEX2
  6

  9
$LUNITS
 70
    2
  9
$LUPREC
 70
    4
  9
$SKETCHINC
 40
1
  9
$FILLETRAD
 40
0
  9
$AUNITS
 70
    0
  9
$AUPREC
 70
    2
  9
$MENU
  1
.
  9
$ELEVATION
 40
0
  9
$PELEVATION
 40
0
  9
$THICKNESS
 40
0
  9
$LIMCHECK
 70
    0
  9
$CHAMFERA
 40
0
  9
$CHAMFERB
 40
0
  9
$CHAMFERC
 40
0
  9
$CHAMFERD
 40
0
  9
$SKPOLY
 70
    0
  9
$USRTIMER
 70
    1
  9
$ANGBASE
 50
0
  9
$ANGDIR
 70
    0
  9
$PDMODE
 70
   34
  9
$PDSIZE
 40
0
  9
$PLINEWID
 40
0
  9
$SPLFRAME
 70
    0
  9
$SPLINETYPE
 70
    2
  9
$SPLINESEGS
 70
    8
  9
$HANDSEED
  5
20000
  9
$SURFTAB1
 70
    6
  9
$SURFTAB2
 70
    6
  9
$SURFTYPE
 70
    6
  9
$SURFU
 70
    6
  9
$SURFV
 70
    6
  9
$UCSBASE
  2

  9
$UCSNAME
  2

  9
$UCSORG
 10
0
 20
0
 30
0
  9
$UCSXDIR
 10
1
 20
0
 30
0
  9
$UCSYDIR
 10
0
 20
1
 30
0
  9
$UCSORTHOREF
  2

  9
$UCSORTHOVIEW
 70
    0
  9
$UCSORGTOP
 10
0
 20
0
 30
0
  9
$UCSORGBOTTOM
 10
0
 20
0
 30
0
  9
$UCSORGLEFT
 10
0
 20
0
 30
0
  9
$UCSORGRIGHT
 10
0
 20
0
 30
0
  9
$UCSORGFRONT
 10
0
 20
0
 30
0
  9
$UCSORGBACK
 10
0
 20
0
 30
0
  9
$PUCSBASE
  2

  9
$PUCSNAME
  2

  9
$PUCSORG
 10
0
 20
0
 30
0
  9
$PUCSXDIR
 10
1
 20
0
 30
0
  9
$PUCSYDIR
 10
0
 20
1
 30
0
  9
$PUCSORTHOREF
  2

  9
$PUCSORTHOVIEW
 70
    0
  9
$PUCSORGTOP
 10
0
 20
0
 30
0
  9
$PUCSORGBOTTOM
 10
0
 20
0
 30
0
  9
$PUCSORGLEFT
 10
0
 20
0
 30
0
  9
$PUCSORGRIGHT
 10
0
 20
0
 30
0
  9
$PUCSORGFRONT
 10
0
 20
0
 30
0
  9
$PUCSORGBACK
 10
0
 20
0
 30
0
  9
$USERI1
 70
    0
  9
$USERI2
 70
    0
  9
$USERI3
 70
    0
  9
$USERI4
 70
    0
  9
$USERI5
 70
    0
  9
$USERR1
 40
0
  9
$USERR2
 40
0
  9
$USERR3
 40
0
  9
$USERR4
 40
0
  9
$USERR5
 40
0
  9
$WORLDVIEW
 70
    1
  9
$SHADEDGE
 70
    3
  9
$SHADEDIF
 70
   70
  9
$TILEMODE
 70
    1
  9
$MAXACTVP
 70
   64
  9
$PINSBASE
 10
0
 20
0
 30
0
  9
$PLIMCHECK
 70
    0
  9
$PEXTMIN
 10
0
 20
0
 30
0
  9
$PEXTMAX
 10
0
 20
0
 30
0
  9
$SNAPSTYLE
 70
    0
  9
$PLIMMIN
 10
0
 20
0
  9
$PLIMMAX
 10
297
 20
210
  9
$UNITMODE
 70
    0
  9
$VISRETAIN
 70
    1
  9
$PLINEGEN
 70
    0
  9
$PSLTSCALE
 70
    1
  9
$TREEDEPTH
 70
 3020
  9
$CMLSTYLE
  2
Standard
  9
$CMLJUST
 70
    0
  9
$CMLSCALE
 40
20
  9
$PROXYGRAPHICS
 70
    1
  9
$MEASUREMENT
 70
    1
  9
$CELWEIGHT
370
   -1
  9
$ENDCAPS
280
    0
  9
$JOINSTYLE
280
    0
  9
$LWDISPLAY
290
    0
  9
$INSUNITS
 70
    0
  9
$HYPERLINKBASE
  1

  9
$STYLESHEET
  1

  9
$XEDIT
290
    1
  9
$CEPSNTYPE
380
    0
  9
$PSTYLEMODE
290
    1
  9
$EXTNAMES
290
    1
  9
$PSVPSCALE
 40
1
  9
$OLESTARTUP
290
    0
  9
$SORTENTS
280
  127
  9
$INDEXCTL
280
    0
  9
$HIDETEXT
280
    1
  9
$XCLIPFRAME
290
    0
  9
$HALOGAP
280
    0
  9
$OBSCOLOR
 70
  257
  9
$OBSLTYPE
280
    0
  9
$INTERSECTIONDISPLAY
280
    0
  9
$INTERSECTIONCOLOR
 70
  257
  9
$DIMASSOC
280
    1
  9
$PROJECTNAME
  1

  9
$CAMERADISPLAY
290
    0
  9
$LENSLENGTH
 40
50
  9
$CAMERAHEIGHT
 40
0
  9
$STEPSPERSEC
 40
2
  9
$STEPSIZE
 40
50
  9
$3DDWFPREC
 40
2
  9
$PSOLWIDTH
 40
5
  9
$PSOLHEIGHT
 40
80
  9
$LOFTANG1
 40
1.570796326794897
  9
$LOFTANG2
 40
1.570796326794897
  9
$LOFTMAG1
 40
0
  9
$LOFTMAG2
 40
0
  9
$LOFTPARAM
 70
    7
  9
$LOFTNORMALS
280
    1
  9
$LATITUDE
 40
1
  9
$LONGITUDE
 40
1
  9
$NORTHDIRECTION
 40
0
  9
$TIMEZONE
 70
-8000
  9
$LIGHTGLYPHDISPLAY
280
    1
  9
$TILEMODELIGHTSYNCH
280
    1
  9
$SOLIDHIST
280
    1
  9
$SHOWHIST
280
    1
  9
$DWFFRAME
280
    2
  9
$DGNFRAME
280
    0
  9
$REALWORLDSCALE
290
    1
  9
$INTERFERECOLOR
 62
    1
  9
$CSHADOW
280
    0
  9
$SHADOWPLANELOCATION
 40
0
  0
ENDSEC
  0
SECTION
  2
CLASSES
  0
ENDSEC
  0
SECTION
  2
TABLES
  0
TABLE
  2
VPORT
  5
8
330
0
100
AcDbSymbolTable
 70
    1
  0
VPORT
  5
31
330
2
100
AcDbSymbolTableRecord
100
AcDbViewportTableRecord
  2
*ACTIVE
 70
    0
 10
0
 20
0
 11
1
 21
1
 12
78.49289008476201
 22
61.22955672917513
 13
0
 23
0
 14
10
 24
10
 15
10
 25
10
 16
0
 26
0
 36
1
 17
0
 27
0
 37
0
 40
143.5492941095106
 41
1.984597156398104
 42
50
 43
0
 44
0
 50
0
 51
0
 71
    0
 72
  100
 73
    1
 74
    3
 75
    0
 76
    1
 77
    0
 78
    0
281
    0
 65
    1
110
0
120
0
130
0
111
1
121
0
131
0
112
0
122
1
132
0
 79
    0
146
0
348
10020
 60
    7
 61
    5
292
1
282
    1
141
0
142
0
 63
  250
421
3358443
  0
ENDTAB
  0
TABLE
  2
LTYPE
  5
5
330
0
100
AcDbSymbolTable
 70
    4
  0
LTYPE
  5
14
330
5
100
AcDbSymbolTableRecord
100
AcDbLinetypeTableRecord
  2
ByBlock
 70
    0
  3

 72
   65
 73
    0
 40
0
  0
LTYPE
  5
15
330
5
100
AcDbSymbolTableRecord
100
AcDbLinetypeTableRecord
  2
ByLayer
 70
    0
  3

 72
   65
 73
    0
 40
0
  0
LTYPE
  5
16
330
5
100
AcDbSymbolTableRecord
100
AcDbLinetypeTableRecord
  2
Continuous
 70
    0
  3
Solid line
 72
   65
 73
    0
 40
0
  0
LTYPE
  5
32
330
5
100
AcDbSymbolTableRecord
100
AcDbLinetypeTableRecord
  2
DOT
 70
    0
  3
Dot . . . . . . . . . . . . . . . . . . . . . .
 72
   65
 73
    2
 40
6.35
 49
0
 74
    0
 49
-6.35
 74
    0
  0
LTYPE
  5
33
330
5
100
AcDbSymbolTableRecord
100
AcDbLinetypeTableRecord
  2
DOTTINY
 70
    0
  3
Dot (.15x) .....................................
 72
   65
 73
    2
 40
0.9525
 49
0
 74
    0
 49
-0.9525
 74
    0
  0
LTYPE
  5
34
330
5
100
AcDbSymbolTableRecord
100
AcDbLinetypeTableRecord
  2
DOT2
 70
    0
  3
Dot (.5x) .....................................
 72
   65
 73
    2
 40
3.175
 49
0
 74
    0
 49
-3.175
 74
    0
  0
LTYPE
  5
35
330
5
100
AcDbSymbolTableRecord
100
AcDbLinetypeTableRecord
  2
DOTX2
 70
    0
  3
Dot (2x) .  .  .  .  .  .  .  .  .  .  .  .  .
 72
   65
 73
    2
 40
12.7
 49
0
 74
    0
 49
-12.7
 74
    0
  0
LTYPE
  5
36
330
5
100
AcDbSymbolTableRecord
100
AcDbLinetypeTableRecord
  2
DASHED
 70
    0
  3
Dashed _ _ _ _ _ _ _ _ _ _ _ _ _ _ _ _ _
 72
   65
 73
    2
 40
19.05
 49
12.7
 74
    0
 49
-6.35
 74
    0
  0
LTYPE
  5
37
330
5
100
AcDbSymbolTableRecord
100
AcDbLinetypeTableRecord
  2
DASHEDTINY
 70
    0
  3
Dashed (.15x) _ _ _ _ _ _ _ _ _ _ _ _ _ _ _ _ _
 72
   65
 73
    2
 40
2.8575
 49
1.905
 74
    0
 49
-0.9525
 74
    0
  0
LTYPE
  5
38
330
5
100
AcDbSymbolTableRecord
100
AcDbLinetypeTableRecord
  2
DASHED2
 70
    0
  3
Dashed (.5x) _ _ _ _ _ _ _ _ _ _ _ _ _ _ _ _ _
 72
   65
 73
    2
 40
9.524999999999999
 49
6.35
 74
    0
 49
-3.175
 74
    0
  0
LTYPE
  5
39
330
5
100
AcDbSymbolTableRecord
100
AcDbLinetypeTableRecord
  2
DASHEDX2
 70
    0
  3
Dashed (2x) ____  ____  ____  ____  ____  ___
 72
   65
 73
    2
 40
38.09999999999999
 49
25.4
 74
    0
 49
-12.7
 74
    0
  0
LTYPE
  5
3A
330
5
100
AcDbSymbolTableRecord
100
AcDbLinetypeTableRecord
  2
DASHDOT
 70
    0
  3
Dash dot __ . __ . __ . __ . __ . __ . __ . __
 72
   65
 73
    4
 40
25.4
 49
12.7
 74
    0
 49
-6.35
 74
    0
 49
0
 74
    0
 49
-6.35
 74
    0
  0
LTYPE
  5
3B
330
5
100
AcDbSymbolTableRecord
100
AcDbLinetypeTableRecord
  2
DASHDOTTINY
 70
    0
  3
Dash dot (.15x) _._._._._._._._._._._._._._._.
 72
   65
 73
    4
 40
3.81
 49
1.905
 74
    0
 49
-0.9525
 74
    0
 49
0
 74
    0
 49
-0.9525
 74
    0
  0
LTYPE
  5
3C
330
5
100
AcDbSymbolTableRecord
100
AcDbLinetypeTableRecord
  2
DASHDOT2
 70
    0
  3
Dash dot (.5x) _._._._._._._._._._._._._._._.
 72
   65
 73
    4
 40
12.7
 49
6.35
 74
    0
 49
-3.175
 74
    0
 49
0
 74
    0
 49
-3.175
 74
    0
  0
LTYPE
  5
3D
330
5
100
AcDbSymbolTableRecord
100
AcDbLinetypeTableRecord
  2
DASHDOTX2
 70
    0
  3
Dash dot (2x) ____  .  ____  .  ____  .  ___
 72
   65
 73
    4
 40
50.8
 49
25.4
 74
    0
 49
-12.7
 74
    0
 49
0
 74
    0
 49
-12.7
 74
    0
  0
LTYPE
  5
3E
330
5
100
AcDbSymbolTableRecord
100
AcDbLinetypeTableRecord
  2
DIVIDE
 70
    0
  3
Divide ____ . . ____ . . ____ . . ____ . . ____
 72
   65
 73
    6
 40
31.75
 49
12.7
 74
    0
 49
-6.35
 74
    0
 49
0
 74
    0
 49
-6.35
 74
    0
 49
0
 74
    0
 49
-6.35
 74
    0
  0
LTYPE
  5
3F
330
5
100
AcDbSymbolTableRecord
100
AcDbLinetypeTableRecord
  2
DIVIDETINY
 70
    0
  3
Divide (.15x) __..__..__..__..__..__..__..__.._
 72
   65
 73
    6
 40
4.7625
 49
1.905
 74
    0
 49
-0.9525
 74
    0
 49
0
 74
    0
 49
-0.9525
 74
    0
 49
0
 74
    0
 49
-0.9525
 74
    0
  0
LTYPE
  5
40
330
5
100
AcDbSymbolTableRecord
100
AcDbLinetypeTableRecord
  2
DIVIDE2
 70
    0
  3
Divide (.5x) __..__..__..__..__..__..__..__.._
 72
   65
 73
    6
 40
15.875
 49
6.35
 74
    0
 49
-3.175
 74
    0
 49
0
 74
    0
 49
-3.175
 74
    0
 49
0
 74
    0
 49
-3.175
 74
    0
  0
LTYPE
  5
41
330
5
100
AcDbSymbolTableRecord
100
AcDbLinetypeTableRecord
  2
DIVIDEX2
 70
    0
  3
Divide (2x) ________  .  .  ________  .  .  _
 72
   65
 73
    6
 40
63.5
 49
25.4
 74
    0
 49
-12.7
 74
    0
 49
0
 74
    0
 49
-12.7
 74
    0
 49
0
 74
    0
 49
-12.7
 74
    0
  0
LTYPE
  5
42
330
5
100
AcDbSymbolTableRecord
100
AcDbLinetypeTableRecord
  2
BORDER
 70
    0
  3
Border __ __ . __ __ . __ __ . __ __ . __ __ .
 72
   65
 73
    6
 40
44.45
 49
12.7
 74
    0
 49
-6.35
 74
    0
 49
12.7
 74
    0
 49
-6.35
 74
    0
 49
0
 74
    0
 49
-6.35
 74
    0
  0
LTYPE
  5
43
330
5
100
AcDbSymbolTableRecord
100
AcDbLinetypeTableRecord
  2
BORDERTINY
 70
    0
  3
Border (.15x) __.__.__.__.__.__.__.__.__.__.__.
 72
   65
 73
    6
 40
6.6675
 49
1.905
 74
    0
 49
-0.9525
 74
    0
 49
1.905
 74
    0
 49
-0.9525
 74
    0
 49
0
 74
    0
 49
-0.9525
 74
    0
  0
LTYPE
  5
44
330
5
100
AcDbSymbolTableRecord
100
AcDbLinetypeTableRecord
  2
BORDER2
 70
    0
  3
Border (.5x) __.__.__.__.__.__.__.__.__.__.__.
 72
   65
 73
    6
 40
22.225
 49
6.35
 74
    0
 49
-3.175
 74
    0
 49
6.35
 74
    0
 49
-3.175
 74
    0
 49
0
 74
    0
 49
-3.175
 74
    0
  0
LTYPE
  5
45
330
5
100
AcDbSymbolTableRecord
100
AcDbLinetypeTableRecord
  2
BORDERX2
 70
    0
  3
Border (2x) ____  ____  .  ____  ____  .  ___
 72
   65
 73
    6
 40
88.89999999999999
 49
25.4
 74
    0
 49
-12.7
 74
    0
 49
25.4
 74
    0
 49
-12.7
 74
    0
 49
0
 74
    0
 49
-12.7
 74
    0
  0
LTYPE
  5
46
330
5
100
AcDbSymbolTableRecord
100
AcDbLinetypeTableRecord
  2
CENTER
 70
    0
  3
Center ____ _ ____ _ ____ _ ____ _ ____ _ ____
 72
   65
 73
    4
 40
50.8
 49
31.75
 74
    0
 49
-6.35
 74
    0
 49
6.35
 74
    0
 49
-6.35
 74
    0
  0
LTYPE
  5
47
330
5
100
AcDbSymbolTableRecord
100
AcDbLinetypeTableRecord
  2
CENTERTINY
 70
    0
  3
Center (.15x) ___ _ ___ _ ___ _ ___ _ ___ _ ___
 72
   65
 73
    4
 40
7.619999999999999
 49
4.7625
 74
    0
 49
-0.9525
 74
    0
 49
0.9525
 74
    0
 49
-0.9525
 74
    0
  0
LTYPE
  5
48
330
5
100
AcDbSymbolTableRecord
100
AcDbLinetypeTableRecord
  2
CENTER2
 70
    0
  3
Center (.5x) ___ _ ___ _ ___ _ ___ _ ___ _ ___
 72
   65
 73
    4
 40
28.575
 49
19.05
 74
    0
 49
-3.175
 74
    0
 49
3.175
 74
    0
 49
-3.175
 74
    0
  0
LTYPE
  5
49
330
5
100
AcDbSymbolTableRecord
100
AcDbLinetypeTableRecord
  2
CENTERX2
 70
    0
  3
Center (2x) ________  __  ________  __  _____
 72
   65
 73
    4
 40
101.6
 49
63.5
 74
    0
 49
-12.7
 74
    0
 49
12.7
 74
    0
 49
-12.7
 74
    0
  0
ENDTAB
  0
TABLE
  2
LAYER
  5
2
330
0
100
AcDbSymbolTable
 70
    1
  0
LAYER
  5
10
330
2
100
AcDbSymbolTableRecord
100
AcDbLayerTableRecord
  2
0
 70
    0
 62
    7
  6
CONTINUOUS
370
    0
390
F
  0
LAYER
  5
4A
330
2
100
AcDbSymbolTableRecord
100
AcDbLayerTableRecord
  2
20
 70
    0
 62
    7
  6
CONTINUOUS
370
   -3
390
F
  0
LAYER
  5
4B
330
2
100
AcDbSymbolTableRecord
100
AcDbLayerTableRecord
  2
47
 70
    0
 62
  140
  6
CONTINUOUS
370
   -3
390
F
  0
ENDTAB
  0
TABLE
  2
STYLE
  5
3
330
0
100
AcDbSymbolTable
 70
    3
  0
STYLE
  5
4C
330
2
100
AcDbSymbolTableRecord
100
AcDbTextStyleTableRecord
  2
Standard
 70
    0
 40
0
 41
1
 50
0
 71
    0
 42
1
  3
txt
  4

  0
ENDTAB
  0
TABLE
  2
VIEW
  5
6
330
0
100
AcDbSymbolTable
 70
    0
  0
ENDTAB
  0
TABLE
  2
UCS
  5
7
330
0
100
AcDbSymbolTable
 70
    0
  0
ENDTAB
  0
TABLE
  2
APPID
  5
9
330
0
100
AcDbSymbolTable
 70
    1
  0
APPID
  5
12
330
9
100
AcDbSymbolTableRecord
100
AcDbRegAppTableRecord
  2
ACAD
 70
    0
  0
APPID
  5
4D
330
9
100
AcDbSymbolTableRecord
100
AcDbRegAppTableRecord
  2
LibreCad
 70
    0
  0
ENDTAB
  0
TABLE
  2
DIMSTYLE
  5
A
330
0
100
AcDbSymbolTable
 70
    1
100
AcDbDimStyleTable
 71
    1
  0
DIMSTYLE
105
4E
330
A
100
AcDbSymbolTableRecord
100
AcDbDimStyleTableRecord
  2
Standard
 70
    0
 40
1
 41
2.5
 42
0.625
 43
0.38
 44
1.25
 45
0
 46
0
 47
0
 48
0
 49
1
140
2.5
141
0.09
142
2.5
143
25.4
144
1
145
0
146
1
147
0.625
148
0
 71
    0
 72
    0
 73
    0
 74
    1
 75
    0
 76
    0
 77
    0
 78
    1
 79
    0
170
    0
171
    2
172
    0
173
    0
174
    0
175
    0
176
    0
177
    0
178
    0
179
    0
271
    2
272
    4
273
    2
274
    2
275
    0
276
    0
277
    2
278
    0
279
    0
280
    0
281
    0
282
    0
283
    1
284
    0
285
    0
286
    0
288
    0
289
    3
340
standard
341

371
   -2
372
   -2
  0
ENDTAB
  0
TABLE
  2
BLOCK_RECORD
  5
1
330
0
100
AcDbSymbolTable
 70
    2
  0
BLOCK_RECORD
  5
1F
330
1
100
AcDbSymbolTableRecord
100
AcDbBlockTableRecord
  2
*Model_Space
 70
    0
280
    1
281
    0
  0
BLOCK_RECORD
  5
1E
330
1
100
AcDbSymbolTableRecord
100
AcDbBlockTableRecord
  2
*Paper_Space
 70
    0
280
    1
281
    0
  0
BLOCK_RECORD
  5
4F
330
1
100
AcDbSymbolTableRecord
100
AcDbBlockTableRecord
  2
RECT
 70
    0
280
    1
281
    0
  0
BLOCK_RECORD
  5
52
330
1
100
AcDbSymbolTableRecord
100
AcDbBlockTableRecord
  2
PIE
 70
    0
280
    1
281
    0
  0
BLOCK_RECORD
  5
55
330
1
100
AcDbSymbolTableRecord
100
AcDbBlockTableRecord
  2
OCTAGONP
 70
    0
280
    1
281
    0
  0
BLOCK_RECORD
  5
58
330
1
100
AcDbSymbolTableRecord
100
AcDbBlockTableRecord
  2
SQUAREP
 70
    0
280
    1
281
    0
  0
BLOCK_RECORD
  5
5B
330
1
100
AcDbSymbolTableRecord
100
AcDbBlockTableRecord
  2
ROUNDP
 70
    0
280
    1
281
    0
  0
BLOCK_RECORD
  5
5E
330
1
100
AcDbSymbolTableRecord
100
AcDbBlockTableRecord
  2
ANNULUSP
 70
    0
280
    1
281
    0
  0
BLOCK_RECORD
  5
61
330
1
100
AcDbSymbolTableRecord
100
AcDbBlockTableRecord
  2
THERMALP
 70
    0
280
    1
281
    0
  0
BLOCK_RECORD
  5
64
330
1
100
AcDbSymbolTableRecord
100
AcDbBlockTableRecord
  2
OCTAGONV
 70
    0
280
    1
281
    0
  0
BLOCK_RECORD
  5
67
330
1
100
AcDbSymbolTableRecord
100
AcDbBlockTableRecord
  2
SQUAREV
 70
    0
280
    1
281
    0
  0
BLOCK_RECORD
  5
6A
330
1
100
AcDbSymbolTableRecord
100
AcDbBlockTableRecord
  2
ROUNDV
 70
    0
280
    1
281
    0
  0
BLOCK_RECORD
  5
6D
330
1
100
AcDbSymbolTableRecord
100
AcDbBlockTableRecord
  2
ANNULUSV
 70
    0
280
    1
281
    0
  0
BLOCK_RECORD
  5
70
330
1
100
AcDbSymbolTableRecord
100
AcDbBlockTableRecord
  2
THERMALV
 70
    0
280
    1
281
    0
  0
ENDTAB
  0
ENDSEC
  0
SECTION
  2
BLOCKS
  0
BLOCK
  5
20
330
1F
100
AcDbEntity
  8
0
100
AcDbBlockBegin
  2
*Model_Space
 70
    0
 10
0
 20
0
 30
0
  3
*Model_Space
  1

  0
ENDBLK
  5
21
330
1F
100
AcDbEntity
  8
0
100
AcDbBlockEnd
  0
BLOCK
  5
1C
330
1B
100
AcDbEntity
  8
0
100
AcDbBlockBegin
  2
*Paper_Space
 70
    0
 10
0
 20
0
 30
0
  3
*Paper_Space
  1

  0
ENDBLK
  5
1D
330
1F
100
AcDbEntity
  8
0
100
AcDbBlockEnd
  0
BLOCK
  5
50
330
4F
100
AcDbEntity
  8
0
100
AcDbBlockBegin
  2
RECT
 70
    0
 10
0
 20
0
  3
RECT
  1

  0
SOLID
  5
73
100
AcDbEntity
  8
0
  6
ByLayer
 62
  256
370
   -1
100
AcDbTrace
 10
-0.5
 20
-0.5
 30
0
 11
0.5
 21
-0.5
 31
0
 12
-0.5
 22
0.5
 32
0
 13
0.5
 23
0.5
 33
0
  0
ENDBLK
  5
51
330
4F
100
AcDbEntity
  8
0
100
AcDbBlockEnd
  0
BLOCK
  5
53
330
52
100
AcDbEntity
  8
0
100
AcDbBlockBegin
  2
PIE
 70
    0
 10
0
 20
0
  3
PIE
  1

  0
CIRCLE
  5
74
100
AcDbEntity
  8
0
  6
ByLayer
 62
  256
370
   -1
100
AcDbCircle
 10
0
 20
0
 40
0.5
  0
ENDBLK
  5
54
330
52
100
AcDbEntity
  8
0
100
AcDbBlockEnd
  0
BLOCK
  5
56
330
55
100
AcDbEntity
  8
0
100
AcDbBlockBegin
  2
OCTAGONP
 70
    0
 10
0
 20
0
  3
OCTAGONP
  1

  0
LWPOLYLINE
  5
75
100
AcDbEntity
  8
0
  6
ByLayer
 62
  256
370
   -1
100
AcDbPolyline
 90
    8
 70
    1
 43
0
 10
-0.5
 20
-0.2071
 10
-0.5
 20
0.2071
 10
-0.2071
 20
0.5
 10
0.2071
 20
0.5
 10
0.5
 20
0.2071
 10
0.5
 20
-0.2071
 10
0.2071
 20
-0.5
 10
-0.2071
 20
-0.5
  0
ENDBLK
  5
57
330
55
100
AcDbEntity
  8
0
100
AcDbBlockEnd
  0
BLOCK
  5
59
330
58
100
AcDbEntity
  8
0
100
AcDbBlockBegin
  2
SQUAREP
 70
    0
 10
0
 20
0
  3
SQUAREP
  1

  0
SOLID
  5
76
100
AcDbEntity
  8
0
  6
ByLayer
 62
  256
370
   -1
100
AcDbTrace
 10
-0.5
 20
-0.5
 30
0
 11
0.5
 21
-0.5
 31
0
 12
-0.5
 22
0.5
 32
0
 13
0.5
 23
0.5
 33
0
  0
ENDBLK
  5
5A
330
58
100
AcDbEntity
  8
0
100
AcDbBlockEnd
  0
BLOCK
  5
5C
330
5B
100
AcDbEntity
  8
0
100
AcDbBlockBegin
  2
ROUNDP
 70
    0
 10
0
 20
0
  3
ROUNDP
  1

  0
CIRCLE
  5
77
100
AcDbEntity
  8
0
  6
ByLayer
 62
  256
370
   -1
100
AcDbCircle
 10
0
 20
0
 40
0.5
  0
ENDBLK
  5
5D
330
5B
100
AcDbEntity
  8
0
100
AcDbBlockEnd
  0
BLOCK
  5
5F
330
5E
100
AcDbEntity
  8
0
100
AcDbBlockBegin
  2
ANNULUSP
 70
    0
 10
0
 20
0
  3
ANNULUSP
  1

  0
CIRCLE
  5
78
100
AcDbEntity
  8
0
  6
ByLayer
 62
  256
370
   -1
100
AcDbCircle
 10
0
 20
0
 40
0.5
  0
ENDBLK
  5
60
330
5E
100
AcDbEntity
  8
0
100
AcDbBlockEnd
  0
BLOCK
  5
62
330
61
100
AcDbEntity
  8
0
100
AcDbBlockBegin
  2
THERMALP
 70
    0
 10
0
 20
0
  3
THERMALP
  1

  0
LINE
  5
79
100
AcDbEntity
  8
0
  6
ByLayer
 62
  256
370
   -1
100
AcDbLine
 10
-0.2379
 20
0.45
 11
0.2379
 21
0.45
  0
LINE
  5
7A
100
AcDbEntity
  8
0
  6
ByLayer
 62
  256
370
   -1
100
AcDbLine
 10
0.45
 20
0.2379
 11
0.45
 21
-0.2379
  0
LINE
  5
7B
100
AcDbEntity
  8
0
  6
ByLayer
 62
  256
370
   -1
100
AcDbLine
 10
0.2379
 20
-0.45
 11
-0.2379
 21
-0.45
  0
LINE
  5
7C
100
AcDbEntity
  8
0
  6
ByLayer
 62
  256
370
   -1
100
AcDbLine
 10
-0.45
 20
-0.2379
 11
-0.45
 21
0.2379
  0
ENDBLK
  5
63
330
61
100
AcDbEntity
  8
0
100
AcDbBlockEnd
  0
BLOCK
  5
65
330
64
100
AcDbEntity
  8
0
100
AcDbBlockBegin
  2
OCTAGONV
 70
    0
 10
0
 20
0
  3
OCTAGONV
  1

  0
LWPOLYLINE
  5
7D
100
AcDbEntity
  8
0
  6
ByLayer
 62
  256
370
   -1
100
AcDbPolyline
 90
    8
 70
    1
 43
0
 10
-0.5
 20
-0.2071
 10
-0.5
 20
0.2071
 10
-0.2071
 20
0.5
 10
0.2071
 20
0.5
 10
0.5
 20
0.2071
 10
0.5
 20
-0.2071
 10
0.2071
 20
-0.5
 10
-0.2071
 20
-0.5
  0
ENDBLK
  5
66
330
64
100
AcDbEntity
  8
0
100
AcDbBlockEnd
  0
BLOCK
  5
68
330
67
100
AcDbEntity
  8
0
100
AcDbBlockBegin
  2
SQUAREV
 70
    0
 10
0
 20
0
  3
SQUAREV
  1

  0
SOLID
  5
7E
100
AcDbEntity
  8
0
  6
ByLayer
 62
  256
370
   -1
100
AcDbTrace
 10
-0.5
 20
-0.5
 30
0
 11
0.5
 21
-0.5
 31
0
 12
-0.5
 22
0.5
 32
0
 13
0.5
 23
0.5
 33
0
  0
ENDBLK
  5
69
330
67
100
AcDbEntity
  8
0
100
AcDbBlockEnd
  0
BLOCK
  5
6B
330
6A
100
AcDbEntity
  8
0
100
AcDbBlockBegin
  2
ROUNDV
 70
    0
 10
0
 20
0
  3
ROUNDV
  1

  0
CIRCLE
  5
7F
100
AcDbEntity
  8
0
  6
ByLayer
 62
  256
370
   -1
100
AcDbCircle
 10
0
 20
0
 40
0.5
  0
ENDBLK
  5
6C
330
6A
100
AcDbEntity
  8
0
100
AcDbBlockEnd
  0
BLOCK
  5
6E
330
6D
100
AcDbEntity
  8
0
100
AcDbBlockBegin
  2
ANNULUSV
 70
    0
 10
0
 20
0
  3
ANNULUSV
  1

  0
CIRCLE
  5
80
100
AcDbEntity
  8
0
  6
ByLayer
 62
  256
370
   -1
100
AcDbCircle
 10
0
 20
0
 40
0.5
  0
ENDBLK
  5
6F
330
6D
100
AcDbEntity
  8
0
100
AcDbBlockEnd
  0
BLOCK
  5
71
330
70
100
AcDbEntity
  8
0
100
AcDbBlockBegin
  2
THERMALV
 70
    0
 10
0
 20
0
  3
THERMALV
  1

  0
LINE
  5
81
100
AcDbEntity
  8
0
  6
ByLayer
 62
  256
370
   -1
100
AcDbLine
 10
-0.2379
 20
0.45
 11
0.2379
 21
0.45
  0
LINE
  5
82
100
AcDbEntity
  8
0
  6
ByLayer
 62
  256
370
   -1
100
AcDbLine
 10
0.45
 20
0.2379
 11
0.45
 21
-0.2379
  0
LINE
  5
83
100
AcDbEntity
  8
0
  6
ByLayer
 62
  256
370
   -1
100
AcDbLine
 10
0.2379
 20
-0.45
 11
-0.2379
 21
-0.45
  0
LINE
  5
84
100
AcDbEntity
  8
0
  6
ByLayer
 62
  256
370
   -1
100
AcDbLine
 10
-0.45
 20
-0.2379
 11
-0.45
 21
0.2379
  0
ENDBLK
  5
72
330
70
100
AcDbEntity
  8
0
100
AcDbBlockEnd
  0
ENDSEC
  0
SECTION
  2
ENTITIES
  0
LINE
  5
85
100
AcDbEntity
  8
20
  6
ByLayer
 62
  256
370
   -1
100
AcDbLine
 10
0
 20
0
 11
0
 21
111.5
  0
LINE
  5
86
100
AcDbEntity
  8
20
  6
ByLayer
 62
  256
370
   -1
100
AcDbLine
 10
35
 20
0
 11
0
 21
0
  0
LINE
  5
87
100
AcDbEntity
  8
20
  6
ByLayer
 62
  256
370
   -1
100
AcDbLine
 10
35
 20
111.5
 11
0
 21
111.5
  0
LINE
  5
88
100
AcDbEntity
  8
20
  6
ByLayer
 62
  256
370
   -1
100
AcDbLine
 10
35
 20
111.5
 11
35
 21
0
  0
LINE
  5
89
100
AcDbEntity
  8
20
  6
ByLayer
 62
  256
370
   -1
100
AcDbLine
 10
28.1
 20
24.2
 11
5
 21
24.2
  0
LINE
  5
8A
100
AcDbEntity
  8
20
  6
ByLayer
 62
  256
370
   -1
100
AcDbLine
 10
28.1
 20
88.3
 11
20.5
 21
88.3
  0
LINE
  5
8B
100
AcDbEntity
  8
20
  6
ByLayer
 62
  256
370
   -1
100
AcDbLine
 10
12.6
 20
88.3
 11
5
 21
88.3
  0
LINE
  5
8C
100
AcDbEntity
  8
20
  6
ByLayer
 62
  256
370
   -1
100
AcDbLine
 10
28.1
 20
88.3
 11
28.1
 21
24.2
  0
LINE
  5
8D
100
AcDbEntity
  8
20
  6
ByLayer
 62
  256
370
   -1
100
AcDbLine
 10
5
 20
88.3
 11
5
 21
24.2
  0
LINE
  5
8E
100
AcDbEntity
  8
20
  6
ByLayer
 62
  256
370
   -1
100
AcDbLine
 10
20.5
 20
56.3
 11
12.6
 21
56.3
  0
LINE
  5
8F
100
AcDbEntity
  8
20
  6
ByLayer
 62
  256
370
   -1
100
AcDbLine
 10
20.5
 20
88.3
 11
20.5
 21
56.3
  0
LINE
  5
90
100
AcDbEntity
  8
20
  6
ByLayer
 62
  256
370
   -1
100
AcDbLine
 10
12.6
 20
88.3
 11
12.6
 21
56.3
  0
LINE
  5
91
100
AcDbEntity
  8
47
  6
ByLayer
 62
  256
370
   -1
100
AcDbLine
 10
19.0508
 20
5.3008
 11
19.0508
 21
6.4702
  0
LINE
  5
92
100
AcDbEntity
  8
47
  6
ByLayer
 62
  256
370
   -1
100
AcDbLine
 10
19.0508
 20
6.4702
 11
19.4406
 21
6.0804
  0
LINE
  5
93
100
AcDbEntity
  8
47
  6
ByLayer
 62
  256
370
   -1
100
AcDbLine
 10
19.4406
 20
6.0804
 11
19.8304
 21
6.4702
  0
LINE
  5
94
100
AcDbEntity
  8
47
  6
ByLayer
 62
  256
370
   -1
100
AcDbLine
 10
19.8304
 20
6.4702
 11
19.8304
 21
5.3008
  0
LINE
  5
95
100
AcDbEntity
  8
47
  6
ByLayer
 62
  256
370
   -1
100
AcDbLine
 10
20.2202
 20
6.2753
 11
20.4151
 21
6.4702
  0
LINE
  5
96
100
AcDbEntity
  8
47
  6
ByLayer
 62
  256
370
   -1
100
AcDbLine
 10
20.4151
 20
6.4702
 11
20.8049
 21
6.4702
  0
LINE
  5
97
100
AcDbEntity
  8
47
  6
ByLayer
 62
  256
370
   -1
100
AcDbLine
 10
20.8049
 20
6.4702
 11
20.9998
 21
6.2753
  0
LINE
  5
98
100
AcDbEntity
  8
47
  6
ByLayer
 62
  256
370
   -1
100
AcDbLine
 10
20.9998
 20
6.2753
 11
20.9998
 21
6.0804
  0
LINE
  5
99
100
AcDbEntity
  8
47
  6
ByLayer
 62
  256
370
   -1
100
AcDbLine
 10
20.9998
 20
6.0804
 11
20.8049
 21
5.8855
  0
LINE
  5
9A
100
AcDbEntity
  8
47
  6
ByLayer
 62
  256
370
   -1
100
AcDbLine
 10
20.8049
 20
5.8855
 11
20.61
 21
5.8855
  0
LINE
  5
9B
100
AcDbEntity
  8
47
  6
ByLayer
 62
  256
370
   -1
100
AcDbLine
 10
20.8049
 20
5.8855
 11
20.9998
 21
5.6906
  0
LINE
  5
9C
100
AcDbEntity
  8
47
  6
ByLayer
 62
  256
370
   -1
100
AcDbLine
 10
20.9998
 20
5.6906
 11
20.9998
 21
5.4957
  0
LINE
  5
9D
100
AcDbEntity
  8
47
  6
ByLayer
 62
  256
370
   -1
100
AcDbLine
 10
20.9998
 20
5.4957
 11
20.8049
 21
5.3008
  0
LINE
  5
9E
100
AcDbEntity
  8
47
  6
ByLayer
 62
  256
370
   -1
100
AcDbLine
 10
20.8049
 20
5.3008
 11
20.4151
 21
5.3008
  0
LINE
  5
9F
100
AcDbEntity
  8
47
  6
ByLayer
 62
  256
370
   -1
100
AcDbLine
 10
20.4151
 20
5.3008
 11
20.2202
 21
5.4957
  0
LINE
  5
A0
100
AcDbEntity
  8
47
  6
ByLayer
 62
  256
370
   -1
100
AcDbLine
 10
19.0508
 20
105.3008
 11
19.0508
 21
106.4702
  0
LINE
  5
A1
100
AcDbEntity
  8
47
  6
ByLayer
 62
  256
370
   -1
100
AcDbLine
 10
19.0508
 20
106.4702
 11
19.4406
 21
106.0804
  0
LINE
  5
A2
100
AcDbEntity
  8
47
  6
ByLayer
 62
  256
370
   -1
100
AcDbLine
 10
19.4406
 20
106.0804
 11
19.8304
 21
106.4702
  0
LINE
  5
A3
100
AcDbEntity
  8
47
  6
ByLayer
 62
  256
370
   -1
100
AcDbLine
 10
19.8304
 20
106.4702
 11
19.8304
 21
105.3008
  0
LINE
  5
A4
100
AcDbEntity
  8
47
  6
ByLayer
 62
  256
370
   -1
100
AcDbLine
 10
20.2202
 20
106.2753
 11
20.4151
 21
106.4702
  0
LINE
  5
A5
100
AcDbEntity
  8
47
  6
ByLayer
 62
  256
370
   -1
100
AcDbLine
 10
20.4151
 20
106.4702
 11
20.8049
 21
106.4702
  0
LINE
  5
A6
100
AcDbEntity
  8
47
  6
ByLayer
 62
  256
370
   -1
100
AcDbLine
 10
20.8049
 20
106.4702
 11
20.9998
 21
106.2753
  0
LINE
  5
A7
100
AcDbEntity
  8
47
  6
ByLayer
 62
  256
370
   -1
100
AcDbLine
 10
20.9998
 20
106.2753
 11
20.9998
 21
106.0804
  0
LINE
  5
A8
100
AcDbEntity
  8
47
  6
ByLayer
 62
  256
370
   -1
100
AcDbLine
 10
20.9998
 20
106.0804
 11
20.8049
 21
105.8855
  0
LINE
  5
A9
100
AcDbEntity
  8
47
  6
ByLayer
 62
  256
370
   -1
100
AcDbLine
 10
20.8049
 20
105.8855
 11
20.61
 21
105.8855
  0
LINE
  5
AA
100
AcDbEntity
  8
47
  6
ByLayer
 62
  256
370
   -1
100
AcDbLine
 10
20.8049
 20
105.8855
 11
20.9998
 21
105.6906
  0
LINE
  5
AB
100
AcDbEntity
  8
47
  6
ByLayer
 62
  256
370
   -1
100
AcDbLine
 10
20.9998
 20
105.6906
 11
20.9998
 21
105.4957
  0
LINE
  5
AC
100
AcDbEntity
  8
47
  6
ByLayer
 62
  256
370
   -1
100
AcDbLine
 10
20.9998
 20
105.4957
 11
20.8049
 21
105.3008
  0
LINE
  5
AD
100
AcDbEntity
  8
47
  6
ByLayer
 62
  256
370
   -1
100
AcDbLine
 10
20.8049
 20
105.3008
 11
20.4151
 21
105.3008
  0
LINE
  5
AE
100
AcDbEntity
  8
47
  6
ByLayer
 62
  256
370
   -1
100
AcDbLine
 10
20.4151
 20
105.3008
 11
20.2202
 21
105.4957
  0
LINE
  5
AF
100
AcDbEntity
  8
47
  6
ByLayer
 62
  256
370
   -1
100
AcDbLine
 10
10.3304
 20
98.7753
 11
10.1355
 21
98.97020000000001
  0
LINE
  5
B0
100
AcDbEntity
  8
47
  6
ByLayer
 62
  256
370
   -1
100
AcDbLine
 10
10.1355
 20
98.97020000000001
 11
9.745699999999999
 21
98.97020000000001
  0
LINE
  5
B1
100
AcDbEntity
  8
47
  6
ByLayer
 62
  256
370
   -1
100
AcDbLine
 10
9.745699999999999
 20
98.97020000000001
 11
9.550800000000001
 21
98.7753
  0
LINE
  5
B2
100
AcDbEntity
  8
47
  6
ByLayer
 62
  256
370
   -1
100
AcDbLine
 10
9.550800000000001
 20
98.7753
 11
9.550800000000001
 21
97.9957
  0
LINE
  5
B3
100
AcDbEntity
  8
47
  6
ByLayer
 62
  256
370
   -1
100
AcDbLine
 10
9.550800000000001
 20
97.9957
 11
9.745699999999999
 21
97.8008
  0
LINE
  5
B4
100
AcDbEntity
  8
47
  6
ByLayer
 62
  256
370
   -1
100
AcDbLine
 10
9.745699999999999
 20
97.8008
 11
10.1355
 21
97.8008
  0
LINE
  5
B5
100
AcDbEntity
  8
47
  6
ByLayer
 62
  256
370
   -1
100
AcDbLine
 10
10.1355
 20
97.8008
 11
10.3304
 21
97.9957
  0
LINE
  5
B6
100
AcDbEntity
  8
47
  6
ByLayer
 62
  256
370
   -1
100
AcDbLine
 10
10.9151
 20
97.8008
 11
11.3049
 21
97.8008
  0
LINE
  5
B7
100
AcDbEntity
  8
47
  6
ByLayer
 62
  256
370
   -1
100
AcDbLine
 10
11.3049
 20
97.8008
 11
11.4998
 21
97.9957
  0
LINE
  5
B8
100
AcDbEntity
  8
47
  6
ByLayer
 62
  256
370
   -1
100
AcDbLine
 10
11.4998
 20
97.9957
 11
11.4998
 21
98.38549999999999
  0
LINE
  5
B9
100
AcDbEntity
  8
47
  6
ByLayer
 62
  256
370
   -1
100
AcDbLine
 10
11.4998
 20
98.38549999999999
 11
11.3049
 21
98.5804
  0
LINE
  5
BA
100
AcDbEntity
  8
47
  6
ByLayer
 62
  256
370
   -1
100
AcDbLine
 10
11.3049
 20
98.5804
 11
10.9151
 21
98.5804
  0
LINE
  5
BB
100
AcDbEntity
  8
47
  6
ByLayer
 62
  256
370
   -1
100
AcDbLine
 10
10.9151
 20
98.5804
 11
10.7202
 21
98.38549999999999
  0
LINE
  5
BC
100
AcDbEntity
  8
47
  6
ByLayer
 62
  256
370
   -1
100
AcDbLine
 10
10.7202
 20
98.38549999999999
 11
10.7202
 21
97.9957
  0
LINE
  5
BD
100
AcDbEntity
  8
47
  6
ByLayer
 62
  256
370
   -1
100
AcDbLine
 10
10.7202
 20
97.9957
 11
10.9151
 21
97.8008
  0
LINE
  5
BE
100
AcDbEntity
  8
47
  6
ByLayer
 62
  256
370
   -1
100
AcDbLine
 10
11.8896
 20
98.5804
 11
11.8896
 21
97.9957
  0
LINE
  5
BF
100
AcDbEntity
  8
47
  6
ByLayer
 62
  256
370
   -1
100
AcDbLine
 10
11.8896
 20
97.9957
 11
12.0845
 21
97.8008
  0
LINE
  5
C0
100
AcDbEntity
  8
47
  6
ByLayer
 62
  256
370
   -1
100
AcDbLine
 10
12.0845
 20
97.8008
 11
12.6692
 21
97.8008
  0
LINE
  5
C1
100
AcDbEntity
  8
47
  6
ByLayer
 62
  256
370
   -1
100
AcDbLine
 10
12.6692
 20
97.8008
 11
12.6692
 21
98.5804
  0
LINE
  5
C2
100
AcDbEntity
  8
47
  6
ByLayer
 62
  256
370
   -1
100
AcDbLine
 10
13.059
 20
97.8008
 11
13.059
 21
98.5804
  0
LINE
  5
C3
100
AcDbEntity
  8
47
  6
ByLayer
 62
  256
370
   -1
100
AcDbLine
 10
13.059
 20
98.5804
 11
13.6437
 21
98.5804
  0
LINE
  5
C4
100
AcDbEntity
  8
47
  6
ByLayer
 62
  256
370
   -1
100
AcDbLine
 10
13.6437
 20
98.5804
 11
13.8386
 21
98.38549999999999
  0
LINE
  5
C5
100
AcDbEntity
  8
47
  6
ByLayer
 62
  256
370
   -1
100
AcDbLine
 10
13.8386
 20
98.38549999999999
 11
13.8386
 21
97.8008
  0
LINE
  5
C6
100
AcDbEntity
  8
47
  6
ByLayer
 62
  256
370
   -1
100
AcDbLine
 10
14.4233
 20
98.7753
 11
14.4233
 21
97.9957
  0
LINE
  5
C7
100
AcDbEntity
  8
47
  6
ByLayer
 62
  256
370
   -1
100
AcDbLine
 10
14.4233
 20
97.9957
 11
14.6182
 21
97.8008
  0
LINE
  5
C8
100
AcDbEntity
  8
47
  6
ByLayer
 62
  256
370
   -1
100
AcDbLine
 10
14.2284
 20
98.5804
 11
14.6182
 21
98.5804
  0
LINE
  5
C9
100
AcDbEntity
  8
47
  6
ByLayer
 62
  256
370
   -1
100
AcDbLine
 10
15.5927
 20
97.8008
 11
15.2029
 21
97.8008
  0
LINE
  5
CA
100
AcDbEntity
  8
47
  6
ByLayer
 62
  256
370
   -1
100
AcDbLine
 10
15.2029
 20
97.8008
 11
15.008
 21
97.9957
  0
LINE
  5
CB
100
AcDbEntity
  8
47
  6
ByLayer
 62
  256
370
   -1
100
AcDbLine
 10
15.008
 20
97.9957
 11
15.008
 21
98.38549999999999
  0
LINE
  5
CC
100
AcDbEntity
  8
47
  6
ByLayer
 62
  256
370
   -1
100
AcDbLine
 10
15.008
 20
98.38549999999999
 11
15.2029
 21
98.5804
  0
LINE
  5
CD
100
AcDbEntity
  8
47
  6
ByLayer
 62
  256
370
   -1
100
AcDbLine
 10
15.2029
 20
98.5804
 11
15.5927
 21
98.5804
  0
LINE
  5
CE
100
AcDbEntity
  8
47
  6
ByLayer
 62
  256
370
   -1
100
AcDbLine
 10
15.5927
 20
98.5804
 11
15.7876
 21
98.38549999999999
  0
LINE
  5
CF
100
AcDbEntity
  8
47
  6
ByLayer
 62
  256
370
   -1
100
AcDbLine
 10
15.7876
 20
98.38549999999999
 11
15.7876
 21
98.1906
  0
LINE
  5
D0
100
AcDbEntity
  8
47
  6
ByLayer
 62
  256
370
   -1
100
AcDbLine
 10
15.7876
 20
98.1906
 11
15.008
 21
98.1906
  0
LINE
  5
D1
100
AcDbEntity
  8
47
  6
ByLayer
 62
  256
370
   -1
100
AcDbLine
 10
16.1774
 20
97.8008
 11
16.1774
 21
98.5804
  0
LINE
  5
D2
100
AcDbEntity
  8
47
  6
ByLayer
 62
  256
370
   -1
100
AcDbLine
 10
16.1774
 20
98.1906
 11
16.5672
 21
98.5804
  0
LINE
  5
D3
100
AcDbEntity
  8
47
  6
ByLayer
 62
  256
370
   -1
100
AcDbLine
 10
16.5672
 20
98.5804
 11
16.7621
 21
98.5804
  0
LINE
  5
D4
100
AcDbEntity
  8
47
  6
ByLayer
 62
  256
370
   -1
100
AcDbLine
 10
17.1519
 20
97.8008
 11
17.7366
 21
97.8008
  0
LINE
  5
D5
100
AcDbEntity
  8
47
  6
ByLayer
 62
  256
370
   -1
100
AcDbLine
 10
17.7366
 20
97.8008
 11
17.9315
 21
97.9957
  0
LINE
  5
D6
100
AcDbEntity
  8
47
  6
ByLayer
 62
  256
370
   -1
100
AcDbLine
 10
17.9315
 20
97.9957
 11
17.7366
 21
98.1906
  0
LINE
  5
D7
100
AcDbEntity
  8
47
  6
ByLayer
 62
  256
370
   -1
100
AcDbLine
 10
17.7366
 20
98.1906
 11
17.3468
 21
98.1906
  0
LINE
  5
D8
100
AcDbEntity
  8
47
  6
ByLayer
 62
  256
370
   -1
100
AcDbLine
 10
17.3468
 20
98.1906
 11
17.1519
 21
98.38549999999999
  0
LINE
  5
D9
100
AcDbEntity
  8
47
  6
ByLayer
 62
  256
370
   -1
100
AcDbLine
 10
17.1519
 20
98.38549999999999
 11
17.3468
 21
98.5804
  0
LINE
  5
DA
100
AcDbEntity
  8
47
  6
ByLayer
 62
  256
370
   -1
100
AcDbLine
 10
17.3468
 20
98.5804
 11
17.9315
 21
98.5804
  0
LINE
  5
DB
100
AcDbEntity
  8
47
  6
ByLayer
 62
  256
370
   -1
100
AcDbLine
 10
18.3213
 20
98.5804
 11
18.5162
 21
98.5804
  0
LINE
  5
DC
100
AcDbEntity
  8
47
  6
ByLayer
 62
  256
370
   -1
100
AcDbLine
 10
18.5162
 20
98.5804
 11
18.5162
 21
97.8008
  0
LINE
  5
DD
100
AcDbEntity
  8
47
  6
ByLayer
 62
  256
370
   -1
100
AcDbLine
 10
18.3213
 20
97.8008
 11
18.7111
 21
97.8008
  0
LINE
  5
DE
100
AcDbEntity
  8
47
  6
ByLayer
 62
  256
370
   -1
100
AcDbLine
 10
18.5162
 20
99.1651
 11
18.5162
 21
98.97020000000001
  0
LINE
  5
DF
100
AcDbEntity
  8
47
  6
ByLayer
 62
  256
370
   -1
100
AcDbLine
 10
19.1009
 20
97.8008
 11
19.1009
 21
98.5804
  0
LINE
  5
E0
100
AcDbEntity
  8
47
  6
ByLayer
 62
  256
370
   -1
100
AcDbLine
 10
19.1009
 20
98.5804
 11
19.6856
 21
98.5804
  0
LINE
  5
E1
100
AcDbEntity
  8
47
  6
ByLayer
 62
  256
370
   -1
100
AcDbLine
 10
19.6856
 20
98.5804
 11
19.8805
 21
98.38549999999999
  0
LINE
  5
E2
100
AcDbEntity
  8
47
  6
ByLayer
 62
  256
370
   -1
100
AcDbLine
 10
19.8805
 20
98.38549999999999
 11
19.8805
 21
97.8008
  0
LINE
  5
E3
100
AcDbEntity
  8
47
  6
ByLayer
 62
  256
370
   -1
100
AcDbLine
 10
20.2703
 20
97.8008
 11
20.2703
 21
98.97020000000001
  0
LINE
  5
E4
100
AcDbEntity
  8
47
  6
ByLayer
 62
  256
370
   -1
100
AcDbLine
 10
20.855
 20
97.8008
 11
20.2703
 21
98.1906
  0
LINE
  5
E5
100
AcDbEntity
  8
47
  6
ByLayer
 62
  256
370
   -1
100
AcDbLine
 10
20.2703
 20
98.1906
 11
20.855
 21
98.5804
  0
LINE
  5
E6
100
AcDbEntity
  8
47
  6
ByLayer
 62
  256
370
   -1
100
AcDbLine
 10
22.6091
 20
97.8008
 11
22.6091
 21
98.7753
  0
LINE
  5
E7
100
AcDbEntity
  8
47
  6
ByLayer
 62
  256
370
   -1
100
AcDbLine
 10
22.6091
 20
98.7753
 11
22.804
 21
98.97020000000001
  0
LINE
  5
E8
100
AcDbEntity
  8
47
  6
ByLayer
 62
  256
370
   -1
100
AcDbLine
 10
22.4142
 20
98.38549999999999
 11
22.804
 21
98.38549999999999
  0
LINE
  5
E9
100
AcDbEntity
  8
47
  6
ByLayer
 62
  256
370
   -1
100
AcDbLine
 10
23.3887
 20
97.8008
 11
23.7785
 21
97.8008
  0
LINE
  5
EA
100
AcDbEntity
  8
47
  6
ByLayer
 62
  256
370
   -1
100
AcDbLine
 10
23.7785
 20
97.8008
 11
23.9734
 21
97.9957
  0
LINE
  5
EB
100
AcDbEntity
  8
47
  6
ByLayer
 62
  256
370
   -1
100
AcDbLine
 10
23.9734
 20
97.9957
 11
23.9734
 21
98.38549999999999
  0
LINE
  5
EC
100
AcDbEntity
  8
47
  6
ByLayer
 62
  256
370
   -1
100
AcDbLine
 10
23.9734
 20
98.38549999999999
 11
23.7785
 21
98.5804
  0
LINE
  5
ED
100
AcDbEntity
  8
47
  6
ByLayer
 62
  256
370
   -1
100
AcDbLine
 10
23.7785
 20
98.5804
 11
23.3887
 21
98.5804
  0
LINE
  5
EE
100
AcDbEntity
  8
47
  6
ByLayer
 62
  256
370
   -1
100
AcDbLine
 10
23.3887
 20
98.5804
 11
23.1938
 21
98.38549999999999
  0
LINE
  5
EF
100
AcDbEntity
  8
47
  6
ByLayer
 62
  256
370
   -1
100
AcDbLine
 10
23.1938
 20
98.38549999999999
 11
23.1938
 21
97.9957
  0
LINE
  5
F0
100
AcDbEntity
  8
47
  6
ByLayer
 62
  256
370
   -1
100
AcDbLine
 10
23.1938
 20
97.9957
 11
23.3887
 21
97.8008
  0
LINE
  5
F1
100
AcDbEntity
  8
47
  6
ByLayer
 62
  256
370
   -1
100
AcDbLine
 10
24.3632
 20
97.8008
 11
24.3632
 21
98.5804
  0
LINE
  5
F2
100
AcDbEntity
  8
47
  6
ByLayer
 62
  256
370
   -1
100
AcDbLine
 10
24.3632
 20
98.1906
 11
24.753
 21
98.5804
  0
LINE
  5
F3
100
AcDbEntity
  8
47
  6
ByLayer
 62
  256
370
   -1
100
AcDbLine
 10
24.753
 20
98.5804
 11
24.9479
 21
98.5804
  0
LINE
  5
F4
100
AcDbEntity
  8
47
  6
ByLayer
 62
  256
370
   -1
100
AcDbLine
 10
26.507
 20
97.8008
 11
26.507
 21
98.97020000000001
  0
LINE
  5
F5
100
AcDbEntity
  8
47
  6
ByLayer
 62
  256
370
   -1
100
AcDbLine
 10
26.507
 20
98.97020000000001
 11
26.8968
 21
98.5804
  0
LINE
  5
F6
100
AcDbEntity
  8
47
  6
ByLayer
 62
  256
370
   -1
100
AcDbLine
 10
26.8968
 20
98.5804
 11
27.2866
 21
98.97020000000001
  0
LINE
  5
F7
100
AcDbEntity
  8
47
  6
ByLayer
 62
  256
370
   -1
100
AcDbLine
 10
27.2866
 20
98.97020000000001
 11
27.2866
 21
97.8008
  0
LINE
  5
F8
100
AcDbEntity
  8
47
  6
ByLayer
 62
  256
370
   -1
100
AcDbLine
 10
27.6764
 20
98.7753
 11
27.8713
 21
98.97020000000001
  0
LINE
  5
F9
100
AcDbEntity
  8
47
  6
ByLayer
 62
  256
370
   -1
100
AcDbLine
 10
27.8713
 20
98.97020000000001
 11
28.2611
 21
98.97020000000001
  0
LINE
  5
FA
100
AcDbEntity
  8
47
  6
ByLayer
 62
  256
370
   -1
100
AcDbLine
 10
28.2611
 20
98.97020000000001
 11
28.456
 21
98.7753
  0
LINE
  5
FB
100
AcDbEntity
  8
47
  6
ByLayer
 62
  256
370
   -1
100
AcDbLine
 10
28.456
 20
98.7753
 11
28.456
 21
98.5804
  0
LINE
  5
FC
100
AcDbEntity
  8
47
  6
ByLayer
 62
  256
370
   -1
100
AcDbLine
 10
28.456
 20
98.5804
 11
28.2611
 21
98.38549999999999
  0
LINE
  5
FD
100
AcDbEntity
  8
47
  6
ByLayer
 62
  256
370
   -1
100
AcDbLine
 10
28.2611
 20
98.38549999999999
 11
28.0662
 21
98.38549999999999
  0
LINE
  5
FE
100
AcDbEntity
  8
47
  6
ByLayer
 62
  256
370
   -1
100
AcDbLine
 10
28.2611
 20
98.38549999999999
 11
28.456
 21
98.1906
  0
LINE
  5
FF
100
AcDbEntity
  8
47
  6
ByLayer
 62
  256
370
   -1
100
AcDbLine
 10
28.456
 20
98.1906
 11
28.456
 21
97.9957
  0
LINE
  5
100
100
AcDbEntity
  8
47
  6
ByLayer
 62
  256
370
   -1
100
AcDbLine
 10
28.456
 20
97.9957
 11
28.2611
 21
97.8008
  0
LINE
  5
101
100
AcDbEntity
  8
47
  6
ByLayer
 62
  256
370
   -1
100
AcDbLine
 10
28.2611
 20
97.8008
 11
27.8713
 21
97.8008
  0
LINE
  5
102
100
AcDbEntity
  8
47
  6
ByLayer
 62
  256
370
   -1
100
AcDbLine
 10
27.8713
 20
97.8008
 11
27.6764
 21
97.9957
  0
LINE
  5
103
100
AcDbEntity
  8
47
  6
ByLayer
 62
  256
370
   -1
100
AcDbLine
 10
10.0804
 20
15.0253
 11
9.8855
 21
15.2202
  0
LINE
  5
104
100
AcDbEntity
  8
47
  6
ByLayer
 62
  256
370
   -1
100
AcDbLine
 10
9.8855
 20
15.2202
 11
9.495699999999999
 21
15.2202
  0
LINE
  5
105
100
AcDbEntity
  8
47
  6
ByLayer
 62
  256
370
   -1
100
AcDbLine
 10
9.495699999999999
 20
15.2202
 11
9.300800000000001
 21
15.0253
  0
LINE
  5
106
100
AcDbEntity
  8
47
  6
ByLayer
 62
  256
370
   -1
100
AcDbLine
 10
9.300800000000001
 20
15.0253
 11
9.300800000000001
 21
14.2457
  0
LINE
  5
107
100
AcDbEntity
  8
47
  6
ByLayer
 62
  256
370
   -1
100
AcDbLine
 10
9.300800000000001
 20
14.2457
 11
9.495699999999999
 21
14.0508
  0
LINE
  5
108
100
AcDbEntity
  8
47
  6
ByLayer
 62
  256
370
   -1
100
AcDbLine
 10
9.495699999999999
 20
14.0508
 11
9.8855
 21
14.0508
  0
LINE
  5
109
100
AcDbEntity
  8
47
  6
ByLayer
 62
  256
370
   -1
100
AcDbLine
 10
9.8855
 20
14.0508
 11
10.0804
 21
14.2457
  0
LINE
  5
10A
100
AcDbEntity
  8
47
  6
ByLayer
 62
  256
370
   -1
100
AcDbLine
 10
10.6651
 20
14.0508
 11
11.0549
 21
14.0508
  0
LINE
  5
10B
100
AcDbEntity
  8
47
  6
ByLayer
 62
  256
370
   -1
100
AcDbLine
 10
11.0549
 20
14.0508
 11
11.2498
 21
14.2457
  0
LINE
  5
10C
100
AcDbEntity
  8
47
  6
ByLayer
 62
  256
370
   -1
100
AcDbLine
 10
11.2498
 20
14.2457
 11
11.2498
 21
14.6355
  0
LINE
  5
10D
100
AcDbEntity
  8
47
  6
ByLayer
 62
  256
370
   -1
100
AcDbLine
 10
11.2498
 20
14.6355
 11
11.0549
 21
14.8304
  0
LINE
  5
10E
100
AcDbEntity
  8
47
  6
ByLayer
 62
  256
370
   -1
100
AcDbLine
 10
11.0549
 20
14.8304
 11
10.6651
 21
14.8304
  0
LINE
  5
10F
100
AcDbEntity
  8
47
  6
ByLayer
 62
  256
370
   -1
100
AcDbLine
 10
10.6651
 20
14.8304
 11
10.4702
 21
14.6355
  0
LINE
  5
110
100
AcDbEntity
  8
47
  6
ByLayer
 62
  256
370
   -1
100
AcDbLine
 10
10.4702
 20
14.6355
 11
10.4702
 21
14.2457
  0
LINE
  5
111
100
AcDbEntity
  8
47
  6
ByLayer
 62
  256
370
   -1
100
AcDbLine
 10
10.4702
 20
14.2457
 11
10.6651
 21
14.0508
  0
LINE
  5
112
100
AcDbEntity
  8
47
  6
ByLayer
 62
  256
370
   -1
100
AcDbLine
 10
11.6396
 20
14.8304
 11
11.6396
 21
14.2457
  0
LINE
  5
113
100
AcDbEntity
  8
47
  6
ByLayer
 62
  256
370
   -1
100
AcDbLine
 10
11.6396
 20
14.2457
 11
11.8345
 21
14.0508
  0
LINE
  5
114
100
AcDbEntity
  8
47
  6
ByLayer
 62
  256
370
   -1
100
AcDbLine
 10
11.8345
 20
14.0508
 11
12.4192
 21
14.0508
  0
LINE
  5
115
100
AcDbEntity
  8
47
  6
ByLayer
 62
  256
370
   -1
100
AcDbLine
 10
12.4192
 20
14.0508
 11
12.4192
 21
14.8304
  0
LINE
  5
116
100
AcDbEntity
  8
47
  6
ByLayer
 62
  256
370
   -1
100
AcDbLine
 10
12.809
 20
14.0508
 11
12.809
 21
14.8304
  0
LINE
  5
117
100
AcDbEntity
  8
47
  6
ByLayer
 62
  256
370
   -1
100
AcDbLine
 10
12.809
 20
14.8304
 11
13.3937
 21
14.8304
  0
LINE
  5
118
100
AcDbEntity
  8
47
  6
ByLayer
 62
  256
370
   -1
100
AcDbLine
 10
13.3937
 20
14.8304
 11
13.5886
 21
14.6355
  0
LINE
  5
119
100
AcDbEntity
  8
47
  6
ByLayer
 62
  256
370
   -1
100
AcDbLine
 10
13.5886
 20
14.6355
 11
13.5886
 21
14.0508
  0
LINE
  5
11A
100
AcDbEntity
  8
47
  6
ByLayer
 62
  256
370
   -1
100
AcDbLine
 10
14.1733
 20
15.0253
 11
14.1733
 21
14.2457
  0
LINE
  5
11B
100
AcDbEntity
  8
47
  6
ByLayer
 62
  256
370
   -1
100
AcDbLine
 10
14.1733
 20
14.2457
 11
14.3682
 21
14.0508
  0
LINE
  5
11C
100
AcDbEntity
  8
47
  6
ByLayer
 62
  256
370
   -1
100
AcDbLine
 10
13.9784
 20
14.8304
 11
14.3682
 21
14.8304
  0
LINE
  5
11D
100
AcDbEntity
  8
47
  6
ByLayer
 62
  256
370
   -1
100
AcDbLine
 10
15.3427
 20
14.0508
 11
14.9529
 21
14.0508
  0
LINE
  5
11E
100
AcDbEntity
  8
47
  6
ByLayer
 62
  256
370
   -1
100
AcDbLine
 10
14.9529
 20
14.0508
 11
14.758
 21
14.2457
  0
LINE
  5
11F
100
AcDbEntity
  8
47
  6
ByLayer
 62
  256
370
   -1
100
AcDbLine
 10
14.758
 20
14.2457
 11
14.758
 21
14.6355
  0
LINE
  5
120
100
AcDbEntity
  8
47
  6
ByLayer
 62
  256
370
   -1
100
AcDbLine
 10
14.758
 20
14.6355
 11
14.9529
 21
14.8304
  0
LINE
  5
121
100
AcDbEntity
  8
47
  6
ByLayer
 62
  256
370
   -1
100
AcDbLine
 10
14.9529
 20
14.8304
 11
15.3427
 21
14.8304
  0
LINE
  5
122
100
AcDbEntity
  8
47
  6
ByLayer
 62
  256
370
   -1
100
AcDbLine
 10
15.3427
 20
14.8304
 11
15.5376
 21
14.6355
  0
LINE
  5
123
100
AcDbEntity
  8
47
  6
ByLayer
 62
  256
370
   -1
100
AcDbLine
 10
15.5376
 20
14.6355
 11
15.5376
 21
14.4406
  0
LINE
  5
124
100
AcDbEntity
  8
47
  6
ByLayer
 62
  256
370
   -1
100
AcDbLine
 10
15.5376
 20
14.4406
 11
14.758
 21
14.4406
  0
LINE
  5
125
100
AcDbEntity
  8
47
  6
ByLayer
 62
  256
370
   -1
100
AcDbLine
 10
15.9274
 20
14.0508
 11
15.9274
 21
14.8304
  0
LINE
  5
126
100
AcDbEntity
  8
47
  6
ByLayer
 62
  256
370
   -1
100
AcDbLine
 10
15.9274
 20
14.4406
 11
16.3172
 21
14.8304
  0
LINE
  5
127
100
AcDbEntity
  8
47
  6
ByLayer
 62
  256
370
   -1
100
AcDbLine
 10
16.3172
 20
14.8304
 11
16.5121
 21
14.8304
  0
LINE
  5
128
100
AcDbEntity
  8
47
  6
ByLayer
 62
  256
370
   -1
100
AcDbLine
 10
16.9019
 20
14.0508
 11
17.4866
 21
14.0508
  0
LINE
  5
129
100
AcDbEntity
  8
47
  6
ByLayer
 62
  256
370
   -1
100
AcDbLine
 10
17.4866
 20
14.0508
 11
17.6815
 21
14.2457
  0
LINE
  5
12A
100
AcDbEntity
  8
47
  6
ByLayer
 62
  256
370
   -1
100
AcDbLine
 10
17.6815
 20
14.2457
 11
17.4866
 21
14.4406
  0
LINE
  5
12B
100
AcDbEntity
  8
47
  6
ByLayer
 62
  256
370
   -1
100
AcDbLine
 10
17.4866
 20
14.4406
 11
17.0968
 21
14.4406
  0
LINE
  5
12C
100
AcDbEntity
  8
47
  6
ByLayer
 62
  256
370
   -1
100
AcDbLine
 10
17.0968
 20
14.4406
 11
16.9019
 21
14.6355
  0
LINE
  5
12D
100
AcDbEntity
  8
47
  6
ByLayer
 62
  256
370
   -1
100
AcDbLine
 10
16.9019
 20
14.6355
 11
17.0968
 21
14.8304
  0
LINE
  5
12E
100
AcDbEntity
  8
47
  6
ByLayer
 62
  256
370
   -1
100
AcDbLine
 10
17.0968
 20
14.8304
 11
17.6815
 21
14.8304
  0
LINE
  5
12F
100
AcDbEntity
  8
47
  6
ByLayer
 62
  256
370
   -1
100
AcDbLine
 10
18.0713
 20
14.8304
 11
18.2662
 21
14.8304
  0
LINE
  5
130
100
AcDbEntity
  8
47
  6
ByLayer
 62
  256
370
   -1
100
AcDbLine
 10
18.2662
 20
14.8304
 11
18.2662
 21
14.0508
  0
LINE
  5
131
100
AcDbEntity
  8
47
  6
ByLayer
 62
  256
370
   -1
100
AcDbLine
 10
18.0713
 20
14.0508
 11
18.4611
 21
14.0508
  0
LINE
  5
132
100
AcDbEntity
  8
47
  6
ByLayer
 62
  256
370
   -1
100
AcDbLine
 10
18.2662
 20
15.4151
 11
18.2662
 21
15.2202
  0
LINE
  5
133
100
AcDbEntity
  8
47
  6
ByLayer
 62
  256
370
   -1
100
AcDbLine
 10
18.8509
 20
14.0508
 11
18.8509
 21
14.8304
  0
LINE
  5
134
100
AcDbEntity
  8
47
  6
ByLayer
 62
  256
370
   -1
100
AcDbLine
 10
18.8509
 20
14.8304
 11
19.4356
 21
14.8304
  0
LINE
  5
135
100
AcDbEntity
  8
47
  6
ByLayer
 62
  256
370
   -1
100
AcDbLine
 10
19.4356
 20
14.8304
 11
19.6305
 21
14.6355
  0
LINE
  5
136
100
AcDbEntity
  8
47
  6
ByLayer
 62
  256
370
   -1
100
AcDbLine
 10
19.6305
 20
14.6355
 11
19.6305
 21
14.0508
  0
LINE
  5
137
100
AcDbEntity
  8
47
  6
ByLayer
 62
  256
370
   -1
100
AcDbLine
 10
20.0203
 20
14.0508
 11
20.0203
 21
15.2202
  0
LINE
  5
138
100
AcDbEntity
  8
47
  6
ByLayer
 62
  256
370
   -1
100
AcDbLine
 10
20.605
 20
14.0508
 11
20.0203
 21
14.4406
  0
LINE
  5
139
100
AcDbEntity
  8
47
  6
ByLayer
 62
  256
370
   -1
100
AcDbLine
 10
20.0203
 20
14.4406
 11
20.605
 21
14.8304
  0
LINE
  5
13A
100
AcDbEntity
  8
47
  6
ByLayer
 62
  256
370
   -1
100
AcDbLine
 10
22.3591
 20
14.0508
 11
22.3591
 21
15.0253
  0
LINE
  5
13B
100
AcDbEntity
  8
47
  6
ByLayer
 62
  256
370
   -1
100
AcDbLine
 10
22.3591
 20
15.0253
 11
22.554
 21
15.2202
  0
LINE
  5
13C
100
AcDbEntity
  8
47
  6
ByLayer
 62
  256
370
   -1
100
AcDbLine
 10
22.1642
 20
14.6355
 11
22.554
 21
14.6355
  0
LINE
  5
13D
100
AcDbEntity
  8
47
  6
ByLayer
 62
  256
370
   -1
100
AcDbLine
 10
23.1387
 20
14.0508
 11
23.5285
 21
14.0508
  0
LINE
  5
13E
100
AcDbEntity
  8
47
  6
ByLayer
 62
  256
370
   -1
100
AcDbLine
 10
23.5285
 20
14.0508
 11
23.7234
 21
14.2457
  0
LINE
  5
13F
100
AcDbEntity
  8
47
  6
ByLayer
 62
  256
370
   -1
100
AcDbLine
 10
23.7234
 20
14.2457
 11
23.7234
 21
14.6355
  0
LINE
  5
140
100
AcDbEntity
  8
47
  6
ByLayer
 62
  256
370
   -1
100
AcDbLine
 10
23.7234
 20
14.6355
 11
23.5285
 21
14.8304
  0
LINE
  5
141
100
AcDbEntity
  8
47
  6
ByLayer
 62
  256
370
   -1
100
AcDbLine
 10
23.5285
 20
14.8304
 11
23.1387
 21
14.8304
  0
LINE
  5
142
100
AcDbEntity
  8
47
  6
ByLayer
 62
  256
370
   -1
100
AcDbLine
 10
23.1387
 20
14.8304
 11
22.9438
 21
14.6355
  0
LINE
  5
143
100
AcDbEntity
  8
47
  6
ByLayer
 62
  256
370
   -1
100
AcDbLine
 10
22.9438
 20
14.6355
 11
22.9438
 21
14.2457
  0
LINE
  5
144
100
AcDbEntity
  8
47
  6
ByLayer
 62
  256
370
   -1
100
AcDbLine
 10
22.9438
 20
14.2457
 11
23.1387
 21
14.0508
  0
LINE
  5
145
100
AcDbEntity
  8
47
  6
ByLayer
 62
  256
370
   -1
100
AcDbLine
 10
24.1132
 20
14.0508
 11
24.1132
 21
14.8304
  0
LINE
  5
146
100
AcDbEntity
  8
47
  6
ByLayer
 62
  256
370
   -1
100
AcDbLine
 10
24.1132
 20
14.4406
 11
24.503
 21
14.8304
  0
LINE
  5
147
100
AcDbEntity
  8
47
  6
ByLayer
 62
  256
370
   -1
100
AcDbLine
 10
24.503
 20
14.8304
 11
24.6979
 21
14.8304
  0
LINE
  5
148
100
AcDbEntity
  8
47
  6
ByLayer
 62
  256
370
   -1
100
AcDbLine
 10
26.257
 20
14.0508
 11
26.257
 21
15.2202
  0
LINE
  5
149
100
AcDbEntity
  8
47
  6
ByLayer
 62
  256
370
   -1
100
AcDbLine
 10
26.257
 20
15.2202
 11
26.6468
 21
14.8304
  0
LINE
  5
14A
100
AcDbEntity
  8
47
  6
ByLayer
 62
  256
370
   -1
100
AcDbLine
 10
26.6468
 20
14.8304
 11
27.0366
 21
15.2202
  0
LINE
  5
14B
100
AcDbEntity
  8
47
  6
ByLayer
 62
  256
370
   -1
100
AcDbLine
 10
27.0366
 20
15.2202
 11
27.0366
 21
14.0508
  0
LINE
  5
14C
100
AcDbEntity
  8
47
  6
ByLayer
 62
  256
370
   -1
100
AcDbLine
 10
27.4264
 20
15.0253
 11
27.6213
 21
15.2202
  0
LINE
  5
14D
100
AcDbEntity
  8
47
  6
ByLayer
 62
  256
370
   -1
100
AcDbLine
 10
27.6213
 20
15.2202
 11
28.0111
 21
15.2202
  0
LINE
  5
14E
100
AcDbEntity
  8
47
  6
ByLayer
 62
  256
370
   -1
100
AcDbLine
 10
28.0111
 20
15.2202
 11
28.206
 21
15.0253
  0
LINE
  5
14F
100
AcDbEntity
  8
47
  6
ByLayer
 62
  256
370
   -1
100
AcDbLine
 10
28.206
 20
15.0253
 11
28.206
 21
14.8304
  0
LINE
  5
150
100
AcDbEntity
  8
47
  6
ByLayer
 62
  256
370
   -1
100
AcDbLine
 10
28.206
 20
14.8304
 11
28.0111
 21
14.6355
  0
LINE
  5
151
100
AcDbEntity
  8
47
  6
ByLayer
 62
  256
370
   -1
100
AcDbLine
 10
28.0111
 20
14.6355
 11
27.8162
 21
14.6355
  0
LINE
  5
152
100
AcDbEntity
  8
47
  6
ByLayer
 62
  256
370
   -1
100
AcDbLine
 10
28.0111
 20
14.6355
 11
28.206
 21
14.4406
  0
LINE
  5
153
100
AcDbEntity
  8
47
  6
ByLayer
 62
  256
370
   -1
100
AcDbLine
 10
28.206
 20
14.4406
 11
28.206
 21
14.2457
  0
LINE
  5
154
100
AcDbEntity
  8
47
  6
ByLayer
 62
  256
370
   -1
100
AcDbLine
 10
28.206
 20
14.2457
 11
28.0111
 21
14.0508
  0
LINE
  5
155
100
AcDbEntity
  8
47
  6
ByLayer
 62
  256
370
   -1
100
AcDbLine
 10
28.0111
 20
14.0508
 11
27.6213
 21
14.0508
  0
LINE
  5
156
100
AcDbEntity
  8
47
  6
ByLayer
 62
  256
370
   -1
100
AcDbLine
 10
27.6213
 20
14.0508
 11
27.4264
 21
14.2457
  0
LINE
  5
157
100
AcDbEntity
  8
47
  6
ByLayer
 62
  256
370
   -1
100
AcDbLine
 10
20
 20
3.25
 11
-16.45
 21
3.25
  0
LINE
  5
158
100
AcDbEntity
  8
47
  6
ByLayer
 62
  256
370
   -1
100
AcDbLine
 10
20.25
 20
108.25
 11
-16.45
 21
108.25
  0
LINE
  5
159
100
AcDbEntity
  8
47
  6
ByLayer
 62
  256
370
   -1
100
AcDbLine
 10
-14.5
 20
3.315
 11
-14.5
 21
108.185
  0
LINE
  5
15A
100
AcDbEntity
  8
47
  6
ByLayer
 62
  256
370
   -1
100
AcDbLine
 10
-14.5
 20
3.315
 11
-14.8192
 21
5.85
  0
LINE
  5
15B
100
AcDbEntity
  8
47
  6
ByLayer
 62
  256
370
   -1
100
AcDbLine
 10
-14.8192
 20
5.85
 11
-14.1808
 21
5.85
  0
LINE
  5
15C
100
AcDbEntity
  8
47
  6
ByLayer
 62
  256
370
   -1
100
AcDbLine
 10
-14.1808
 20
5.85
 11
-14.5
 21
3.315
  0
LINE
  5
15D
100
AcDbEntity
  8
47
  6
ByLayer
 62
  256
370
   -1
100
AcDbLine
 10
-14.5
 20
3.315
 11
-14.63
 21
5.85
  0
LINE
  5
15E
100
AcDbEntity
  8
47
  6
ByLayer
 62
  256
370
   -1
100
AcDbLine
 10
-14.37
 20
5.85
 11
-14.5
 21
3.315
  0
LINE
  5
15F
100
AcDbEntity
  8
47
  6
ByLayer
 62
  256
370
   -1
100
AcDbLine
 10
-14.5
 20
3.315
 11
-14.76
 21
5.85
  0
LINE
  5
160
100
AcDbEntity
  8
47
  6
ByLayer
 62
  256
370
   -1
100
AcDbLine
 10
-14.24
 20
5.85
 11
-14.5
 21
3.315
  0
LINE
  5
161
100
AcDbEntity
  8
47
  6
ByLayer
 62
  256
370
   -1
100
AcDbLine
 10
-14.5
 20
108.185
 11
-14.8192
 21
105.65
  0
LINE
  5
162
100
AcDbEntity
  8
47
  6
ByLayer
 62
  256
370
   -1
100
AcDbLine
 10
-14.8192
 20
105.65
 11
-14.1808
 21
105.65
  0
LINE
  5
163
100
AcDbEntity
  8
47
  6
ByLayer
 62
  256
370
   -1
100
AcDbLine
 10
-14.1808
 20
105.65
 11
-14.5
 21
108.185
  0
LINE
  5
164
100
AcDbEntity
  8
47
  6
ByLayer
 62
  256
370
   -1
100
AcDbLine
 10
-14.5
 20
108.185
 11
-14.63
 21
105.65
  0
LINE
  5
165
100
AcDbEntity
  8
47
  6
ByLayer
 62
  256
370
   -1
100
AcDbLine
 10
-14.37
 20
105.65
 11
-14.5
 21
108.185
  0
LINE
  5
166
100
AcDbEntity
  8
47
  6
ByLayer
 62
  256
370
   -1
100
AcDbLine
 10
-14.5
 20
108.185
 11
-14.76
 21
105.65
  0
LINE
  5
167
100
AcDbEntity
  8
47
  6
ByLayer
 62
  256
370
   -1
100
AcDbLine
 10
-14.24
 20
105.65
 11
-14.5
 21
108.185
  0
LINE
  5
168
100
AcDbEntity
  8
47
  6
ByLayer
 62
  256
370
   -1
100
AcDbLine
 10
-16.4305
 20
53.4595
 11
-17.0299
 21
54.0589
  0
LINE
  5
169
100
AcDbEntity
  8
47
  6
ByLayer
 62
  256
370
   -1
100
AcDbLine
 10
-17.0299
 20
54.0589
 11
-15.2316
 21
54.0589
  0
LINE
  5
16A
100
AcDbEntity
  8
47
  6
ByLayer
 62
  256
370
   -1
100
AcDbLine
 10
-15.2316
 20
53.4595
 11
-15.2316
 21
54.6584
  0
LINE
  5
16B
100
AcDbEntity
  8
47
  6
ByLayer
 62
  256
370
   -1
100
AcDbLine
 10
-15.5313
 20
55.301
 11
-16.7302
 21
55.301
  0
LINE
  5
16C
100
AcDbEntity
  8
47
  6
ByLayer
 62
  256
370
   -1
100
AcDbLine
 10
-16.7302
 20
55.301
 11
-17.0299
 21
55.6008
  0
LINE
  5
16D
100
AcDbEntity
  8
47
  6
ByLayer
 62
  256
370
   -1
100
AcDbLine
 10
-17.0299
 20
55.6008
 11
-17.0299
 21
56.2002
  0
LINE
  5
16E
100
AcDbEntity
  8
47
  6
ByLayer
 62
  256
370
   -1
100
AcDbLine
 10
-17.0299
 20
56.2002
 11
-16.7302
 21
56.4999
  0
LINE
  5
16F
100
AcDbEntity
  8
47
  6
ByLayer
 62
  256
370
   -1
100
AcDbLine
 10
-16.7302
 20
56.4999
 11
-15.5313
 21
56.4999
  0
LINE
  5
170
100
AcDbEntity
  8
47
  6
ByLayer
 62
  256
370
   -1
100
AcDbLine
 10
-15.5313
 20
56.4999
 11
-15.2316
 21
56.2002
  0
LINE
  5
171
100
AcDbEntity
  8
47
  6
ByLayer
 62
  256
370
   -1
100
AcDbLine
 10
-15.2316
 20
56.2002
 11
-15.2316
 21
55.6008
  0
LINE
  5
172
100
AcDbEntity
  8
47
  6
ByLayer
 62
  256
370
   -1
100
AcDbLine
 10
-15.2316
 20
55.6008
 11
-15.5313
 21
55.301
  0
LINE
  5
173
100
AcDbEntity
  8
47
  6
ByLayer
 62
  256
370
   -1
100
AcDbLine
 10
-15.5313
 20
55.301
 11
-16.7302
 21
56.4999
  0
LINE
  5
174
100
AcDbEntity
  8
47
  6
ByLayer
 62
  256
370
   -1
100
AcDbLine
 10
-17.0299
 20
58.3415
 11
-17.0299
 21
57.1426
  0
LINE
  5
175
100
AcDbEntity
  8
47
  6
ByLayer
 62
  256
370
   -1
100
AcDbLine
 10
-17.0299
 20
57.1426
 11
-16.1308
 21
57.1426
  0
LINE
  5
176
100
AcDbEntity
  8
47
  6
ByLayer
 62
  256
370
   -1
100
AcDbLine
 10
-16.1308
 20
57.1426
 11
-16.4305
 21
57.7421
  0
LINE
  5
177
100
AcDbEntity
  8
47
  6
ByLayer
 62
  256
370
   -1
100
AcDbLine
 10
-16.4305
 20
57.7421
 11
-16.4305
 21
58.0418
  0
LINE
  5
178
100
AcDbEntity
  8
47
  6
ByLayer
 62
  256
370
   -1
100
AcDbLine
 10
-16.4305
 20
58.0418
 11
-16.1308
 21
58.3415
  0
LINE
  5
179
100
AcDbEntity
  8
47
  6
ByLayer
 62
  256
370
   -1
100
AcDbLine
 10
-16.1308
 20
58.3415
 11
-15.5313
 21
58.3415
  0
LINE
  5
17A
100
AcDbEntity
  8
47
  6
ByLayer
 62
  256
370
   -1
100
AcDbLine
 10
-15.5313
 20
58.3415
 11
-15.2316
 21
58.0418
  0
LINE
  5
17B
100
AcDbEntity
  8
47
  6
ByLayer
 62
  256
370
   -1
100
AcDbLine
 10
-15.2316
 20
58.0418
 11
-15.2316
 21
57.4423
  0
LINE
  5
17C
100
AcDbEntity
  8
47
  6
ByLayer
 62
  256
370
   -1
100
AcDbLine
 10
-15.2316
 20
57.4423
 11
-15.5313
 21
57.1426
  0
LINE
  5
17D
100
AcDbEntity
  8
47
  6
ByLayer
 62
  256
370
   -1
100
AcDbLine
 10
1
 20
13
 11
-12.95
 21
13
  0
LINE
  5
17E
100
AcDbEntity
  8
47
  6
ByLayer
 62
  256
370
   -1
100
AcDbLine
 10
5
 20
97
 11
-12.95
 21
97
  0
LINE
  5
17F
100
AcDbEntity
  8
47
  6
ByLayer
 62
  256
370
   -1
100
AcDbLine
 10
-11
 20
13.065
 11
-11
 21
96.935
  0
LINE
  5
180
100
AcDbEntity
  8
47
  6
ByLayer
 62
  256
370
   -1
100
AcDbLine
 10
-11
 20
13.065
 11
-11.3192
 21
15.6
  0
LINE
  5
181
100
AcDbEntity
  8
47
  6
ByLayer
 62
  256
370
   -1
100
AcDbLine
 10
-11.3192
 20
15.6
 11
-10.6808
 21
15.6
  0
LINE
  5
182
100
AcDbEntity
  8
47
  6
ByLayer
 62
  256
370
   -1
100
AcDbLine
 10
-10.6808
 20
15.6
 11
-11
 21
13.065
  0
LINE
  5
183
100
AcDbEntity
  8
47
  6
ByLayer
 62
  256
370
   -1
100
AcDbLine
 10
-11
 20
13.065
 11
-11.13
 21
15.6
  0
LINE
  5
184
100
AcDbEntity
  8
47
  6
ByLayer
 62
  256
370
   -1
100
AcDbLine
 10
-10.87
 20
15.6
 11
-11
 21
13.065
  0
LINE
  5
185
100
AcDbEntity
  8
47
  6
ByLayer
 62
  256
370
   -1
100
AcDbLine
 10
-11
 20
13.065
 11
-11.26
 21
15.6
  0
LINE
  5
186
100
AcDbEntity
  8
47
  6
ByLayer
 62
  256
370
   -1
100
AcDbLine
 10
-10.74
 20
15.6
 11
-11
 21
13.065
  0
LINE
  5
187
100
AcDbEntity
  8
47
  6
ByLayer
 62
  256
370
   -1
100
AcDbLine
 10
-11
 20
96.935
 11
-11.3192
 21
94.40000000000001
  0
LINE
  5
188
100
AcDbEntity
  8
47
  6
ByLayer
 62
  256
370
   -1
100
AcDbLine
 10
-11.3192
 20
94.40000000000001
 11
-10.6808
 21
94.40000000000001
  0
LINE
  5
189
100
AcDbEntity
  8
47
  6
ByLayer
 62
  256
370
   -1
100
AcDbLine
 10
-10.6808
 20
94.40000000000001
 11
-11
 21
96.935
  0
LINE
  5
18A
100
AcDbEntity
  8
47
  6
ByLayer
 62
  256
370
   -1
100
AcDbLine
 10
-11
 20
96.935
 11
-11.13
 21
94.40000000000001
  0
LINE
  5
18B
100
AcDbEntity
  8
47
  6
ByLayer
 62
  256
370
   -1
100
AcDbLine
 10
-10.87
 20
94.40000000000001
 11
-11
 21
96.935
  0
LINE
  5
18C
100
AcDbEntity
  8
47
  6
ByLayer
 62
  256
370
   -1
100
AcDbLine
 10
-11
 20
96.935
 11
-11.26
 21
94.40000000000001
  0
LINE
  5
18D
100
AcDbEntity
  8
47
  6
ByLayer
 62
  256
370
   -1
100
AcDbLine
 10
-10.74
 20
94.40000000000001
 11
-11
 21
96.935
  0
LINE
  5
18E
100
AcDbEntity
  8
47
  6
ByLayer
 62
  256
370
   -1
100
AcDbLine
 10
-13.2302
 20
53.5083
 11
-13.5299
 21
53.8081
  0
LINE
  5
18F
100
AcDbEntity
  8
47
  6
ByLayer
 62
  256
370
   -1
100
AcDbLine
 10
-13.5299
 20
53.8081
 11
-13.5299
 21
54.4075
  0
LINE
  5
190
100
AcDbEntity
  8
47
  6
ByLayer
 62
  256
370
   -1
100
AcDbLine
 10
-13.5299
 20
54.4075
 11
-13.2302
 21
54.7072
  0
LINE
  5
191
100
AcDbEntity
  8
47
  6
ByLayer
 62
  256
370
   -1
100
AcDbLine
 10
-13.2302
 20
54.7072
 11
-12.9305
 21
54.7072
  0
LINE
  5
192
100
AcDbEntity
  8
47
  6
ByLayer
 62
  256
370
   -1
100
AcDbLine
 10
-12.9305
 20
54.7072
 11
-12.6308
 21
54.4075
  0
LINE
  5
193
100
AcDbEntity
  8
47
  6
ByLayer
 62
  256
370
   -1
100
AcDbLine
 10
-12.6308
 20
54.4075
 11
-12.331
 21
54.7072
  0
LINE
  5
194
100
AcDbEntity
  8
47
  6
ByLayer
 62
  256
370
   -1
100
AcDbLine
 10
-12.331
 20
54.7072
 11
-12.0313
 21
54.7072
  0
LINE
  5
195
100
AcDbEntity
  8
47
  6
ByLayer
 62
  256
370
   -1
100
AcDbLine
 10
-12.0313
 20
54.7072
 11
-11.7316
 21
54.4075
  0
LINE
  5
196
100
AcDbEntity
  8
47
  6
ByLayer
 62
  256
370
   -1
100
AcDbLine
 10
-11.7316
 20
54.4075
 11
-11.7316
 21
53.8081
  0
LINE
  5
197
100
AcDbEntity
  8
47
  6
ByLayer
 62
  256
370
   -1
100
AcDbLine
 10
-11.7316
 20
53.8081
 11
-12.0313
 21
53.5083
  0
LINE
  5
198
100
AcDbEntity
  8
47
  6
ByLayer
 62
  256
370
   -1
100
AcDbLine
 10
-12.0313
 20
53.5083
 11
-12.331
 21
53.5083
  0
LINE
  5
199
100
AcDbEntity
  8
47
  6
ByLayer
 62
  256
370
   -1
100
AcDbLine
 10
-12.331
 20
53.5083
 11
-12.6308
 21
53.8081
  0
LINE
  5
19A
100
AcDbEntity
  8
47
  6
ByLayer
 62
  256
370
   -1
100
AcDbLine
 10
-12.6308
 20
53.8081
 11
-12.9305
 21
53.5083
  0
LINE
  5
19B
100
AcDbEntity
  8
47
  6
ByLayer
 62
  256
370
   -1
100
AcDbLine
 10
-12.9305
 20
53.5083
 11
-13.2302
 21
53.5083
  0
LINE
  5
19C
100
AcDbEntity
  8
47
  6
ByLayer
 62
  256
370
   -1
100
AcDbLine
 10
-12.6308
 20
53.8081
 11
-12.6308
 21
54.4075
  0
LINE
  5
19D
100
AcDbEntity
  8
47
  6
ByLayer
 62
  256
370
   -1
100
AcDbLine
 10
-11.7316
 20
56.2491
 11
-13.5299
 21
56.2491
  0
LINE
  5
19E
100
AcDbEntity
  8
47
  6
ByLayer
 62
  256
370
   -1
100
AcDbLine
 10
-13.5299
 20
56.2491
 11
-12.6308
 21
55.3499
  0
LINE
  5
19F
100
AcDbEntity
  8
47
  6
ByLayer
 62
  256
370
   -1
100
AcDbLine
 10
-12.6308
 20
55.3499
 11
-12.6308
 21
56.5488
  0
LINE
  5
1A0
100
AcDbEntity
  8
47
  6
ByLayer
 62
  256
370
   -1
100
AcDbLine
 10
-9
 20
0
 11
-12.95
 21
0
  0
LINE
  5
1A1
100
AcDbEntity
  8
47
  6
ByLayer
 62
  256
370
   -1
100
AcDbLine
 10
13
 20
13
 11
-12.95
 21
13
  0
LINE
  5
1A2
100
AcDbEntity
  8
47
  6
ByLayer
 62
  256
370
   -1
100
AcDbLine
 10
-11
 20
0.065
 11
-11
 21
12.935
  0
LINE
  5
1A3
100
AcDbEntity
  8
47
  6
ByLayer
 62
  256
370
   -1
100
AcDbLine
 10
-11
 20
0.065
 11
-11.3192
 21
2.6
  0
LINE
  5
1A4
100
AcDbEntity
  8
47
  6
ByLayer
 62
  256
370
   -1
100
AcDbLine
 10
-11.3192
 20
2.6
 11
-10.6808
 21
2.6
  0
LINE
  5
1A5
100
AcDbEntity
  8
47
  6
ByLayer
 62
  256
370
   -1
100
AcDbLine
 10
-10.6808
 20
2.6
 11
-11
 21
0.065
  0
LINE
  5
1A6
100
AcDbEntity
  8
47
  6
ByLayer
 62
  256
370
   -1
100
AcDbLine
 10
-11
 20
0.065
 11
-11.13
 21
2.6
  0
LINE
  5
1A7
100
AcDbEntity
  8
47
  6
ByLayer
 62
  256
370
   -1
100
AcDbLine
 10
-10.87
 20
2.6
 11
-11
 21
0.065
  0
LINE
  5
1A8
100
AcDbEntity
  8
47
  6
ByLayer
 62
  256
370
   -1
100
AcDbLine
 10
-11
 20
0.065
 11
-11.26
 21
2.6
  0
LINE
  5
1A9
100
AcDbEntity
  8
47
  6
ByLayer
 62
  256
370
   -1
100
AcDbLine
 10
-10.74
 20
2.6
 11
-11
 21
0.065
  0
LINE
  5
1AA
100
AcDbEntity
  8
47
  6
ByLayer
 62
  256
370
   -1
100
AcDbLine
 10
-11
 20
12.935
 11
-11.3192
 21
10.4
  0
LINE
  5
1AB
100
AcDbEntity
  8
47
  6
ByLayer
 62
  256
370
   -1
100
AcDbLine
 10
-11.3192
 20
10.4
 11
-10.6808
 21
10.4
  0
LINE
  5
1AC
100
AcDbEntity
  8
47
  6
ByLayer
 62
  256
370
   -1
100
AcDbLine
 10
-10.6808
 20
10.4
 11
-11
 21
12.935
  0
LINE
  5
1AD
100
AcDbEntity
  8
47
  6
ByLayer
 62
  256
370
   -1
100
AcDbLine
 10
-11
 20
12.935
 11
-11.13
 21
10.4
  0
LINE
  5
1AE
100
AcDbEntity
  8
47
  6
ByLayer
 62
  256
370
   -1
100
AcDbLine
 10
-10.87
 20
10.4
 11
-11
 21
12.935
  0
LINE
  5
1AF
100
AcDbEntity
  8
47
  6
ByLayer
 62
  256
370
   -1
100
AcDbLine
 10
-11
 20
12.935
 11
-11.26
 21
10.4
  0
LINE
  5
1B0
100
AcDbEntity
  8
47
  6
ByLayer
 62
  256
370
   -1
100
AcDbLine
 10
-10.74
 20
10.4
 11
-11
 21
12.935
  0
LINE
  5
1B1
100
AcDbEntity
  8
47
  6
ByLayer
 62
  256
370
   -1
100
AcDbLine
 10
-12.9305
 20
5.0083
 11
-13.5299
 21
5.6078
  0
LINE
  5
1B2
100
AcDbEntity
  8
47
  6
ByLayer
 62
  256
370
   -1
100
AcDbLine
 10
-13.5299
 20
5.6078
 11
-11.7316
 21
5.6078
  0
LINE
  5
1B3
100
AcDbEntity
  8
47
  6
ByLayer
 62
  256
370
   -1
100
AcDbLine
 10
-11.7316
 20
5.0083
 11
-11.7316
 21
6.2072
  0
LINE
  5
1B4
100
AcDbEntity
  8
47
  6
ByLayer
 62
  256
370
   -1
100
AcDbLine
 10
-13.2302
 20
6.8499
 11
-13.5299
 21
7.1496
  0
LINE
  5
1B5
100
AcDbEntity
  8
47
  6
ByLayer
 62
  256
370
   -1
100
AcDbLine
 10
-13.5299
 20
7.1496
 11
-13.5299
 21
7.7491
  0
LINE
  5
1B6
100
AcDbEntity
  8
47
  6
ByLayer
 62
  256
370
   -1
100
AcDbLine
 10
-13.5299
 20
7.7491
 11
-13.2302
 21
8.0488
  0
LINE
  5
1B7
100
AcDbEntity
  8
47
  6
ByLayer
 62
  256
370
   -1
100
AcDbLine
 10
-13.2302
 20
8.0488
 11
-12.9305
 21
8.0488
  0
LINE
  5
1B8
100
AcDbEntity
  8
47
  6
ByLayer
 62
  256
370
   -1
100
AcDbLine
 10
-12.9305
 20
8.0488
 11
-12.6308
 21
7.7491
  0
LINE
  5
1B9
100
AcDbEntity
  8
47
  6
ByLayer
 62
  256
370
   -1
100
AcDbLine
 10
-12.6308
 20
7.7491
 11
-12.6308
 21
7.4493
  0
LINE
  5
1BA
100
AcDbEntity
  8
47
  6
ByLayer
 62
  256
370
   -1
100
AcDbLine
 10
-12.6308
 20
7.7491
 11
-12.331
 21
8.0488
  0
LINE
  5
1BB
100
AcDbEntity
  8
47
  6
ByLayer
 62
  256
370
   -1
100
AcDbLine
 10
-12.331
 20
8.0488
 11
-12.0313
 21
8.0488
  0
LINE
  5
1BC
100
AcDbEntity
  8
47
  6
ByLayer
 62
  256
370
   -1
100
AcDbLine
 10
-12.0313
 20
8.0488
 11
-11.7316
 21
7.7491
  0
LINE
  5
1BD
100
AcDbEntity
  8
47
  6
ByLayer
 62
  256
370
   -1
100
AcDbLine
 10
-11.7316
 20
7.7491
 11
-11.7316
 21
7.1496
  0
LINE
  5
1BE
100
AcDbEntity
  8
47
  6
ByLayer
 62
  256
370
   -1
100
AcDbLine
 10
-11.7316
 20
7.1496
 11
-12.0313
 21
6.8499
  0
LINE
  5
1BF
100
AcDbEntity
  8
47
  6
ByLayer
 62
  256
370
   -1
100
AcDbLine
 10
10.5
 20
97
 11
-12.95
 21
97
  0
LINE
  5
1C0
100
AcDbEntity
  8
47
  6
ByLayer
 62
  256
370
   -1
100
AcDbLine
 10
6.5
 20
111.5
 11
-12.95
 21
111.5
  0
LINE
  5
1C1
100
AcDbEntity
  8
47
  6
ByLayer
 62
  256
370
   -1
100
AcDbLine
 10
-11
 20
97.065
 11
-11
 21
111.435
  0
LINE
  5
1C2
100
AcDbEntity
  8
47
  6
ByLayer
 62
  256
370
   -1
100
AcDbLine
 10
-11
 20
97.065
 11
-11.3192
 21
99.59999999999999
  0
LINE
  5
1C3
100
AcDbEntity
  8
47
  6
ByLayer
 62
  256
370
   -1
100
AcDbLine
 10
-11.3192
 20
99.59999999999999
 11
-10.6808
 21
99.59999999999999
  0
LINE
  5
1C4
100
AcDbEntity
  8
47
  6
ByLayer
 62
  256
370
   -1
100
AcDbLine
 10
-10.6808
 20
99.59999999999999
 11
-11
 21
97.065
  0
LINE
  5
1C5
100
AcDbEntity
  8
47
  6
ByLayer
 62
  256
370
   -1
100
AcDbLine
 10
-11
 20
97.065
 11
-11.13
 21
99.59999999999999
  0
LINE
  5
1C6
100
AcDbEntity
  8
47
  6
ByLayer
 62
  256
370
   -1
100
AcDbLine
 10
-10.87
 20
99.59999999999999
 11
-11
 21
97.065
  0
LINE
  5
1C7
100
AcDbEntity
  8
47
  6
ByLayer
 62
  256
370
   -1
100
AcDbLine
 10
-11
 20
97.065
 11
-11.26
 21
99.59999999999999
  0
LINE
  5
1C8
100
AcDbEntity
  8
47
  6
ByLayer
 62
  256
370
   -1
100
AcDbLine
 10
-10.74
 20
99.59999999999999
 11
-11
 21
97.065
  0
LINE
  5
1C9
100
AcDbEntity
  8
47
  6
ByLayer
 62
  256
370
   -1
100
AcDbLine
 10
-11
 20
111.435
 11
-11.3192
 21
108.9
  0
LINE
  5
1CA
100
AcDbEntity
  8
47
  6
ByLayer
 62
  256
370
   -1
100
AcDbLine
 10
-11.3192
 20
108.9
 11
-10.6808
 21
108.9
  0
LINE
  5
1CB
100
AcDbEntity
  8
47
  6
ByLayer
 62
  256
370
   -1
100
AcDbLine
 10
-10.6808
 20
108.9
 11
-11
 21
111.435
  0
LINE
  5
1CC
100
AcDbEntity
  8
47
  6
ByLayer
 62
  256
370
   -1
100
AcDbLine
 10
-11
 20
111.435
 11
-11.13
 21
108.9
  0
LINE
  5
1CD
100
AcDbEntity
  8
47
  6
ByLayer
 62
  256
370
   -1
100
AcDbLine
 10
-10.87
 20
108.9
 11
-11
 21
111.435
  0
LINE
  5
1CE
100
AcDbEntity
  8
47
  6
ByLayer
 62
  256
370
   -1
100
AcDbLine
 10
-11
 20
111.435
 11
-11.26
 21
108.9
  0
LINE
  5
1CF
100
AcDbEntity
  8
47
  6
ByLayer
 62
  256
370
   -1
100
AcDbLine
 10
-10.74
 20
108.9
 11
-11
 21
111.435
  0
LINE
  5
1D0
100
AcDbEntity
  8
47
  6
ByLayer
 62
  256
370
   -1
100
AcDbLine
 10
-12.9305
 20
101.5623
 11
-13.5299
 21
102.1617
  0
LINE
  5
1D1
100
AcDbEntity
  8
47
  6
ByLayer
 62
  256
370
   -1
100
AcDbLine
 10
-13.5299
 20
102.1617
 11
-11.7316
 21
102.1617
  0
LINE
  5
1D2
100
AcDbEntity
  8
47
  6
ByLayer
 62
  256
370
   -1
100
AcDbLine
 10
-11.7316
 20
101.5623
 11
-11.7316
 21
102.7612
  0
LINE
  5
1D3
100
AcDbEntity
  8
47
  6
ByLayer
 62
  256
370
   -1
100
AcDbLine
 10
-11.7316
 20
104.303
 11
-13.5299
 21
104.303
  0
LINE
  5
1D4
100
AcDbEntity
  8
47
  6
ByLayer
 62
  256
370
   -1
100
AcDbLine
 10
-13.5299
 20
104.303
 11
-12.6308
 21
103.4038
  0
LINE
  5
1D5
100
AcDbEntity
  8
47
  6
ByLayer
 62
  256
370
   -1
100
AcDbLine
 10
-12.6308
 20
103.4038
 11
-12.6308
 21
104.6027
  0
LINE
  5
1D6
100
AcDbEntity
  8
47
  6
ByLayer
 62
  256
370
   -1
100
AcDbLine
 10
-11.7316
 20
105.2454
 11
-12.0313
 21
105.2454
  0
LINE
  5
1D7
100
AcDbEntity
  8
47
  6
ByLayer
 62
  256
370
   -1
100
AcDbLine
 10
-12.0313
 20
105.2454
 11
-12.0313
 21
105.5451
  0
LINE
  5
1D8
100
AcDbEntity
  8
47
  6
ByLayer
 62
  256
370
   -1
100
AcDbLine
 10
-12.0313
 20
105.5451
 11
-11.7316
 21
105.5451
  0
LINE
  5
1D9
100
AcDbEntity
  8
47
  6
ByLayer
 62
  256
370
   -1
100
AcDbLine
 10
-11.7316
 20
105.5451
 11
-11.7316
 21
105.2454
  0
LINE
  5
1DA
100
AcDbEntity
  8
47
  6
ByLayer
 62
  256
370
   -1
100
AcDbLine
 10
-13.5299
 20
107.3651
 11
-13.5299
 21
106.1662
  0
LINE
  5
1DB
100
AcDbEntity
  8
47
  6
ByLayer
 62
  256
370
   -1
100
AcDbLine
 10
-13.5299
 20
106.1662
 11
-12.6308
 21
106.1662
  0
LINE
  5
1DC
100
AcDbEntity
  8
47
  6
ByLayer
 62
  256
370
   -1
100
AcDbLine
 10
-12.6308
 20
106.1662
 11
-12.9305
 21
106.7656
  0
LINE
  5
1DD
100
AcDbEntity
  8
47
  6
ByLayer
 62
  256
370
   -1
100
AcDbLine
 10
-12.9305
 20
106.7656
 11
-12.9305
 21
107.0654
  0
LINE
  5
1DE
100
AcDbEntity
  8
47
  6
ByLayer
 62
  256
370
   -1
100
AcDbLine
 10
-12.9305
 20
107.0654
 11
-12.6308
 21
107.3651
  0
LINE
  5
1DF
100
AcDbEntity
  8
47
  6
ByLayer
 62
  256
370
   -1
100
AcDbLine
 10
-12.6308
 20
107.3651
 11
-12.0313
 21
107.3651
  0
LINE
  5
1E0
100
AcDbEntity
  8
47
  6
ByLayer
 62
  256
370
   -1
100
AcDbLine
 10
-12.0313
 20
107.3651
 11
-11.7316
 21
107.0654
  0
LINE
  5
1E1
100
AcDbEntity
  8
47
  6
ByLayer
 62
  256
370
   -1
100
AcDbLine
 10
-11.7316
 20
107.0654
 11
-11.7316
 21
106.4659
  0
LINE
  5
1E2
100
AcDbEntity
  8
47
  6
ByLayer
 62
  256
370
   -1
100
AcDbLine
 10
-11.7316
 20
106.4659
 11
-12.0313
 21
106.1662
  0
LINE
  5
1E3
100
AcDbEntity
  8
47
  6
ByLayer
 62
  256
370
   -1
100
AcDbLine
 10
28
 20
88.3
 11
32.95
 21
88.3
  0
LINE
  5
1E4
100
AcDbEntity
  8
47
  6
ByLayer
 62
  256
370
   -1
100
AcDbLine
 10
28.25
 20
24.2
 11
32.95
 21
24.2
  0
LINE
  5
1E5
100
AcDbEntity
  8
47
  6
ByLayer
 62
  256
370
   -1
100
AcDbLine
 10
31
 20
88.235
 11
31
 21
24.265
  0
LINE
  5
1E6
100
AcDbEntity
  8
47
  6
ByLayer
 62
  256
370
   -1
100
AcDbLine
 10
31
 20
88.235
 11
30.6808
 21
85.7
  0
LINE
  5
1E7
100
AcDbEntity
  8
47
  6
ByLayer
 62
  256
370
   -1
100
AcDbLine
 10
30.6808
 20
85.7
 11
31.3192
 21
85.7
  0
LINE
  5
1E8
100
AcDbEntity
  8
47
  6
ByLayer
 62
  256
370
   -1
100
AcDbLine
 10
31.3192
 20
85.7
 11
31
 21
88.235
  0
LINE
  5
1E9
100
AcDbEntity
  8
47
  6
ByLayer
 62
  256
370
   -1
100
AcDbLine
 10
31
 20
88.235
 11
30.87
 21
85.7
  0
LINE
  5
1EA
100
AcDbEntity
  8
47
  6
ByLayer
 62
  256
370
   -1
100
AcDbLine
 10
31.13
 20
85.7
 11
31
 21
88.235
  0
LINE
  5
1EB
100
AcDbEntity
  8
47
  6
ByLayer
 62
  256
370
   -1
100
AcDbLine
 10
31
 20
88.235
 11
30.74
 21
85.7
  0
LINE
  5
1EC
100
AcDbEntity
  8
47
  6
ByLayer
 62
  256
370
   -1
100
AcDbLine
 10
31.26
 20
85.7
 11
31
 21
88.235
  0
LINE
  5
1ED
100
AcDbEntity
  8
47
  6
ByLayer
 62
  256
370
   -1
100
AcDbLine
 10
31
 20
24.265
 11
30.6808
 21
26.8
  0
LINE
  5
1EE
100
AcDbEntity
  8
47
  6
ByLayer
 62
  256
370
   -1
100
AcDbLine
 10
30.6808
 20
26.8
 11
31.3192
 21
26.8
  0
LINE
  5
1EF
100
AcDbEntity
  8
47
  6
ByLayer
 62
  256
370
   -1
100
AcDbLine
 10
31.3192
 20
26.8
 11
31
 21
24.265
  0
LINE
  5
1F0
100
AcDbEntity
  8
47
  6
ByLayer
 62
  256
370
   -1
100
AcDbLine
 10
31
 20
24.265
 11
30.87
 21
26.8
  0
LINE
  5
1F1
100
AcDbEntity
  8
47
  6
ByLayer
 62
  256
370
   -1
100
AcDbLine
 10
31.13
 20
26.8
 11
31
 21
24.265
  0
LINE
  5
1F2
100
AcDbEntity
  8
47
  6
ByLayer
 62
  256
370
   -1
100
AcDbLine
 10
31
 20
24.265
 11
30.74
 21
26.8
  0
LINE
  5
1F3
100
AcDbEntity
  8
47
  6
ByLayer
 62
  256
370
   -1
100
AcDbLine
 10
31.26
 20
26.8
 11
31
 21
24.265
  0
LINE
  5
1F4
100
AcDbEntity
  8
47
  6
ByLayer
 62
  256
370
   -1
100
AcDbLine
 10
28.4446
 20
54.7697
 11
28.7528
 21
54.1533
  0
LINE
  5
1F5
100
AcDbEntity
  8
47
  6
ByLayer
 62
  256
370
   -1
100
AcDbLine
 10
28.7528
 20
54.1533
 11
29.3692
 21
53.5369
  0
LINE
  5
1F6
100
AcDbEntity
  8
47
  6
ByLayer
 62
  256
370
   -1
100
AcDbLine
 10
29.3692
 20
53.5369
 11
29.9856
 21
53.5369
  0
LINE
  5
1F7
100
AcDbEntity
  8
47
  6
ByLayer
 62
  256
370
   -1
100
AcDbLine
 10
29.9856
 20
53.5369
 11
30.2938
 21
53.8451
  0
LINE
  5
1F8
100
AcDbEntity
  8
47
  6
ByLayer
 62
  256
370
   -1
100
AcDbLine
 10
30.2938
 20
53.8451
 11
30.2938
 21
54.4615
  0
LINE
  5
1F9
100
AcDbEntity
  8
47
  6
ByLayer
 62
  256
370
   -1
100
AcDbLine
 10
30.2938
 20
54.4615
 11
29.9856
 21
54.7697
  0
LINE
  5
1FA
100
AcDbEntity
  8
47
  6
ByLayer
 62
  256
370
   -1
100
AcDbLine
 10
29.9856
 20
54.7697
 11
29.6774
 21
54.7697
  0
LINE
  5
1FB
100
AcDbEntity
  8
47
  6
ByLayer
 62
  256
370
   -1
100
AcDbLine
 10
29.6774
 20
54.7697
 11
29.3692
 21
54.4615
  0
LINE
  5
1FC
100
AcDbEntity
  8
47
  6
ByLayer
 62
  256
370
   -1
100
AcDbLine
 10
29.3692
 20
54.4615
 11
29.3692
 21
53.5369
  0
LINE
  5
1FD
100
AcDbEntity
  8
47
  6
ByLayer
 62
  256
370
   -1
100
AcDbLine
 10
30.2938
 20
56.303
 11
28.4446
 21
56.303
  0
LINE
  5
1FE
100
AcDbEntity
  8
47
  6
ByLayer
 62
  256
370
   -1
100
AcDbLine
 10
28.4446
 20
56.303
 11
29.3692
 21
55.3784
  0
LINE
  5
1FF
100
AcDbEntity
  8
47
  6
ByLayer
 62
  256
370
   -1
100
AcDbLine
 10
29.3692
 20
55.3784
 11
29.3692
 21
56.6112
  0
LINE
  5
200
100
AcDbEntity
  8
47
  6
ByLayer
 62
  256
370
   -1
100
AcDbLine
 10
30.2938
 20
57.22
 11
29.9856
 21
57.22
  0
LINE
  5
201
100
AcDbEntity
  8
47
  6
ByLayer
 62
  256
370
   -1
100
AcDbLine
 10
29.9856
 20
57.22
 11
29.9856
 21
57.5282
  0
LINE
  5
202
100
AcDbEntity
  8
47
  6
ByLayer
 62
  256
370
   -1
100
AcDbLine
 10
29.9856
 20
57.5282
 11
30.2938
 21
57.5282
  0
LINE
  5
203
100
AcDbEntity
  8
47
  6
ByLayer
 62
  256
370
   -1
100
AcDbLine
 10
30.2938
 20
57.5282
 11
30.2938
 21
57.22
  0
LINE
  5
204
100
AcDbEntity
  8
47
  6
ByLayer
 62
  256
370
   -1
100
AcDbLine
 10
29.061
 20
58.1408
 11
28.4446
 21
58.7572
  0
LINE
  5
205
100
AcDbEntity
  8
47
  6
ByLayer
 62
  256
370
   -1
100
AcDbLine
 10
28.4446
 20
58.7572
 11
30.2938
 21
58.7572
  0
LINE
  5
206
100
AcDbEntity
  8
47
  6
ByLayer
 62
  256
370
   -1
100
AcDbLine
 10
30.2938
 20
58.1408
 11
30.2938
 21
59.3736
  0
LINE
  5
207
100
AcDbEntity
  8
47
  6
ByLayer
 62
  256
370
   -1
100
AcDbLine
 10
0
 20
87.75
 11
0
 21
102.7
  0
LINE
  5
208
100
AcDbEntity
  8
47
  6
ByLayer
 62
  256
370
   -1
100
AcDbLine
 10
7.5
 20
93.75
 11
7.5
 21
102.7
  0
LINE
  5
209
100
AcDbEntity
  8
47
  6
ByLayer
 62
  256
370
   -1
100
AcDbLine
 10
0.065
 20
100.75
 11
7.435
 21
100.75
  0
LINE
  5
20A
100
AcDbEntity
  8
47
  6
ByLayer
 62
  256
370
   -1
100
AcDbLine
 10
0.065
 20
100.75
 11
2.6
 21
101.0692
  0
LINE
  5
20B
100
AcDbEntity
  8
47
  6
ByLayer
 62
  256
370
   -1
100
AcDbLine
 10
2.6
 20
101.0692
 11
2.6
 21
100.4308
  0
LINE
  5
20C
100
AcDbEntity
  8
47
  6
ByLayer
 62
  256
370
   -1
100
AcDbLine
 10
2.6
 20
100.4308
 11
0.065
 21
100.75
  0
LINE
  5
20D
100
AcDbEntity
  8
47
  6
ByLayer
 62
  256
370
   -1
100
AcDbLine
 10
0.065
 20
100.75
 11
2.6
 21
100.88
  0
LINE
  5
20E
100
AcDbEntity
  8
47
  6
ByLayer
 62
  256
370
   -1
100
AcDbLine
 10
2.6
 20
100.62
 11
0.065
 21
100.75
  0
LINE
  5
20F
100
AcDbEntity
  8
47
  6
ByLayer
 62
  256
370
   -1
100
AcDbLine
 10
0.065
 20
100.75
 11
2.6
 21
101.01
  0
LINE
  5
210
100
AcDbEntity
  8
47
  6
ByLayer
 62
  256
370
   -1
100
AcDbLine
 10
2.6
 20
100.49
 11
0.065
 21
100.75
  0
LINE
  5
211
100
AcDbEntity
  8
47
  6
ByLayer
 62
  256
370
   -1
100
AcDbLine
 10
7.435
 20
100.75
 11
4.9
 21
101.0692
  0
LINE
  5
212
100
AcDbEntity
  8
47
  6
ByLayer
 62
  256
370
   -1
100
AcDbLine
 10
4.9
 20
101.0692
 11
4.9
 21
100.4308
  0
LINE
  5
213
100
AcDbEntity
  8
47
  6
ByLayer
 62
  256
370
   -1
100
AcDbLine
 10
4.9
 20
100.4308
 11
7.435
 21
100.75
  0
LINE
  5
214
100
AcDbEntity
  8
47
  6
ByLayer
 62
  256
370
   -1
100
AcDbLine
 10
7.435
 20
100.75
 11
4.9
 21
100.88
  0
LINE
  5
215
100
AcDbEntity
  8
47
  6
ByLayer
 62
  256
370
   -1
100
AcDbLine
 10
4.9
 20
100.62
 11
7.435
 21
100.75
  0
LINE
  5
216
100
AcDbEntity
  8
47
  6
ByLayer
 62
  256
370
   -1
100
AcDbLine
 10
7.435
 20
100.75
 11
4.9
 21
101.01
  0
LINE
  5
217
100
AcDbEntity
  8
47
  6
ByLayer
 62
  256
370
   -1
100
AcDbLine
 10
4.9
 20
100.49
 11
7.435
 21
100.75
  0
LINE
  5
218
100
AcDbEntity
  8
47
  6
ByLayer
 62
  256
370
   -1
100
AcDbLine
 10
1.8357
 20
103.3054
 11
3.0685
 21
103.3054
  0
LINE
  5
219
100
AcDbEntity
  8
47
  6
ByLayer
 62
  256
370
   -1
100
AcDbLine
 10
3.0685
 20
103.3054
 11
3.0685
 21
102.9972
  0
LINE
  5
21A
100
AcDbEntity
  8
47
  6
ByLayer
 62
  256
370
   -1
100
AcDbLine
 10
3.0685
 20
102.9972
 11
1.8357
 21
101.7644
  0
LINE
  5
21B
100
AcDbEntity
  8
47
  6
ByLayer
 62
  256
370
   -1
100
AcDbLine
 10
1.8357
 20
101.7644
 11
1.8357
 21
101.4562
  0
LINE
  5
21C
100
AcDbEntity
  8
47
  6
ByLayer
 62
  256
370
   -1
100
AcDbLine
 10
3.6773
 20
101.4562
 11
3.6773
 21
101.7644
  0
LINE
  5
21D
100
AcDbEntity
  8
47
  6
ByLayer
 62
  256
370
   -1
100
AcDbLine
 10
3.6773
 20
101.7644
 11
3.9855
 21
101.7644
  0
LINE
  5
21E
100
AcDbEntity
  8
47
  6
ByLayer
 62
  256
370
   -1
100
AcDbLine
 10
3.9855
 20
101.7644
 11
3.9855
 21
101.4562
  0
LINE
  5
21F
100
AcDbEntity
  8
47
  6
ByLayer
 62
  256
370
   -1
100
AcDbLine
 10
3.9855
 20
101.4562
 11
3.6773
 21
101.4562
  0
LINE
  5
220
100
AcDbEntity
  8
47
  6
ByLayer
 62
  256
370
   -1
100
AcDbLine
 10
5.8309
 20
103.3054
 11
4.5981
 21
103.3054
  0
LINE
  5
221
100
AcDbEntity
  8
47
  6
ByLayer
 62
  256
370
   -1
100
AcDbLine
 10
4.5981
 20
103.3054
 11
4.5981
 21
102.3808
  0
LINE
  5
222
100
AcDbEntity
  8
47
  6
ByLayer
 62
  256
370
   -1
100
AcDbLine
 10
4.5981
 20
102.3808
 11
5.2145
 21
102.689
  0
LINE
  5
223
100
AcDbEntity
  8
47
  6
ByLayer
 62
  256
370
   -1
100
AcDbLine
 10
5.2145
 20
102.689
 11
5.5227
 21
102.689
  0
LINE
  5
224
100
AcDbEntity
  8
47
  6
ByLayer
 62
  256
370
   -1
100
AcDbLine
 10
5.5227
 20
102.689
 11
5.8309
 21
102.3808
  0
LINE
  5
225
100
AcDbEntity
  8
47
  6
ByLayer
 62
  256
370
   -1
100
AcDbLine
 10
5.8309
 20
102.3808
 11
5.8309
 21
101.7644
  0
LINE
  5
226
100
AcDbEntity
  8
47
  6
ByLayer
 62
  256
370
   -1
100
AcDbLine
 10
5.8309
 20
101.7644
 11
5.5227
 21
101.4562
  0
LINE
  5
227
100
AcDbEntity
  8
47
  6
ByLayer
 62
  256
370
   -1
100
AcDbLine
 10
5.5227
 20
101.4562
 11
4.9063
 21
101.4562
  0
LINE
  5
228
100
AcDbEntity
  8
47
  6
ByLayer
 62
  256
370
   -1
100
AcDbLine
 10
4.9063
 20
101.4562
 11
4.5981
 21
101.7644
  0
LINE
  5
229
100
AcDbEntity
  8
47
  6
ByLayer
 62
  256
370
   -1
100
AcDbLine
 10
0
 20
16.75
 11
0
 21
6.8
  0
LINE
  5
22A
100
AcDbEntity
  8
47
  6
ByLayer
 62
  256
370
   -1
100
AcDbLine
 10
7.5
 20
17.25
 11
7.5
 21
6.8
  0
LINE
  5
22B
100
AcDbEntity
  8
47
  6
ByLayer
 62
  256
370
   -1
100
AcDbLine
 10
0.065
 20
8.75
 11
7.435
 21
8.75
  0
LINE
  5
22C
100
AcDbEntity
  8
47
  6
ByLayer
 62
  256
370
   -1
100
AcDbLine
 10
0.065
 20
8.75
 11
2.6
 21
9.0692
  0
LINE
  5
22D
100
AcDbEntity
  8
47
  6
ByLayer
 62
  256
370
   -1
100
AcDbLine
 10
2.6
 20
9.0692
 11
2.6
 21
8.4308
  0
LINE
  5
22E
100
AcDbEntity
  8
47
  6
ByLayer
 62
  256
370
   -1
100
AcDbLine
 10
2.6
 20
8.4308
 11
0.065
 21
8.75
  0
LINE
  5
22F
100
AcDbEntity
  8
47
  6
ByLayer
 62
  256
370
   -1
100
AcDbLine
 10
0.065
 20
8.75
 11
2.6
 21
8.880000000000001
  0
LINE
  5
230
100
AcDbEntity
  8
47
  6
ByLayer
 62
  256
370
   -1
100
AcDbLine
 10
2.6
 20
8.619999999999999
 11
0.065
 21
8.75
  0
LINE
  5
231
100
AcDbEntity
  8
47
  6
ByLayer
 62
  256
370
   -1
100
AcDbLine
 10
0.065
 20
8.75
 11
2.6
 21
9.01
  0
LINE
  5
232
100
AcDbEntity
  8
47
  6
ByLayer
 62
  256
370
   -1
100
AcDbLine
 10
2.6
 20
8.49
 11
0.065
 21
8.75
  0
LINE
  5
233
100
AcDbEntity
  8
47
  6
ByLayer
 62
  256
370
   -1
100
AcDbLine
 10
7.435
 20
8.75
 11
4.9
 21
9.0692
  0
LINE
  5
234
100
AcDbEntity
  8
47
  6
ByLayer
 62
  256
370
   -1
100
AcDbLine
 10
4.9
 20
9.0692
 11
4.9
 21
8.4308
  0
LINE
  5
235
100
AcDbEntity
  8
47
  6
ByLayer
 62
  256
370
   -1
100
AcDbLine
 10
4.9
 20
8.4308
 11
7.435
 21
8.75
  0
LINE
  5
236
100
AcDbEntity
  8
47
  6
ByLayer
 62
  256
370
   -1
100
AcDbLine
 10
7.435
 20
8.75
 11
4.9
 21
8.880000000000001
  0
LINE
  5
237
100
AcDbEntity
  8
47
  6
ByLayer
 62
  256
370
   -1
100
AcDbLine
 10
4.9
 20
8.619999999999999
 11
7.435
 21
8.75
  0
LINE
  5
238
100
AcDbEntity
  8
47
  6
ByLayer
 62
  256
370
   -1
100
AcDbLine
 10
7.435
 20
8.75
 11
4.9
 21
9.01
  0
LINE
  5
239
100
AcDbEntity
  8
47
  6
ByLayer
 62
  256
370
   -1
100
AcDbLine
 10
4.9
 20
8.49
 11
7.435
 21
8.75
  0
LINE
  5
23A
100
AcDbEntity
  8
47
  6
ByLayer
 62
  256
370
   -1
100
AcDbLine
 10
1.8357
 20
11.3054
 11
3.0685
 21
11.3054
  0
LINE
  5
23B
100
AcDbEntity
  8
47
  6
ByLayer
 62
  256
370
   -1
100
AcDbLine
 10
3.0685
 20
11.3054
 11
3.0685
 21
10.9972
  0
LINE
  5
23C
100
AcDbEntity
  8
47
  6
ByLayer
 62
  256
370
   -1
100
AcDbLine
 10
3.0685
 20
10.9972
 11
1.8357
 21
9.7644
  0
LINE
  5
23D
100
AcDbEntity
  8
47
  6
ByLayer
 62
  256
370
   -1
100
AcDbLine
 10
1.8357
 20
9.7644
 11
1.8357
 21
9.456200000000001
  0
LINE
  5
23E
100
AcDbEntity
  8
47
  6
ByLayer
 62
  256
370
   -1
100
AcDbLine
 10
3.6773
 20
9.456200000000001
 11
3.6773
 21
9.7644
  0
LINE
  5
23F
100
AcDbEntity
  8
47
  6
ByLayer
 62
  256
370
   -1
100
AcDbLine
 10
3.6773
 20
9.7644
 11
3.9855
 21
9.7644
  0
LINE
  5
240
100
AcDbEntity
  8
47
  6
ByLayer
 62
  256
370
   -1
100
AcDbLine
 10
3.9855
 20
9.7644
 11
3.9855
 21
9.456200000000001
  0
LINE
  5
241
100
AcDbEntity
  8
47
  6
ByLayer
 62
  256
370
   -1
100
AcDbLine
 10
3.9855
 20
9.456200000000001
 11
3.6773
 21
9.456200000000001
  0
LINE
  5
242
100
AcDbEntity
  8
47
  6
ByLayer
 62
  256
370
   -1
100
AcDbLine
 10
5.8309
 20
11.3054
 11
4.5981
 21
11.3054
  0
LINE
  5
243
100
AcDbEntity
  8
47
  6
ByLayer
 62
  256
370
   -1
100
AcDbLine
 10
4.5981
 20
11.3054
 11
4.5981
 21
10.3808
  0
LINE
  5
244
100
AcDbEntity
  8
47
  6
ByLayer
 62
  256
370
   -1
100
AcDbLine
 10
4.5981
 20
10.3808
 11
5.2145
 21
10.689
  0
LINE
  5
245
100
AcDbEntity
  8
47
  6
ByLayer
 62
  256
370
   -1
100
AcDbLine
 10
5.2145
 20
10.689
 11
5.5227
 21
10.689
  0
LINE
  5
246
100
AcDbEntity
  8
47
  6
ByLayer
 62
  256
370
   -1
100
AcDbLine
 10
5.5227
 20
10.689
 11
5.8309
 21
10.3808
  0
LINE
  5
247
100
AcDbEntity
  8
47
  6
ByLayer
 62
  256
370
   -1
100
AcDbLine
 10
5.8309
 20
10.3808
 11
5.8309
 21
9.7644
  0
LINE
  5
248
100
AcDbEntity
  8
47
  6
ByLayer
 62
  256
370
   -1
100
AcDbLine
 10
5.8309
 20
9.7644
 11
5.5227
 21
9.456200000000001
  0
LINE
  5
249
100
AcDbEntity
  8
47
  6
ByLayer
 62
  256
370
   -1
100
AcDbLine
 10
5.5227
 20
9.456200000000001
 11
4.9063
 21
9.456200000000001
  0
LINE
  5
24A
100
AcDbEntity
  8
47
  6
ByLayer
 62
  256
370
   -1
100
AcDbLine
 10
4.9063
 20
9.456200000000001
 11
4.5981
 21
9.7644
  0
LINE
  5
24B
100
AcDbEntity
  8
47
  6
ByLayer
 62
  256
370
   -1
100
AcDbLine
 10
0
 20
0
 11
0
 21
-10.45
  0
LINE
  5
24C
100
AcDbEntity
  8
47
  6
ByLayer
 62
  256
370
   -1
100
AcDbLine
 10
35
 20
0
 11
35
 21
-10.45
  0
LINE
  5
24D
100
AcDbEntity
  8
47
  6
ByLayer
 62
  256
370
   -1
100
AcDbLine
 10
0.065
 20
-8.5
 11
34.935
 21
-8.5
  0
LINE
  5
24E
100
AcDbEntity
  8
47
  6
ByLayer
 62
  256
370
   -1
100
AcDbLine
 10
0.065
 20
-8.5
 11
2.6
 21
-8.1808
  0
LINE
  5
24F
100
AcDbEntity
  8
47
  6
ByLayer
 62
  256
370
   -1
100
AcDbLine
 10
2.6
 20
-8.1808
 11
2.6
 21
-8.8192
  0
LINE
  5
250
100
AcDbEntity
  8
47
  6
ByLayer
 62
  256
370
   -1
100
AcDbLine
 10
2.6
 20
-8.8192
 11
0.065
 21
-8.5
  0
LINE
  5
251
100
AcDbEntity
  8
47
  6
ByLayer
 62
  256
370
   -1
100
AcDbLine
 10
0.065
 20
-8.5
 11
2.6
 21
-8.369999999999999
  0
LINE
  5
252
100
AcDbEntity
  8
47
  6
ByLayer
 62
  256
370
   -1
100
AcDbLine
 10
2.6
 20
-8.630000000000001
 11
0.065
 21
-8.5
  0
LINE
  5
253
100
AcDbEntity
  8
47
  6
ByLayer
 62
  256
370
   -1
100
AcDbLine
 10
0.065
 20
-8.5
 11
2.6
 21
-8.24
  0
LINE
  5
254
100
AcDbEntity
  8
47
  6
ByLayer
 62
  256
370
   -1
100
AcDbLine
 10
2.6
 20
-8.76
 11
0.065
 21
-8.5
  0
LINE
  5
255
100
AcDbEntity
  8
47
  6
ByLayer
 62
  256
370
   -1
100
AcDbLine
 10
34.935
 20
-8.5
 11
32.4
 21
-8.1808
  0
LINE
  5
256
100
AcDbEntity
  8
47
  6
ByLayer
 62
  256
370
   -1
100
AcDbLine
 10
32.4
 20
-8.1808
 11
32.4
 21
-8.8192
  0
LINE
  5
257
100
AcDbEntity
  8
47
  6
ByLayer
 62
  256
370
   -1
100
AcDbLine
 10
32.4
 20
-8.8192
 11
34.935
 21
-8.5
  0
LINE
  5
258
100
AcDbEntity
  8
47
  6
ByLayer
 62
  256
370
   -1
100
AcDbLine
 10
34.935
 20
-8.5
 11
32.4
 21
-8.369999999999999
  0
LINE
  5
259
100
AcDbEntity
  8
47
  6
ByLayer
 62
  256
370
   -1
100
AcDbLine
 10
32.4
 20
-8.630000000000001
 11
34.935
 21
-8.5
  0
LINE
  5
25A
100
AcDbEntity
  8
47
  6
ByLayer
 62
  256
370
   -1
100
AcDbLine
 10
34.935
 20
-8.5
 11
32.4
 21
-8.24
  0
LINE
  5
25B
100
AcDbEntity
  8
47
  6
ByLayer
 62
  256
370
   -1
100
AcDbLine
 10
32.4
 20
-8.76
 11
34.935
 21
-8.5
  0
LINE
  5
25C
100
AcDbEntity
  8
47
  6
ByLayer
 62
  256
370
   -1
100
AcDbLine
 10
15.9829
 20
-6.2528
 11
16.2911
 21
-5.9446
  0
LINE
  5
25D
100
AcDbEntity
  8
47
  6
ByLayer
 62
  256
370
   -1
100
AcDbLine
 10
16.2911
 20
-5.9446
 11
16.9075
 21
-5.9446
  0
LINE
  5
25E
100
AcDbEntity
  8
47
  6
ByLayer
 62
  256
370
   -1
100
AcDbLine
 10
16.9075
 20
-5.9446
 11
17.2157
 21
-6.2528
  0
LINE
  5
25F
100
AcDbEntity
  8
47
  6
ByLayer
 62
  256
370
   -1
100
AcDbLine
 10
17.2157
 20
-6.2528
 11
17.2157
 21
-6.561
  0
LINE
  5
260
100
AcDbEntity
  8
47
  6
ByLayer
 62
  256
370
   -1
100
AcDbLine
 10
17.2157
 20
-6.561
 11
16.9075
 21
-6.8692
  0
LINE
  5
261
100
AcDbEntity
  8
47
  6
ByLayer
 62
  256
370
   -1
100
AcDbLine
 10
16.9075
 20
-6.8692
 11
16.5993
 21
-6.8692
  0
LINE
  5
262
100
AcDbEntity
  8
47
  6
ByLayer
 62
  256
370
   -1
100
AcDbLine
 10
16.9075
 20
-6.8692
 11
17.2157
 21
-7.1774
  0
LINE
  5
263
100
AcDbEntity
  8
47
  6
ByLayer
 62
  256
370
   -1
100
AcDbLine
 10
17.2157
 20
-7.1774
 11
17.2157
 21
-7.4856
  0
LINE
  5
264
100
AcDbEntity
  8
47
  6
ByLayer
 62
  256
370
   -1
100
AcDbLine
 10
17.2157
 20
-7.4856
 11
16.9075
 21
-7.7938
  0
LINE
  5
265
100
AcDbEntity
  8
47
  6
ByLayer
 62
  256
370
   -1
100
AcDbLine
 10
16.9075
 20
-7.7938
 11
16.2911
 21
-7.7938
  0
LINE
  5
266
100
AcDbEntity
  8
47
  6
ByLayer
 62
  256
370
   -1
100
AcDbLine
 10
16.2911
 20
-7.7938
 11
15.9829
 21
-7.4856
  0
LINE
  5
267
100
AcDbEntity
  8
47
  6
ByLayer
 62
  256
370
   -1
100
AcDbLine
 10
19.0573
 20
-5.9446
 11
17.8245
 21
-5.9446
  0
LINE
  5
268
100
AcDbEntity
  8
47
  6
ByLayer
 62
  256
370
   -1
100
AcDbLine
 10
17.8245
 20
-5.9446
 11
17.8245
 21
-6.8692
  0
LINE
  5
269
100
AcDbEntity
  8
47
  6
ByLayer
 62
  256
370
   -1
100
AcDbLine
 10
17.8245
 20
-6.8692
 11
18.4409
 21
-6.561
  0
LINE
  5
26A
100
AcDbEntity
  8
47
  6
ByLayer
 62
  256
370
   -1
100
AcDbLine
 10
18.4409
 20
-6.561
 11
18.7491
 21
-6.561
  0
LINE
  5
26B
100
AcDbEntity
  8
47
  6
ByLayer
 62
  256
370
   -1
100
AcDbLine
 10
18.7491
 20
-6.561
 11
19.0573
 21
-6.8692
  0
LINE
  5
26C
100
AcDbEntity
  8
47
  6
ByLayer
 62
  256
370
   -1
100
AcDbLine
 10
19.0573
 20
-6.8692
 11
19.0573
 21
-7.4856
  0
LINE
  5
26D
100
AcDbEntity
  8
47
  6
ByLayer
 62
  256
370
   -1
100
AcDbLine
 10
19.0573
 20
-7.4856
 11
18.7491
 21
-7.7938
  0
LINE
  5
26E
100
AcDbEntity
  8
47
  6
ByLayer
 62
  256
370
   -1
100
AcDbLine
 10
18.7491
 20
-7.7938
 11
18.1327
 21
-7.7938
  0
LINE
  5
26F
100
AcDbEntity
  8
47
  6
ByLayer
 62
  256
370
   -1
100
AcDbLine
 10
18.1327
 20
-7.7938
 11
17.8245
 21
-7.4856
  0
LINE
  5
270
100
AcDbEntity
  8
47
  6
ByLayer
 62
  256
370
   -1
100
AcDbLine
 10
36
 20
0
 11
40.95
 21
0
  0
LINE
  5
271
100
AcDbEntity
  8
47
  6
ByLayer
 62
  256
370
   -1
100
AcDbLine
 10
36
 20
111.5
 11
40.95
 21
111.5
  0
LINE
  5
272
100
AcDbEntity
  8
47
  6
ByLayer
 62
  256
370
   -1
100
AcDbLine
 10
39
 20
0.065
 11
39
 21
111.435
  0
LINE
  5
273
100
AcDbEntity
  8
47
  6
ByLayer
 62
  256
370
   -1
100
AcDbLine
 10
39
 20
0.065
 11
38.6808
 21
2.6
  0
LINE
  5
274
100
AcDbEntity
  8
47
  6
ByLayer
 62
  256
370
   -1
100
AcDbLine
 10
38.6808
 20
2.6
 11
39.3192
 21
2.6
  0
LINE
  5
275
100
AcDbEntity
  8
47
  6
ByLayer
 62
  256
370
   -1
100
AcDbLine
 10
39.3192
 20
2.6
 11
39
 21
0.065
  0
LINE
  5
276
100
AcDbEntity
  8
47
  6
ByLayer
 62
  256
370
   -1
100
AcDbLine
 10
39
 20
0.065
 11
38.87
 21
2.6
  0
LINE
  5
277
100
AcDbEntity
  8
47
  6
ByLayer
 62
  256
370
   -1
100
AcDbLine
 10
39.13
 20
2.6
 11
39
 21
0.065
  0
LINE
  5
278
100
AcDbEntity
  8
47
  6
ByLayer
 62
  256
370
   -1
100
AcDbLine
 10
39
 20
0.065
 11
38.74
 21
2.6
  0
LINE
  5
279
100
AcDbEntity
  8
47
  6
ByLayer
 62
  256
370
   -1
100
AcDbLine
 10
39.26
 20
2.6
 11
39
 21
0.065
  0
LINE
  5
27A
100
AcDbEntity
  8
47
  6
ByLayer
 62
  256
370
   -1
100
AcDbLine
 10
39
 20
111.435
 11
38.6808
 21
108.9
  0
LINE
  5
27B
100
AcDbEntity
  8
47
  6
ByLayer
 62
  256
370
   -1
100
AcDbLine
 10
38.6808
 20
108.9
 11
39.3192
 21
108.9
  0
LINE
  5
27C
100
AcDbEntity
  8
47
  6
ByLayer
 62
  256
370
   -1
100
AcDbLine
 10
39.3192
 20
108.9
 11
39
 21
111.435
  0
LINE
  5
27D
100
AcDbEntity
  8
47
  6
ByLayer
 62
  256
370
   -1
100
AcDbLine
 10
39
 20
111.435
 11
38.87
 21
108.9
  0
LINE
  5
27E
100
AcDbEntity
  8
47
  6
ByLayer
 62
  256
370
   -1
100
AcDbLine
 10
39.13
 20
108.9
 11
39
 21
111.435
  0
LINE
  5
27F
100
AcDbEntity
  8
47
  6
ByLayer
 62
  256
370
   -1
100
AcDbLine
 10
39
 20
111.435
 11
38.74
 21
108.9
  0
LINE
  5
280
100
AcDbEntity
  8
47
  6
ByLayer
 62
  256
370
   -1
100
AcDbLine
 10
39.26
 20
108.9
 11
39
 21
111.435
  0
LINE
  5
281
100
AcDbEntity
  8
47
  6
ByLayer
 62
  256
370
   -1
100
AcDbLine
 10
37.0695
 20
52.4821
 11
36.4701
 21
53.0815
  0
LINE
  5
282
100
AcDbEntity
  8
47
  6
ByLayer
 62
  256
370
   -1
100
AcDbLine
 10
36.4701
 20
53.0815
 11
38.2684
 21
53.0815
  0
LINE
  5
283
100
AcDbEntity
  8
47
  6
ByLayer
 62
  256
370
   -1
100
AcDbLine
 10
38.2684
 20
52.4821
 11
38.2684
 21
53.681
  0
LINE
  5
284
100
AcDbEntity
  8
47
  6
ByLayer
 62
  256
370
   -1
100
AcDbLine
 10
37.0695
 20
54.3237
 11
36.4701
 21
54.9231
  0
LINE
  5
285
100
AcDbEntity
  8
47
  6
ByLayer
 62
  256
370
   -1
100
AcDbLine
 10
36.4701
 20
54.9231
 11
38.2684
 21
54.9231
  0
LINE
  5
286
100
AcDbEntity
  8
47
  6
ByLayer
 62
  256
370
   -1
100
AcDbLine
 10
38.2684
 20
54.3237
 11
38.2684
 21
55.5225
  0
LINE
  5
287
100
AcDbEntity
  8
47
  6
ByLayer
 62
  256
370
   -1
100
AcDbLine
 10
37.0695
 20
56.1652
 11
36.4701
 21
56.7647
  0
LINE
  5
288
100
AcDbEntity
  8
47
  6
ByLayer
 62
  256
370
   -1
100
AcDbLine
 10
36.4701
 20
56.7647
 11
38.2684
 21
56.7647
  0
LINE
  5
289
100
AcDbEntity
  8
47
  6
ByLayer
 62
  256
370
   -1
100
AcDbLine
 10
38.2684
 20
56.1652
 11
38.2684
 21
57.3641
  0
LINE
  5
28A
100
AcDbEntity
  8
47
  6
ByLayer
 62
  256
370
   -1
100
AcDbLine
 10
38.2684
 20
58.0068
 11
37.9687
 21
58.0068
  0
LINE
  5
28B
100
AcDbEntity
  8
47
  6
ByLayer
 62
  256
370
   -1
100
AcDbLine
 10
37.9687
 20
58.0068
 11
37.9687
 21
58.3065
  0
LINE
  5
28C
100
AcDbEntity
  8
47
  6
ByLayer
 62
  256
370
   -1
100
AcDbLine
 10
37.9687
 20
58.3065
 11
38.2684
 21
58.3065
  0
LINE
  5
28D
100
AcDbEntity
  8
47
  6
ByLayer
 62
  256
370
   -1
100
AcDbLine
 10
38.2684
 20
58.3065
 11
38.2684
 21
58.0068
  0
LINE
  5
28E
100
AcDbEntity
  8
47
  6
ByLayer
 62
  256
370
   -1
100
AcDbLine
 10
36.4701
 20
60.1265
 11
36.4701
 21
58.9276
  0
LINE
  5
28F
100
AcDbEntity
  8
47
  6
ByLayer
 62
  256
370
   -1
100
AcDbLine
 10
36.4701
 20
58.9276
 11
37.3692
 21
58.9276
  0
LINE
  5
290
100
AcDbEntity
  8
47
  6
ByLayer
 62
  256
370
   -1
100
AcDbLine
 10
37.3692
 20
58.9276
 11
37.0695
 21
59.527
  0
LINE
  5
291
100
AcDbEntity
  8
47
  6
ByLayer
 62
  256
370
   -1
100
AcDbLine
 10
37.0695
 20
59.527
 11
37.0695
 21
59.8268
  0
LINE
  5
292
100
AcDbEntity
  8
47
  6
ByLayer
 62
  256
370
   -1
100
AcDbLine
 10
37.0695
 20
59.8268
 11
37.3692
 21
60.1265
  0
LINE
  5
293
100
AcDbEntity
  8
47
  6
ByLayer
 62
  256
370
   -1
100
AcDbLine
 10
37.3692
 20
60.1265
 11
37.9687
 21
60.1265
  0
LINE
  5
294
100
AcDbEntity
  8
47
  6
ByLayer
 62
  256
370
   -1
100
AcDbLine
 10
37.9687
 20
60.1265
 11
38.2684
 21
59.8268
  0
LINE
  5
295
100
AcDbEntity
  8
47
  6
ByLayer
 62
  256
370
   -1
100
AcDbLine
 10
38.2684
 20
59.8268
 11
38.2684
 21
59.2273
  0
LINE
  5
296
100
AcDbEntity
  8
47
  6
ByLayer
 62
  256
370
   -1
100
AcDbLine
 10
38.2684
 20
59.2273
 11
37.9687
 21
58.9276
  0
LINE
  5
297
100
AcDbEntity
  8
47
  6
ByLayer
 62
  256
370
   -1
100
AcDbLine
 10
5
 20
63.5
 11
5
 21
49.8
  0
LINE
  5
298
100
AcDbEntity
  8
47
  6
ByLayer
 62
  256
370
   -1
100
AcDbLine
 10
28.1
 20
62.75
 11
28.1
 21
49.8
  0
LINE
  5
299
100
AcDbEntity
  8
47
  6
ByLayer
 62
  256
370
   -1
100
AcDbLine
 10
5.065
 20
51.75
 11
28.035
 21
51.75
  0
LINE
  5
29A
100
AcDbEntity
  8
47
  6
ByLayer
 62
  256
370
   -1
100
AcDbLine
 10
5.065
 20
51.75
 11
7.6
 21
52.0692
  0
LINE
  5
29B
100
AcDbEntity
  8
47
  6
ByLayer
 62
  256
370
   -1
100
AcDbLine
 10
7.6
 20
52.0692
 11
7.6
 21
51.4308
  0
LINE
  5
29C
100
AcDbEntity
  8
47
  6
ByLayer
 62
  256
370
   -1
100
AcDbLine
 10
7.6
 20
51.4308
 11
5.065
 21
51.75
  0
LINE
  5
29D
100
AcDbEntity
  8
47
  6
ByLayer
 62
  256
370
   -1
100
AcDbLine
 10
5.065
 20
51.75
 11
7.6
 21
51.88
  0
LINE
  5
29E
100
AcDbEntity
  8
47
  6
ByLayer
 62
  256
370
   -1
100
AcDbLine
 10
7.6
 20
51.62
 11
5.065
 21
51.75
  0
LINE
  5
29F
100
AcDbEntity
  8
47
  6
ByLayer
 62
  256
370
   -1
100
AcDbLine
 10
5.065
 20
51.75
 11
7.6
 21
52.01
  0
LINE
  5
2A0
100
AcDbEntity
  8
47
  6
ByLayer
 62
  256
370
   -1
100
AcDbLine
 10
7.6
 20
51.49
 11
5.065
 21
51.75
  0
LINE
  5
2A1
100
AcDbEntity
  8
47
  6
ByLayer
 62
  256
370
   -1
100
AcDbLine
 10
28.035
 20
51.75
 11
25.5
 21
52.0692
  0
LINE
  5
2A2
100
AcDbEntity
  8
47
  6
ByLayer
 62
  256
370
   -1
100
AcDbLine
 10
25.5
 20
52.0692
 11
25.5
 21
51.4308
  0
LINE
  5
2A3
100
AcDbEntity
  8
47
  6
ByLayer
 62
  256
370
   -1
100
AcDbLine
 10
25.5
 20
51.4308
 11
28.035
 21
51.75
  0
LINE
  5
2A4
100
AcDbEntity
  8
47
  6
ByLayer
 62
  256
370
   -1
100
AcDbLine
 10
28.035
 20
51.75
 11
25.5
 21
51.88
  0
LINE
  5
2A5
100
AcDbEntity
  8
47
  6
ByLayer
 62
  256
370
   -1
100
AcDbLine
 10
25.5
 20
51.62
 11
28.035
 21
51.75
  0
LINE
  5
2A6
100
AcDbEntity
  8
47
  6
ByLayer
 62
  256
370
   -1
100
AcDbLine
 10
28.035
 20
51.75
 11
25.5
 21
52.01
  0
LINE
  5
2A7
100
AcDbEntity
  8
47
  6
ByLayer
 62
  256
370
   -1
100
AcDbLine
 10
25.5
 20
51.49
 11
28.035
 21
51.75
  0
LINE
  5
2A8
100
AcDbEntity
  8
47
  6
ByLayer
 62
  256
370
   -1
100
AcDbLine
 10
15.0697
 20
52.4562
 11
13.8369
 21
52.4562
  0
LINE
  5
2A9
100
AcDbEntity
  8
47
  6
ByLayer
 62
  256
370
   -1
100
AcDbLine
 10
13.8369
 20
52.4562
 11
15.0697
 21
53.689
  0
LINE
  5
2AA
100
AcDbEntity
  8
47
  6
ByLayer
 62
  256
370
   -1
100
AcDbLine
 10
15.0697
 20
53.689
 11
15.0697
 21
53.9972
  0
LINE
  5
2AB
100
AcDbEntity
  8
47
  6
ByLayer
 62
  256
370
   -1
100
AcDbLine
 10
15.0697
 20
53.9972
 11
14.7615
 21
54.3054
  0
LINE
  5
2AC
100
AcDbEntity
  8
47
  6
ByLayer
 62
  256
370
   -1
100
AcDbLine
 10
14.7615
 20
54.3054
 11
14.1451
 21
54.3054
  0
LINE
  5
2AD
100
AcDbEntity
  8
47
  6
ByLayer
 62
  256
370
   -1
100
AcDbLine
 10
14.1451
 20
54.3054
 11
13.8369
 21
53.9972
  0
LINE
  5
2AE
100
AcDbEntity
  8
47
  6
ByLayer
 62
  256
370
   -1
100
AcDbLine
 10
15.6784
 20
53.9972
 11
15.9866
 21
54.3054
  0
LINE
  5
2AF
100
AcDbEntity
  8
47
  6
ByLayer
 62
  256
370
   -1
100
AcDbLine
 10
15.9866
 20
54.3054
 11
16.603
 21
54.3054
  0
LINE
  5
2B0
100
AcDbEntity
  8
47
  6
ByLayer
 62
  256
370
   -1
100
AcDbLine
 10
16.603
 20
54.3054
 11
16.9112
 21
53.9972
  0
LINE
  5
2B1
100
AcDbEntity
  8
47
  6
ByLayer
 62
  256
370
   -1
100
AcDbLine
 10
16.9112
 20
53.9972
 11
16.9112
 21
53.689
  0
LINE
  5
2B2
100
AcDbEntity
  8
47
  6
ByLayer
 62
  256
370
   -1
100
AcDbLine
 10
16.9112
 20
53.689
 11
16.603
 21
53.3808
  0
LINE
  5
2B3
100
AcDbEntity
  8
47
  6
ByLayer
 62
  256
370
   -1
100
AcDbLine
 10
16.603
 20
53.3808
 11
16.2948
 21
53.3808
  0
LINE
  5
2B4
100
AcDbEntity
  8
47
  6
ByLayer
 62
  256
370
   -1
100
AcDbLine
 10
16.603
 20
53.3808
 11
16.9112
 21
53.0726
  0
LINE
  5
2B5
100
AcDbEntity
  8
47
  6
ByLayer
 62
  256
370
   -1
100
AcDbLine
 10
16.9112
 20
53.0726
 11
16.9112
 21
52.7644
  0
LINE
  5
2B6
100
AcDbEntity
  8
47
  6
ByLayer
 62
  256
370
   -1
100
AcDbLine
 10
16.9112
 20
52.7644
 11
16.603
 21
52.4562
  0
LINE
  5
2B7
100
AcDbEntity
  8
47
  6
ByLayer
 62
  256
370
   -1
100
AcDbLine
 10
16.603
 20
52.4562
 11
15.9866
 21
52.4562
  0
LINE
  5
2B8
100
AcDbEntity
  8
47
  6
ByLayer
 62
  256
370
   -1
100
AcDbLine
 10
15.9866
 20
52.4562
 11
15.6784
 21
52.7644
  0
LINE
  5
2B9
100
AcDbEntity
  8
47
  6
ByLayer
 62
  256
370
   -1
100
AcDbLine
 10
17.52
 20
52.4562
 11
17.52
 21
52.7644
  0
LINE
  5
2BA
100
AcDbEntity
  8
47
  6
ByLayer
 62
  256
370
   -1
100
AcDbLine
 10
17.52
 20
52.7644
 11
17.8282
 21
52.7644
  0
LINE
  5
2BB
100
AcDbEntity
  8
47
  6
ByLayer
 62
  256
370
   -1
100
AcDbLine
 10
17.8282
 20
52.7644
 11
17.8282
 21
52.4562
  0
LINE
  5
2BC
100
AcDbEntity
  8
47
  6
ByLayer
 62
  256
370
   -1
100
AcDbLine
 10
17.8282
 20
52.4562
 11
17.52
 21
52.4562
  0
LINE
  5
2BD
100
AcDbEntity
  8
47
  6
ByLayer
 62
  256
370
   -1
100
AcDbLine
 10
18.4408
 20
53.689
 11
19.0572
 21
54.3054
  0
LINE
  5
2BE
100
AcDbEntity
  8
47
  6
ByLayer
 62
  256
370
   -1
100
AcDbLine
 10
19.0572
 20
54.3054
 11
19.0572
 21
52.4562
  0
LINE
  5
2BF
100
AcDbEntity
  8
47
  6
ByLayer
 62
  256
370
   -1
100
AcDbLine
 10
18.4408
 20
52.4562
 11
19.6736
 21
52.4562
  0
LINE
  5
2C0
100
AcDbEntity
  8
47
  6
ByLayer
 62
  256
370
   -1
100
AcDbLine
 10
0
 20
-0.75
 11
0
 21
-4.95
  0
LINE
  5
2C1
100
AcDbEntity
  8
47
  6
ByLayer
 62
  256
370
   -1
100
AcDbLine
 10
17.5
 20
7.75
 11
17.5
 21
-4.95
  0
LINE
  5
2C2
100
AcDbEntity
  8
47
  6
ByLayer
 62
  256
370
   -1
100
AcDbLine
 10
0.065
 20
-3
 11
17.435
 21
-3
  0
LINE
  5
2C3
100
AcDbEntity
  8
47
  6
ByLayer
 62
  256
370
   -1
100
AcDbLine
 10
0.065
 20
-3
 11
2.6
 21
-2.6808
  0
LINE
  5
2C4
100
AcDbEntity
  8
47
  6
ByLayer
 62
  256
370
   -1
100
AcDbLine
 10
2.6
 20
-2.6808
 11
2.6
 21
-3.3192
  0
LINE
  5
2C5
100
AcDbEntity
  8
47
  6
ByLayer
 62
  256
370
   -1
100
AcDbLine
 10
2.6
 20
-3.3192
 11
0.065
 21
-3
  0
LINE
  5
2C6
100
AcDbEntity
  8
47
  6
ByLayer
 62
  256
370
   -1
100
AcDbLine
 10
0.065
 20
-3
 11
2.6
 21
-2.87
  0
LINE
  5
2C7
100
AcDbEntity
  8
47
  6
ByLayer
 62
  256
370
   -1
100
AcDbLine
 10
2.6
 20
-3.13
 11
0.065
 21
-3
  0
LINE
  5
2C8
100
AcDbEntity
  8
47
  6
ByLayer
 62
  256
370
   -1
100
AcDbLine
 10
0.065
 20
-3
 11
2.6
 21
-2.74
  0
LINE
  5
2C9
100
AcDbEntity
  8
47
  6
ByLayer
 62
  256
370
   -1
100
AcDbLine
 10
2.6
 20
-3.26
 11
0.065
 21
-3
  0
LINE
  5
2CA
100
AcDbEntity
  8
47
  6
ByLayer
 62
  256
370
   -1
100
AcDbLine
 10
17.435
 20
-3
 11
14.9
 21
-2.6808
  0
LINE
  5
2CB
100
AcDbEntity
  8
47
  6
ByLayer
 62
  256
370
   -1
100
AcDbLine
 10
14.9
 20
-2.6808
 11
14.9
 21
-3.3192
  0
LINE
  5
2CC
100
AcDbEntity
  8
47
  6
ByLayer
 62
  256
370
   -1
100
AcDbLine
 10
14.9
 20
-3.3192
 11
17.435
 21
-3
  0
LINE
  5
2CD
100
AcDbEntity
  8
47
  6
ByLayer
 62
  256
370
   -1
100
AcDbLine
 10
17.435
 20
-3
 11
14.9
 21
-2.87
  0
LINE
  5
2CE
100
AcDbEntity
  8
47
  6
ByLayer
 62
  256
370
   -1
100
AcDbLine
 10
14.9
 20
-3.13
 11
17.435
 21
-3
  0
LINE
  5
2CF
100
AcDbEntity
  8
47
  6
ByLayer
 62
  256
370
   -1
100
AcDbLine
 10
17.435
 20
-3
 11
14.9
 21
-2.74
  0
LINE
  5
2D0
100
AcDbEntity
  8
47
  6
ByLayer
 62
  256
370
   -1
100
AcDbLine
 10
14.9
 20
-3.26
 11
17.435
 21
-3
  0
LINE
  5
2D1
100
AcDbEntity
  8
47
  6
ByLayer
 62
  256
370
   -1
100
AcDbLine
 10
6.0369
 20
-1.061
 11
6.6533
 21
-0.4446
  0
LINE
  5
2D2
100
AcDbEntity
  8
47
  6
ByLayer
 62
  256
370
   -1
100
AcDbLine
 10
6.6533
 20
-0.4446
 11
6.6533
 21
-2.2938
  0
LINE
  5
2D3
100
AcDbEntity
  8
47
  6
ByLayer
 62
  256
370
   -1
100
AcDbLine
 10
6.0369
 20
-2.2938
 11
7.2697
 21
-2.2938
  0
LINE
  5
2D4
100
AcDbEntity
  8
47
  6
ByLayer
 62
  256
370
   -1
100
AcDbLine
 10
7.8784
 20
-0.4446
 11
9.1112
 21
-0.4446
  0
LINE
  5
2D5
100
AcDbEntity
  8
47
  6
ByLayer
 62
  256
370
   -1
100
AcDbLine
 10
9.1112
 20
-0.4446
 11
9.1112
 21
-0.7528
  0
LINE
  5
2D6
100
AcDbEntity
  8
47
  6
ByLayer
 62
  256
370
   -1
100
AcDbLine
 10
9.1112
 20
-0.7528
 11
7.8784
 21
-1.9856
  0
LINE
  5
2D7
100
AcDbEntity
  8
47
  6
ByLayer
 62
  256
370
   -1
100
AcDbLine
 10
7.8784
 20
-1.9856
 11
7.8784
 21
-2.2938
  0
LINE
  5
2D8
100
AcDbEntity
  8
47
  6
ByLayer
 62
  256
370
   -1
100
AcDbLine
 10
9.720000000000001
 20
-2.2938
 11
9.720000000000001
 21
-1.9856
  0
LINE
  5
2D9
100
AcDbEntity
  8
47
  6
ByLayer
 62
  256
370
   -1
100
AcDbLine
 10
9.720000000000001
 20
-1.9856
 11
10.0282
 21
-1.9856
  0
LINE
  5
2DA
100
AcDbEntity
  8
47
  6
ByLayer
 62
  256
370
   -1
100
AcDbLine
 10
10.0282
 20
-1.9856
 11
10.0282
 21
-2.2938
  0
LINE
  5
2DB
100
AcDbEntity
  8
47
  6
ByLayer
 62
  256
370
   -1
100
AcDbLine
 10
10.0282
 20
-2.2938
 11
9.720000000000001
 21
-2.2938
  0
LINE
  5
2DC
100
AcDbEntity
  8
47
  6
ByLayer
 62
  256
370
   -1
100
AcDbLine
 10
11.8736
 20
-0.4446
 11
10.6408
 21
-0.4446
  0
LINE
  5
2DD
100
AcDbEntity
  8
47
  6
ByLayer
 62
  256
370
   -1
100
AcDbLine
 10
10.6408
 20
-0.4446
 11
10.6408
 21
-1.3692
  0
LINE
  5
2DE
100
AcDbEntity
  8
47
  6
ByLayer
 62
  256
370
   -1
100
AcDbLine
 10
10.6408
 20
-1.3692
 11
11.2572
 21
-1.061
  0
LINE
  5
2DF
100
AcDbEntity
  8
47
  6
ByLayer
 62
  256
370
   -1
100
AcDbLine
 10
11.2572
 20
-1.061
 11
11.5654
 21
-1.061
  0
LINE
  5
2E0
100
AcDbEntity
  8
47
  6
ByLayer
 62
  256
370
   -1
100
AcDbLine
 10
11.5654
 20
-1.061
 11
11.8736
 21
-1.3692
  0
LINE
  5
2E1
100
AcDbEntity
  8
47
  6
ByLayer
 62
  256
370
   -1
100
AcDbLine
 10
11.8736
 20
-1.3692
 11
11.8736
 21
-1.9856
  0
LINE
  5
2E2
100
AcDbEntity
  8
47
  6
ByLayer
 62
  256
370
   -1
100
AcDbLine
 10
11.8736
 20
-1.9856
 11
11.5654
 21
-2.2938
  0
LINE
  5
2E3
100
AcDbEntity
  8
47
  6
ByLayer
 62
  256
370
   -1
100
AcDbLine
 10
11.5654
 20
-2.2938
 11
10.949
 21
-2.2938
  0
LINE
  5
2E4
100
AcDbEntity
  8
47
  6
ByLayer
 62
  256
370
   -1
100
AcDbLine
 10
10.949
 20
-2.2938
 11
10.6408
 21
-1.9856
  0
LINE
  5
2E5
100
AcDbEntity
  8
47
  6
ByLayer
 62
  256
370
   -1
100
AcDbLine
 10
-4.75
 20
13
 11
-1.05
 21
13
  0
LINE
  5
2E6
100
AcDbEntity
  8
47
  6
ByLayer
 62
  256
370
   -1
100
AcDbLine
 10
4
 20
24.2
 11
-4.95
 21
24.2
  0
LINE
  5
2E7
100
AcDbEntity
  8
47
  6
ByLayer
 62
  256
370
   -1
100
AcDbLine
 10
-3
 20
13.065
 11
-3
 21
24.135
  0
LINE
  5
2E8
100
AcDbEntity
  8
47
  6
ByLayer
 62
  256
370
   -1
100
AcDbLine
 10
-3
 20
13.065
 11
-3.3192
 21
15.6
  0
LINE
  5
2E9
100
AcDbEntity
  8
47
  6
ByLayer
 62
  256
370
   -1
100
AcDbLine
 10
-3.3192
 20
15.6
 11
-2.6808
 21
15.6
  0
LINE
  5
2EA
100
AcDbEntity
  8
47
  6
ByLayer
 62
  256
370
   -1
100
AcDbLine
 10
-2.6808
 20
15.6
 11
-3
 21
13.065
  0
LINE
  5
2EB
100
AcDbEntity
  8
47
  6
ByLayer
 62
  256
370
   -1
100
AcDbLine
 10
-3
 20
13.065
 11
-3.13
 21
15.6
  0
LINE
  5
2EC
100
AcDbEntity
  8
47
  6
ByLayer
 62
  256
370
   -1
100
AcDbLine
 10
-2.87
 20
15.6
 11
-3
 21
13.065
  0
LINE
  5
2ED
100
AcDbEntity
  8
47
  6
ByLayer
 62
  256
370
   -1
100
AcDbLine
 10
-3
 20
13.065
 11
-3.26
 21
15.6
  0
LINE
  5
2EE
100
AcDbEntity
  8
47
  6
ByLayer
 62
  256
370
   -1
100
AcDbLine
 10
-2.74
 20
15.6
 11
-3
 21
13.065
  0
LINE
  5
2EF
100
AcDbEntity
  8
47
  6
ByLayer
 62
  256
370
   -1
100
AcDbLine
 10
-3
 20
24.135
 11
-3.3192
 21
21.6
  0
LINE
  5
2F0
100
AcDbEntity
  8
47
  6
ByLayer
 62
  256
370
   -1
100
AcDbLine
 10
-3.3192
 20
21.6
 11
-2.6808
 21
21.6
  0
LINE
  5
2F1
100
AcDbEntity
  8
47
  6
ByLayer
 62
  256
370
   -1
100
AcDbLine
 10
-2.6808
 20
21.6
 11
-3
 21
24.135
  0
LINE
  5
2F2
100
AcDbEntity
  8
47
  6
ByLayer
 62
  256
370
   -1
100
AcDbLine
 10
-3
 20
24.135
 11
-3.13
 21
21.6
  0
LINE
  5
2F3
100
AcDbEntity
  8
47
  6
ByLayer
 62
  256
370
   -1
100
AcDbLine
 10
-2.87
 20
21.6
 11
-3
 21
24.135
  0
LINE
  5
2F4
100
AcDbEntity
  8
47
  6
ByLayer
 62
  256
370
   -1
100
AcDbLine
 10
-3
 20
24.135
 11
-3.26
 21
21.6
  0
LINE
  5
2F5
100
AcDbEntity
  8
47
  6
ByLayer
 62
  256
370
   -1
100
AcDbLine
 10
-2.74
 20
21.6
 11
-3
 21
24.135
  0
LINE
  5
2F6
100
AcDbEntity
  8
47
  6
ByLayer
 62
  256
370
   -1
100
AcDbLine
 10
-4.9305
 20
16.0194
 11
-5.5299
 21
16.6188
  0
LINE
  5
2F7
100
AcDbEntity
  8
47
  6
ByLayer
 62
  256
370
   -1
100
AcDbLine
 10
-5.5299
 20
16.6188
 11
-3.7316
 21
16.6188
  0
LINE
  5
2F8
100
AcDbEntity
  8
47
  6
ByLayer
 62
  256
370
   -1
100
AcDbLine
 10
-3.7316
 20
16.0194
 11
-3.7316
 21
17.2183
  0
LINE
  5
2F9
100
AcDbEntity
  8
47
  6
ByLayer
 62
  256
370
   -1
100
AcDbLine
 10
-4.9305
 20
17.8609
 11
-5.5299
 21
18.4604
  0
LINE
  5
2FA
100
AcDbEntity
  8
47
  6
ByLayer
 62
  256
370
   -1
100
AcDbLine
 10
-5.5299
 20
18.4604
 11
-3.7316
 21
18.4604
  0
LINE
  5
2FB
100
AcDbEntity
  8
47
  6
ByLayer
 62
  256
370
   -1
100
AcDbLine
 10
-3.7316
 20
17.8609
 11
-3.7316
 21
19.0598
  0
LINE
  5
2FC
100
AcDbEntity
  8
47
  6
ByLayer
 62
  256
370
   -1
100
AcDbLine
 10
-3.7316
 20
19.7025
 11
-4.0313
 21
19.7025
  0
LINE
  5
2FD
100
AcDbEntity
  8
47
  6
ByLayer
 62
  256
370
   -1
100
AcDbLine
 10
-4.0313
 20
19.7025
 11
-4.0313
 21
20.0022
  0
LINE
  5
2FE
100
AcDbEntity
  8
47
  6
ByLayer
 62
  256
370
   -1
100
AcDbLine
 10
-4.0313
 20
20.0022
 11
-3.7316
 21
20.0022
  0
LINE
  5
2FF
100
AcDbEntity
  8
47
  6
ByLayer
 62
  256
370
   -1
100
AcDbLine
 10
-3.7316
 20
20.0022
 11
-3.7316
 21
19.7025
  0
LINE
  5
300
100
AcDbEntity
  8
47
  6
ByLayer
 62
  256
370
   -1
100
AcDbLine
 10
-3.7316
 20
21.8222
 11
-3.7316
 21
20.6233
  0
LINE
  5
301
100
AcDbEntity
  8
47
  6
ByLayer
 62
  256
370
   -1
100
AcDbLine
 10
-3.7316
 20
20.6233
 11
-4.9305
 21
21.8222
  0
LINE
  5
302
100
AcDbEntity
  8
47
  6
ByLayer
 62
  256
370
   -1
100
AcDbLine
 10
-4.9305
 20
21.8222
 11
-5.2302
 21
21.8222
  0
LINE
  5
303
100
AcDbEntity
  8
47
  6
ByLayer
 62
  256
370
   -1
100
AcDbLine
 10
-5.2302
 20
21.8222
 11
-5.5299
 21
21.5225
  0
LINE
  5
304
100
AcDbEntity
  8
47
  6
ByLayer
 62
  256
370
   -1
100
AcDbLine
 10
-5.5299
 20
21.5225
 11
-5.5299
 21
20.923
  0
LINE
  5
305
100
AcDbEntity
  8
47
  6
ByLayer
 62
  256
370
   -1
100
AcDbLine
 10
-5.5299
 20
20.923
 11
-5.2302
 21
20.6233
  0
LINE
  5
306
100
AcDbEntity
  8
47
  6
ByLayer
 62
  256
370
   -1
100
AcDbLine
 10
25
 20
111.5
 11
28.7
 21
111.5
  0
LINE
  5
307
100
AcDbEntity
  8
47
  6
ByLayer
 62
  256
370
   -1
100
AcDbLine
 10
17.25
 20
108.25
 11
28.7
 21
108.25
  0
LINE
  5
308
100
AcDbEntity
  8
47
  6
ByLayer
 62
  256
370
   -1
100
AcDbLine
 10
26.75
 20
108.185
 11
26.75
 21
103.05
  0
LINE
  5
309
100
AcDbEntity
  8
47
  6
ByLayer
 62
  256
370
   -1
100
AcDbLine
 10
26.75
 20
111.565
 11
26.75
 21
119.0539
  0
LINE
  5
30A
100
AcDbEntity
  8
47
  6
ByLayer
 62
  256
370
   -1
100
AcDbLine
 10
26.75
 20
111.565
 11
26.4308
 21
114.1
  0
LINE
  5
30B
100
AcDbEntity
  8
47
  6
ByLayer
 62
  256
370
   -1
100
AcDbLine
 10
26.4308
 20
114.1
 11
27.0692
 21
114.1
  0
LINE
  5
30C
100
AcDbEntity
  8
47
  6
ByLayer
 62
  256
370
   -1
100
AcDbLine
 10
27.0692
 20
114.1
 11
26.75
 21
111.565
  0
LINE
  5
30D
100
AcDbEntity
  8
47
  6
ByLayer
 62
  256
370
   -1
100
AcDbLine
 10
26.75
 20
111.565
 11
26.62
 21
114.1
  0
LINE
  5
30E
100
AcDbEntity
  8
47
  6
ByLayer
 62
  256
370
   -1
100
AcDbLine
 10
26.88
 20
114.1
 11
26.75
 21
111.565
  0
LINE
  5
30F
100
AcDbEntity
  8
47
  6
ByLayer
 62
  256
370
   -1
100
AcDbLine
 10
26.75
 20
111.565
 11
26.49
 21
114.1
  0
LINE
  5
310
100
AcDbEntity
  8
47
  6
ByLayer
 62
  256
370
   -1
100
AcDbLine
 10
27.01
 20
114.1
 11
26.75
 21
111.565
  0
LINE
  5
311
100
AcDbEntity
  8
47
  6
ByLayer
 62
  256
370
   -1
100
AcDbLine
 10
26.75
 20
108.185
 11
26.4308
 21
105.65
  0
LINE
  5
312
100
AcDbEntity
  8
47
  6
ByLayer
 62
  256
370
   -1
100
AcDbLine
 10
26.4308
 20
105.65
 11
27.0692
 21
105.65
  0
LINE
  5
313
100
AcDbEntity
  8
47
  6
ByLayer
 62
  256
370
   -1
100
AcDbLine
 10
27.0692
 20
105.65
 11
26.75
 21
108.185
  0
LINE
  5
314
100
AcDbEntity
  8
47
  6
ByLayer
 62
  256
370
   -1
100
AcDbLine
 10
26.75
 20
108.185
 11
26.62
 21
105.65
  0
LINE
  5
315
100
AcDbEntity
  8
47
  6
ByLayer
 62
  256
370
   -1
100
AcDbLine
 10
26.88
 20
105.65
 11
26.75
 21
108.185
  0
LINE
  5
316
100
AcDbEntity
  8
47
  6
ByLayer
 62
  256
370
   -1
100
AcDbLine
 10
26.75
 20
108.185
 11
26.49
 21
105.65
  0
LINE
  5
317
100
AcDbEntity
  8
47
  6
ByLayer
 62
  256
370
   -1
100
AcDbLine
 10
27.01
 20
105.65
 11
26.75
 21
108.185
  0
LINE
  5
318
100
AcDbEntity
  8
47
  6
ByLayer
 62
  256
370
   -1
100
AcDbLine
 10
24.752
 20
114.1889
 11
24.485
 21
114.4558
  0
LINE
  5
319
100
AcDbEntity
  8
47
  6
ByLayer
 62
  256
370
   -1
100
AcDbLine
 10
24.485
 20
114.4558
 11
24.485
 21
114.9897
  0
LINE
  5
31A
100
AcDbEntity
  8
47
  6
ByLayer
 62
  256
370
   -1
100
AcDbLine
 10
24.485
 20
114.9897
 11
24.752
 21
115.2566
  0
LINE
  5
31B
100
AcDbEntity
  8
47
  6
ByLayer
 62
  256
370
   -1
100
AcDbLine
 10
24.752
 20
115.2566
 11
25.0189
 21
115.2566
  0
LINE
  5
31C
100
AcDbEntity
  8
47
  6
ByLayer
 62
  256
370
   -1
100
AcDbLine
 10
25.0189
 20
115.2566
 11
25.2858
 21
114.9897
  0
LINE
  5
31D
100
AcDbEntity
  8
47
  6
ByLayer
 62
  256
370
   -1
100
AcDbLine
 10
25.2858
 20
114.9897
 11
25.2858
 21
114.7228
  0
LINE
  5
31E
100
AcDbEntity
  8
47
  6
ByLayer
 62
  256
370
   -1
100
AcDbLine
 10
25.2858
 20
114.9897
 11
25.5527
 21
115.2566
  0
LINE
  5
31F
100
AcDbEntity
  8
47
  6
ByLayer
 62
  256
370
   -1
100
AcDbLine
 10
25.5527
 20
115.2566
 11
25.8197
 21
115.2566
  0
LINE
  5
320
100
AcDbEntity
  8
47
  6
ByLayer
 62
  256
370
   -1
100
AcDbLine
 10
25.8197
 20
115.2566
 11
26.0866
 21
114.9897
  0
LINE
  5
321
100
AcDbEntity
  8
47
  6
ByLayer
 62
  256
370
   -1
100
AcDbLine
 10
26.0866
 20
114.9897
 11
26.0866
 21
114.4558
  0
LINE
  5
322
100
AcDbEntity
  8
47
  6
ByLayer
 62
  256
370
   -1
100
AcDbLine
 10
26.0866
 20
114.4558
 11
25.8197
 21
114.1889
  0
LINE
  5
323
100
AcDbEntity
  8
47
  6
ByLayer
 62
  256
370
   -1
100
AcDbLine
 10
26.0866
 20
115.8261
 11
25.8197
 21
115.8261
  0
LINE
  5
324
100
AcDbEntity
  8
47
  6
ByLayer
 62
  256
370
   -1
100
AcDbLine
 10
25.8197
 20
115.8261
 11
25.8197
 21
116.093
  0
LINE
  5
325
100
AcDbEntity
  8
47
  6
ByLayer
 62
  256
370
   -1
100
AcDbLine
 10
25.8197
 20
116.093
 11
26.0866
 21
116.093
  0
LINE
  5
326
100
AcDbEntity
  8
47
  6
ByLayer
 62
  256
370
   -1
100
AcDbLine
 10
26.0866
 20
116.093
 11
26.0866
 21
115.8261
  0
LINE
  5
327
100
AcDbEntity
  8
47
  6
ByLayer
 62
  256
370
   -1
100
AcDbLine
 10
26.0866
 20
117.7123
 11
26.0866
 21
116.6446
  0
LINE
  5
328
100
AcDbEntity
  8
47
  6
ByLayer
 62
  256
370
   -1
100
AcDbLine
 10
26.0866
 20
116.6446
 11
25.0189
 21
117.7123
  0
LINE
  5
329
100
AcDbEntity
  8
47
  6
ByLayer
 62
  256
370
   -1
100
AcDbLine
 10
25.0189
 20
117.7123
 11
24.752
 21
117.7123
  0
LINE
  5
32A
100
AcDbEntity
  8
47
  6
ByLayer
 62
  256
370
   -1
100
AcDbLine
 10
24.752
 20
117.7123
 11
24.485
 21
117.4454
  0
LINE
  5
32B
100
AcDbEntity
  8
47
  6
ByLayer
 62
  256
370
   -1
100
AcDbLine
 10
24.485
 20
117.4454
 11
24.485
 21
116.9116
  0
LINE
  5
32C
100
AcDbEntity
  8
47
  6
ByLayer
 62
  256
370
   -1
100
AcDbLine
 10
24.485
 20
116.9116
 11
24.752
 21
116.6446
  0
LINE
  5
32D
100
AcDbEntity
  8
47
  6
ByLayer
 62
  256
370
   -1
100
AcDbLine
 10
24.485
 20
119.3495
 11
24.485
 21
118.2818
  0
LINE
  5
32E
100
AcDbEntity
  8
47
  6
ByLayer
 62
  256
370
   -1
100
AcDbLine
 10
24.485
 20
118.2818
 11
25.2858
 21
118.2818
  0
LINE
  5
32F
100
AcDbEntity
  8
47
  6
ByLayer
 62
  256
370
   -1
100
AcDbLine
 10
25.2858
 20
118.2818
 11
25.0189
 21
118.8156
  0
LINE
  5
330
100
AcDbEntity
  8
47
  6
ByLayer
 62
  256
370
   -1
100
AcDbLine
 10
25.0189
 20
118.8156
 11
25.0189
 21
119.0826
  0
LINE
  5
331
100
AcDbEntity
  8
47
  6
ByLayer
 62
  256
370
   -1
100
AcDbLine
 10
25.0189
 20
119.0826
 11
25.2858
 21
119.3495
  0
LINE
  5
332
100
AcDbEntity
  8
47
  6
ByLayer
 62
  256
370
   -1
100
AcDbLine
 10
25.2858
 20
119.3495
 11
25.8197
 21
119.3495
  0
LINE
  5
333
100
AcDbEntity
  8
47
  6
ByLayer
 62
  256
370
   -1
100
AcDbLine
 10
25.8197
 20
119.3495
 11
26.0866
 21
119.0826
  0
LINE
  5
334
100
AcDbEntity
  8
47
  6
ByLayer
 62
  256
370
   -1
100
AcDbLine
 10
26.0866
 20
119.0826
 11
26.0866
 21
118.5487
  0
LINE
  5
335
100
AcDbEntity
  8
47
  6
ByLayer
 62
  256
370
   -1
100
AcDbLine
 10
26.0866
 20
118.5487
 11
25.8197
 21
118.2818
  0
LINE
  5
336
100
AcDbEntity
  8
47
  6
ByLayer
 62
  256
370
   -1
100
AcDbLine
 10
17
 20
0
 11
12.55
 21
0
  0
LINE
  5
337
100
AcDbEntity
  8
47
  6
ByLayer
 62
  256
370
   -1
100
AcDbLine
 10
20
 20
3.25
 11
12.55
 21
3.25
  0
LINE
  5
338
100
AcDbEntity
  8
47
  6
ByLayer
 62
  256
370
   -1
100
AcDbLine
 10
14.5
 20
-0.065
 11
14.5
 21
-5.2
  0
LINE
  5
339
100
AcDbEntity
  8
47
  6
ByLayer
 62
  256
370
   -1
100
AcDbLine
 10
14.5
 20
3.315
 11
14.5
 21
10.8039
  0
LINE
  5
33A
100
AcDbEntity
  8
47
  6
ByLayer
 62
  256
370
   -1
100
AcDbLine
 10
14.5
 20
-0.065
 11
14.1808
 21
-2.6
  0
LINE
  5
33B
100
AcDbEntity
  8
47
  6
ByLayer
 62
  256
370
   -1
100
AcDbLine
 10
14.1808
 20
-2.6
 11
14.8192
 21
-2.6
  0
LINE
  5
33C
100
AcDbEntity
  8
47
  6
ByLayer
 62
  256
370
   -1
100
AcDbLine
 10
14.8192
 20
-2.6
 11
14.5
 21
-0.065
  0
LINE
  5
33D
100
AcDbEntity
  8
47
  6
ByLayer
 62
  256
370
   -1
100
AcDbLine
 10
14.5
 20
-0.065
 11
14.37
 21
-2.6
  0
LINE
  5
33E
100
AcDbEntity
  8
47
  6
ByLayer
 62
  256
370
   -1
100
AcDbLine
 10
14.63
 20
-2.6
 11
14.5
 21
-0.065
  0
LINE
  5
33F
100
AcDbEntity
  8
47
  6
ByLayer
 62
  256
370
   -1
100
AcDbLine
 10
14.5
 20
-0.065
 11
14.24
 21
-2.6
  0
LINE
  5
340
100
AcDbEntity
  8
47
  6
ByLayer
 62
  256
370
   -1
100
AcDbLine
 10
14.76
 20
-2.6
 11
14.5
 21
-0.065
  0
LINE
  5
341
100
AcDbEntity
  8
47
  6
ByLayer
 62
  256
370
   -1
100
AcDbLine
 10
14.5
 20
3.315
 11
14.1808
 21
5.85
  0
LINE
  5
342
100
AcDbEntity
  8
47
  6
ByLayer
 62
  256
370
   -1
100
AcDbLine
 10
14.1808
 20
5.85
 11
14.8192
 21
5.85
  0
LINE
  5
343
100
AcDbEntity
  8
47
  6
ByLayer
 62
  256
370
   -1
100
AcDbLine
 10
14.8192
 20
5.85
 11
14.5
 21
3.315
  0
LINE
  5
344
100
AcDbEntity
  8
47
  6
ByLayer
 62
  256
370
   -1
100
AcDbLine
 10
14.5
 20
3.315
 11
14.37
 21
5.85
  0
LINE
  5
345
100
AcDbEntity
  8
47
  6
ByLayer
 62
  256
370
   -1
100
AcDbLine
 10
14.63
 20
5.85
 11
14.5
 21
3.315
  0
LINE
  5
346
100
AcDbEntity
  8
47
  6
ByLayer
 62
  256
370
   -1
100
AcDbLine
 10
14.5
 20
3.315
 11
14.24
 21
5.85
  0
LINE
  5
347
100
AcDbEntity
  8
47
  6
ByLayer
 62
  256
370
   -1
100
AcDbLine
 10
14.76
 20
5.85
 11
14.5
 21
3.315
  0
LINE
  5
348
100
AcDbEntity
  8
47
  6
ByLayer
 62
  256
370
   -1
100
AcDbLine
 10
12.502
 20
5.9389
 11
12.235
 21
6.2058
  0
LINE
  5
349
100
AcDbEntity
  8
47
  6
ByLayer
 62
  256
370
   -1
100
AcDbLine
 10
12.235
 20
6.2058
 11
12.235
 21
6.7397
  0
LINE
  5
34A
100
AcDbEntity
  8
47
  6
ByLayer
 62
  256
370
   -1
100
AcDbLine
 10
12.235
 20
6.7397
 11
12.502
 21
7.0066
  0
LINE
  5
34B
100
AcDbEntity
  8
47
  6
ByLayer
 62
  256
370
   -1
100
AcDbLine
 10
12.502
 20
7.0066
 11
12.7689
 21
7.0066
  0
LINE
  5
34C
100
AcDbEntity
  8
47
  6
ByLayer
 62
  256
370
   -1
100
AcDbLine
 10
12.7689
 20
7.0066
 11
13.0358
 21
6.7397
  0
LINE
  5
34D
100
AcDbEntity
  8
47
  6
ByLayer
 62
  256
370
   -1
100
AcDbLine
 10
13.0358
 20
6.7397
 11
13.0358
 21
6.4728
  0
LINE
  5
34E
100
AcDbEntity
  8
47
  6
ByLayer
 62
  256
370
   -1
100
AcDbLine
 10
13.0358
 20
6.7397
 11
13.3027
 21
7.0066
  0
LINE
  5
34F
100
AcDbEntity
  8
47
  6
ByLayer
 62
  256
370
   -1
100
AcDbLine
 10
13.3027
 20
7.0066
 11
13.5697
 21
7.0066
  0
LINE
  5
350
100
AcDbEntity
  8
47
  6
ByLayer
 62
  256
370
   -1
100
AcDbLine
 10
13.5697
 20
7.0066
 11
13.8366
 21
6.7397
  0
LINE
  5
351
100
AcDbEntity
  8
47
  6
ByLayer
 62
  256
370
   -1
100
AcDbLine
 10
13.8366
 20
6.7397
 11
13.8366
 21
6.2058
  0
LINE
  5
352
100
AcDbEntity
  8
47
  6
ByLayer
 62
  256
370
   -1
100
AcDbLine
 10
13.8366
 20
6.2058
 11
13.5697
 21
5.9389
  0
LINE
  5
353
100
AcDbEntity
  8
47
  6
ByLayer
 62
  256
370
   -1
100
AcDbLine
 10
13.8366
 20
7.5761
 11
13.5697
 21
7.5761
  0
LINE
  5
354
100
AcDbEntity
  8
47
  6
ByLayer
 62
  256
370
   -1
100
AcDbLine
 10
13.5697
 20
7.5761
 11
13.5697
 21
7.843
  0
LINE
  5
355
100
AcDbEntity
  8
47
  6
ByLayer
 62
  256
370
   -1
100
AcDbLine
 10
13.5697
 20
7.843
 11
13.8366
 21
7.843
  0
LINE
  5
356
100
AcDbEntity
  8
47
  6
ByLayer
 62
  256
370
   -1
100
AcDbLine
 10
13.8366
 20
7.843
 11
13.8366
 21
7.5761
  0
LINE
  5
357
100
AcDbEntity
  8
47
  6
ByLayer
 62
  256
370
   -1
100
AcDbLine
 10
13.8366
 20
9.462300000000001
 11
13.8366
 21
8.394600000000001
  0
LINE
  5
358
100
AcDbEntity
  8
47
  6
ByLayer
 62
  256
370
   -1
100
AcDbLine
 10
13.8366
 20
8.394600000000001
 11
12.7689
 21
9.462300000000001
  0
LINE
  5
359
100
AcDbEntity
  8
47
  6
ByLayer
 62
  256
370
   -1
100
AcDbLine
 10
12.7689
 20
9.462300000000001
 11
12.502
 21
9.462300000000001
  0
LINE
  5
35A
100
AcDbEntity
  8
47
  6
ByLayer
 62
  256
370
   -1
100
AcDbLine
 10
12.502
 20
9.462300000000001
 11
12.235
 21
9.195399999999999
  0
LINE
  5
35B
100
AcDbEntity
  8
47
  6
ByLayer
 62
  256
370
   -1
100
AcDbLine
 10
12.235
 20
9.195399999999999
 11
12.235
 21
8.6616
  0
LINE
  5
35C
100
AcDbEntity
  8
47
  6
ByLayer
 62
  256
370
   -1
100
AcDbLine
 10
12.235
 20
8.6616
 11
12.502
 21
8.394600000000001
  0
LINE
  5
35D
100
AcDbEntity
  8
47
  6
ByLayer
 62
  256
370
   -1
100
AcDbLine
 10
12.235
 20
11.0995
 11
12.235
 21
10.0318
  0
LINE
  5
35E
100
AcDbEntity
  8
47
  6
ByLayer
 62
  256
370
   -1
100
AcDbLine
 10
12.235
 20
10.0318
 11
13.0358
 21
10.0318
  0
LINE
  5
35F
100
AcDbEntity
  8
47
  6
ByLayer
 62
  256
370
   -1
100
AcDbLine
 10
13.0358
 20
10.0318
 11
12.7689
 21
10.5656
  0
LINE
  5
360
100
AcDbEntity
  8
47
  6
ByLayer
 62
  256
370
   -1
100
AcDbLine
 10
12.7689
 20
10.5656
 11
12.7689
 21
10.8326
  0
LINE
  5
361
100
AcDbEntity
  8
47
  6
ByLayer
 62
  256
370
   -1
100
AcDbLine
 10
12.7689
 20
10.8326
 11
13.0358
 21
11.0995
  0
LINE
  5
362
100
AcDbEntity
  8
47
  6
ByLayer
 62
  256
370
   -1
100
AcDbLine
 10
13.0358
 20
11.0995
 11
13.5697
 21
11.0995
  0
LINE
  5
363
100
AcDbEntity
  8
47
  6
ByLayer
 62
  256
370
   -1
100
AcDbLine
 10
13.5697
 20
11.0995
 11
13.8366
 21
10.8326
  0
LINE
  5
364
100
AcDbEntity
  8
47
  6
ByLayer
 62
  256
370
   -1
100
AcDbLine
 10
13.8366
 20
10.8326
 11
13.8366
 21
10.2987
  0
LINE
  5
365
100
AcDbEntity
  8
47
  6
ByLayer
 62
  256
370
   -1
100
AcDbLine
 10
13.8366
 20
10.2987
 11
13.5697
 21
10.0318
  0
LINE
  5
366
100
AcDbEntity
  8
47
  6
ByLayer
 62
  256
370
   -1
100
AcDbLine
 10
4.75
 20
88.3
 11
-4.45
 21
88.3
  0
LINE
  5
367
100
AcDbEntity
  8
47
  6
ByLayer
 62
  256
370
   -1
100
AcDbLine
 10
4.5
 20
97
 11
-4.45
 21
97
  0
LINE
  5
368
100
AcDbEntity
  8
47
  6
ByLayer
 62
  256
370
   -1
100
AcDbLine
 10
-2.5
 20
88.36499999999999
 11
-2.5
 21
96.935
  0
LINE
  5
369
100
AcDbEntity
  8
47
  6
ByLayer
 62
  256
370
   -1
100
AcDbLine
 10
-2.5
 20
88.36499999999999
 11
-2.8192
 21
90.90000000000001
  0
LINE
  5
36A
100
AcDbEntity
  8
47
  6
ByLayer
 62
  256
370
   -1
100
AcDbLine
 10
-2.8192
 20
90.90000000000001
 11
-2.1808
 21
90.90000000000001
  0
LINE
  5
36B
100
AcDbEntity
  8
47
  6
ByLayer
 62
  256
370
   -1
100
AcDbLine
 10
-2.1808
 20
90.90000000000001
 11
-2.5
 21
88.36499999999999
  0
LINE
  5
36C
100
AcDbEntity
  8
47
  6
ByLayer
 62
  256
370
   -1
100
AcDbLine
 10
-2.5
 20
88.36499999999999
 11
-2.63
 21
90.90000000000001
  0
LINE
  5
36D
100
AcDbEntity
  8
47
  6
ByLayer
 62
  256
370
   -1
100
AcDbLine
 10
-2.37
 20
90.90000000000001
 11
-2.5
 21
88.36499999999999
  0
LINE
  5
36E
100
AcDbEntity
  8
47
  6
ByLayer
 62
  256
370
   -1
100
AcDbLine
 10
-2.5
 20
88.36499999999999
 11
-2.76
 21
90.90000000000001
  0
LINE
  5
36F
100
AcDbEntity
  8
47
  6
ByLayer
 62
  256
370
   -1
100
AcDbLine
 10
-2.24
 20
90.90000000000001
 11
-2.5
 21
88.36499999999999
  0
LINE
  5
370
100
AcDbEntity
  8
47
  6
ByLayer
 62
  256
370
   -1
100
AcDbLine
 10
-2.5
 20
96.935
 11
-2.8192
 21
94.40000000000001
  0
LINE
  5
371
100
AcDbEntity
  8
47
  6
ByLayer
 62
  256
370
   -1
100
AcDbLine
 10
-2.8192
 20
94.40000000000001
 11
-2.1808
 21
94.40000000000001
  0
LINE
  5
372
100
AcDbEntity
  8
47
  6
ByLayer
 62
  256
370
   -1
100
AcDbLine
 10
-2.1808
 20
94.40000000000001
 11
-2.5
 21
96.935
  0
LINE
  5
373
100
AcDbEntity
  8
47
  6
ByLayer
 62
  256
370
   -1
100
AcDbLine
 10
-2.5
 20
96.935
 11
-2.63
 21
94.40000000000001
  0
LINE
  5
374
100
AcDbEntity
  8
47
  6
ByLayer
 62
  256
370
   -1
100
AcDbLine
 10
-2.37
 20
94.40000000000001
 11
-2.5
 21
96.935
  0
LINE
  5
375
100
AcDbEntity
  8
47
  6
ByLayer
 62
  256
370
   -1
100
AcDbLine
 10
-2.5
 20
96.935
 11
-2.76
 21
94.40000000000001
  0
LINE
  5
376
100
AcDbEntity
  8
47
  6
ByLayer
 62
  256
370
   -1
100
AcDbLine
 10
-2.24
 20
94.40000000000001
 11
-2.5
 21
96.935
  0
LINE
  5
377
100
AcDbEntity
  8
47
  6
ByLayer
 62
  256
370
   -1
100
AcDbLine
 10
-4.7302
 20
90.7611
 11
-5.0299
 21
91.0609
  0
LINE
  5
378
100
AcDbEntity
  8
47
  6
ByLayer
 62
  256
370
   -1
100
AcDbLine
 10
-5.0299
 20
91.0609
 11
-5.0299
 21
91.66030000000001
  0
LINE
  5
379
100
AcDbEntity
  8
47
  6
ByLayer
 62
  256
370
   -1
100
AcDbLine
 10
-5.0299
 20
91.66030000000001
 11
-4.7302
 21
91.95999999999999
  0
LINE
  5
37A
100
AcDbEntity
  8
47
  6
ByLayer
 62
  256
370
   -1
100
AcDbLine
 10
-4.7302
 20
91.95999999999999
 11
-4.4305
 21
91.95999999999999
  0
LINE
  5
37B
100
AcDbEntity
  8
47
  6
ByLayer
 62
  256
370
   -1
100
AcDbLine
 10
-4.4305
 20
91.95999999999999
 11
-4.1308
 21
91.66030000000001
  0
LINE
  5
37C
100
AcDbEntity
  8
47
  6
ByLayer
 62
  256
370
   -1
100
AcDbLine
 10
-4.1308
 20
91.66030000000001
 11
-3.831
 21
91.95999999999999
  0
LINE
  5
37D
100
AcDbEntity
  8
47
  6
ByLayer
 62
  256
370
   -1
100
AcDbLine
 10
-3.831
 20
91.95999999999999
 11
-3.5313
 21
91.95999999999999
  0
LINE
  5
37E
100
AcDbEntity
  8
47
  6
ByLayer
 62
  256
370
   -1
100
AcDbLine
 10
-3.5313
 20
91.95999999999999
 11
-3.2316
 21
91.66030000000001
  0
LINE
  5
37F
100
AcDbEntity
  8
47
  6
ByLayer
 62
  256
370
   -1
100
AcDbLine
 10
-3.2316
 20
91.66030000000001
 11
-3.2316
 21
91.0609
  0
LINE
  5
380
100
AcDbEntity
  8
47
  6
ByLayer
 62
  256
370
   -1
100
AcDbLine
 10
-3.2316
 20
91.0609
 11
-3.5313
 21
90.7611
  0
LINE
  5
381
100
AcDbEntity
  8
47
  6
ByLayer
 62
  256
370
   -1
100
AcDbLine
 10
-3.5313
 20
90.7611
 11
-3.831
 21
90.7611
  0
LINE
  5
382
100
AcDbEntity
  8
47
  6
ByLayer
 62
  256
370
   -1
100
AcDbLine
 10
-3.831
 20
90.7611
 11
-4.1308
 21
91.0609
  0
LINE
  5
383
100
AcDbEntity
  8
47
  6
ByLayer
 62
  256
370
   -1
100
AcDbLine
 10
-4.1308
 20
91.0609
 11
-4.4305
 21
90.7611
  0
LINE
  5
384
100
AcDbEntity
  8
47
  6
ByLayer
 62
  256
370
   -1
100
AcDbLine
 10
-4.4305
 20
90.7611
 11
-4.7302
 21
90.7611
  0
LINE
  5
385
100
AcDbEntity
  8
47
  6
ByLayer
 62
  256
370
   -1
100
AcDbLine
 10
-4.1308
 20
91.0609
 11
-4.1308
 21
91.66030000000001
  0
LINE
  5
386
100
AcDbEntity
  8
47
  6
ByLayer
 62
  256
370
   -1
100
AcDbLine
 10
-3.2316
 20
92.6027
 11
-3.5313
 21
92.6027
  0
LINE
  5
387
100
AcDbEntity
  8
47
  6
ByLayer
 62
  256
370
   -1
100
AcDbLine
 10
-3.5313
 20
92.6027
 11
-3.5313
 21
92.9024
  0
LINE
  5
388
100
AcDbEntity
  8
47
  6
ByLayer
 62
  256
370
   -1
100
AcDbLine
 10
-3.5313
 20
92.9024
 11
-3.2316
 21
92.9024
  0
LINE
  5
389
100
AcDbEntity
  8
47
  6
ByLayer
 62
  256
370
   -1
100
AcDbLine
 10
-3.2316
 20
92.9024
 11
-3.2316
 21
92.6027
  0
LINE
  5
38A
100
AcDbEntity
  8
47
  6
ByLayer
 62
  256
370
   -1
100
AcDbLine
 10
-5.0299
 20
93.5235
 11
-5.0299
 21
94.72239999999999
  0
LINE
  5
38B
100
AcDbEntity
  8
47
  6
ByLayer
 62
  256
370
   -1
100
AcDbLine
 10
-5.0299
 20
94.72239999999999
 11
-4.7302
 21
94.72239999999999
  0
LINE
  5
38C
100
AcDbEntity
  8
47
  6
ByLayer
 62
  256
370
   -1
100
AcDbLine
 10
-4.7302
 20
94.72239999999999
 11
-3.5313
 21
93.5235
  0
LINE
  5
38D
100
AcDbEntity
  8
47
  6
ByLayer
 62
  256
370
   -1
100
AcDbLine
 10
-3.5313
 20
93.5235
 11
-3.2316
 21
93.5235
  0
LINE
  5
38E
100
AcDbEntity
  8
47
  6
ByLayer
 62
  256
370
   -1
100
AcDbLine
 10
15.5
 20
88.3
 11
19.95
 21
88.3
  0
LINE
  5
38F
100
AcDbEntity
  8
47
  6
ByLayer
 62
  256
370
   -1
100
AcDbLine
 10
15.25
 20
56.3
 11
19.95
 21
56.3
  0
LINE
  5
390
100
AcDbEntity
  8
47
  6
ByLayer
 62
  256
370
   -1
100
AcDbLine
 10
18
 20
88.235
 11
18
 21
56.365
  0
LINE
  5
391
100
AcDbEntity
  8
47
  6
ByLayer
 62
  256
370
   -1
100
AcDbLine
 10
18
 20
88.235
 11
17.6808
 21
85.7
  0
LINE
  5
392
100
AcDbEntity
  8
47
  6
ByLayer
 62
  256
370
   -1
100
AcDbLine
 10
17.6808
 20
85.7
 11
18.3192
 21
85.7
  0
LINE
  5
393
100
AcDbEntity
  8
47
  6
ByLayer
 62
  256
370
   -1
100
AcDbLine
 10
18.3192
 20
85.7
 11
18
 21
88.235
  0
LINE
  5
394
100
AcDbEntity
  8
47
  6
ByLayer
 62
  256
370
   -1
100
AcDbLine
 10
18
 20
88.235
 11
17.87
 21
85.7
  0
LINE
  5
395
100
AcDbEntity
  8
47
  6
ByLayer
 62
  256
370
   -1
100
AcDbLine
 10
18.13
 20
85.7
 11
18
 21
88.235
  0
LINE
  5
396
100
AcDbEntity
  8
47
  6
ByLayer
 62
  256
370
   -1
100
AcDbLine
 10
18
 20
88.235
 11
17.74
 21
85.7
  0
LINE
  5
397
100
AcDbEntity
  8
47
  6
ByLayer
 62
  256
370
   -1
100
AcDbLine
 10
18.26
 20
85.7
 11
18
 21
88.235
  0
LINE
  5
398
100
AcDbEntity
  8
47
  6
ByLayer
 62
  256
370
   -1
100
AcDbLine
 10
18
 20
56.365
 11
17.6808
 21
58.9
  0
LINE
  5
399
100
AcDbEntity
  8
47
  6
ByLayer
 62
  256
370
   -1
100
AcDbLine
 10
17.6808
 20
58.9
 11
18.3192
 21
58.9
  0
LINE
  5
39A
100
AcDbEntity
  8
47
  6
ByLayer
 62
  256
370
   -1
100
AcDbLine
 10
18.3192
 20
58.9
 11
18
 21
56.365
  0
LINE
  5
39B
100
AcDbEntity
  8
47
  6
ByLayer
 62
  256
370
   -1
100
AcDbLine
 10
18
 20
56.365
 11
17.87
 21
58.9
  0
LINE
  5
39C
100
AcDbEntity
  8
47
  6
ByLayer
 62
  256
370
   -1
100
AcDbLine
 10
18.13
 20
58.9
 11
18
 21
56.365
  0
LINE
  5
39D
100
AcDbEntity
  8
47
  6
ByLayer
 62
  256
370
   -1
100
AcDbLine
 10
18
 20
56.365
 11
17.74
 21
58.9
  0
LINE
  5
39E
100
AcDbEntity
  8
47
  6
ByLayer
 62
  256
370
   -1
100
AcDbLine
 10
18.26
 20
58.9
 11
18
 21
56.365
  0
LINE
  5
39F
100
AcDbEntity
  8
47
  6
ByLayer
 62
  256
370
   -1
100
AcDbLine
 10
15.7528
 20
70.7829
 11
15.4446
 21
71.0911
  0
LINE
  5
3A0
100
AcDbEntity
  8
47
  6
ByLayer
 62
  256
370
   -1
100
AcDbLine
 10
15.4446
 20
71.0911
 11
15.4446
 21
71.7075
  0
LINE
  5
3A1
100
AcDbEntity
  8
47
  6
ByLayer
 62
  256
370
   -1
100
AcDbLine
 10
15.4446
 20
71.7075
 11
15.7528
 21
72.0157
  0
LINE
  5
3A2
100
AcDbEntity
  8
47
  6
ByLayer
 62
  256
370
   -1
100
AcDbLine
 10
15.7528
 20
72.0157
 11
16.061
 21
72.0157
  0
LINE
  5
3A3
100
AcDbEntity
  8
47
  6
ByLayer
 62
  256
370
   -1
100
AcDbLine
 10
16.061
 20
72.0157
 11
16.3692
 21
71.7075
  0
LINE
  5
3A4
100
AcDbEntity
  8
47
  6
ByLayer
 62
  256
370
   -1
100
AcDbLine
 10
16.3692
 20
71.7075
 11
16.3692
 21
71.3993
  0
LINE
  5
3A5
100
AcDbEntity
  8
47
  6
ByLayer
 62
  256
370
   -1
100
AcDbLine
 10
16.3692
 20
71.7075
 11
16.6774
 21
72.0157
  0
LINE
  5
3A6
100
AcDbEntity
  8
47
  6
ByLayer
 62
  256
370
   -1
100
AcDbLine
 10
16.6774
 20
72.0157
 11
16.9856
 21
72.0157
  0
LINE
  5
3A7
100
AcDbEntity
  8
47
  6
ByLayer
 62
  256
370
   -1
100
AcDbLine
 10
16.9856
 20
72.0157
 11
17.2938
 21
71.7075
  0
LINE
  5
3A8
100
AcDbEntity
  8
47
  6
ByLayer
 62
  256
370
   -1
100
AcDbLine
 10
17.2938
 20
71.7075
 11
17.2938
 21
71.0911
  0
LINE
  5
3A9
100
AcDbEntity
  8
47
  6
ByLayer
 62
  256
370
   -1
100
AcDbLine
 10
17.2938
 20
71.0911
 11
16.9856
 21
70.7829
  0
LINE
  5
3AA
100
AcDbEntity
  8
47
  6
ByLayer
 62
  256
370
   -1
100
AcDbLine
 10
17.2938
 20
73.8573
 11
17.2938
 21
72.6245
  0
LINE
  5
3AB
100
AcDbEntity
  8
47
  6
ByLayer
 62
  256
370
   -1
100
AcDbLine
 10
17.2938
 20
72.6245
 11
16.061
 21
73.8573
  0
LINE
  5
3AC
100
AcDbEntity
  8
47
  6
ByLayer
 62
  256
370
   -1
100
AcDbLine
 10
16.061
 20
73.8573
 11
15.7528
 21
73.8573
  0
LINE
  5
3AD
100
AcDbEntity
  8
47
  6
ByLayer
 62
  256
370
   -1
100
AcDbLine
 10
15.7528
 20
73.8573
 11
15.4446
 21
73.5491
  0
LINE
  5
3AE
100
AcDbEntity
  8
47
  6
ByLayer
 62
  256
370
   -1
100
AcDbLine
 10
15.4446
 20
73.5491
 11
15.4446
 21
72.9327
  0
LINE
  5
3AF
100
AcDbEntity
  8
47
  6
ByLayer
 62
  256
370
   -1
100
AcDbLine
 10
15.4446
 20
72.9327
 11
15.7528
 21
72.6245
  0
LINE
  5
3B0
100
AcDbEntity
  8
47
  6
ByLayer
 62
  256
370
   -1
100
AcDbLine
 10
20.5
 20
89
 11
20.5
 21
92.7
  0
LINE
  5
3B1
100
AcDbEntity
  8
47
  6
ByLayer
 62
  256
370
   -1
100
AcDbLine
 10
28.1
 20
89.25
 11
28.1
 21
92.7
  0
LINE
  5
3B2
100
AcDbEntity
  8
47
  6
ByLayer
 62
  256
370
   -1
100
AcDbLine
 10
20.565
 20
90.75
 11
28.035
 21
90.75
  0
LINE
  5
3B3
100
AcDbEntity
  8
47
  6
ByLayer
 62
  256
370
   -1
100
AcDbLine
 10
20.565
 20
90.75
 11
23.1
 21
91.0692
  0
LINE
  5
3B4
100
AcDbEntity
  8
47
  6
ByLayer
 62
  256
370
   -1
100
AcDbLine
 10
23.1
 20
91.0692
 11
23.1
 21
90.4308
  0
LINE
  5
3B5
100
AcDbEntity
  8
47
  6
ByLayer
 62
  256
370
   -1
100
AcDbLine
 10
23.1
 20
90.4308
 11
20.565
 21
90.75
  0
LINE
  5
3B6
100
AcDbEntity
  8
47
  6
ByLayer
 62
  256
370
   -1
100
AcDbLine
 10
20.565
 20
90.75
 11
23.1
 21
90.88
  0
LINE
  5
3B7
100
AcDbEntity
  8
47
  6
ByLayer
 62
  256
370
   -1
100
AcDbLine
 10
23.1
 20
90.62
 11
20.565
 21
90.75
  0
LINE
  5
3B8
100
AcDbEntity
  8
47
  6
ByLayer
 62
  256
370
   -1
100
AcDbLine
 10
20.565
 20
90.75
 11
23.1
 21
91.01000000000001
  0
LINE
  5
3B9
100
AcDbEntity
  8
47
  6
ByLayer
 62
  256
370
   -1
100
AcDbLine
 10
23.1
 20
90.48999999999999
 11
20.565
 21
90.75
  0
LINE
  5
3BA
100
AcDbEntity
  8
47
  6
ByLayer
 62
  256
370
   -1
100
AcDbLine
 10
28.035
 20
90.75
 11
25.5
 21
91.0692
  0
LINE
  5
3BB
100
AcDbEntity
  8
47
  6
ByLayer
 62
  256
370
   -1
100
AcDbLine
 10
25.5
 20
91.0692
 11
25.5
 21
90.4308
  0
LINE
  5
3BC
100
AcDbEntity
  8
47
  6
ByLayer
 62
  256
370
   -1
100
AcDbLine
 10
25.5
 20
90.4308
 11
28.035
 21
90.75
  0
LINE
  5
3BD
100
AcDbEntity
  8
47
  6
ByLayer
 62
  256
370
   -1
100
AcDbLine
 10
28.035
 20
90.75
 11
25.5
 21
90.88
  0
LINE
  5
3BE
100
AcDbEntity
  8
47
  6
ByLayer
 62
  256
370
   -1
100
AcDbLine
 10
25.5
 20
90.62
 11
28.035
 21
90.75
  0
LINE
  5
3BF
100
AcDbEntity
  8
47
  6
ByLayer
 62
  256
370
   -1
100
AcDbLine
 10
28.035
 20
90.75
 11
25.5
 21
91.01000000000001
  0
LINE
  5
3C0
100
AcDbEntity
  8
47
  6
ByLayer
 62
  256
370
   -1
100
AcDbLine
 10
25.5
 20
90.48999999999999
 11
28.035
 21
90.75
  0
LINE
  5
3C1
100
AcDbEntity
  8
47
  6
ByLayer
 62
  256
370
   -1
100
AcDbLine
 10
22.3857
 20
93.30540000000001
 11
23.6185
 21
93.30540000000001
  0
LINE
  5
3C2
100
AcDbEntity
  8
47
  6
ByLayer
 62
  256
370
   -1
100
AcDbLine
 10
23.6185
 20
93.30540000000001
 11
23.6185
 21
92.99720000000001
  0
LINE
  5
3C3
100
AcDbEntity
  8
47
  6
ByLayer
 62
  256
370
   -1
100
AcDbLine
 10
23.6185
 20
92.99720000000001
 11
22.3857
 21
91.76439999999999
  0
LINE
  5
3C4
100
AcDbEntity
  8
47
  6
ByLayer
 62
  256
370
   -1
100
AcDbLine
 10
22.3857
 20
91.76439999999999
 11
22.3857
 21
91.4562
  0
LINE
  5
3C5
100
AcDbEntity
  8
47
  6
ByLayer
 62
  256
370
   -1
100
AcDbLine
 10
24.2273
 20
91.4562
 11
24.2273
 21
91.76439999999999
  0
LINE
  5
3C6
100
AcDbEntity
  8
47
  6
ByLayer
 62
  256
370
   -1
100
AcDbLine
 10
24.2273
 20
91.76439999999999
 11
24.5355
 21
91.76439999999999
  0
LINE
  5
3C7
100
AcDbEntity
  8
47
  6
ByLayer
 62
  256
370
   -1
100
AcDbLine
 10
24.5355
 20
91.76439999999999
 11
24.5355
 21
91.4562
  0
LINE
  5
3C8
100
AcDbEntity
  8
47
  6
ByLayer
 62
  256
370
   -1
100
AcDbLine
 10
24.5355
 20
91.4562
 11
24.2273
 21
91.4562
  0
LINE
  5
3C9
100
AcDbEntity
  8
47
  6
ByLayer
 62
  256
370
   -1
100
AcDbLine
 10
26.3809
 20
93.30540000000001
 11
25.7645
 21
92.99720000000001
  0
LINE
  5
3CA
100
AcDbEntity
  8
47
  6
ByLayer
 62
  256
370
   -1
100
AcDbLine
 10
25.7645
 20
92.99720000000001
 11
25.1481
 21
92.38079999999999
  0
LINE
  5
3CB
100
AcDbEntity
  8
47
  6
ByLayer
 62
  256
370
   -1
100
AcDbLine
 10
25.1481
 20
92.38079999999999
 11
25.1481
 21
91.76439999999999
  0
LINE
  5
3CC
100
AcDbEntity
  8
47
  6
ByLayer
 62
  256
370
   -1
100
AcDbLine
 10
25.1481
 20
91.76439999999999
 11
25.4563
 21
91.4562
  0
LINE
  5
3CD
100
AcDbEntity
  8
47
  6
ByLayer
 62
  256
370
   -1
100
AcDbLine
 10
25.4563
 20
91.4562
 11
26.0727
 21
91.4562
  0
LINE
  5
3CE
100
AcDbEntity
  8
47
  6
ByLayer
 62
  256
370
   -1
100
AcDbLine
 10
26.0727
 20
91.4562
 11
26.3809
 21
91.76439999999999
  0
LINE
  5
3CF
100
AcDbEntity
  8
47
  6
ByLayer
 62
  256
370
   -1
100
AcDbLine
 10
26.3809
 20
91.76439999999999
 11
26.3809
 21
92.07259999999999
  0
LINE
  5
3D0
100
AcDbEntity
  8
47
  6
ByLayer
 62
  256
370
   -1
100
AcDbLine
 10
26.3809
 20
92.07259999999999
 11
26.0727
 21
92.38079999999999
  0
LINE
  5
3D1
100
AcDbEntity
  8
47
  6
ByLayer
 62
  256
370
   -1
100
AcDbLine
 10
26.0727
 20
92.38079999999999
 11
25.1481
 21
92.38079999999999
  0
LINE
  5
3D2
100
AcDbEntity
  8
47
  6
ByLayer
 62
  256
370
   -1
100
AcDbLine
 10
5
 20
89
 11
5
 21
92.7
  0
LINE
  5
3D3
100
AcDbEntity
  8
47
  6
ByLayer
 62
  256
370
   -1
100
AcDbLine
 10
12.6
 20
89.25
 11
12.6
 21
92.7
  0
LINE
  5
3D4
100
AcDbEntity
  8
47
  6
ByLayer
 62
  256
370
   -1
100
AcDbLine
 10
5.065
 20
90.75
 11
12.535
 21
90.75
  0
LINE
  5
3D5
100
AcDbEntity
  8
47
  6
ByLayer
 62
  256
370
   -1
100
AcDbLine
 10
5.065
 20
90.75
 11
7.6
 21
91.0692
  0
LINE
  5
3D6
100
AcDbEntity
  8
47
  6
ByLayer
 62
  256
370
   -1
100
AcDbLine
 10
7.6
 20
91.0692
 11
7.6
 21
90.4308
  0
LINE
  5
3D7
100
AcDbEntity
  8
47
  6
ByLayer
 62
  256
370
   -1
100
AcDbLine
 10
7.6
 20
90.4308
 11
5.065
 21
90.75
  0
LINE
  5
3D8
100
AcDbEntity
  8
47
  6
ByLayer
 62
  256
370
   -1
100
AcDbLine
 10
5.065
 20
90.75
 11
7.6
 21
90.88
  0
LINE
  5
3D9
100
AcDbEntity
  8
47
  6
ByLayer
 62
  256
370
   -1
100
AcDbLine
 10
7.6
 20
90.62
 11
5.065
 21
90.75
  0
LINE
  5
3DA
100
AcDbEntity
  8
47
  6
ByLayer
 62
  256
370
   -1
100
AcDbLine
 10
5.065
 20
90.75
 11
7.6
 21
91.01000000000001
  0
LINE
  5
3DB
100
AcDbEntity
  8
47
  6
ByLayer
 62
  256
370
   -1
100
AcDbLine
 10
7.6
 20
90.48999999999999
 11
5.065
 21
90.75
  0
LINE
  5
3DC
100
AcDbEntity
  8
47
  6
ByLayer
 62
  256
370
   -1
100
AcDbLine
 10
12.535
 20
90.75
 11
10
 21
91.0692
  0
LINE
  5
3DD
100
AcDbEntity
  8
47
  6
ByLayer
 62
  256
370
   -1
100
AcDbLine
 10
10
 20
91.0692
 11
10
 21
90.4308
  0
LINE
  5
3DE
100
AcDbEntity
  8
47
  6
ByLayer
 62
  256
370
   -1
100
AcDbLine
 10
10
 20
90.4308
 11
12.535
 21
90.75
  0
LINE
  5
3DF
100
AcDbEntity
  8
47
  6
ByLayer
 62
  256
370
   -1
100
AcDbLine
 10
12.535
 20
90.75
 11
10
 21
90.88
  0
LINE
  5
3E0
100
AcDbEntity
  8
47
  6
ByLayer
 62
  256
370
   -1
100
AcDbLine
 10
10
 20
90.62
 11
12.535
 21
90.75
  0
LINE
  5
3E1
100
AcDbEntity
  8
47
  6
ByLayer
 62
  256
370
   -1
100
AcDbLine
 10
12.535
 20
90.75
 11
10
 21
91.01000000000001
  0
LINE
  5
3E2
100
AcDbEntity
  8
47
  6
ByLayer
 62
  256
370
   -1
100
AcDbLine
 10
10
 20
90.48999999999999
 11
12.535
 21
90.75
  0
LINE
  5
3E3
100
AcDbEntity
  8
47
  6
ByLayer
 62
  256
370
   -1
100
AcDbLine
 10
6.8857
 20
93.30540000000001
 11
8.118499999999999
 21
93.30540000000001
  0
LINE
  5
3E4
100
AcDbEntity
  8
47
  6
ByLayer
 62
  256
370
   -1
100
AcDbLine
 10
8.118499999999999
 20
93.30540000000001
 11
8.118499999999999
 21
92.99720000000001
  0
LINE
  5
3E5
100
AcDbEntity
  8
47
  6
ByLayer
 62
  256
370
   -1
100
AcDbLine
 10
8.118499999999999
 20
92.99720000000001
 11
6.8857
 21
91.76439999999999
  0
LINE
  5
3E6
100
AcDbEntity
  8
47
  6
ByLayer
 62
  256
370
   -1
100
AcDbLine
 10
6.8857
 20
91.76439999999999
 11
6.8857
 21
91.4562
  0
LINE
  5
3E7
100
AcDbEntity
  8
47
  6
ByLayer
 62
  256
370
   -1
100
AcDbLine
 10
8.7273
 20
91.4562
 11
8.7273
 21
91.76439999999999
  0
LINE
  5
3E8
100
AcDbEntity
  8
47
  6
ByLayer
 62
  256
370
   -1
100
AcDbLine
 10
8.7273
 20
91.76439999999999
 11
9.035500000000001
 21
91.76439999999999
  0
LINE
  5
3E9
100
AcDbEntity
  8
47
  6
ByLayer
 62
  256
370
   -1
100
AcDbLine
 10
9.035500000000001
 20
91.76439999999999
 11
9.035500000000001
 21
91.4562
  0
LINE
  5
3EA
100
AcDbEntity
  8
47
  6
ByLayer
 62
  256
370
   -1
100
AcDbLine
 10
9.035500000000001
 20
91.4562
 11
8.7273
 21
91.4562
  0
LINE
  5
3EB
100
AcDbEntity
  8
47
  6
ByLayer
 62
  256
370
   -1
100
AcDbLine
 10
10.8809
 20
93.30540000000001
 11
10.2645
 21
92.99720000000001
  0
LINE
  5
3EC
100
AcDbEntity
  8
47
  6
ByLayer
 62
  256
370
   -1
100
AcDbLine
 10
10.2645
 20
92.99720000000001
 11
9.648099999999999
 21
92.38079999999999
  0
LINE
  5
3ED
100
AcDbEntity
  8
47
  6
ByLayer
 62
  256
370
   -1
100
AcDbLine
 10
9.648099999999999
 20
92.38079999999999
 11
9.648099999999999
 21
91.76439999999999
  0
LINE
  5
3EE
100
AcDbEntity
  8
47
  6
ByLayer
 62
  256
370
   -1
100
AcDbLine
 10
9.648099999999999
 20
91.76439999999999
 11
9.956300000000001
 21
91.4562
  0
LINE
  5
3EF
100
AcDbEntity
  8
47
  6
ByLayer
 62
  256
370
   -1
100
AcDbLine
 10
9.956300000000001
 20
91.4562
 11
10.5727
 21
91.4562
  0
LINE
  5
3F0
100
AcDbEntity
  8
47
  6
ByLayer
 62
  256
370
   -1
100
AcDbLine
 10
10.5727
 20
91.4562
 11
10.8809
 21
91.76439999999999
  0
LINE
  5
3F1
100
AcDbEntity
  8
47
  6
ByLayer
 62
  256
370
   -1
100
AcDbLine
 10
10.8809
 20
91.76439999999999
 11
10.8809
 21
92.07259999999999
  0
LINE
  5
3F2
100
AcDbEntity
  8
47
  6
ByLayer
 62
  256
370
   -1
100
AcDbLine
 10
10.8809
 20
92.07259999999999
 11
10.5727
 21
92.38079999999999
  0
LINE
  5
3F3
100
AcDbEntity
  8
47
  6
ByLayer
 62
  256
370
   -1
100
AcDbLine
 10
10.5727
 20
92.38079999999999
 11
9.648099999999999
 21
92.38079999999999
  0
LINE
  5
3F4
100
AcDbEntity
  8
47
  6
ByLayer
 62
  256
370
   -1
100
AcDbLine
 10
0
 20
34.75
 11
0
 21
30.3
  0
LINE
  5
3F5
100
AcDbEntity
  8
47
  6
ByLayer
 62
  256
370
   -1
100
AcDbLine
 10
5
 20
35.25
 11
5
 21
30.3
  0
LINE
  5
3F6
100
AcDbEntity
  8
47
  6
ByLayer
 62
  256
370
   -1
100
AcDbLine
 10
0.065
 20
32.25
 11
4.935
 21
32.25
  0
LINE
  5
3F7
100
AcDbEntity
  8
47
  6
ByLayer
 62
  256
370
   -1
100
AcDbLine
 10
0.065
 20
32.25
 11
2.6
 21
32.5692
  0
LINE
  5
3F8
100
AcDbEntity
  8
47
  6
ByLayer
 62
  256
370
   -1
100
AcDbLine
 10
2.6
 20
32.5692
 11
2.6
 21
31.9308
  0
LINE
  5
3F9
100
AcDbEntity
  8
47
  6
ByLayer
 62
  256
370
   -1
100
AcDbLine
 10
2.6
 20
31.9308
 11
0.065
 21
32.25
  0
LINE
  5
3FA
100
AcDbEntity
  8
47
  6
ByLayer
 62
  256
370
   -1
100
AcDbLine
 10
0.065
 20
32.25
 11
2.6
 21
32.38
  0
LINE
  5
3FB
100
AcDbEntity
  8
47
  6
ByLayer
 62
  256
370
   -1
100
AcDbLine
 10
2.6
 20
32.12
 11
0.065
 21
32.25
  0
LINE
  5
3FC
100
AcDbEntity
  8
47
  6
ByLayer
 62
  256
370
   -1
100
AcDbLine
 10
0.065
 20
32.25
 11
2.6
 21
32.51
  0
LINE
  5
3FD
100
AcDbEntity
  8
47
  6
ByLayer
 62
  256
370
   -1
100
AcDbLine
 10
2.6
 20
31.99
 11
0.065
 21
32.25
  0
LINE
  5
3FE
100
AcDbEntity
  8
47
  6
ByLayer
 62
  256
370
   -1
100
AcDbLine
 10
4.935
 20
32.25
 11
2.4
 21
32.5692
  0
LINE
  5
3FF
100
AcDbEntity
  8
47
  6
ByLayer
 62
  256
370
   -1
100
AcDbLine
 10
2.4
 20
32.5692
 11
2.4
 21
31.9308
  0
LINE
  5
400
100
AcDbEntity
  8
47
  6
ByLayer
 62
  256
370
   -1
100
AcDbLine
 10
2.4
 20
31.9308
 11
4.935
 21
32.25
  0
LINE
  5
401
100
AcDbEntity
  8
47
  6
ByLayer
 62
  256
370
   -1
100
AcDbLine
 10
4.935
 20
32.25
 11
2.4
 21
32.38
  0
LINE
  5
402
100
AcDbEntity
  8
47
  6
ByLayer
 62
  256
370
   -1
100
AcDbLine
 10
2.4
 20
32.12
 11
4.935
 21
32.25
  0
LINE
  5
403
100
AcDbEntity
  8
47
  6
ByLayer
 62
  256
370
   -1
100
AcDbLine
 10
4.935
 20
32.25
 11
2.4
 21
32.51
  0
LINE
  5
404
100
AcDbEntity
  8
47
  6
ByLayer
 62
  256
370
   -1
100
AcDbLine
 10
2.4
 20
31.99
 11
4.935
 21
32.25
  0
LINE
  5
405
100
AcDbEntity
  8
47
  6
ByLayer
 62
  256
370
   -1
100
AcDbLine
 10
3.0101
 20
34.8054
 11
1.7773
 21
34.8054
  0
LINE
  5
406
100
AcDbEntity
  8
47
  6
ByLayer
 62
  256
370
   -1
100
AcDbLine
 10
1.7773
 20
34.8054
 11
1.7773
 21
33.8808
  0
LINE
  5
407
100
AcDbEntity
  8
47
  6
ByLayer
 62
  256
370
   -1
100
AcDbLine
 10
1.7773
 20
33.8808
 11
2.3937
 21
34.189
  0
LINE
  5
408
100
AcDbEntity
  8
47
  6
ByLayer
 62
  256
370
   -1
100
AcDbLine
 10
2.3937
 20
34.189
 11
2.7019
 21
34.189
  0
LINE
  5
409
100
AcDbEntity
  8
47
  6
ByLayer
 62
  256
370
   -1
100
AcDbLine
 10
2.7019
 20
34.189
 11
3.0101
 21
33.8808
  0
LINE
  5
40A
100
AcDbEntity
  8
47
  6
ByLayer
 62
  256
370
   -1
100
AcDbLine
 10
3.0101
 20
33.8808
 11
3.0101
 21
33.2644
  0
LINE
  5
40B
100
AcDbEntity
  8
47
  6
ByLayer
 62
  256
370
   -1
100
AcDbLine
 10
3.0101
 20
33.2644
 11
2.7019
 21
32.9562
  0
LINE
  5
40C
100
AcDbEntity
  8
47
  6
ByLayer
 62
  256
370
   -1
100
AcDbLine
 10
2.7019
 20
32.9562
 11
2.0855
 21
32.9562
  0
LINE
  5
40D
100
AcDbEntity
  8
47
  6
ByLayer
 62
  256
370
   -1
100
AcDbLine
 10
2.0855
 20
32.9562
 11
1.7773
 21
33.2644
  0
LINE
  5
40E
100
AcDbEntity
  8
47
  6
ByLayer
 62
  256
370
   -1
100
AcDbLine
 10
28.15
 20
0
 11
31.85
 21
0
  0
LINE
  5
40F
100
AcDbEntity
  8
47
  6
ByLayer
 62
  256
370
   -1
100
AcDbLine
 10
26.7
 20
24.2
 11
31.85
 21
24.2
  0
LINE
  5
410
100
AcDbEntity
  8
47
  6
ByLayer
 62
  256
370
   -1
100
AcDbLine
 10
29.9
 20
0.065
 11
29.9
 21
24.135
  0
LINE
  5
411
100
AcDbEntity
  8
47
  6
ByLayer
 62
  256
370
   -1
100
AcDbLine
 10
29.9
 20
0.065
 11
29.5808
 21
2.6
  0
LINE
  5
412
100
AcDbEntity
  8
47
  6
ByLayer
 62
  256
370
   -1
100
AcDbLine
 10
29.5808
 20
2.6
 11
30.2192
 21
2.6
  0
LINE
  5
413
100
AcDbEntity
  8
47
  6
ByLayer
 62
  256
370
   -1
100
AcDbLine
 10
30.2192
 20
2.6
 11
29.9
 21
0.065
  0
LINE
  5
414
100
AcDbEntity
  8
47
  6
ByLayer
 62
  256
370
   -1
100
AcDbLine
 10
29.9
 20
0.065
 11
29.77
 21
2.6
  0
LINE
  5
415
100
AcDbEntity
  8
47
  6
ByLayer
 62
  256
370
   -1
100
AcDbLine
 10
30.03
 20
2.6
 11
29.9
 21
0.065
  0
LINE
  5
416
100
AcDbEntity
  8
47
  6
ByLayer
 62
  256
370
   -1
100
AcDbLine
 10
29.9
 20
0.065
 11
29.64
 21
2.6
  0
LINE
  5
417
100
AcDbEntity
  8
47
  6
ByLayer
 62
  256
370
   -1
100
AcDbLine
 10
30.16
 20
2.6
 11
29.9
 21
0.065
  0
LINE
  5
418
100
AcDbEntity
  8
47
  6
ByLayer
 62
  256
370
   -1
100
AcDbLine
 10
29.9
 20
24.135
 11
29.5808
 21
21.6
  0
LINE
  5
419
100
AcDbEntity
  8
47
  6
ByLayer
 62
  256
370
   -1
100
AcDbLine
 10
29.5808
 20
21.6
 11
30.2192
 21
21.6
  0
LINE
  5
41A
100
AcDbEntity
  8
47
  6
ByLayer
 62
  256
370
   -1
100
AcDbLine
 10
30.2192
 20
21.6
 11
29.9
 21
24.135
  0
LINE
  5
41B
100
AcDbEntity
  8
47
  6
ByLayer
 62
  256
370
   -1
100
AcDbLine
 10
29.9
 20
24.135
 11
29.77
 21
21.6
  0
LINE
  5
41C
100
AcDbEntity
  8
47
  6
ByLayer
 62
  256
370
   -1
100
AcDbLine
 10
30.03
 20
21.6
 11
29.9
 21
24.135
  0
LINE
  5
41D
100
AcDbEntity
  8
47
  6
ByLayer
 62
  256
370
   -1
100
AcDbLine
 10
29.9
 20
24.135
 11
29.64
 21
21.6
  0
LINE
  5
41E
100
AcDbEntity
  8
47
  6
ByLayer
 62
  256
370
   -1
100
AcDbLine
 10
30.16
 20
21.6
 11
29.9
 21
24.135
  0
LINE
  5
41F
100
AcDbEntity
  8
47
  6
ByLayer
 62
  256
370
   -1
100
AcDbLine
 10
29.1684
 20
10.6112
 11
29.1684
 21
9.4123
  0
LINE
  5
420
100
AcDbEntity
  8
47
  6
ByLayer
 62
  256
370
   -1
100
AcDbLine
 10
29.1684
 20
9.4123
 11
27.9695
 21
10.6112
  0
LINE
  5
421
100
AcDbEntity
  8
47
  6
ByLayer
 62
  256
370
   -1
100
AcDbLine
 10
27.9695
 20
10.6112
 11
27.6698
 21
10.6112
  0
LINE
  5
422
100
AcDbEntity
  8
47
  6
ByLayer
 62
  256
370
   -1
100
AcDbLine
 10
27.6698
 20
10.6112
 11
27.3701
 21
10.3114
  0
LINE
  5
423
100
AcDbEntity
  8
47
  6
ByLayer
 62
  256
370
   -1
100
AcDbLine
 10
27.3701
 20
10.3114
 11
27.3701
 21
9.712
  0
LINE
  5
424
100
AcDbEntity
  8
47
  6
ByLayer
 62
  256
370
   -1
100
AcDbLine
 10
27.3701
 20
9.712
 11
27.6698
 21
9.4123
  0
LINE
  5
425
100
AcDbEntity
  8
47
  6
ByLayer
 62
  256
370
   -1
100
AcDbLine
 10
29.1684
 20
12.153
 11
27.3701
 21
12.153
  0
LINE
  5
426
100
AcDbEntity
  8
47
  6
ByLayer
 62
  256
370
   -1
100
AcDbLine
 10
27.3701
 20
12.153
 11
28.2692
 21
11.2538
  0
LINE
  5
427
100
AcDbEntity
  8
47
  6
ByLayer
 62
  256
370
   -1
100
AcDbLine
 10
28.2692
 20
11.2538
 11
28.2692
 21
12.4527
  0
LINE
  5
428
100
AcDbEntity
  8
47
  6
ByLayer
 62
  256
370
   -1
100
AcDbLine
 10
29.1684
 20
13.0954
 11
28.8687
 21
13.0954
  0
LINE
  5
429
100
AcDbEntity
  8
47
  6
ByLayer
 62
  256
370
   -1
100
AcDbLine
 10
28.8687
 20
13.0954
 11
28.8687
 21
13.3951
  0
LINE
  5
42A
100
AcDbEntity
  8
47
  6
ByLayer
 62
  256
370
   -1
100
AcDbLine
 10
28.8687
 20
13.3951
 11
29.1684
 21
13.3951
  0
LINE
  5
42B
100
AcDbEntity
  8
47
  6
ByLayer
 62
  256
370
   -1
100
AcDbLine
 10
29.1684
 20
13.3951
 11
29.1684
 21
13.0954
  0
LINE
  5
42C
100
AcDbEntity
  8
47
  6
ByLayer
 62
  256
370
   -1
100
AcDbLine
 10
29.1684
 20
15.2151
 11
29.1684
 21
14.0162
  0
LINE
  5
42D
100
AcDbEntity
  8
47
  6
ByLayer
 62
  256
370
   -1
100
AcDbLine
 10
29.1684
 20
14.0162
 11
27.9695
 21
15.2151
  0
LINE
  5
42E
100
AcDbEntity
  8
47
  6
ByLayer
 62
  256
370
   -1
100
AcDbLine
 10
27.9695
 20
15.2151
 11
27.6698
 21
15.2151
  0
LINE
  5
42F
100
AcDbEntity
  8
47
  6
ByLayer
 62
  256
370
   -1
100
AcDbLine
 10
27.6698
 20
15.2151
 11
27.3701
 21
14.9154
  0
LINE
  5
430
100
AcDbEntity
  8
47
  6
ByLayer
 62
  256
370
   -1
100
AcDbLine
 10
27.3701
 20
14.9154
 11
27.3701
 21
14.3159
  0
LINE
  5
431
100
AcDbEntity
  8
47
  6
ByLayer
 62
  256
370
   -1
100
AcDbLine
 10
27.3701
 20
14.3159
 11
27.6698
 21
14.0162
  0
LINE
  5
432
100
AcDbEntity
  8
47
  6
ByLayer
 62
  256
370
   -1
100
AcDbLine
 10
12.6
 20
91.75
 11
12.6
 21
88.8
  0
LINE
  5
433
100
AcDbEntity
  8
47
  6
ByLayer
 62
  256
370
   -1
100
AcDbLine
 10
20.5
 20
92
 11
20.5
 21
88.8
  0
LINE
  5
434
100
AcDbEntity
  8
47
  6
ByLayer
 62
  256
370
   -1
100
AcDbLine
 10
12.665
 20
90.75
 11
20.435
 21
90.75
  0
LINE
  5
435
100
AcDbEntity
  8
47
  6
ByLayer
 62
  256
370
   -1
100
AcDbLine
 10
12.665
 20
90.75
 11
15.2
 21
91.0692
  0
LINE
  5
436
100
AcDbEntity
  8
47
  6
ByLayer
 62
  256
370
   -1
100
AcDbLine
 10
15.2
 20
91.0692
 11
15.2
 21
90.4308
  0
LINE
  5
437
100
AcDbEntity
  8
47
  6
ByLayer
 62
  256
370
   -1
100
AcDbLine
 10
15.2
 20
90.4308
 11
12.665
 21
90.75
  0
LINE
  5
438
100
AcDbEntity
  8
47
  6
ByLayer
 62
  256
370
   -1
100
AcDbLine
 10
12.665
 20
90.75
 11
15.2
 21
90.88
  0
LINE
  5
439
100
AcDbEntity
  8
47
  6
ByLayer
 62
  256
370
   -1
100
AcDbLine
 10
15.2
 20
90.62
 11
12.665
 21
90.75
  0
LINE
  5
43A
100
AcDbEntity
  8
47
  6
ByLayer
 62
  256
370
   -1
100
AcDbLine
 10
12.665
 20
90.75
 11
15.2
 21
91.01000000000001
  0
LINE
  5
43B
100
AcDbEntity
  8
47
  6
ByLayer
 62
  256
370
   -1
100
AcDbLine
 10
15.2
 20
90.48999999999999
 11
12.665
 21
90.75
  0
LINE
  5
43C
100
AcDbEntity
  8
47
  6
ByLayer
 62
  256
370
   -1
100
AcDbLine
 10
20.435
 20
90.75
 11
17.9
 21
91.0692
  0
LINE
  5
43D
100
AcDbEntity
  8
47
  6
ByLayer
 62
  256
370
   -1
100
AcDbLine
 10
17.9
 20
91.0692
 11
17.9
 21
90.4308
  0
LINE
  5
43E
100
AcDbEntity
  8
47
  6
ByLayer
 62
  256
370
   -1
100
AcDbLine
 10
17.9
 20
90.4308
 11
20.435
 21
90.75
  0
LINE
  5
43F
100
AcDbEntity
  8
47
  6
ByLayer
 62
  256
370
   -1
100
AcDbLine
 10
20.435
 20
90.75
 11
17.9
 21
90.88
  0
LINE
  5
440
100
AcDbEntity
  8
47
  6
ByLayer
 62
  256
370
   -1
100
AcDbLine
 10
17.9
 20
90.62
 11
20.435
 21
90.75
  0
LINE
  5
441
100
AcDbEntity
  8
47
  6
ByLayer
 62
  256
370
   -1
100
AcDbLine
 10
20.435
 20
90.75
 11
17.9
 21
91.01000000000001
  0
LINE
  5
442
100
AcDbEntity
  8
47
  6
ByLayer
 62
  256
370
   -1
100
AcDbLine
 10
17.9
 20
90.48999999999999
 11
20.435
 21
90.75
  0
LINE
  5
443
100
AcDbEntity
  8
47
  6
ByLayer
 62
  256
370
   -1
100
AcDbLine
 10
14.6357
 20
93.30540000000001
 11
15.8685
 21
93.30540000000001
  0
LINE
  5
444
100
AcDbEntity
  8
47
  6
ByLayer
 62
  256
370
   -1
100
AcDbLine
 10
15.8685
 20
93.30540000000001
 11
15.8685
 21
92.99720000000001
  0
LINE
  5
445
100
AcDbEntity
  8
47
  6
ByLayer
 62
  256
370
   -1
100
AcDbLine
 10
15.8685
 20
92.99720000000001
 11
14.6357
 21
91.76439999999999
  0
LINE
  5
446
100
AcDbEntity
  8
47
  6
ByLayer
 62
  256
370
   -1
100
AcDbLine
 10
14.6357
 20
91.76439999999999
 11
14.6357
 21
91.4562
  0
LINE
  5
447
100
AcDbEntity
  8
47
  6
ByLayer
 62
  256
370
   -1
100
AcDbLine
 10
16.4773
 20
91.4562
 11
16.4773
 21
91.76439999999999
  0
LINE
  5
448
100
AcDbEntity
  8
47
  6
ByLayer
 62
  256
370
   -1
100
AcDbLine
 10
16.4773
 20
91.76439999999999
 11
16.7855
 21
91.76439999999999
  0
LINE
  5
449
100
AcDbEntity
  8
47
  6
ByLayer
 62
  256
370
   -1
100
AcDbLine
 10
16.7855
 20
91.76439999999999
 11
16.7855
 21
91.4562
  0
LINE
  5
44A
100
AcDbEntity
  8
47
  6
ByLayer
 62
  256
370
   -1
100
AcDbLine
 10
16.7855
 20
91.4562
 11
16.4773
 21
91.4562
  0
LINE
  5
44B
100
AcDbEntity
  8
47
  6
ByLayer
 62
  256
370
   -1
100
AcDbLine
 10
17.3981
 20
91.76439999999999
 11
17.7063
 21
91.4562
  0
LINE
  5
44C
100
AcDbEntity
  8
47
  6
ByLayer
 62
  256
370
   -1
100
AcDbLine
 10
17.7063
 20
91.4562
 11
18.3227
 21
91.4562
  0
LINE
  5
44D
100
AcDbEntity
  8
47
  6
ByLayer
 62
  256
370
   -1
100
AcDbLine
 10
18.3227
 20
91.4562
 11
18.6309
 21
91.76439999999999
  0
LINE
  5
44E
100
AcDbEntity
  8
47
  6
ByLayer
 62
  256
370
   -1
100
AcDbLine
 10
18.6309
 20
91.76439999999999
 11
18.6309
 21
92.99720000000001
  0
LINE
  5
44F
100
AcDbEntity
  8
47
  6
ByLayer
 62
  256
370
   -1
100
AcDbLine
 10
18.6309
 20
92.99720000000001
 11
18.3227
 21
93.30540000000001
  0
LINE
  5
450
100
AcDbEntity
  8
47
  6
ByLayer
 62
  256
370
   -1
100
AcDbLine
 10
18.3227
 20
93.30540000000001
 11
17.7063
 21
93.30540000000001
  0
LINE
  5
451
100
AcDbEntity
  8
47
  6
ByLayer
 62
  256
370
   -1
100
AcDbLine
 10
17.7063
 20
93.30540000000001
 11
17.3981
 21
92.99720000000001
  0
LINE
  5
452
100
AcDbEntity
  8
47
  6
ByLayer
 62
  256
370
   -1
100
AcDbLine
 10
17.3981
 20
92.99720000000001
 11
17.3981
 21
92.68899999999999
  0
LINE
  5
453
100
AcDbEntity
  8
47
  6
ByLayer
 62
  256
370
   -1
100
AcDbLine
 10
17.3981
 20
92.68899999999999
 11
17.7063
 21
92.38079999999999
  0
LINE
  5
454
100
AcDbEntity
  8
47
  6
ByLayer
 62
  256
370
   -1
100
AcDbLine
 10
17.7063
 20
92.38079999999999
 11
18.6309
 21
92.38079999999999
  0
CIRCLE
  5
455
100
AcDbEntity
  8
20
  6
ByLayer
 62
  256
370
   -1
100
AcDbCircle
 10
17.5
 20
108.25
 40
1.5
  0
CIRCLE
  5
456
100
AcDbEntity
  8
20
  6
ByLayer
 62
  256
370
   -1
100
AcDbCircle
 10
17.5
 20
3.25
 40
1.5
  0
CIRCLE
  5
457
100
AcDbEntity
  8
20
  6
ByLayer
 62
  256
370
   -1
100
AcDbCircle
 10
7.5
 20
13
 40
1.75
  0
CIRCLE
  5
458
100
AcDbEntity
  8
20
  6
ByLayer
 62
  256
370
   -1
100
AcDbCircle
 10
7.5
 20
97
 40
1.75
  0
CIRCLE
  5
459
100
AcDbEntity
  8
20
  6
ByLayer
 62
  256
370
   -1
100
AcDbCircle
 10
7.5
 20
97
 40
2.95
  0
CIRCLE
  5
45A
100
AcDbEntity
  8
20
  6
ByLayer
 62
  256
370
   -1
100
AcDbCircle
 10
7.5
 20
13
 40
2.95
  0
ENDSEC
  0
SECTION
  2
OBJECTS
  0
DICTIONARY
  5
C
330
0
100
AcDbDictionary
281
    1
  3
ACAD_GROUP
350
D
  0
DICTIONARY
  5
D
330
C
100
AcDbDictionary
281
    1
  0
ENDSEC
  0
EOF
