%TF.GenerationSoftware,KiCad,Pcbnew,7.0.10-7.0.10~ubuntu22.04.1*%
%TF.CreationDate,2024-01-19T15:41:50+01:00*%
%TF.ProjectId,EEZ DIB MIO168,45455a20-4449-4422-904d-494f3136382e,r3B1*%
%TF.SameCoordinates,Original*%
%TF.FileFunction,Soldermask,Bot*%
%TF.FilePolarity,Negative*%
%FSLAX46Y46*%
G04 Gerber Fmt 4.6, Leading zero omitted, Abs format (unit mm)*
G04 Created by KiCad (PCBNEW 7.0.10-7.0.10~ubuntu22.04.1) date 2024-01-19 15:41:50*
%MOMM*%
%LPD*%
G01*
G04 APERTURE LIST*
G04 Aperture macros list*
%AMRoundRect*
0 Rectangle with rounded corners*
0 $1 Rounding radius*
0 $2 $3 $4 $5 $6 $7 $8 $9 X,Y pos of 4 corners*
0 Add a 4 corners polygon primitive as box body*
4,1,4,$2,$3,$4,$5,$6,$7,$8,$9,$2,$3,0*
0 Add four circle primitives for the rounded corners*
1,1,$1+$1,$2,$3*
1,1,$1+$1,$4,$5*
1,1,$1+$1,$6,$7*
1,1,$1+$1,$8,$9*
0 Add four rect primitives between the rounded corners*
20,1,$1+$1,$2,$3,$4,$5,0*
20,1,$1+$1,$4,$5,$6,$7,0*
20,1,$1+$1,$6,$7,$8,$9,0*
20,1,$1+$1,$8,$9,$2,$3,0*%
%AMFreePoly0*
4,1,25,0.546036,1.258373,0.550938,1.253882,1.253882,0.550938,1.275910,0.503697,1.276200,0.497056,1.276200,-0.497056,1.258373,-0.546036,1.253882,-0.550938,0.550938,-1.253882,0.503697,-1.275910,0.497056,-1.276200,-0.497056,-1.276200,-0.546036,-1.258373,-0.550938,-1.253882,-1.253882,-0.550938,-1.275910,-0.503697,-1.276200,-0.497056,-1.276200,0.497056,-1.258373,0.546036,-1.253882,0.550938,
-0.550938,1.253882,-0.503697,1.275910,-0.497056,1.276200,0.497056,1.276200,0.546036,1.258373,0.546036,1.258373,$1*%
%AMFreePoly1*
4,1,25,0.359640,0.808373,0.364542,0.803882,0.803882,0.364542,0.825910,0.317301,0.826200,0.310660,0.826200,-0.310660,0.808373,-0.359640,0.803882,-0.364542,0.364542,-0.803882,0.317301,-0.825910,0.310660,-0.826200,-0.310660,-0.826200,-0.359640,-0.808373,-0.364542,-0.803882,-0.803882,-0.364542,-0.825910,-0.317301,-0.826200,-0.310660,-0.826200,0.310660,-0.808373,0.359640,-0.803882,0.364542,
-0.364542,0.803882,-0.317301,0.825910,-0.310660,0.826200,0.310660,0.826200,0.359640,0.808373,0.359640,0.808373,$1*%
%AMFreePoly2*
4,1,25,0.297508,0.658373,0.302410,0.653882,0.653882,0.302410,0.675910,0.255169,0.676200,0.248528,0.676200,-0.248528,0.658373,-0.297508,0.653882,-0.302410,0.302410,-0.653882,0.255169,-0.675910,0.248528,-0.676200,-0.248528,-0.676200,-0.297508,-0.658373,-0.302410,-0.653882,-0.653882,-0.302410,-0.675910,-0.255169,-0.676200,-0.248528,-0.676200,0.248528,-0.658373,0.297508,-0.653882,0.302410,
-0.302410,0.653882,-0.255169,0.675910,-0.248528,0.676200,0.248528,0.676200,0.297508,0.658373,0.297508,0.658373,$1*%
%AMFreePoly3*
4,1,17,0.307927,0.679901,0.679901,0.307927,0.698500,0.263026,0.698500,-0.263026,0.679901,-0.307927,0.307927,-0.679901,0.263026,-0.698500,-0.263026,-0.698500,-0.307927,-0.679901,-0.679901,-0.307927,-0.698500,-0.263026,-0.698500,0.263026,-0.679901,0.307927,-0.307927,0.679901,-0.263026,0.698500,0.263026,0.698500,0.307927,0.679901,0.307927,0.679901,$1*%
%AMFreePoly4*
4,1,17,0.355561,0.794901,0.794901,0.355561,0.813500,0.310660,0.813500,-0.310660,0.794901,-0.355561,0.355561,-0.794901,0.310660,-0.813500,-0.310660,-0.813500,-0.355561,-0.794901,-0.794901,-0.355561,-0.813500,-0.310660,-0.813500,0.310660,-0.794901,0.355561,-0.355561,0.794901,-0.310660,0.813500,0.310660,0.813500,0.355561,0.794901,0.355561,0.794901,$1*%
%AMFreePoly5*
4,1,17,0.448759,1.019901,1.019901,0.448759,1.038500,0.403858,1.038500,-0.403858,1.019901,-0.448759,0.448759,-1.019901,0.403858,-1.038500,-0.403858,-1.038500,-0.448759,-1.019901,-1.019901,-0.448759,-1.038500,-0.403858,-1.038500,0.403858,-1.019901,0.448759,-0.448759,1.019901,-0.403858,1.038500,0.403858,1.038500,0.448759,1.019901,0.448759,1.019901,$1*%
G04 Aperture macros list end*
%ADD10C,1.270000*%
%ADD11FreePoly0,270.000000*%
%ADD12C,2.227000*%
%ADD13RoundRect,0.076200X-0.750000X-0.750000X0.750000X-0.750000X0.750000X0.750000X-0.750000X0.750000X0*%
%ADD14FreePoly1,0.000000*%
%ADD15RoundRect,0.076200X-0.600000X-0.600000X0.600000X-0.600000X0.600000X0.600000X-0.600000X0.600000X0*%
%ADD16FreePoly2,0.000000*%
%ADD17C,1.397000*%
%ADD18FreePoly3,90.000000*%
%ADD19C,5.652400*%
%ADD20RoundRect,0.063500X0.750000X0.750000X-0.750000X0.750000X-0.750000X-0.750000X0.750000X-0.750000X0*%
%ADD21FreePoly4,180.000000*%
%ADD22FreePoly5,180.000000*%
%ADD23C,2.077000*%
%ADD24C,2.387600*%
%ADD25C,0.990600*%
G04 APERTURE END LIST*
D10*
%TO.C,TP12*%
X99060000Y-116840000D03*
%TD*%
%TO.C,TP11*%
X99060000Y-109220000D03*
%TD*%
%TO.C,TP20*%
X83820000Y-101600000D03*
%TD*%
%TO.C,TP19*%
X83820000Y-99060000D03*
%TD*%
%TO.C,TP18*%
X83820000Y-93980000D03*
%TD*%
%TO.C,TP17*%
X83820000Y-91440000D03*
%TD*%
%TO.C,TP16*%
X83820000Y-86360000D03*
%TD*%
%TO.C,TP15*%
X83820000Y-83820000D03*
%TD*%
%TO.C,TP14*%
X83820000Y-78740000D03*
%TD*%
%TO.C,TP13*%
X83820000Y-76200000D03*
%TD*%
%TO.C,TP3*%
X203200000Y-139700000D03*
%TD*%
%TO.C,TP10*%
X187960000Y-76200000D03*
%TD*%
%TO.C,TP9*%
X187960000Y-73660000D03*
%TD*%
%TO.C,TP8*%
X187960000Y-71120000D03*
%TD*%
%TO.C,TP1*%
X198120000Y-139700000D03*
%TD*%
%TO.C,TP2*%
X200660000Y-139700000D03*
%TD*%
%TO.C,TP4*%
X218440000Y-101600000D03*
%TD*%
%TO.C,TP6*%
X218440000Y-106680000D03*
%TD*%
%TO.C,TP5*%
X218440000Y-104140000D03*
%TD*%
D11*
%TO.C,J1*%
X213677100Y-146915600D03*
X208597100Y-146915600D03*
%TD*%
D12*
%TO.C,X4*%
X81100000Y-100835000D03*
X81100000Y-97025000D03*
X81100000Y-93215000D03*
X81100000Y-89405000D03*
X81100000Y-85595000D03*
X81100000Y-81785000D03*
X81100000Y-77975000D03*
X81100000Y-74165000D03*
%TD*%
D13*
%TO.C,X1*%
X129980000Y-142540000D03*
D14*
X129980000Y-140000000D03*
X132520000Y-142540000D03*
X132520000Y-140000000D03*
X135060000Y-142540000D03*
X135060000Y-140000000D03*
X137600000Y-142540000D03*
X137600000Y-140000000D03*
X140140000Y-142540000D03*
X140140000Y-140000000D03*
X142680000Y-142540000D03*
X142680000Y-140000000D03*
X145220000Y-142540000D03*
X145220000Y-140000000D03*
X147760000Y-142540000D03*
X147760000Y-140000000D03*
X150300000Y-142540000D03*
X150300000Y-140000000D03*
X152840000Y-142540000D03*
X152840000Y-140000000D03*
X155380000Y-142540000D03*
X155380000Y-140000000D03*
X157920000Y-142540000D03*
X157920000Y-140000000D03*
X160460000Y-142540000D03*
X160460000Y-140000000D03*
X163000000Y-142540000D03*
X163000000Y-140000000D03*
%TD*%
D15*
%TO.C,X7*%
X136500000Y-66500000D03*
D16*
X136500000Y-64500000D03*
X138500000Y-66500000D03*
X138500000Y-64500000D03*
X140500000Y-66500000D03*
X140500000Y-64500000D03*
X142500000Y-66500000D03*
X142500000Y-64500000D03*
X144500000Y-66500000D03*
X144500000Y-64500000D03*
%TD*%
D17*
%TO.C,JP3*%
X96869100Y-130532600D03*
X98869100Y-130532600D03*
D18*
X100869100Y-130532600D03*
%TD*%
D19*
%TO.C,KK1*%
X86500000Y-63000000D03*
%TD*%
D17*
%TO.C,JP2*%
X96869100Y-125706600D03*
X98869100Y-125706600D03*
D18*
X100869100Y-125706600D03*
%TD*%
D15*
%TO.C,X5*%
X116500000Y-66500000D03*
D16*
X116500000Y-64500000D03*
X118500000Y-66500000D03*
X118500000Y-64500000D03*
X120500000Y-66500000D03*
X120500000Y-64500000D03*
X122500000Y-66500000D03*
X122500000Y-64500000D03*
X124500000Y-66500000D03*
X124500000Y-64500000D03*
%TD*%
D20*
%TO.C,X8*%
X160520000Y-134500000D03*
D21*
X160520000Y-131960000D03*
X157980000Y-134500000D03*
X157980000Y-131960000D03*
X155440000Y-134500000D03*
X155440000Y-131960000D03*
X152900000Y-134500000D03*
X152900000Y-131960000D03*
X150360000Y-134500000D03*
X150360000Y-131960000D03*
X147820000Y-134500000D03*
X147820000Y-131960000D03*
X145280000Y-134500000D03*
X145280000Y-131960000D03*
X142740000Y-134500000D03*
X142740000Y-131960000D03*
X140200000Y-134500000D03*
X140200000Y-131960000D03*
X137660000Y-134500000D03*
X137660000Y-131960000D03*
X135120000Y-134500000D03*
X135120000Y-131960000D03*
X132580000Y-134500000D03*
X132580000Y-131960000D03*
X130040000Y-134500000D03*
X130040000Y-131960000D03*
X127500000Y-134500000D03*
X127500000Y-131960000D03*
%TD*%
D20*
%TO.C,X6*%
X160520000Y-72500000D03*
D21*
X160520000Y-69960000D03*
X157980000Y-72500000D03*
X157980000Y-69960000D03*
X155440000Y-72500000D03*
X155440000Y-69960000D03*
X152900000Y-72500000D03*
X152900000Y-69960000D03*
X150360000Y-72500000D03*
X150360000Y-69960000D03*
X147820000Y-72500000D03*
X147820000Y-69960000D03*
X145280000Y-72500000D03*
X145280000Y-69960000D03*
X142740000Y-72500000D03*
X142740000Y-69960000D03*
X140200000Y-72500000D03*
X140200000Y-69960000D03*
X137660000Y-72500000D03*
X137660000Y-69960000D03*
X135120000Y-72500000D03*
X135120000Y-69960000D03*
X132580000Y-72500000D03*
X132580000Y-69960000D03*
X130040000Y-72500000D03*
X130040000Y-69960000D03*
X127500000Y-72500000D03*
X127500000Y-69960000D03*
%TD*%
D22*
%TO.C,X3*%
X93850000Y-106165000D03*
D23*
X93850000Y-109975000D03*
X93850000Y-113785000D03*
X93850000Y-117595000D03*
X93850000Y-121405000D03*
X93850000Y-125215000D03*
X93850000Y-129025000D03*
X93850000Y-132835000D03*
X81150000Y-106165000D03*
X81150000Y-109975000D03*
X81150000Y-113785000D03*
X81150000Y-117595000D03*
X81150000Y-121405000D03*
X81150000Y-125215000D03*
X81150000Y-129025000D03*
X81150000Y-132835000D03*
%TD*%
D24*
%TO.C,X2*%
X182816500Y-77279500D03*
D25*
X182816500Y-74739500D03*
D24*
X182816500Y-72199500D03*
X179641500Y-77279500D03*
X179641500Y-72199500D03*
D25*
X177736500Y-75755500D03*
X177736500Y-73723500D03*
%TD*%
D10*
%TO.C,TP7*%
X218440000Y-109220000D03*
%TD*%
D19*
%TO.C,KK2*%
X86500000Y-147000000D03*
%TD*%
M02*
