%TF.GenerationSoftware,KiCad,Pcbnew,7.0.10-7.0.10~ubuntu22.04.1*%
%TF.CreationDate,2024-01-19T15:41:50+01:00*%
%TF.ProjectId,EEZ DIB MIO168,45455a20-4449-4422-904d-494f3136382e,r3B1*%
%TF.SameCoordinates,Original*%
%TF.FileFunction,Copper,L4,Bot*%
%TF.FilePolarity,Positive*%
%FSLAX46Y46*%
G04 Gerber Fmt 4.6, Leading zero omitted, Abs format (unit mm)*
G04 Created by KiCad (PCBNEW 7.0.10-7.0.10~ubuntu22.04.1) date 2024-01-19 15:41:50*
%MOMM*%
%LPD*%
G01*
G04 APERTURE LIST*
G04 Aperture macros list*
%AMOutline5P*
0 Free polygon, 5 corners , with rotation*
0 The origin of the aperture is its center*
0 number of corners: always 5*
0 $1 to $10 corner X, Y*
0 $11 Rotation angle, in degrees counterclockwise*
0 create outline with 5 corners*
4,1,5,$1,$2,$3,$4,$5,$6,$7,$8,$9,$10,$1,$2,$11*%
%AMOutline6P*
0 Free polygon, 6 corners , with rotation*
0 The origin of the aperture is its center*
0 number of corners: always 6*
0 $1 to $12 corner X, Y*
0 $13 Rotation angle, in degrees counterclockwise*
0 create outline with 6 corners*
4,1,6,$1,$2,$3,$4,$5,$6,$7,$8,$9,$10,$11,$12,$1,$2,$13*%
%AMOutline7P*
0 Free polygon, 7 corners , with rotation*
0 The origin of the aperture is its center*
0 number of corners: always 7*
0 $1 to $14 corner X, Y*
0 $15 Rotation angle, in degrees counterclockwise*
0 create outline with 7 corners*
4,1,7,$1,$2,$3,$4,$5,$6,$7,$8,$9,$10,$11,$12,$13,$14,$1,$2,$15*%
%AMOutline8P*
0 Free polygon, 8 corners , with rotation*
0 The origin of the aperture is its center*
0 number of corners: always 8*
0 $1 to $16 corner X, Y*
0 $17 Rotation angle, in degrees counterclockwise*
0 create outline with 8 corners*
4,1,8,$1,$2,$3,$4,$5,$6,$7,$8,$9,$10,$11,$12,$13,$14,$15,$16,$1,$2,$17*%
G04 Aperture macros list end*
%ADD10C,0.101600*%
%TA.AperFunction,NonConductor*%
%ADD11C,0.101600*%
%TD*%
%TA.AperFunction,ComponentPad*%
%ADD12C,1.270000*%
%TD*%
%TA.AperFunction,ComponentPad*%
%ADD13Outline8P,-1.200000X0.497056X-0.497056X1.200000X0.497056X1.200000X1.200000X0.497056X1.200000X-0.497056X0.497056X-1.200000X-0.497056X-1.200000X-1.200000X-0.497056X270.000000*%
%TD*%
%TA.AperFunction,ComponentPad*%
%ADD14C,2.100000*%
%TD*%
%TA.AperFunction,ComponentPad*%
%ADD15R,1.500000X1.500000*%
%TD*%
%TA.AperFunction,ComponentPad*%
%ADD16Outline8P,-0.750000X0.310660X-0.310660X0.750000X0.310660X0.750000X0.750000X0.310660X0.750000X-0.310660X0.310660X-0.750000X-0.310660X-0.750000X-0.750000X-0.310660X0.000000*%
%TD*%
%TA.AperFunction,ComponentPad*%
%ADD17R,1.200000X1.200000*%
%TD*%
%TA.AperFunction,ComponentPad*%
%ADD18Outline8P,-0.600000X0.248528X-0.248528X0.600000X0.248528X0.600000X0.600000X0.248528X0.600000X-0.248528X0.248528X-0.600000X-0.248528X-0.600000X-0.600000X-0.248528X0.000000*%
%TD*%
%TA.AperFunction,ComponentPad*%
%ADD19Outline8P,-0.635000X0.263026X-0.263026X0.635000X0.263026X0.635000X0.635000X0.263026X0.635000X-0.263026X0.263026X-0.635000X-0.263026X-0.635000X-0.635000X-0.263026X90.000000*%
%TD*%
%TA.AperFunction,ComponentPad*%
%ADD20C,5.500000*%
%TD*%
%TA.AperFunction,ComponentPad*%
%ADD21Outline8P,-0.750000X0.310660X-0.310660X0.750000X0.310660X0.750000X0.750000X0.310660X0.750000X-0.310660X0.310660X-0.750000X-0.310660X-0.750000X-0.750000X-0.310660X180.000000*%
%TD*%
%TA.AperFunction,ComponentPad*%
%ADD22Outline8P,-0.975000X0.403858X-0.403858X0.975000X0.403858X0.975000X0.975000X0.403858X0.975000X-0.403858X0.403858X-0.975000X-0.403858X-0.975000X-0.975000X-0.403858X180.000000*%
%TD*%
%TA.AperFunction,ComponentPad*%
%ADD23C,1.950000*%
%TD*%
%TA.AperFunction,ViaPad*%
%ADD24C,0.806400*%
%TD*%
%TA.AperFunction,ViaPad*%
%ADD25C,0.600000*%
%TD*%
%TA.AperFunction,Conductor*%
%ADD26C,0.203200*%
%TD*%
%TA.AperFunction,Conductor*%
%ADD27C,1.270000*%
%TD*%
%TA.AperFunction,Conductor*%
%ADD28C,0.609600*%
%TD*%
%TA.AperFunction,Conductor*%
%ADD29C,0.406400*%
%TD*%
%TA.AperFunction,Conductor*%
%ADD30C,1.016000*%
%TD*%
%TA.AperFunction,Conductor*%
%ADD31C,0.254000*%
%TD*%
%TA.AperFunction,Conductor*%
%ADD32C,0.152400*%
%TD*%
%TA.AperFunction,Conductor*%
%ADD33C,0.508000*%
%TD*%
%TA.AperFunction,Conductor*%
%ADD34C,0.304800*%
%TD*%
G04 APERTURE END LIST*
D10*
D11*
X92505772Y-149178510D02*
X92505772Y-149788110D01*
X92288057Y-148830168D02*
X92070343Y-149483310D01*
X92070343Y-149483310D02*
X92636400Y-149483310D01*
D12*
%TO.P,TP12,1,P$1*%
%TO.N,DAC_OUT#4*%
X99060000Y-116840000D03*
%TD*%
%TO.P,TP11,1,P$1*%
%TO.N,DAC_OUT#3*%
X99060000Y-109220000D03*
%TD*%
%TO.P,TP20,1,P$1*%
%TO.N,Net-(TP20-P$1)*%
X83820000Y-101600000D03*
%TD*%
%TO.P,TP19,1,P$1*%
%TO.N,Net-(TP19-P$1)*%
X83820000Y-99060000D03*
%TD*%
%TO.P,TP18,1,P$1*%
%TO.N,Net-(TP18-P$1)*%
X83820000Y-93980000D03*
%TD*%
%TO.P,TP17,1,P$1*%
%TO.N,Net-(TP17-P$1)*%
X83820000Y-91440000D03*
%TD*%
%TO.P,TP16,1,P$1*%
%TO.N,Net-(TP16-P$1)*%
X83820000Y-86360000D03*
%TD*%
%TO.P,TP15,1,P$1*%
%TO.N,Net-(TP15-P$1)*%
X83820000Y-83820000D03*
%TD*%
%TO.P,TP14,1,P$1*%
%TO.N,Net-(TP14-P$1)*%
X83820000Y-78740000D03*
%TD*%
%TO.P,TP13,1,P$1*%
%TO.N,Net-(TP13-P$1)*%
X83820000Y-76200000D03*
%TD*%
%TO.P,TP3,1,P$1*%
%TO.N,GNDIO*%
X203200000Y-139700000D03*
%TD*%
%TO.P,TP10,1,P$1*%
%TO.N,/MCU/SWCLK*%
X187960000Y-76200000D03*
%TD*%
%TO.P,TP9,1,P$1*%
%TO.N,~{RESET}*%
X187960000Y-73660000D03*
%TD*%
%TO.P,TP8,1,P$1*%
%TO.N,/MCU/SWDIO*%
X187960000Y-71120000D03*
%TD*%
%TO.P,TP1,1,P$1*%
%TO.N,+5V*%
X198120000Y-139700000D03*
%TD*%
%TO.P,TP2,1,P$1*%
%TO.N,+3V3*%
X200660000Y-139700000D03*
%TD*%
%TO.P,TP4,1,P$1*%
%TO.N,+3V3_ISO*%
X218440000Y-101600000D03*
%TD*%
%TO.P,TP6,1,P$1*%
%TO.N,-15V_ISO*%
X218440000Y-106680000D03*
%TD*%
%TO.P,TP5,1,P$1*%
%TO.N,+15V_ISO*%
X218440000Y-104140000D03*
%TD*%
D13*
%TO.P,J1,1*%
%TO.N,PE*%
X213677100Y-146915600D03*
%TO.P,J1,2*%
%TO.N,unconnected-(J1-Pad2)*%
X208597100Y-146915600D03*
%TD*%
D14*
%TO.P,X4,1,Pin_1*%
%TO.N,Net-(TP20-P$1)*%
X81100000Y-100835000D03*
%TO.P,X4,2,Pin_2*%
%TO.N,Net-(TP19-P$1)*%
X81100000Y-97025000D03*
%TO.P,X4,3,Pin_3*%
%TO.N,Net-(TP18-P$1)*%
X81100000Y-93215000D03*
%TO.P,X4,4,Pin_4*%
%TO.N,Net-(TP17-P$1)*%
X81100000Y-89405000D03*
%TO.P,X4,5,Pin_5*%
%TO.N,Net-(TP16-P$1)*%
X81100000Y-85595000D03*
%TO.P,X4,6,Pin_6*%
%TO.N,Net-(TP15-P$1)*%
X81100000Y-81785000D03*
%TO.P,X4,7,Pin_7*%
%TO.N,Net-(TP14-P$1)*%
X81100000Y-77975000D03*
%TO.P,X4,8,Pin_8*%
%TO.N,Net-(TP13-P$1)*%
X81100000Y-74165000D03*
%TD*%
D15*
%TO.P,X1,1,Pin_1*%
%TO.N,+3V3*%
X129980000Y-142540000D03*
D16*
%TO.P,X1,2,Pin_2*%
%TO.N,unconnected-(X1-Pin_2-Pad2)*%
X129980000Y-140000000D03*
%TO.P,X1,3,Pin_3*%
%TO.N,unconnected-(X1-Pin_3-Pad3)*%
X132520000Y-142540000D03*
%TO.P,X1,4,Pin_4*%
%TO.N,/DIB interface/DIB_NRESET*%
X132520000Y-140000000D03*
%TO.P,X1,5,Pin_5*%
%TO.N,/DIB interface/DIB_SCL*%
X135060000Y-142540000D03*
%TO.P,X1,6,Pin_6*%
%TO.N,/DIB interface/OE_SYNC*%
X135060000Y-140000000D03*
%TO.P,X1,7,Pin_7*%
%TO.N,GNDIO*%
X137600000Y-142540000D03*
%TO.P,X1,8,Pin_8*%
%TO.N,/DIB interface/DIB_SDA*%
X137600000Y-140000000D03*
%TO.P,X1,9,Pin_9*%
%TO.N,Net-(RN1B-2)*%
X140140000Y-142540000D03*
%TO.P,X1,10,Pin_10*%
%TO.N,/DIB interface/DIB_IRQ*%
X140140000Y-140000000D03*
%TO.P,X1,11,Pin_11*%
%TO.N,GNDIO*%
X142680000Y-142540000D03*
%TO.P,X1,12,Pin_12*%
%TO.N,/DIB interface/DIB_CSB*%
X142680000Y-140000000D03*
%TO.P,X1,13,Pin_13*%
%TO.N,Net-(RN1C-2)*%
X145220000Y-142540000D03*
%TO.P,X1,14,Pin_14*%
%TO.N,Net-(RN1A-2)*%
X145220000Y-140000000D03*
%TO.P,X1,15,Pin_15*%
%TO.N,Net-(RN1D-2)*%
X147760000Y-142540000D03*
%TO.P,X1,16,Pin_16*%
%TO.N,GNDIO*%
X147760000Y-140000000D03*
%TO.P,X1,17,Pin_17*%
%TO.N,/DIB interface/DIB_A0*%
X150300000Y-142540000D03*
%TO.P,X1,18,Pin_18*%
%TO.N,/DIB interface/DIB_A2*%
X150300000Y-140000000D03*
%TO.P,X1,19,Pin_19*%
%TO.N,/DIB interface/DIB_A1*%
X152840000Y-142540000D03*
%TO.P,X1,20,Pin_20*%
%TO.N,GNDIO*%
X152840000Y-140000000D03*
%TO.P,X1,21,Pin_21*%
%TO.N,unconnected-(X1-Pin_21-Pad21)*%
X155380000Y-142540000D03*
%TO.P,X1,22,Pin_22*%
%TO.N,unconnected-(X1-Pin_22-Pad22)*%
X155380000Y-140000000D03*
%TO.P,X1,23,Pin_23*%
%TO.N,+5V*%
X157920000Y-142540000D03*
%TO.P,X1,24,Pin_24*%
X157920000Y-140000000D03*
%TO.P,X1,25,Pin_25*%
%TO.N,GNDIO*%
X160460000Y-142540000D03*
%TO.P,X1,26,Pin_26*%
%TO.N,/DIB interface/DIB_BOOT*%
X160460000Y-140000000D03*
%TO.P,X1,27,Pin_27*%
%TO.N,unconnected-(X1-Pin_27-Pad27)*%
X163000000Y-142540000D03*
%TO.P,X1,28,Pin_28*%
%TO.N,unconnected-(X1-Pin_28-Pad28)*%
X163000000Y-140000000D03*
%TD*%
D17*
%TO.P,X7,1,Pin_1*%
%TO.N,GND*%
X136500000Y-66500000D03*
D18*
%TO.P,X7,2,Pin_2*%
X136500000Y-64500000D03*
%TO.P,X7,3,Pin_3*%
%TO.N,/ADIB\u002C PWM\u002C AFE connectors/AFE2N*%
X138500000Y-66500000D03*
%TO.P,X7,4,Pin_4*%
%TO.N,/ADIB\u002C PWM\u002C AFE connectors/AFE2P*%
X138500000Y-64500000D03*
%TO.P,X7,5,Pin_5*%
%TO.N,GND*%
X140500000Y-66500000D03*
%TO.P,X7,6,Pin_6*%
X140500000Y-64500000D03*
%TO.P,X7,7,Pin_7*%
%TO.N,ADIB2_ID0*%
X142500000Y-66500000D03*
%TO.P,X7,8,Pin_8*%
%TO.N,ADIB2_ID2*%
X142500000Y-64500000D03*
%TO.P,X7,9,Pin_9*%
%TO.N,ADIB2_ID1*%
X144500000Y-66500000D03*
%TO.P,X7,10,Pin_10*%
%TO.N,GND*%
X144500000Y-64500000D03*
%TD*%
D12*
%TO.P,JP3,1,Pin_1*%
%TO.N,Net-(JP3-Pin_1)*%
X96869100Y-130532600D03*
%TO.P,JP3,2,Pin_2*%
%TO.N,PWM_OUT#2*%
X98869100Y-130532600D03*
D19*
%TO.P,JP3,3,Pin_3*%
%TO.N,Net-(JP3-Pin_3)*%
X100869100Y-130532600D03*
%TD*%
D20*
%TO.P,KK1,*%
%TO.N,*%
X86500000Y-63000000D03*
%TD*%
D12*
%TO.P,JP2,1,Pin_1*%
%TO.N,Net-(JP2-Pin_1)*%
X96869100Y-125706600D03*
%TO.P,JP2,2,Pin_2*%
%TO.N,PWM_OUT#1*%
X98869100Y-125706600D03*
D19*
%TO.P,JP2,3,Pin_3*%
%TO.N,Net-(JP2-Pin_3)*%
X100869100Y-125706600D03*
%TD*%
D17*
%TO.P,X5,1,Pin_1*%
%TO.N,GND*%
X116500000Y-66500000D03*
D18*
%TO.P,X5,2,Pin_2*%
X116500000Y-64500000D03*
%TO.P,X5,3,Pin_3*%
%TO.N,/ADIB\u002C PWM\u002C AFE connectors/AFE1N*%
X118500000Y-66500000D03*
%TO.P,X5,4,Pin_4*%
%TO.N,/ADIB\u002C PWM\u002C AFE connectors/AFE1P*%
X118500000Y-64500000D03*
%TO.P,X5,5,Pin_5*%
%TO.N,GND*%
X120500000Y-66500000D03*
%TO.P,X5,6,Pin_6*%
X120500000Y-64500000D03*
%TO.P,X5,7,Pin_7*%
%TO.N,ADIB1_ID0*%
X122500000Y-66500000D03*
%TO.P,X5,8,Pin_8*%
%TO.N,ADIB1_ID2*%
X122500000Y-64500000D03*
%TO.P,X5,9,Pin_9*%
%TO.N,ADIB1_ID1*%
X124500000Y-66500000D03*
%TO.P,X5,10,Pin_10*%
%TO.N,GND*%
X124500000Y-64500000D03*
%TD*%
D15*
%TO.P,X8,1,Pin_1*%
%TO.N,AFE_ID0*%
X160520000Y-134500000D03*
D21*
%TO.P,X8,2,Pin_2*%
%TO.N,AFE_ID1*%
X160520000Y-131960000D03*
%TO.P,X8,3,Pin_3*%
%TO.N,ISEL#1*%
X157980000Y-134500000D03*
%TO.P,X8,4,Pin_4*%
%TO.N,ISEL#2*%
X157980000Y-131960000D03*
%TO.P,X8,5,Pin_5*%
%TO.N,USEL1#1*%
X155440000Y-134500000D03*
%TO.P,X8,6,Pin_6*%
%TO.N,USEL1#2{slash}SDA2*%
X155440000Y-131960000D03*
%TO.P,X8,7,Pin_7*%
%TO.N,USEL20#1*%
X152900000Y-134500000D03*
%TO.P,X8,8,Pin_8*%
%TO.N,USEL20#2{slash}SCL2*%
X152900000Y-131960000D03*
%TO.P,X8,9,Pin_9*%
%TO.N,USEL100#1*%
X150360000Y-134500000D03*
%TO.P,X8,10,Pin_10*%
%TO.N,USEL100#2*%
X150360000Y-131960000D03*
%TO.P,X8,11,Pin_11*%
%TO.N,USEL1#3*%
X147820000Y-134500000D03*
%TO.P,X8,12,Pin_12*%
%TO.N,USEL1#4*%
X147820000Y-131960000D03*
%TO.P,X8,13,Pin_13*%
%TO.N,USEL20#3*%
X145280000Y-134500000D03*
%TO.P,X8,14,Pin_14*%
%TO.N,USEL20#4*%
X145280000Y-131960000D03*
%TO.P,X8,15,Pin_15*%
%TO.N,ISEL_S#3*%
X142740000Y-134500000D03*
%TO.P,X8,16,Pin_16*%
%TO.N,ISEL_S#4*%
X142740000Y-131960000D03*
%TO.P,X8,17,Pin_17*%
%TO.N,ISEL_R#3*%
X140200000Y-134500000D03*
%TO.P,X8,18,Pin_18*%
%TO.N,ISEL_R#4*%
X140200000Y-131960000D03*
%TO.P,X8,19,Pin_19*%
%TO.N,ISEL10_S#3*%
X137660000Y-134500000D03*
%TO.P,X8,20,Pin_20*%
%TO.N,ISEL10_S#4*%
X137660000Y-131960000D03*
%TO.P,X8,21,Pin_21*%
%TO.N,ISEL10_R#3*%
X135120000Y-134500000D03*
%TO.P,X8,22,Pin_22*%
%TO.N,ISEL10_R#4*%
X135120000Y-131960000D03*
%TO.P,X8,23,Pin_23*%
%TO.N,ISEL_LOW#3*%
X132580000Y-134500000D03*
%TO.P,X8,24,Pin_24*%
%TO.N,ISEL_LOW#4*%
X132580000Y-131960000D03*
%TO.P,X8,25,Pin_25*%
%TO.N,ISEL_MID#3*%
X130040000Y-134500000D03*
%TO.P,X8,26,Pin_26*%
%TO.N,ISEL_MID#4*%
X130040000Y-131960000D03*
%TO.P,X8,27,Pin_27*%
%TO.N,GND*%
X127500000Y-134500000D03*
%TO.P,X8,28,Pin_28*%
X127500000Y-131960000D03*
%TD*%
D15*
%TO.P,X6,1,Pin_1*%
%TO.N,GND*%
X160520000Y-72500000D03*
D21*
%TO.P,X6,2,Pin_2*%
X160520000Y-69960000D03*
%TO.P,X6,3,Pin_3*%
%TO.N,MIO_MOSI*%
X157980000Y-72500000D03*
%TO.P,X6,4,Pin_4*%
%TO.N,ADC_CLK{slash}SDA1*%
X157980000Y-69960000D03*
%TO.P,X6,5,Pin_5*%
%TO.N,~{ADC_CS}*%
X155440000Y-72500000D03*
%TO.P,X6,6,Pin_6*%
%TO.N,MIO_SCK*%
X155440000Y-69960000D03*
%TO.P,X6,7,Pin_7*%
%TO.N,~{ADC_DRDY}*%
X152900000Y-72500000D03*
%TO.P,X6,8,Pin_8*%
%TO.N,MIO_MISO*%
X152900000Y-69960000D03*
%TO.P,X6,9,Pin_9*%
%TO.N,~{RESET}*%
X150360000Y-72500000D03*
%TO.P,X6,10,Pin_10*%
%TO.N,ADC_START{slash}SCL1*%
X150360000Y-69960000D03*
%TO.P,X6,11,Pin_11*%
%TO.N,GND*%
X147820000Y-72500000D03*
%TO.P,X6,12,Pin_12*%
X147820000Y-69960000D03*
%TO.P,X6,13,Pin_13*%
%TO.N,+3V3_ISO*%
X145280000Y-72500000D03*
%TO.P,X6,14,Pin_14*%
%TO.N,AFE_CLK*%
X145280000Y-69960000D03*
%TO.P,X6,15,Pin_15*%
%TO.N,-5V_ISO*%
X142740000Y-72500000D03*
%TO.P,X6,16,Pin_16*%
%TO.N,+5V_ISO*%
X142740000Y-69960000D03*
%TO.P,X6,17,Pin_17*%
%TO.N,unconnected-(X6-Pin_17-Pad17)*%
X140200000Y-72500000D03*
%TO.P,X6,18,Pin_18*%
%TO.N,unconnected-(X6-Pin_18-Pad18)*%
X140200000Y-69960000D03*
%TO.P,X6,19,Pin_19*%
%TO.N,-15V_ISO*%
X137660000Y-72500000D03*
%TO.P,X6,20,Pin_20*%
%TO.N,+15V_ISO*%
X137660000Y-69960000D03*
%TO.P,X6,21,Pin_21*%
%TO.N,GND*%
X135120000Y-72500000D03*
%TO.P,X6,22,Pin_22*%
X135120000Y-69960000D03*
%TO.P,X6,23,Pin_23*%
%TO.N,/ADIB\u002C PWM\u002C AFE connectors/AFE2N*%
X132580000Y-72500000D03*
%TO.P,X6,24,Pin_24*%
%TO.N,/ADIB\u002C PWM\u002C AFE connectors/AFE2P*%
X132580000Y-69960000D03*
%TO.P,X6,25,Pin_25*%
%TO.N,/ADIB\u002C PWM\u002C AFE connectors/AFE1N*%
X130040000Y-72500000D03*
%TO.P,X6,26,Pin_26*%
%TO.N,/ADIB\u002C PWM\u002C AFE connectors/AFE1P*%
X130040000Y-69960000D03*
%TO.P,X6,27,Pin_27*%
%TO.N,GND*%
X127500000Y-72500000D03*
%TO.P,X6,28,Pin_28*%
X127500000Y-69960000D03*
%TD*%
D22*
%TO.P,X3,1,Pin_1*%
%TO.N,GND*%
X93850000Y-106165000D03*
D23*
%TO.P,X3,2,Pin_2*%
%TO.N,DAC_OUT#1*%
X93850000Y-109975000D03*
%TO.P,X3,3,Pin_3*%
%TO.N,DAC_OUT#2*%
X93850000Y-113785000D03*
%TO.P,X3,4,Pin_4*%
%TO.N,DAC_OUT#3*%
X93850000Y-117595000D03*
%TO.P,X3,5,Pin_5*%
%TO.N,DAC_OUT#4*%
X93850000Y-121405000D03*
%TO.P,X3,6,Pin_6*%
%TO.N,PWM_OUT#1*%
X93850000Y-125215000D03*
%TO.P,X3,7,Pin_7*%
%TO.N,PWM_OUT#2*%
X93850000Y-129025000D03*
%TO.P,X3,8,Pin_8*%
%TO.N,GND*%
X93850000Y-132835000D03*
%TO.P,X3,9,Pin_9*%
%TO.N,POUT0*%
X81150000Y-106165000D03*
%TO.P,X3,10,Pin_10*%
%TO.N,POUT1*%
X81150000Y-109975000D03*
%TO.P,X3,11,Pin_11*%
%TO.N,POUT2*%
X81150000Y-113785000D03*
%TO.P,X3,12,Pin_12*%
%TO.N,POUT3*%
X81150000Y-117595000D03*
%TO.P,X3,13,Pin_13*%
%TO.N,POUT4*%
X81150000Y-121405000D03*
%TO.P,X3,14,Pin_14*%
%TO.N,POUT5*%
X81150000Y-125215000D03*
%TO.P,X3,15,Pin_15*%
%TO.N,POUT6*%
X81150000Y-129025000D03*
%TO.P,X3,16,Pin_16*%
%TO.N,POUT7*%
X81150000Y-132835000D03*
%TD*%
D12*
%TO.P,TP7,1,P$1*%
%TO.N,GND*%
X218440000Y-109220000D03*
%TD*%
D20*
%TO.P,KK2,*%
%TO.N,*%
X86500000Y-147000000D03*
%TD*%
D24*
%TO.N,GND*%
X176148600Y-132945600D03*
D25*
X202247500Y-82232500D03*
D24*
X104774600Y-128564100D03*
X199237200Y-107291600D03*
X204152100Y-131802600D03*
X104965100Y-94909100D03*
X211835600Y-111736600D03*
D25*
X182372000Y-102679500D03*
D24*
X111442100Y-78145100D03*
X205422100Y-114848100D03*
X166052100Y-94083600D03*
X110045100Y-84939600D03*
D25*
X205123831Y-86849169D03*
X195915552Y-76181948D03*
D24*
X136270600Y-108648500D03*
X152654000Y-97195100D03*
D25*
X204978000Y-100076000D03*
X203134039Y-78293037D03*
D24*
X203898100Y-120563100D03*
X140779100Y-100330000D03*
X207645000Y-117999140D03*
X158241600Y-122277600D03*
X165544500Y-105219500D03*
X111442100Y-93893100D03*
X85661500Y-68389500D03*
X218694000Y-120586500D03*
X136651600Y-105513600D03*
D25*
X171640500Y-89598500D03*
D24*
X196963900Y-108371100D03*
D25*
X201243390Y-75617805D03*
D24*
X212597600Y-111736600D03*
X103314500Y-122491500D03*
X196024512Y-131254500D03*
D25*
X153987500Y-87566500D03*
D24*
X110045100Y-92813600D03*
X113601100Y-99481100D03*
X137502500Y-116168900D03*
X95884600Y-64746600D03*
X165036100Y-122074400D03*
X165125000Y-87428800D03*
X161099100Y-109577600D03*
X205803500Y-120586500D03*
X183768600Y-135231600D03*
X104965100Y-87543100D03*
X184657600Y-130596100D03*
X132980874Y-114300000D03*
X104965100Y-98592100D03*
D25*
X189166500Y-105410000D03*
D24*
X97789600Y-114149600D03*
X194373100Y-132945600D03*
X186753100Y-132945600D03*
X153479500Y-110871000D03*
X104965100Y-102275100D03*
X113918600Y-83796600D03*
X139954000Y-111633000D03*
X110045100Y-100687600D03*
X111188100Y-101894100D03*
X110934100Y-130227800D03*
X110045100Y-77065600D03*
D25*
X187388500Y-81216500D03*
D24*
X104965100Y-80177100D03*
X111442100Y-86082600D03*
D25*
X200025000Y-76835000D03*
D24*
X110045100Y-81002600D03*
X115391800Y-112600200D03*
D25*
X193357500Y-68326000D03*
X201549000Y-103505000D03*
X197040500Y-72263000D03*
D24*
X161798000Y-83693000D03*
X196341600Y-128119600D03*
D25*
X206184500Y-60198000D03*
D24*
X121678300Y-97792000D03*
D25*
X207962500Y-65468500D03*
D24*
X211645500Y-92075000D03*
D25*
X203454000Y-60896500D03*
D24*
X104965100Y-83860100D03*
D25*
X213487000Y-106362500D03*
D24*
X97789600Y-105577100D03*
X143891000Y-107378500D03*
D25*
X158369000Y-83883500D03*
D24*
X97853100Y-109704600D03*
X208089500Y-97790000D03*
X173862600Y-130659600D03*
D25*
X218186000Y-75692000D03*
D24*
X208216100Y-114848100D03*
X205422100Y-113578100D03*
D25*
X177763849Y-72553151D03*
D24*
X113855100Y-75922600D03*
X138938000Y-101155504D03*
X105918000Y-67818000D03*
X157225600Y-113070100D03*
D25*
X184023000Y-100901500D03*
D24*
X168458300Y-102148100D03*
X208216100Y-113578100D03*
D25*
X212915500Y-66929000D03*
D24*
X219519100Y-113918996D03*
X175132600Y-94909100D03*
D25*
X185008959Y-106967459D03*
D24*
X190100800Y-111061500D03*
X104965100Y-76494100D03*
X139064600Y-114213100D03*
X119278000Y-73560400D03*
X110045100Y-96750600D03*
X150431500Y-109283500D03*
X183641600Y-83675100D03*
X103631600Y-133733000D03*
X175767600Y-84114100D03*
X128714100Y-100266494D03*
X95567500Y-62357000D03*
X157225600Y-96306100D03*
X110045100Y-88876600D03*
X128270000Y-114427000D03*
D25*
X213487000Y-105727500D03*
D24*
X156717600Y-122341100D03*
X165989000Y-116332000D03*
X160781600Y-93969300D03*
X213296100Y-117070600D03*
X121208400Y-111381000D03*
X104965100Y-91226100D03*
X143248800Y-100116100D03*
X108394100Y-130786600D03*
D25*
X211882707Y-86327735D03*
D24*
X95757600Y-69382100D03*
X166369600Y-111482600D03*
X152781000Y-114594100D03*
X163004100Y-122074400D03*
X107822600Y-122595100D03*
X165925510Y-99631500D03*
X141414100Y-113070100D03*
X109981600Y-73128600D03*
X168427000Y-117311900D03*
X211327600Y-117134100D03*
X218820600Y-122849100D03*
D25*
X154622500Y-93980000D03*
D24*
X158242000Y-105219500D03*
X113855100Y-91670600D03*
X218820600Y-122087100D03*
X131063600Y-99417600D03*
X161581700Y-86412800D03*
X96900600Y-117769100D03*
%TO.N,+3V3*%
X172338600Y-139232100D03*
X166433510Y-134810500D03*
X171449600Y-143359600D03*
X182435100Y-140565600D03*
X184657600Y-141264100D03*
X193103100Y-140565600D03*
%TO.N,GNDIO*%
X168401600Y-143867600D03*
X173164100Y-141485200D03*
X184657600Y-143042100D03*
X186753100Y-140565600D03*
X170624100Y-140481800D03*
X184403600Y-139359100D03*
X165848900Y-136171400D03*
X209105100Y-143613600D03*
X194373100Y-140565600D03*
X209105100Y-142851600D03*
X176148600Y-140565600D03*
%TO.N,PE*%
X89198600Y-72580500D03*
%TO.N,+15V_ISO*%
X151193100Y-111800100D03*
X122376800Y-72290400D03*
X110946800Y-110580900D03*
X116776100Y-95734600D03*
X121602494Y-123407900D03*
X100548000Y-106819200D03*
X209486100Y-116816600D03*
X126618600Y-95734600D03*
X158178100Y-119928100D03*
X156209600Y-104116600D03*
X129776182Y-101607200D03*
X116776100Y-123407900D03*
X101409100Y-110466600D03*
X143827100Y-114340100D03*
X111035700Y-113514600D03*
X145414600Y-95734600D03*
%TO.N,-15V_ISO*%
X161226100Y-98592100D03*
X161226100Y-96814100D03*
X162115100Y-96814100D03*
X218757100Y-116181600D03*
X118046100Y-116118100D03*
X160718100Y-126938500D03*
X162115100Y-97703100D03*
X162242100Y-106021600D03*
X162115100Y-98592100D03*
X161226100Y-116181600D03*
X144525600Y-104526500D03*
X161226100Y-99481100D03*
X113410600Y-116118100D03*
X118046100Y-106478800D03*
X162115100Y-116181600D03*
X162115100Y-114403600D03*
X147319600Y-101322600D03*
X161226100Y-115292600D03*
X162115100Y-113514600D03*
X145729600Y-112247100D03*
X120408300Y-76417900D03*
X120408300Y-72290400D03*
X133984600Y-111927100D03*
X162115100Y-99481100D03*
X160718100Y-122785600D03*
X162115100Y-115292600D03*
X162877100Y-120423400D03*
X164528500Y-104076488D03*
X161226100Y-97703100D03*
X161226100Y-114403600D03*
X161226100Y-113514600D03*
%TO.N,+3V3_ISO*%
X111442100Y-125516100D03*
X181139700Y-92171100D03*
X210248100Y-93639100D03*
X102171100Y-64873600D03*
X109473600Y-125516100D03*
D25*
X199133538Y-73530538D03*
X208089500Y-62103000D03*
D24*
X193039600Y-135168100D03*
D25*
X206121000Y-98933000D03*
X204329577Y-84251081D03*
X210518174Y-83723715D03*
D24*
X121411600Y-118086600D03*
D25*
X185801000Y-82296000D03*
X210947000Y-65087500D03*
X184848100Y-100838000D03*
D24*
X109981600Y-122658600D03*
D25*
X202692000Y-102362000D03*
D24*
X188666849Y-112892257D03*
D25*
X194437000Y-69469000D03*
X202184000Y-77343000D03*
D24*
X136905600Y-94528100D03*
X173862600Y-132374100D03*
D25*
X195507700Y-77343000D03*
D24*
X184803200Y-111406400D03*
X166687100Y-118848600D03*
X166623600Y-102148100D03*
D25*
X196024500Y-70294494D03*
X212217004Y-102362000D03*
D24*
X168592100Y-105950600D03*
D25*
X182317300Y-94551500D03*
X200243170Y-81053670D03*
D24*
X212280100Y-94972600D03*
X182498600Y-135231600D03*
X110934100Y-128741900D03*
X182435100Y-84495100D03*
D25*
X155511500Y-87566500D03*
X212917007Y-102362000D03*
D24*
X184657600Y-132374100D03*
X198119600Y-107228100D03*
D25*
X188217900Y-104893200D03*
%TO.N,~{RESET}*%
X167068500Y-89725500D03*
X187154375Y-118321565D03*
X166497000Y-108648500D03*
X167703500Y-97790000D03*
D24*
X167055400Y-80977200D03*
D25*
X186245500Y-110744000D03*
X179768500Y-74612500D03*
X167132000Y-74676000D03*
D24*
%TO.N,+5V_ISO*%
X122211700Y-76786200D03*
X209296004Y-109474000D03*
X197181500Y-129722183D03*
X197421100Y-133898100D03*
X119519300Y-128716500D03*
X122211700Y-73458800D03*
X119519300Y-124474700D03*
D25*
%TO.N,DOUT7*%
X199199500Y-103759000D03*
X130429000Y-125793500D03*
D24*
X196417800Y-109450600D03*
X169849400Y-118543800D03*
%TO.N,DOUT6*%
X169874800Y-117578600D03*
D25*
X127889000Y-125793500D03*
X197612000Y-101346000D03*
D24*
X195630400Y-108790200D03*
D25*
%TO.N,DOUT3*%
X190182500Y-114055200D03*
X190182500Y-116395500D03*
X143129000Y-125793500D03*
X170751500Y-119443500D03*
D24*
%TO.N,DOUT2*%
X173989600Y-123979400D03*
D25*
X145669000Y-125793500D03*
D24*
X186461000Y-121985500D03*
D25*
X191606962Y-107473456D03*
%TO.N,DOUT1*%
X191336051Y-106722425D03*
X150749000Y-125793500D03*
D24*
X185737100Y-123585700D03*
X173341900Y-125127600D03*
%TO.N,DOUT0*%
X175500900Y-121591800D03*
D25*
X192528503Y-104777412D03*
X154051000Y-126238000D03*
D24*
X186067300Y-120486900D03*
%TO.N,DAC_OUT#1*%
X107949600Y-104878600D03*
X91820600Y-104688100D03*
X142239600Y-106466100D03*
X121691000Y-69686900D03*
D25*
%TO.N,DAC_CS#2*%
X161036000Y-105854500D03*
X165989000Y-114554000D03*
D24*
%TO.N,-VSENSE*%
X119913000Y-70448900D03*
X122427600Y-112816100D03*
X116801500Y-76087700D03*
X146684600Y-106593100D03*
%TO.N,~{DAC_ALARM}*%
X167449100Y-103608600D03*
X167449100Y-116753100D03*
X171132100Y-101195600D03*
D25*
X191720468Y-81261465D03*
X192115718Y-88271064D03*
D24*
%TO.N,DAC_OUT#2*%
X111289700Y-69598000D03*
X98869100Y-110873000D03*
X91503100Y-106021600D03*
X125577200Y-116245100D03*
D25*
%TO.N,BOOT0*%
X179070000Y-130556000D03*
X179705000Y-120015000D03*
X181038500Y-88201500D03*
X181961300Y-120554594D03*
D24*
%TO.N,CLAMP*%
X102869600Y-81701100D03*
X102869600Y-78018100D03*
X105473100Y-120626600D03*
X107505100Y-129516600D03*
X102869600Y-96496600D03*
X102869600Y-100116100D03*
X102171100Y-70779100D03*
X104647600Y-70906100D03*
X100202600Y-70779100D03*
X102869600Y-74335100D03*
X102869600Y-85384100D03*
X102869600Y-92813600D03*
X106552994Y-70906100D03*
X102869600Y-89067100D03*
D25*
%TO.N,DIN6*%
X178181000Y-89924800D03*
X180911500Y-100393500D03*
D24*
X115252500Y-97218500D03*
X115689800Y-90146600D03*
X106171600Y-97512600D03*
D25*
X173863000Y-89217500D03*
%TO.N,DIN5*%
X173990000Y-90170000D03*
X178943000Y-90614500D03*
D24*
X106235100Y-92496100D03*
D25*
X181342366Y-99648269D03*
D24*
%TO.N,DIN4*%
X178015500Y-92394500D03*
X106679600Y-89892600D03*
X122808600Y-92940600D03*
X122808600Y-89702100D03*
%TO.N,DIN3*%
X123888100Y-89702100D03*
X177926600Y-93766100D03*
X123888100Y-93385100D03*
X106489100Y-85892100D03*
%TO.N,DIN2*%
X178053600Y-95734600D03*
X124967600Y-93956600D03*
X124967600Y-89702100D03*
X106171600Y-82399600D03*
%TO.N,DIN1*%
X106171600Y-78716600D03*
X158724200Y-80164400D03*
%TO.N,DIN0*%
X106235100Y-75033600D03*
X160413300Y-80939100D03*
%TO.N,+5V*%
X209168600Y-140121100D03*
X209168600Y-140819600D03*
%TO.N,-5V_ISO*%
X120548000Y-124487400D03*
X194933100Y-125146600D03*
X120548000Y-127687800D03*
%TO.N,~{ADC_DRDY}*%
X168757200Y-80532700D03*
D25*
%TO.N,ISEL_S#3*%
X181235366Y-116764800D03*
X186118500Y-83312000D03*
%TO.N,ISEL_R#3*%
X187835533Y-85089489D03*
%TO.N,ISEL10_S#3*%
X188431714Y-84483624D03*
X179873443Y-125483051D03*
X182077450Y-125476000D03*
D24*
%TO.N,ISEL10_R#3*%
X182700306Y-124754443D03*
D25*
X189011776Y-83862309D03*
D24*
X179374400Y-124284200D03*
%TO.N,ISEL_S#4*%
X175424700Y-113603500D03*
D25*
X197471902Y-83824721D03*
X179451002Y-101536498D03*
D24*
%TO.N,ISEL_R#4*%
X175158000Y-112435100D03*
D25*
X180149500Y-101917500D03*
X198179730Y-83569596D03*
D24*
%TO.N,ISEL10_S#4*%
X175299959Y-117732009D03*
D25*
X198900689Y-80265329D03*
X178879500Y-97980500D03*
D24*
X172833900Y-119178800D03*
D25*
%TO.N,ISEL10_R#4*%
X180433366Y-120581362D03*
X184531000Y-93789500D03*
X178035631Y-121286369D03*
X196595998Y-82296000D03*
%TO.N,USEL1#1*%
X190173681Y-90098452D03*
X175420457Y-100299963D03*
D24*
X172979950Y-122969750D03*
D25*
%TO.N,ISEL#1*%
X189598909Y-90944092D03*
X176255444Y-100765700D03*
D24*
X173983250Y-122950700D03*
D25*
%TO.N,USEL100#1*%
X185610500Y-83883500D03*
X180432906Y-118457800D03*
D24*
%TO.N,ISEL_MID#3*%
X176732800Y-123280900D03*
X183895600Y-121985500D03*
D25*
X190253177Y-82707371D03*
D24*
%TO.N,ISEL_LOW#3*%
X178091700Y-125135100D03*
X182825478Y-123705483D03*
D25*
X189590685Y-83239920D03*
%TO.N,USEL1#3*%
X191051937Y-78497434D03*
X191770000Y-117475000D03*
%TO.N,USEL100#2*%
X178562000Y-104711500D03*
D24*
X170561000Y-112077500D03*
D25*
X194246500Y-104394000D03*
X193421003Y-79573865D03*
D24*
X170465350Y-121007600D03*
%TO.N,ISEL#2*%
X174808750Y-122315700D03*
D25*
X172326592Y-110632827D03*
%TO.N,ISEL_LOW#4*%
X186436000Y-89662000D03*
X177185630Y-121284804D03*
X181360508Y-119448008D03*
X197534763Y-79653764D03*
%TO.N,ISEL_MID#4*%
X181991000Y-118554500D03*
X185826400Y-90360500D03*
X176335628Y-121285036D03*
X197040500Y-79057500D03*
D24*
%TO.N,USEL1#4*%
X173805450Y-119172450D03*
X171957600Y-109437900D03*
%TO.N,BIAS_EN*%
X115569600Y-104142000D03*
D25*
X190738989Y-81993511D03*
X151828500Y-106235500D03*
X173545500Y-104711500D03*
X190982073Y-88897264D03*
X178562000Y-99568000D03*
D24*
X113385200Y-110161800D03*
%TO.N,AFE_ID1*%
X183768600Y-124411200D03*
X162672400Y-132755100D03*
D25*
X194246500Y-86868000D03*
%TO.N,AFE_ID0*%
X194824280Y-86273550D03*
D24*
X183908300Y-125414500D03*
D25*
%TO.N,ADIB1_ID1*%
X198198081Y-88475528D03*
%TO.N,ADIB1_ID0*%
X198762294Y-87881629D03*
%TO.N,ADIB2_ID0*%
X203531849Y-93472000D03*
%TO.N,ADIB2_ID1*%
X190817500Y-100647500D03*
%TO.N,ADIB2_ID2*%
X189357000Y-99250500D03*
%TO.N,ADIB1_ID2*%
X197592421Y-86561919D03*
D24*
%TO.N,ADIB1_SW*%
X154178000Y-76786200D03*
X122389500Y-68683600D03*
%TO.N,Net-(IC1-CLK)*%
X213423100Y-143804100D03*
X216344500Y-135509000D03*
X212470600Y-129072100D03*
X220217600Y-128881600D03*
X220217600Y-143804100D03*
%TO.N,Net-(C6-Pad2)*%
X212280500Y-124840996D03*
X205295500Y-124777500D03*
X200405600Y-128056100D03*
%TO.N,Net-(IC12-VOUT)*%
X157225600Y-99290600D03*
X152463100Y-95925100D03*
%TO.N,Net-(IC13-VOUT)*%
X157225600Y-116054600D03*
X152590100Y-112625600D03*
%TO.N,DAC_OUT#4*%
X104063400Y-113501900D03*
X119176400Y-113578100D03*
%TO.N,DIN7{slash}MISO*%
X106679600Y-101640100D03*
D25*
X175133000Y-104394000D03*
X154444700Y-107619800D03*
X195262500Y-103187500D03*
D24*
%TO.N,Net-(IC15-VDD)*%
X136080100Y-102275100D03*
X136308700Y-115673600D03*
%TO.N,/DIB interface/DIB_SDA*%
X151066100Y-144629600D03*
%TO.N,/DIB interface/DIB_SCL*%
X151764600Y-145391600D03*
%TO.N,/DIB interface/DIB_A0*%
X169671600Y-138762200D03*
%TO.N,/DIB interface/DIB_NRESET*%
X179577600Y-145391600D03*
X179577600Y-149138100D03*
%TO.N,/DIB interface/DIB_BOOT*%
X178688600Y-141772100D03*
%TO.N,/DIB interface/OE_SYNC*%
X177418600Y-149138100D03*
X177418600Y-145391600D03*
D25*
%TO.N,PWM#2{slash}MOSI*%
X195237608Y-102337862D03*
D24*
X110743600Y-124563600D03*
X114349945Y-104360918D03*
D25*
X174307500Y-104330500D03*
X152944191Y-106371300D03*
%TO.N,PWM#1{slash}SCK*%
X195326004Y-104013000D03*
X175958500Y-104076500D03*
D24*
X109092600Y-123357100D03*
X114426600Y-103307300D03*
D25*
X153666947Y-105926800D03*
%TO.N,USEL1#2{slash}SDA2*%
X175762263Y-119697209D03*
X193042449Y-116009981D03*
%TO.N,Net-(IC6-B2)*%
X193260541Y-120045041D03*
X190022041Y-123283541D03*
D24*
%TO.N,Net-(IC6-B1)*%
X192595100Y-131612100D03*
X188404100Y-131612100D03*
%TO.N,/Voltage DAC\u002C Digital outputs/1V25_REF*%
X123329300Y-113641600D03*
X121487800Y-104865900D03*
%TO.N,POUT6*%
X126619000Y-120309100D03*
%TO.N,POUT7*%
X129158999Y-120309099D03*
%TO.N,POUT5*%
X134302500Y-120499600D03*
%TO.N,POUT4*%
X136778996Y-120245600D03*
%TO.N,POUT3*%
X141922500Y-120205500D03*
%TO.N,POUT2*%
X144399000Y-120142000D03*
%TO.N,POUT1*%
X149479000Y-120269000D03*
%TO.N,POUT0*%
X153288600Y-120563100D03*
X99903600Y-104561100D03*
%TO.N,Net-(IC11B--IN)*%
X149161100Y-115483100D03*
X157225600Y-117324600D03*
%TO.N,/ADIB\u002C PWM\u002C AFE connectors/AFE2N*%
X126021700Y-73877900D03*
D25*
%TO.N,/DIB interface/DIB_CSB*%
X186054984Y-144907000D03*
X186055000Y-147320000D03*
D24*
%TO.N,Net-(RN1A-2)*%
X144017600Y-145201100D03*
%TO.N,Net-(Q9-G)*%
X107060600Y-109120400D03*
X111061100Y-109361700D03*
%TO.N,DOUT4*%
X170293900Y-116295900D03*
D25*
X196728127Y-102887749D03*
D24*
X194804900Y-109844300D03*
D25*
X138049000Y-125793500D03*
%TO.N,DOUT5*%
X197100165Y-102123489D03*
D24*
X168884200Y-119394700D03*
D25*
X135509000Y-125793500D03*
D24*
X194957300Y-107939300D03*
%TO.N,Net-(JP2-Pin_3)*%
X102298100Y-116562600D03*
%TO.N,Net-(JP3-Pin_3)*%
X102361600Y-118086600D03*
D25*
%TO.N,LEVEL_DIN0_3*%
X112649000Y-90741500D03*
X176602793Y-88579983D03*
%TO.N,LEVEL_DIN4_7*%
X177211204Y-89183400D03*
X114935000Y-92138500D03*
%TO.N,SLOW_DIN*%
X168692908Y-89718122D03*
X171894498Y-102933500D03*
X193675000Y-106426000D03*
X169164000Y-93853000D03*
%TO.N,/MCU/FMC_D0*%
X199429309Y-87266461D03*
X196088000Y-69469000D03*
%TO.N,/MCU/FMC_D1*%
X198691500Y-69088000D03*
X199949336Y-86652102D03*
%TO.N,/MCU/FMC_D2*%
X199263000Y-69723000D03*
X189022900Y-79375000D03*
%TO.N,/MCU/FMC_D3*%
X189149900Y-80198765D03*
X198818500Y-72326500D03*
%TO.N,/MCU/FMC_D4*%
X204597000Y-71210173D03*
X201399673Y-97767672D03*
%TO.N,/MCU/FMC_D5*%
X203740996Y-72475000D03*
X202247803Y-96031038D03*
%TO.N,/MCU/FMC_D6*%
X202256694Y-96880994D03*
X204406500Y-73152000D03*
%TO.N,/MCU/FMC_D7*%
X201365049Y-95076068D03*
X206692500Y-74930000D03*
%TO.N,/MCU/FMC_NBL0*%
X204787500Y-74993494D03*
X184458700Y-91694000D03*
%TO.N,/MCU/FMC_SDNWE*%
X204238276Y-77196733D03*
X189991996Y-99822000D03*
%TO.N,/MCU/FMC_SDNCAS*%
X200405988Y-79057500D03*
X187091969Y-88945949D03*
%TO.N,/MCU/FMC_SDNRAS*%
X200179138Y-102722162D03*
X215582500Y-85852000D03*
%TO.N,/MCU/FMC_SDNE0*%
X191389002Y-99187000D03*
X205009752Y-80105248D03*
%TO.N,/MCU/FMC_BA0*%
X206311500Y-79565500D03*
X202510907Y-84014261D03*
%TO.N,/MCU/FMC_A10*%
X201252565Y-92102803D03*
X205771750Y-83846827D03*
%TO.N,/MCU/FMC_A0*%
X196723000Y-92900500D03*
X206258178Y-82911419D03*
%TO.N,/MCU/FMC_A1*%
X197370079Y-93653700D03*
X207160444Y-82263577D03*
%TO.N,/MCU/FMC_A2*%
X197158356Y-94476912D03*
X207461822Y-83617254D03*
%TO.N,/MCU/FMC_A3*%
X207454500Y-84582000D03*
X196320832Y-94660900D03*
%TO.N,/MCU/FMC_A4*%
X197266102Y-95830912D03*
X216683500Y-75819000D03*
%TO.N,/MCU/FMC_A5*%
X216853980Y-74986269D03*
X197478237Y-96654017D03*
%TO.N,/MCU/FMC_A6*%
X216302200Y-74420352D03*
X203701858Y-89780511D03*
%TO.N,/MCU/FMC_A7*%
X203052937Y-90429431D03*
X215928890Y-73757217D03*
%TO.N,/MCU/FMC_A8*%
X215184059Y-73347667D03*
X202451895Y-91030474D03*
%TO.N,/MCU/FMC_A9*%
X214545000Y-72866485D03*
X201884284Y-91534584D03*
%TO.N,/MCU/FMC_A11*%
X213991862Y-71878862D03*
X200863202Y-92797965D03*
%TO.N,/MCU/FMC_SDCKE0*%
X207577600Y-76860591D03*
X192458250Y-100403750D03*
%TO.N,/MCU/FMC_SDCLK*%
X206121000Y-76390500D03*
X199095962Y-84499962D03*
%TO.N,/MCU/FMC_NBL1*%
X182245000Y-91630500D03*
X201917832Y-71822690D03*
%TO.N,/MCU/FMC_D8*%
X203463685Y-95302277D03*
X210058000Y-67881500D03*
%TO.N,/MCU/FMC_D9*%
X208915000Y-66738500D03*
X203755439Y-94503914D03*
%TO.N,/MCU/FMC_D10*%
X204198137Y-93885171D03*
X208026000Y-66802000D03*
%TO.N,/MCU/FMC_D11*%
X206946500Y-65849500D03*
X204585016Y-93128317D03*
%TO.N,/MCU/FMC_D12*%
X205059912Y-92423350D03*
X206248000Y-65024000D03*
%TO.N,/MCU/FMC_D13*%
X205274000Y-64501264D03*
X205771750Y-91217750D03*
%TO.N,/MCU/FMC_D14*%
X206883000Y-89017831D03*
X204660500Y-63817500D03*
%TO.N,/MCU/FMC_D15*%
X207099167Y-88261989D03*
X203263500Y-62293500D03*
%TO.N,SLAVE_IRQ*%
X188468000Y-100393500D03*
X188770617Y-117841117D03*
%TO.N,SLAVE_SCK*%
X199580500Y-81661000D03*
X203610876Y-82441108D03*
%TO.N,MIO_MOSI*%
X170536557Y-87132011D03*
X169274000Y-96393000D03*
D24*
X141256600Y-97020315D03*
D25*
X176106149Y-81480849D03*
D24*
X167893600Y-113324100D03*
X173189500Y-78678500D03*
%TO.N,MIO_SCK*%
X166496600Y-97131600D03*
X142333854Y-96801494D03*
D25*
X170624500Y-97091500D03*
D24*
X168973100Y-113641600D03*
D25*
X171386500Y-87122000D03*
X177875697Y-80696303D03*
D24*
%TO.N,MIO_MISO*%
X168655600Y-112562100D03*
D25*
X169934800Y-89344500D03*
X169934800Y-95701699D03*
D24*
X176542300Y-80596200D03*
D25*
%TO.N,/MCU/MIO_CS0*%
X186773478Y-86402192D03*
X159639000Y-85915500D03*
%TO.N,/MCU/MIO_CS1*%
X187227872Y-85683840D03*
X159575500Y-85153500D03*
%TO.N,USEL20#4*%
X177165000Y-104563000D03*
X180403500Y-121475500D03*
X181618800Y-121349948D03*
%TO.N,USEL20#2{slash}SCL2*%
X176530000Y-118491000D03*
X192833106Y-115186160D03*
%TO.N,USEL20#3*%
X192959033Y-80269105D03*
X192421600Y-116713000D03*
%TO.N,USEL20#1*%
X179641500Y-118457800D03*
X185054258Y-84389883D03*
%TO.N,/DIB interface/DIB_IRQ*%
X181292500Y-143700500D03*
X180657500Y-148717000D03*
D24*
%TO.N,SLAVE_SYNC*%
X180974600Y-131104100D03*
D25*
X189443146Y-98344900D03*
X187868403Y-117860405D03*
D24*
X177355100Y-131167600D03*
%TO.N,ADC_START{slash}SCL1*%
X174167400Y-80951800D03*
%TO.N,ADC_CLK{slash}SDA1*%
X169938300Y-77776800D03*
%TD*%
D26*
%TO.N,ADIB2_ID2*%
X143532000Y-65532000D02*
X143532000Y-66951000D01*
%TO.N,ADIB2_ID1*%
X192946200Y-98518800D02*
X190817500Y-100647500D01*
X191990370Y-80609865D02*
X192341500Y-80960995D01*
%TO.N,ADIB2_ID2*%
X144119600Y-67538600D02*
X186347100Y-67538600D01*
%TO.N,ADIB2_ID1*%
X192946200Y-88180044D02*
X192946200Y-98518800D01*
X144500000Y-66500000D02*
X185811394Y-66500000D01*
X190157100Y-70845706D02*
X190157100Y-78524100D01*
%TO.N,ADIB2_ID2*%
X143532000Y-66951000D02*
X144119600Y-67538600D01*
X189801500Y-80272547D02*
X191541446Y-82012493D01*
%TO.N,ADIB2_ID1*%
X185811394Y-66500000D02*
X190157100Y-70845706D01*
%TO.N,ADIB2_ID2*%
X142500000Y-64500000D02*
X143532000Y-65532000D01*
%TO.N,ADIB2_ID1*%
X192341500Y-80960995D02*
X192341500Y-87575344D01*
X190157100Y-78524100D02*
X191990370Y-80357370D01*
X191990370Y-80357370D02*
X191990370Y-80609865D01*
X192341500Y-87575344D02*
X192946200Y-88180044D01*
%TO.N,ADIB2_ID2*%
X186347100Y-67538600D02*
X189801500Y-70993000D01*
X189801500Y-70993000D02*
X189801500Y-80272547D01*
X191541446Y-82012493D02*
X191541446Y-97066054D01*
X191541446Y-97066054D02*
X189357000Y-99250500D01*
D27*
%TO.N,+5V*%
X206969900Y-140438600D02*
X205962250Y-141446250D01*
X205962250Y-141446250D02*
X196428900Y-150979600D01*
D26*
X198120000Y-139700000D02*
X199866250Y-141446250D01*
X199866250Y-141446250D02*
X205962250Y-141446250D01*
%TO.N,+15V_ISO*%
X209486100Y-116816600D02*
X210271900Y-116816600D01*
X210271900Y-116816600D02*
X216598500Y-110490000D01*
X216598500Y-110490000D02*
X216598500Y-105981500D01*
X216598500Y-105981500D02*
X218440000Y-104140000D01*
%TO.N,-15V_ISO*%
X218757100Y-116181600D02*
X218757100Y-111950900D01*
X218757100Y-111950900D02*
X219900500Y-110807500D01*
X219900500Y-110807500D02*
X219900500Y-108140500D01*
X219900500Y-108140500D02*
X218440000Y-106680000D01*
D28*
%TO.N,+5V_ISO*%
X207454500Y-109474000D02*
X209296004Y-109474000D01*
X197294101Y-129609582D02*
X197294101Y-119634399D01*
X197181500Y-129722183D02*
X197294101Y-129609582D01*
X197294101Y-119634399D02*
X207454500Y-109474000D01*
D26*
%TO.N,GND*%
X93851100Y-106264600D02*
X93852600Y-106266100D01*
X93851100Y-106168600D02*
X93851100Y-106264600D01*
D29*
%TO.N,+15V_ISO*%
X101409100Y-110466600D02*
X110832500Y-110466600D01*
D30*
X116776100Y-95734600D02*
X126618600Y-95734600D01*
D29*
X110832500Y-110466600D02*
X110946800Y-110580900D01*
D31*
%TO.N,-15V_ISO*%
X113410600Y-116118100D02*
X118046100Y-116118100D01*
X120408300Y-76417900D02*
X120408300Y-72290400D01*
D26*
%TO.N,~{RESET}*%
X167195500Y-74739500D02*
X167132000Y-74676000D01*
X167055400Y-80977200D02*
X166052100Y-80977200D01*
D32*
X186245500Y-117412690D02*
X187154375Y-118321565D01*
D26*
X179641500Y-74739500D02*
X167195500Y-74739500D01*
X167055400Y-80977200D02*
X167055400Y-89712400D01*
X167055400Y-89712400D02*
X167068500Y-89725500D01*
X156552500Y-77319600D02*
X153441000Y-74208100D01*
X179768500Y-74612500D02*
X179641500Y-74739500D01*
X167703500Y-97790000D02*
X167703500Y-102235000D01*
X162394500Y-77319600D02*
X166052100Y-80977200D01*
X156552500Y-77319600D02*
X162394500Y-77319600D01*
X167703500Y-102235000D02*
X166497000Y-103441500D01*
X150361100Y-72503600D02*
X150361100Y-73020500D01*
X150361100Y-73020500D02*
X151548700Y-74208100D01*
X151548700Y-74208100D02*
X153441000Y-74208100D01*
D32*
X186245500Y-110744000D02*
X186245500Y-117412690D01*
D26*
X166497000Y-103441500D02*
X166497000Y-108648500D01*
D28*
%TO.N,+5V_ISO*%
X197231000Y-133708000D02*
X197421100Y-133898100D01*
X197181500Y-129722183D02*
X197231000Y-129771683D01*
D33*
X119519300Y-124474700D02*
X119519300Y-128716500D01*
D28*
X197231000Y-129771683D02*
X197231000Y-133708000D01*
D31*
X122211700Y-76786200D02*
X122211700Y-73458800D01*
D26*
%TO.N,~{ADC_CS}*%
X155441100Y-72503600D02*
X155441100Y-73007800D01*
D32*
%TO.N,DOUT7*%
X132207000Y-124015500D02*
X165723900Y-124015500D01*
X199199100Y-103761000D02*
X196290800Y-106770900D01*
X169633500Y-118759700D02*
X169849400Y-118543800D01*
X196290800Y-109323600D02*
X196290800Y-106770900D01*
X168592100Y-118759700D02*
X169633500Y-118759700D01*
X130429000Y-125793500D02*
X132207000Y-124015500D01*
X168236500Y-121502900D02*
X168236500Y-119115300D01*
X196417800Y-109450600D02*
X196290800Y-109323600D01*
X168236500Y-119115300D02*
X168592100Y-118759700D01*
X165723900Y-124015500D02*
X168236500Y-121502900D01*
%TO.N,DOUT6*%
X169874800Y-117578600D02*
X168998500Y-118454900D01*
X165584200Y-123710700D02*
X129971800Y-123710700D01*
X197794337Y-101528337D02*
X197612000Y-101346000D01*
X195630400Y-108790200D02*
X195592300Y-106936000D01*
X197794337Y-104733963D02*
X197794337Y-101528337D01*
X168452400Y-118454900D02*
X167919000Y-118988300D01*
X195592300Y-106936000D02*
X197794337Y-104733963D01*
X129971800Y-123710700D02*
X127889000Y-125793500D01*
X168998500Y-118454900D02*
X168452400Y-118454900D01*
X167919000Y-121375900D02*
X165584200Y-123710700D01*
X167919000Y-118988300D02*
X167919000Y-121375900D01*
%TO.N,DOUT3*%
X169519200Y-120690100D02*
X170751500Y-119457800D01*
X169519200Y-121566400D02*
X169519200Y-120690100D01*
X166155700Y-124929900D02*
X169519200Y-121566400D01*
X143129000Y-125793500D02*
X143992600Y-124929900D01*
X143992600Y-124929900D02*
X166155700Y-124929900D01*
X170765800Y-119443500D02*
X170776500Y-119432800D01*
X170751500Y-119443500D02*
X170765800Y-119443500D01*
X170751500Y-119457800D02*
X170751500Y-119443500D01*
X190182500Y-116395500D02*
X190182500Y-114055200D01*
%TO.N,DOUT2*%
X191606962Y-107471393D02*
X191606962Y-107473456D01*
X171400800Y-125234700D02*
X146227800Y-125234700D01*
X186461000Y-121985500D02*
X186461000Y-121898419D01*
X172656100Y-123979400D02*
X171400800Y-125234700D01*
X191439800Y-116919619D02*
X191439800Y-107640618D01*
X191439800Y-107304231D02*
X191606962Y-107471393D01*
X146227800Y-125234700D02*
X145669000Y-125793500D01*
X191439800Y-107640618D02*
X191606962Y-107473456D01*
X173989600Y-123979400D02*
X172656100Y-123979400D01*
X186461000Y-121898419D02*
X191439800Y-116919619D01*
%TO.N,DOUT1*%
X185749800Y-123573000D02*
X185749800Y-121731500D01*
X191135000Y-116793367D02*
X191135000Y-107885012D01*
X152998500Y-125539500D02*
X151003000Y-125539500D01*
X190758164Y-107300312D02*
X191336051Y-106722425D01*
X151003000Y-125539500D02*
X150749000Y-125793500D01*
X186643367Y-121285000D02*
X191135000Y-116793367D01*
X190758164Y-107508176D02*
X190758164Y-107300312D01*
X186196300Y-121285000D02*
X186643367Y-121285000D01*
X185749800Y-121731500D02*
X186196300Y-121285000D01*
X172930000Y-125539500D02*
X173341900Y-125127600D01*
X152998500Y-125539500D02*
X172930000Y-125539500D01*
X191135000Y-107885012D02*
X190758164Y-107508176D01*
X185737100Y-123585700D02*
X185749800Y-123573000D01*
%TO.N,DOUT0*%
X174650000Y-125274800D02*
X174067800Y-125857000D01*
X186067300Y-120486900D02*
X187010415Y-120486900D01*
X190830200Y-108011264D02*
X190453364Y-107634428D01*
X175462800Y-122696700D02*
X174650000Y-123509500D01*
X190830200Y-116667115D02*
X190830200Y-108011264D01*
X186041900Y-120461500D02*
X186067300Y-120486900D01*
X175462800Y-121629900D02*
X175462800Y-122696700D01*
X174067800Y-125857000D02*
X154495500Y-125857000D01*
X174650000Y-123509500D02*
X174650000Y-125274800D01*
X154432000Y-125857000D02*
X154051000Y-126238000D01*
X175500900Y-121591800D02*
X175462800Y-121629900D01*
X154495500Y-125857000D02*
X154432000Y-125857000D01*
X187010415Y-120486900D02*
X190830200Y-116667115D01*
X190453364Y-107634428D02*
X190453364Y-106852551D01*
X190453364Y-106852551D02*
X192528503Y-104777412D01*
D34*
%TO.N,DAC_OUT#1*%
X142239600Y-106466100D02*
X141998300Y-106707400D01*
X117995300Y-105069100D02*
X108140100Y-105069100D01*
X108140100Y-105069100D02*
X107949600Y-104878600D01*
D31*
X98119800Y-68734400D02*
X94741600Y-72112600D01*
X120738500Y-68734400D02*
X98119800Y-68734400D01*
X94741600Y-72112600D02*
X94741600Y-101767100D01*
X120738500Y-68734400D02*
X121691000Y-69686900D01*
D34*
X141998300Y-106707400D02*
X119633600Y-106707400D01*
X119633600Y-106707400D02*
X117995300Y-105069100D01*
D31*
X94741600Y-101767100D02*
X91820600Y-104688100D01*
D26*
%TO.N,DAC_CS#2*%
X165417500Y-110236000D02*
X165417500Y-113982500D01*
X165417500Y-113982500D02*
X165989000Y-114554000D01*
X161036000Y-105854500D02*
X165417500Y-110236000D01*
%TO.N,-VSENSE*%
X97291100Y-103354600D02*
X94868600Y-105767600D01*
X107378100Y-106720100D02*
X104393600Y-103735600D01*
D29*
X110426100Y-69953600D02*
X110921400Y-70448900D01*
X96075100Y-103808600D02*
X93852600Y-106031100D01*
D26*
X104393600Y-103735600D02*
X97472100Y-103735600D01*
X142544400Y-107177300D02*
X143446100Y-106275600D01*
D29*
X116839600Y-70448900D02*
X119913000Y-70448900D01*
D26*
X146367100Y-106275600D02*
X146684600Y-106593100D01*
X95186100Y-106021600D02*
X93862100Y-106021600D01*
X107568600Y-106339100D02*
X104584100Y-103354600D01*
X104584100Y-103354600D02*
X97291100Y-103354600D01*
X122427600Y-112816100D02*
X122427600Y-111177800D01*
X142544400Y-107177300D02*
X117004700Y-107177300D01*
D29*
X116801500Y-76087700D02*
X116801500Y-70487000D01*
X98742100Y-69953600D02*
X110426100Y-69953600D01*
D26*
X94868600Y-105767600D02*
X94605100Y-106031100D01*
X120027300Y-108777500D02*
X118008000Y-108777500D01*
D29*
X110921400Y-70448900D02*
X116839600Y-70448900D01*
D26*
X94605100Y-106031100D02*
X93852600Y-106031100D01*
X143446100Y-106275600D02*
X146367100Y-106275600D01*
X93862100Y-106021600D02*
X93852600Y-106031100D01*
D29*
X96075100Y-72620600D02*
X98742100Y-69953600D01*
X116801500Y-70487000D02*
X116839600Y-70448900D01*
D26*
X117004700Y-107177300D02*
X116166500Y-106339100D01*
D29*
X96075100Y-72620600D02*
X96075100Y-103808600D01*
D26*
X116166500Y-106339100D02*
X107568600Y-106339100D01*
X107378100Y-106720100D02*
X115950600Y-106720100D01*
X118008000Y-108777500D02*
X115950600Y-106720100D01*
X97472100Y-103735600D02*
X95186100Y-106021600D01*
X122427600Y-111177800D02*
X120027300Y-108777500D01*
D32*
%TO.N,~{DAC_ALARM}*%
X191720468Y-81261465D02*
X191973200Y-81514197D01*
D26*
X167131600Y-116435600D02*
X167449100Y-116753100D01*
X167449100Y-103608600D02*
X167449100Y-112625600D01*
X167131600Y-112943100D02*
X167131600Y-116435600D01*
X167449100Y-112625600D02*
X167131600Y-112943100D01*
D32*
X191973200Y-88128546D02*
X192115718Y-88271064D01*
X191973200Y-81514197D02*
X191973200Y-88128546D01*
D31*
%TO.N,DAC_OUT#2*%
X98602400Y-69331300D02*
X95503600Y-72430100D01*
X95503600Y-72430100D02*
X95503600Y-102275100D01*
X111289700Y-69598000D02*
X111023000Y-69331300D01*
X95503600Y-102275100D02*
X91757100Y-106021600D01*
D34*
X122961000Y-116245100D02*
X118516000Y-111800100D01*
X125577200Y-116245100D02*
X122961000Y-116245100D01*
D31*
X91757100Y-106021600D02*
X91503100Y-106021600D01*
D34*
X118516000Y-111800100D02*
X99796200Y-111800100D01*
X99796200Y-111800100D02*
X98869100Y-110873000D01*
D31*
X98602400Y-69331300D02*
X111023000Y-69331300D01*
D32*
%TO.N,BOOT0*%
X179070000Y-128587500D02*
X181451250Y-126206250D01*
X182943500Y-90106500D02*
X181038500Y-88201500D01*
X181451250Y-122459750D02*
X182245000Y-121666000D01*
X182943500Y-98920270D02*
X182943500Y-90106500D01*
X181852911Y-100010859D02*
X182943500Y-98920270D01*
X181852911Y-100277589D02*
X181852911Y-100010859D01*
X181451250Y-126206250D02*
X181451250Y-122459750D01*
X179705000Y-120015000D02*
X179112900Y-119422900D01*
X182245000Y-120838294D02*
X181961300Y-120554594D01*
X179070000Y-130556000D02*
X179070000Y-128587500D01*
X180784500Y-101346000D02*
X181852911Y-100277589D01*
X179112900Y-117241600D02*
X180784500Y-115570000D01*
X180784500Y-115570000D02*
X180784500Y-101346000D01*
X179112900Y-119422900D02*
X179112900Y-117241600D01*
X182245000Y-121666000D02*
X182245000Y-120838294D01*
D26*
%TO.N,DIN6*%
X106235100Y-97576100D02*
X114894900Y-97576100D01*
X106171600Y-97512600D02*
X106235100Y-97576100D01*
D32*
X180911500Y-99193554D02*
X180911500Y-93331552D01*
X180911500Y-100102984D02*
X180716166Y-99907650D01*
D26*
X172656100Y-90400600D02*
X115943800Y-90400600D01*
X114894900Y-97576100D02*
X115252500Y-97218500D01*
X173862600Y-89194100D02*
X172656100Y-90400600D01*
D32*
X178181000Y-90601052D02*
X178181000Y-89924800D01*
D26*
X115943800Y-90400600D02*
X115689800Y-90146600D01*
D32*
X180716166Y-99388888D02*
X180911500Y-99193554D01*
X180911500Y-93331552D02*
X178181000Y-90601052D01*
X180911500Y-100393500D02*
X180911500Y-100102984D01*
X180716166Y-99907650D02*
X180716166Y-99388888D01*
D26*
%TO.N,DIN5*%
X114370916Y-90019600D02*
X115156316Y-90805000D01*
D32*
X181229000Y-99534903D02*
X181342366Y-99648269D01*
X178943000Y-90932000D02*
X181229000Y-93218000D01*
D26*
X115156316Y-90805000D02*
X173367050Y-90805000D01*
X106235100Y-92496100D02*
X108902100Y-92496100D01*
D32*
X181229000Y-93218000D02*
X181229000Y-99534903D01*
D26*
X111378600Y-90019600D02*
X114370916Y-90019600D01*
X108902100Y-92496100D02*
X111378600Y-90019600D01*
D32*
X178943000Y-90614500D02*
X178943000Y-90932000D01*
D26*
X173367050Y-90805000D02*
X174006275Y-90165775D01*
%TO.N,DIN4*%
X111315100Y-89384600D02*
X110807100Y-89892600D01*
X106679600Y-89892600D02*
X110807100Y-89892600D01*
X177990100Y-92369100D02*
X178015500Y-92394500D01*
X122808600Y-92940600D02*
X123380100Y-92369100D01*
X123380100Y-92369100D02*
X177990100Y-92369100D01*
X115950600Y-89384600D02*
X111315100Y-89384600D01*
X122808600Y-89702100D02*
X116268100Y-89702100D01*
X116268100Y-89702100D02*
X115950600Y-89384600D01*
%TO.N,DIN3*%
X124459600Y-92813600D02*
X123888100Y-93385100D01*
X123126100Y-88940100D02*
X112077100Y-88940100D01*
X177926600Y-93766100D02*
X176974100Y-92813600D01*
X176974100Y-92813600D02*
X124459600Y-92813600D01*
X123888100Y-89702100D02*
X123126100Y-88940100D01*
X109029100Y-85892100D02*
X112077100Y-88940100D01*
X106489100Y-85892100D02*
X109029100Y-85892100D01*
%TO.N,DIN2*%
X178053600Y-95734600D02*
X175577100Y-93258100D01*
X125666100Y-93258100D02*
X124967600Y-93956600D01*
X123822600Y-88557100D02*
X112329100Y-88557100D01*
X112329100Y-88557100D02*
X106171600Y-82399600D01*
X124967600Y-89702100D02*
X123822600Y-88557100D01*
X175577100Y-93258100D02*
X125666100Y-93258100D01*
%TO.N,DIN1*%
X158315800Y-79756000D02*
X110454606Y-79756000D01*
X109415206Y-78716600D02*
X106171600Y-78716600D01*
X110454606Y-79756000D02*
X109415206Y-78716600D01*
X158724200Y-80164400D02*
X158315800Y-79756000D01*
%TO.N,DIN0*%
X106235100Y-75033600D02*
X110601900Y-79400400D01*
X160413300Y-80837500D02*
X160413300Y-80939100D01*
X158976200Y-79400400D02*
X160413300Y-80837500D01*
X110601900Y-79400400D02*
X158976200Y-79400400D01*
%TO.N,+5V*%
X208914600Y-140438600D02*
X208787600Y-140438600D01*
X208787600Y-140438600D02*
X209168600Y-140819600D01*
D27*
X162813600Y-150979600D02*
X157961100Y-146127100D01*
X157961100Y-146127100D02*
X157961100Y-140003600D01*
X196428900Y-150979600D02*
X162813600Y-150979600D01*
X208914600Y-140438600D02*
X206969900Y-140438600D01*
D33*
%TO.N,-5V_ISO*%
X120548000Y-124487400D02*
X120548000Y-127687800D01*
D26*
%TO.N,~{ADC_DRDY}*%
X152901100Y-72503600D02*
X156904300Y-76506800D01*
X168084100Y-79859600D02*
X166115600Y-79859600D01*
X162762800Y-76506800D02*
X166115600Y-79859600D01*
X156904300Y-76506800D02*
X162762800Y-76506800D01*
X168757200Y-80532700D02*
X168084100Y-79859600D01*
D32*
%TO.N,ISEL_S#3*%
X181698900Y-115948756D02*
X181698900Y-101724756D01*
X183870600Y-87832452D02*
X186236700Y-85466352D01*
X181698900Y-101724756D02*
X182767311Y-100656345D01*
X183870600Y-99286326D02*
X183870600Y-87832452D01*
X186236700Y-83430200D02*
X186118500Y-83312000D01*
X181235366Y-116764800D02*
X181546500Y-116453666D01*
X182767311Y-100389615D02*
X183870600Y-99286326D01*
X181546500Y-116101156D02*
X181698900Y-115948756D01*
X181546500Y-116453666D02*
X181546500Y-116101156D01*
X182767311Y-100656345D02*
X182767311Y-100389615D01*
X186236700Y-85466352D02*
X186236700Y-83430200D01*
%TO.N,ISEL_R#3*%
X180746400Y-126048996D02*
X180746400Y-122137500D01*
X185724800Y-107010200D02*
X185724800Y-91960700D01*
X189153800Y-88531700D02*
X189153800Y-86407756D01*
X182918100Y-109816900D02*
X185724800Y-107010200D01*
X163664500Y-129554700D02*
X177240696Y-129554700D01*
X182918100Y-118837319D02*
X182918100Y-109816900D01*
X182914681Y-118837319D02*
X182918100Y-118837319D01*
X145032100Y-130634200D02*
X162585000Y-130634200D01*
X144003400Y-131662900D02*
X145032100Y-130634200D01*
X140201100Y-134503600D02*
X141454300Y-133250400D01*
X185724800Y-91960700D02*
X189153800Y-88531700D01*
X162585000Y-130634200D02*
X163664500Y-129554700D01*
X144003400Y-132818600D02*
X144003400Y-131662900D01*
X189153800Y-86407756D02*
X187835533Y-85089489D01*
X177240696Y-129554700D02*
X180746400Y-126048996D01*
X143571600Y-133250400D02*
X144003400Y-132818600D01*
X181047300Y-120704700D02*
X182914681Y-118837319D01*
X141454300Y-133250400D02*
X143571600Y-133250400D01*
X181047300Y-121836600D02*
X181047300Y-120704700D01*
X180746400Y-122137500D02*
X181047300Y-121836600D01*
%TO.N,ISEL10_S#3*%
X142911200Y-130024600D02*
X162331000Y-130024600D01*
X138952400Y-133212300D02*
X140612500Y-133212300D01*
X140612500Y-133212300D02*
X141476100Y-132348700D01*
X181863600Y-122478452D02*
X182549800Y-121792252D01*
X176516900Y-128945100D02*
X179984000Y-125478000D01*
X181863600Y-125478000D02*
X181865600Y-125476000D01*
X182549800Y-120458752D02*
X183222900Y-119785652D01*
X186029600Y-92100400D02*
X189458600Y-88671400D01*
X186029600Y-107149900D02*
X186029600Y-92100400D01*
X189458600Y-88671400D02*
X189458600Y-85510510D01*
X141476100Y-131459700D02*
X142911200Y-130024600D01*
X182077450Y-125476000D02*
X181863600Y-125262150D01*
X181863600Y-125262150D02*
X181863600Y-122478452D01*
X183222900Y-109956600D02*
X186029600Y-107149900D01*
X181865600Y-125476000D02*
X182077450Y-125476000D01*
X183222900Y-119785652D02*
X183222900Y-109956600D01*
X137661100Y-134503600D02*
X138952400Y-133212300D01*
X182549800Y-121792252D02*
X182549800Y-120458752D01*
X189458600Y-85510510D02*
X188431714Y-84483624D01*
X162331000Y-130024600D02*
X163410500Y-128945100D01*
X163410500Y-128945100D02*
X176516900Y-128945100D01*
X141476100Y-132348700D02*
X141476100Y-131459700D01*
%TO.N,ISEL10_R#3*%
X179031500Y-124589000D02*
X179374400Y-124284200D01*
X186334400Y-107276152D02*
X186334400Y-92240100D01*
X140790300Y-130939000D02*
X142314300Y-129415000D01*
X182700306Y-124754443D02*
X182168400Y-124222537D01*
X179031500Y-125541500D02*
X179031500Y-124589000D01*
X138199500Y-133250400D02*
X138961500Y-132488400D01*
X163156500Y-128335500D02*
X176237500Y-128335500D01*
X182854600Y-121918504D02*
X182854600Y-120585004D01*
X135121100Y-134503600D02*
X136374300Y-133250400D01*
X183527700Y-119911904D02*
X183527700Y-110082852D01*
X138961500Y-132488400D02*
X138961500Y-131345400D01*
X189763400Y-84613933D02*
X189011776Y-83862309D01*
X183527700Y-110082852D02*
X186334400Y-107276152D01*
X189763400Y-88811100D02*
X189763400Y-84613933D01*
X136374300Y-133250400D02*
X138199500Y-133250400D01*
X176237500Y-128335500D02*
X179031500Y-125541500D01*
X142314300Y-129415000D02*
X162077000Y-129415000D01*
X138961500Y-131345400D02*
X139367900Y-130939000D01*
X182168400Y-124222537D02*
X182168400Y-122604704D01*
X162077000Y-129415000D02*
X163156500Y-128335500D01*
X182854600Y-120585004D02*
X183527700Y-119911904D01*
X186334400Y-92240100D02*
X189763400Y-88811100D01*
X182168400Y-122604704D02*
X182854600Y-121918504D01*
X139367900Y-130939000D02*
X140790300Y-130939000D01*
%TO.N,ISEL_S#4*%
X177761500Y-118035800D02*
X175424700Y-115699000D01*
X180441600Y-125922100D02*
X180441600Y-122526181D01*
X163537500Y-129249900D02*
X177113800Y-129249900D01*
X162458000Y-130329400D02*
X163537500Y-129249900D01*
X179794900Y-121297952D02*
X177761500Y-119264552D01*
X180441600Y-122526181D02*
X179794900Y-121879481D01*
X142741100Y-131963600D02*
X144375300Y-130329400D01*
X177113800Y-129249900D02*
X180441600Y-125922100D01*
X144375300Y-130329400D02*
X162458000Y-130329400D01*
X175424700Y-115699000D02*
X175424700Y-113603500D01*
X179794900Y-121879481D02*
X179794900Y-121297952D01*
X177761500Y-119264552D02*
X177761500Y-118035800D01*
%TO.N,ISEL_R#4*%
X175158000Y-112435100D02*
X174789700Y-112714500D01*
X140201100Y-131963600D02*
X142444900Y-129719800D01*
X174789700Y-115495800D02*
X177456700Y-118162800D01*
X176389900Y-128640300D02*
X179336300Y-125693900D01*
X174789700Y-112714500D02*
X174789700Y-115495800D01*
X180009400Y-123992100D02*
X180009400Y-124550900D01*
X177456700Y-118162800D02*
X177456700Y-119390804D01*
X177456700Y-119390804D02*
X179409000Y-121343104D01*
X162204000Y-129719800D02*
X163283500Y-128640300D01*
X142444900Y-129719800D02*
X162204000Y-129719800D01*
X179409000Y-123391700D02*
X180009400Y-123992100D01*
X179409000Y-121343104D02*
X179409000Y-123391700D01*
X163283500Y-128640300D02*
X176389900Y-128640300D01*
X180009400Y-124550900D02*
X179336300Y-125224000D01*
X179336300Y-125693900D02*
X179336300Y-125224000D01*
%TO.N,ISEL10_S#4*%
X171900000Y-111522868D02*
X171309900Y-110932768D01*
X142187300Y-129110200D02*
X161950000Y-129110200D01*
X171309900Y-105777204D02*
X175695204Y-101391900D01*
X161950000Y-129110200D02*
X163029500Y-128030700D01*
X178726700Y-121091856D02*
X177151900Y-119517056D01*
X171309900Y-110932768D02*
X171309900Y-105777204D01*
X163029500Y-128030700D02*
X176097800Y-128030700D01*
X178726700Y-125401800D02*
X178726700Y-121091856D01*
X175291350Y-117959600D02*
X175299959Y-117950991D01*
X177151900Y-119517056D02*
X177151900Y-118289800D01*
X175299959Y-117950991D02*
X175299959Y-117732009D01*
X171900000Y-118244900D02*
X171900000Y-111522868D01*
X176594109Y-117732009D02*
X175299959Y-117732009D01*
X176838700Y-100021300D02*
X178879500Y-97980500D01*
X176514825Y-101391900D02*
X176838700Y-101068025D01*
X175695204Y-101391900D02*
X176514825Y-101391900D01*
X176838700Y-101068025D02*
X176838700Y-100021300D01*
X172833900Y-119178800D02*
X171900000Y-118244900D01*
X138990500Y-130634200D02*
X140663300Y-130634200D01*
X177151900Y-118289800D02*
X176594109Y-117732009D01*
X140663300Y-130634200D02*
X142187300Y-129110200D01*
X137661100Y-131963600D02*
X138990500Y-130634200D01*
X176097800Y-128030700D02*
X178726700Y-125401800D01*
%TO.N,ISEL10_R#4*%
X135121100Y-131963600D02*
X137060100Y-130024600D01*
X181851300Y-116579918D02*
X181825500Y-116605718D01*
X181105684Y-118169816D02*
X181105684Y-118924971D01*
X184531000Y-99056978D02*
X183072111Y-100515867D01*
X175843800Y-127421100D02*
X177456700Y-125808200D01*
X162775500Y-127421100D02*
X175843800Y-127421100D01*
X184531000Y-93789500D02*
X184531000Y-99056978D01*
X181851300Y-116227408D02*
X181851300Y-116579918D01*
X140409300Y-130024600D02*
X141933300Y-128500600D01*
X180433366Y-119597289D02*
X180433366Y-120581362D01*
X177456700Y-125808200D02*
X177456700Y-124042900D01*
X177456700Y-124042900D02*
X178035631Y-123463969D01*
X141933300Y-128500600D02*
X161696000Y-128500600D01*
X182003700Y-108318300D02*
X182003700Y-116075008D01*
X181825500Y-117450000D02*
X181105684Y-118169816D01*
X183072111Y-100515867D02*
X183072111Y-107249889D01*
X161696000Y-128500600D02*
X162775500Y-127421100D01*
X178035631Y-123463969D02*
X178035631Y-121286369D01*
X182003700Y-116075008D02*
X181851300Y-116227408D01*
X183072111Y-107249889D02*
X182003700Y-108318300D01*
X181105684Y-118924971D02*
X180433366Y-119597289D01*
X137060100Y-130024600D02*
X140409300Y-130024600D01*
X181825500Y-116605718D02*
X181825500Y-117450000D01*
%TO.N,USEL1#1*%
X170700300Y-111185272D02*
X170700300Y-105524700D01*
X170700300Y-105524700D02*
X175420457Y-100804543D01*
X175420457Y-100804543D02*
X175420457Y-100299963D01*
X171290400Y-111775372D02*
X170700300Y-111185272D01*
X171767100Y-119013700D02*
X171290400Y-118537000D01*
X171290400Y-118537000D02*
X171290400Y-111775372D01*
X172979950Y-122969750D02*
X171767100Y-121756900D01*
X171767100Y-121756900D02*
X171767100Y-119013700D01*
%TO.N,ISEL#1*%
X171005100Y-105650952D02*
X175890352Y-100765700D01*
X171595200Y-118410000D02*
X171595200Y-111649120D01*
X171005100Y-111059020D02*
X171005100Y-105650952D01*
X173983250Y-122950700D02*
X173348250Y-122315700D01*
X172071900Y-121617200D02*
X172071900Y-118886700D01*
X173348250Y-122315700D02*
X172770400Y-122315700D01*
X175890352Y-100765700D02*
X176255444Y-100765700D01*
X172071900Y-118886700D02*
X171595200Y-118410000D01*
X171595200Y-111649120D02*
X171005100Y-111059020D01*
X172770400Y-122315700D02*
X172071900Y-121617200D01*
%TO.N,USEL100#1*%
X182462511Y-100530093D02*
X181394100Y-101598504D01*
X183565800Y-99160074D02*
X182462511Y-100263363D01*
X185610500Y-83883500D02*
X185610500Y-85661500D01*
X185610500Y-85661500D02*
X183565800Y-87706200D01*
X181394100Y-115822504D02*
X180454300Y-116762304D01*
X182462511Y-100263363D02*
X182462511Y-100530093D01*
X180454300Y-118436406D02*
X180432906Y-118457800D01*
X183565800Y-87706200D02*
X183565800Y-99160074D01*
X181394100Y-101598504D02*
X181394100Y-115822504D01*
X180454300Y-116762304D02*
X180454300Y-118436406D01*
%TO.N,ISEL_MID#3*%
X175564400Y-123941300D02*
X176224800Y-123280900D01*
X133119500Y-133186900D02*
X133843400Y-132463000D01*
X131357800Y-133186900D02*
X133119500Y-133186900D01*
X130041100Y-134503600D02*
X131357800Y-133186900D01*
X135519800Y-129719800D02*
X140282300Y-129719800D01*
X133843400Y-132463000D02*
X133843400Y-131396200D01*
X175564400Y-125681200D02*
X175564400Y-123941300D01*
X186944000Y-92506052D02*
X190373000Y-89077052D01*
X133843400Y-131396200D02*
X135519800Y-129719800D01*
X161569000Y-128195800D02*
X162648500Y-127116300D01*
X186944000Y-107528656D02*
X186944000Y-92506052D01*
X140282300Y-129719800D02*
X141806300Y-128195800D01*
X162648500Y-127116300D02*
X174129300Y-127116300D01*
X184137300Y-110335356D02*
X186944000Y-107528656D01*
X190373000Y-82827194D02*
X190253177Y-82707371D01*
X141806300Y-128195800D02*
X161569000Y-128195800D01*
X184137300Y-121743800D02*
X184137300Y-110335356D01*
X174129300Y-127116300D02*
X175564400Y-125681200D01*
X183895600Y-121985500D02*
X184137300Y-121743800D01*
X176732800Y-123280900D02*
X176224800Y-123280900D01*
X190373000Y-89077052D02*
X190373000Y-82827194D01*
%TO.N,ISEL_LOW#3*%
X136383400Y-132590000D02*
X136383400Y-131713700D01*
X190068200Y-83717435D02*
X189590685Y-83239920D01*
X183197100Y-123333861D02*
X183197100Y-120777400D01*
X162902500Y-127725900D02*
X175970800Y-127725900D01*
X183832500Y-120038156D02*
X183832500Y-110209104D01*
X137767700Y-130329400D02*
X140536300Y-130329400D01*
X135723000Y-133250400D02*
X136383400Y-132590000D01*
X136383400Y-131713700D02*
X137767700Y-130329400D01*
X186639200Y-92379800D02*
X190068200Y-88950800D01*
X189645605Y-83185000D02*
X189590685Y-83239920D01*
X175970800Y-127725900D02*
X178091700Y-125605000D01*
X183197500Y-120673156D02*
X183832500Y-120038156D01*
X133834300Y-133250400D02*
X135723000Y-133250400D01*
X161823000Y-128805400D02*
X162902500Y-127725900D01*
X182825478Y-123705483D02*
X183197100Y-123333861D01*
X190068200Y-88950800D02*
X190068200Y-83717435D01*
X142060300Y-128805400D02*
X161823000Y-128805400D01*
X183832500Y-110209104D02*
X186639200Y-107402404D01*
X132581100Y-134503600D02*
X133834300Y-133250400D01*
X183197500Y-120777000D02*
X183197500Y-120673156D01*
X183197100Y-120777400D02*
X183197500Y-120777000D01*
X178091700Y-125605000D02*
X178091700Y-125135100D01*
X189738000Y-83185000D02*
X189645605Y-83185000D01*
X140536300Y-130329400D02*
X142060300Y-128805400D01*
X186639200Y-107402404D02*
X186639200Y-92379800D01*
D26*
%TO.N,USEL1#3*%
X192345970Y-80462571D02*
X192697100Y-80813701D01*
X193301800Y-104949168D02*
X192709800Y-105541168D01*
X191770000Y-110998000D02*
X191770000Y-117475000D01*
X192709800Y-110058200D02*
X191770000Y-110998000D01*
X192697100Y-87428050D02*
X193301800Y-88032750D01*
X193301800Y-88032750D02*
X193301800Y-104949168D01*
X191051937Y-78497434D02*
X192345970Y-79791467D01*
X192697100Y-80813701D02*
X192697100Y-87428050D01*
X192709800Y-105541168D02*
X192709800Y-110058200D01*
X192345970Y-79791467D02*
X192345970Y-80462571D01*
D32*
%TO.N,USEL100#2*%
X170941600Y-118632700D02*
X170941600Y-112458100D01*
X170465350Y-121007600D02*
X171462300Y-120010650D01*
X171462300Y-119153400D02*
X170941600Y-118632700D01*
D26*
X193561226Y-79714088D02*
X193421003Y-79573865D01*
X193561226Y-87358228D02*
X193561226Y-79714088D01*
D32*
X171462300Y-120010650D02*
X171462300Y-119153400D01*
D26*
X194246500Y-88043502D02*
X193561226Y-87358228D01*
X194246500Y-104394000D02*
X194246500Y-88043502D01*
D32*
X170941600Y-112458100D02*
X170561000Y-112077500D01*
%TO.N,ISEL#2*%
X174808750Y-119274050D02*
X172509600Y-116974900D01*
X172509600Y-110815835D02*
X172326592Y-110632827D01*
X174808750Y-122315700D02*
X174808750Y-119274050D01*
X172509600Y-116974900D02*
X172509600Y-110815835D01*
%TO.N,ISEL_LOW#4*%
X182156100Y-116353660D02*
X182308500Y-116201260D01*
X181410484Y-119370984D02*
X181410484Y-118296068D01*
X185102500Y-90336846D02*
X185777346Y-89662000D01*
X132581100Y-131963600D02*
X135129700Y-129415000D01*
X181410484Y-118296068D02*
X182130300Y-117576252D01*
X177185630Y-121862870D02*
X177185630Y-121284804D01*
X140155300Y-129415000D02*
X141679300Y-127891000D01*
X185777346Y-89662000D02*
X186436000Y-89662000D01*
X182156100Y-116706170D02*
X182156100Y-116353660D01*
X162521500Y-126811500D02*
X173989600Y-126811500D01*
X183376911Y-107403889D02*
X183376911Y-100642119D01*
X173989600Y-126811500D02*
X175259600Y-125541500D01*
X183376911Y-100642119D02*
X185102500Y-98916530D01*
X135129700Y-129415000D02*
X140155300Y-129415000D01*
X175259600Y-123788900D02*
X177185630Y-121862870D01*
X182130300Y-117576252D02*
X182130300Y-116731970D01*
X161442000Y-127891000D02*
X162521500Y-126811500D01*
X175259600Y-125541500D02*
X175259600Y-123788900D01*
X182308500Y-108472300D02*
X183376911Y-107403889D01*
X182130300Y-116731970D02*
X182156100Y-116706170D01*
X182308500Y-116201260D02*
X182308500Y-108472300D01*
X185102500Y-98916530D02*
X185102500Y-90336846D01*
X141679300Y-127891000D02*
X161442000Y-127891000D01*
%TO.N,ISEL_MID#4*%
X130041100Y-131963600D02*
X131129200Y-130875500D01*
X182460900Y-116479912D02*
X182613300Y-116327512D01*
X181991000Y-118554500D02*
X182435100Y-118110400D01*
X174954800Y-123661900D02*
X176212100Y-122404600D01*
X173849900Y-126506700D02*
X174954800Y-125401800D01*
X162394500Y-126506700D02*
X173849900Y-126506700D01*
X181979900Y-118554500D02*
X181952500Y-118581900D01*
X182613300Y-108598552D02*
X185420000Y-105791852D01*
X131129200Y-130875500D02*
X133233800Y-130875500D01*
X176212100Y-121408564D02*
X176335628Y-121285036D01*
X182435100Y-116858222D02*
X182460900Y-116832422D01*
X182435100Y-118110400D02*
X182435100Y-116858222D01*
X174954800Y-125401800D02*
X174954800Y-123661900D01*
X140028300Y-129110200D02*
X141552300Y-127586200D01*
X182613300Y-116327512D02*
X182613300Y-108598552D01*
X176212100Y-122404600D02*
X176212100Y-121408564D01*
X185420000Y-90766900D02*
X185826400Y-90360500D01*
X133233800Y-130875500D02*
X134999100Y-129110200D01*
X181991000Y-118554500D02*
X181979900Y-118554500D01*
X182460900Y-116832422D02*
X182460900Y-116479912D01*
X134999100Y-129110200D02*
X140028300Y-129110200D01*
X185420000Y-105791852D02*
X185420000Y-90766900D01*
X161315000Y-127586200D02*
X162394500Y-126506700D01*
X141552300Y-127586200D02*
X161315000Y-127586200D01*
%TO.N,USEL1#4*%
X172204800Y-111396616D02*
X171614700Y-110806516D01*
X173805450Y-119172450D02*
X172204800Y-117571800D01*
X172204800Y-117571800D02*
X172204800Y-111396616D01*
X171614700Y-110806516D02*
X171614700Y-109780800D01*
X171614700Y-109780800D02*
X171957600Y-109437900D01*
%TO.N,BIAS_EN*%
X178562000Y-99568000D02*
X178562000Y-99775777D01*
X190982073Y-82236595D02*
X190982073Y-88897264D01*
D26*
X115569600Y-104142000D02*
X118237000Y-104142000D01*
X142022100Y-105564400D02*
X151157400Y-105564400D01*
X151157400Y-105564400D02*
X151828500Y-106235500D01*
D32*
X176641077Y-101696700D02*
X175861800Y-101696700D01*
D26*
X120394000Y-106299000D02*
X141287500Y-106299000D01*
D32*
X175861800Y-101696700D02*
X173545500Y-104013000D01*
X173545500Y-104013000D02*
X173545500Y-104711500D01*
D26*
X141287500Y-106299000D02*
X142022100Y-105564400D01*
D32*
X190738989Y-81993511D02*
X190982073Y-82236595D01*
D26*
X118237000Y-104142000D02*
X120394000Y-106299000D01*
D32*
X178562000Y-99775777D02*
X176641077Y-101696700D01*
%TO.N,AFE_ID1*%
X199910700Y-103632330D02*
X199199500Y-102921130D01*
X162672400Y-132755100D02*
X161880900Y-131963600D01*
X183984500Y-124411200D02*
X184530600Y-124957300D01*
X199199500Y-102921130D02*
X199199500Y-101650052D01*
X161880900Y-131963600D02*
X160521100Y-131963600D01*
X183768600Y-124411200D02*
X183984500Y-124411200D01*
X194652900Y-87274400D02*
X194246500Y-86868000D01*
X199199500Y-101650052D02*
X194652900Y-97103452D01*
X199910700Y-110667800D02*
X199910700Y-103632330D01*
X185621200Y-124957300D02*
X199910700Y-110667800D01*
X194652900Y-97103452D02*
X194652900Y-87274400D01*
X184530600Y-124957300D02*
X185621200Y-124957300D01*
%TO.N,AFE_ID0*%
X185595052Y-125414500D02*
X200215500Y-110794052D01*
X194957700Y-86406970D02*
X194824280Y-86273550D01*
X183908300Y-125414500D02*
X185595052Y-125414500D01*
X194957700Y-96977200D02*
X194957700Y-86406970D01*
X199517000Y-102807578D02*
X199517000Y-101536500D01*
X200215500Y-110794052D02*
X200215500Y-103506078D01*
X200215500Y-103506078D02*
X199517000Y-102807578D01*
X199517000Y-101536500D02*
X194957700Y-96977200D01*
D26*
%TO.N,ADIB1_ID1*%
X184221094Y-62242700D02*
X193332100Y-71353706D01*
X195846772Y-85935786D02*
X195846772Y-86124219D01*
X193332100Y-78160429D02*
X194426421Y-79254750D01*
X128762000Y-62242700D02*
X184221094Y-62242700D01*
X195846772Y-86124219D02*
X198198081Y-88475528D01*
X193332100Y-71353706D02*
X193332100Y-78160429D01*
X124501100Y-66503600D02*
X128762000Y-62242700D01*
X194426421Y-79254750D02*
X194426421Y-84515435D01*
X194426421Y-84515435D02*
X195846772Y-85935786D01*
%TO.N,ADIB1_ID0*%
X194782021Y-79107456D02*
X194782021Y-84368141D01*
X124916800Y-65495900D02*
X128525600Y-61887100D01*
X122501100Y-66503600D02*
X123508800Y-65495900D01*
X196202372Y-85957996D02*
X198126005Y-87881629D01*
X198126005Y-87881629D02*
X198762294Y-87881629D01*
X194782021Y-84368141D02*
X196202372Y-85788492D01*
X193687700Y-78013135D02*
X194782021Y-79107456D01*
X184368388Y-61887100D02*
X193687700Y-71206412D01*
X193687700Y-71206412D02*
X193687700Y-78013135D01*
X123508800Y-65495900D02*
X124916800Y-65495900D01*
X128525600Y-61887100D02*
X184368388Y-61887100D01*
X196202372Y-85788492D02*
X196202372Y-85957996D01*
%TO.N,ADIB2_ID0*%
X142824200Y-62598300D02*
X184073800Y-62598300D01*
X196977000Y-97345500D02*
X198120000Y-97345500D01*
X194070821Y-84691319D02*
X195491172Y-86111670D01*
X192976500Y-78307723D02*
X194070821Y-79402044D01*
X202769849Y-94234000D02*
X203531849Y-93472000D01*
X195491172Y-95859672D02*
X196977000Y-97345500D01*
X198120000Y-97345500D02*
X201231500Y-94234000D01*
X195491172Y-86111670D02*
X195491172Y-95859672D01*
X141478000Y-63944500D02*
X142824200Y-62598300D01*
X201231500Y-94234000D02*
X202769849Y-94234000D01*
X142500000Y-66500000D02*
X141478000Y-65478000D01*
X194070821Y-79402044D02*
X194070821Y-84691319D01*
X141478000Y-65478000D02*
X141478000Y-63944500D01*
X192976500Y-71501000D02*
X192976500Y-78307723D01*
X184073800Y-62598300D02*
X192976500Y-71501000D01*
%TO.N,ADIB1_ID2*%
X195137621Y-84107119D02*
X197592421Y-86561919D01*
X194043300Y-77865840D02*
X195137621Y-78960161D01*
X122501100Y-64503600D02*
X125473200Y-61531500D01*
X195137621Y-78960161D02*
X195137621Y-84107119D01*
X194043300Y-71059118D02*
X194043300Y-77865840D01*
X184515682Y-61531500D02*
X194043300Y-71059118D01*
X125473200Y-61531500D02*
X184515682Y-61531500D01*
%TO.N,ADIB1_SW*%
X125069200Y-71363300D02*
X125069200Y-74309700D01*
X127545700Y-76786200D02*
X154178000Y-76786200D01*
X122389500Y-68683600D02*
X125069200Y-71363300D01*
X125069200Y-74309700D02*
X127545700Y-76786200D01*
D31*
%TO.N,Net-(IC12-VOUT)*%
X153923600Y-98782600D02*
X153923600Y-96496600D01*
X152463100Y-95925100D02*
X153352100Y-95925100D01*
X157225600Y-99290600D02*
X154431600Y-99290600D01*
X154431600Y-99290600D02*
X153923600Y-98782600D01*
X153352100Y-95925100D02*
X153923600Y-96496600D01*
%TO.N,Net-(IC13-VOUT)*%
X154431600Y-116054600D02*
X157225600Y-116054600D01*
X153860100Y-113895600D02*
X152590100Y-112625600D01*
X153860100Y-115483100D02*
X153860100Y-113895600D01*
X154431600Y-116054600D02*
X153860100Y-115483100D01*
D34*
%TO.N,DAC_OUT#4*%
X113667000Y-112587500D02*
X114695700Y-113616200D01*
X119138300Y-113616200D02*
X119176400Y-113578100D01*
X104977800Y-112587500D02*
X113667000Y-112587500D01*
X114695700Y-113616200D02*
X119138300Y-113616200D01*
X104063400Y-113501900D02*
X104977800Y-112587500D01*
D26*
%TO.N,DIN7{slash}MISO*%
X135509000Y-103060500D02*
X151638000Y-103060500D01*
X107719000Y-102552500D02*
X135001000Y-102552500D01*
X106806600Y-101640100D02*
X107719000Y-102552500D01*
X154368500Y-105791000D02*
X154368500Y-107543600D01*
X154368500Y-107543600D02*
X154444700Y-107619800D01*
X106679600Y-101640100D02*
X106806600Y-101640100D01*
X151638000Y-103060500D02*
X154368500Y-105791000D01*
X135001000Y-102552500D02*
X135509000Y-103060500D01*
%TO.N,/DIB interface/DIB_SDA*%
X141223600Y-146026600D02*
X138937600Y-143740600D01*
X149669100Y-146026600D02*
X141223600Y-146026600D01*
X151066100Y-144629600D02*
X149669100Y-146026600D01*
X138937600Y-141300100D02*
X137641100Y-140003600D01*
X138937600Y-143740600D02*
X138937600Y-141300100D01*
%TO.N,/DIB interface/DIB_SCL*%
X150645400Y-146471100D02*
X139028600Y-146471100D01*
X139028600Y-146471100D02*
X135101100Y-142543600D01*
X151724900Y-145391600D02*
X150645400Y-146471100D01*
X151764600Y-145391600D02*
X151724900Y-145391600D01*
%TO.N,/DIB interface/DIB_A0*%
X152220200Y-138800300D02*
X151511000Y-139509500D01*
X151511000Y-139509500D02*
X151511000Y-141373700D01*
X151511000Y-141373700D02*
X150341100Y-142543600D01*
X169671600Y-138762200D02*
X169633500Y-138800300D01*
X169633500Y-138800300D02*
X152220200Y-138800300D01*
%TO.N,/DIB interface/DIB_NRESET*%
X179577600Y-145391600D02*
X179577600Y-149138100D01*
%TO.N,/DIB interface/DIB_BOOT*%
X161734100Y-141236600D02*
X171653100Y-141236600D01*
X172656500Y-142240000D02*
X178220700Y-142240000D01*
X171653100Y-141236600D02*
X172656500Y-142240000D01*
X160501100Y-140003600D02*
X161734100Y-141236600D01*
X178220700Y-142240000D02*
X178688600Y-141772100D01*
%TO.N,/DIB interface/OE_SYNC*%
X177418600Y-145391600D02*
X177418600Y-149138100D01*
%TO.N,PWM#2{slash}MOSI*%
X152944191Y-106371300D02*
X152853300Y-106371300D01*
X115256663Y-103454200D02*
X114349945Y-104360918D01*
X135214412Y-103771700D02*
X134896912Y-103454200D01*
X152853300Y-106371300D02*
X150253700Y-103771700D01*
X150253700Y-103771700D02*
X135214412Y-103771700D01*
X134896912Y-103454200D02*
X115256663Y-103454200D01*
%TO.N,PWM#1{slash}SCK*%
X135044206Y-103098600D02*
X114635300Y-103098600D01*
X153666947Y-105926800D02*
X153498600Y-105926800D01*
X135361706Y-103416100D02*
X135044206Y-103098600D01*
X150987900Y-103416100D02*
X135361706Y-103416100D01*
X153498600Y-105926800D02*
X150987900Y-103416100D01*
X114635300Y-103098600D02*
X114426600Y-103307300D01*
%TO.N,Net-(IC6-B2)*%
X193260541Y-120048459D02*
X193260541Y-120045041D01*
X190025459Y-123283541D02*
X193260541Y-120048459D01*
X190022041Y-123283541D02*
X190025459Y-123283541D01*
%TO.N,Net-(IC6-B1)*%
X188404100Y-131612100D02*
X192595100Y-131612100D01*
D29*
%TO.N,POUT6*%
X121157600Y-120309100D02*
X126619000Y-120309100D01*
X114299600Y-127167100D02*
X121157600Y-120309100D01*
X83012600Y-127167100D02*
X114299600Y-127167100D01*
X81151100Y-129028600D02*
X83012600Y-127167100D01*
%TO.N,POUT7*%
X81151100Y-132838600D02*
X83226600Y-134914100D01*
X107568600Y-134914100D02*
X121324700Y-121158000D01*
X83226600Y-134914100D02*
X107568600Y-134914100D01*
X121324700Y-121158000D02*
X128310098Y-121158000D01*
X128310098Y-121158000D02*
X129158999Y-120309099D01*
%TO.N,POUT5*%
X133335300Y-119532400D02*
X134302500Y-120499600D01*
X81151100Y-125218600D02*
X83076100Y-123293600D01*
X98121800Y-119532400D02*
X133335300Y-119532400D01*
X83076100Y-123293600D02*
X94360600Y-123293600D01*
X94360600Y-123293600D02*
X98121800Y-119532400D01*
%TO.N,POUT4*%
X97890338Y-118973600D02*
X135087500Y-118973600D01*
X136359500Y-120245600D02*
X136778996Y-120245600D01*
X97888337Y-118975600D02*
X97890338Y-118973600D01*
X83584100Y-118975600D02*
X97888337Y-118975600D01*
X135087500Y-118973600D02*
X136359500Y-120245600D01*
X81151100Y-121408600D02*
X83584100Y-118975600D01*
%TO.N,POUT3*%
X101218600Y-115610100D02*
X101726600Y-115102100D01*
X83139600Y-115610100D02*
X101218600Y-115610100D01*
X119795838Y-115102100D02*
X123108538Y-118414800D01*
X141010100Y-119293100D02*
X141922500Y-120205500D01*
X136207100Y-119293100D02*
X141010100Y-119293100D01*
X81151100Y-117598600D02*
X83139600Y-115610100D01*
X123108538Y-118414800D02*
X135328800Y-118414800D01*
X101726600Y-115102100D02*
X119795838Y-115102100D01*
X135328800Y-118414800D02*
X136207100Y-119293100D01*
%TO.N,POUT2*%
X123340000Y-117856000D02*
X135570100Y-117856000D01*
X100329600Y-114403600D02*
X119887600Y-114403600D01*
X83076100Y-111863600D02*
X97789600Y-111863600D01*
X142991300Y-118734300D02*
X144399000Y-120142000D01*
X136448400Y-118734300D02*
X142991300Y-118734300D01*
X97789600Y-111863600D02*
X100329600Y-114403600D01*
X119887600Y-114403600D02*
X123340000Y-117856000D01*
X135570100Y-117856000D02*
X136448400Y-118734300D01*
X81151100Y-113788600D02*
X83076100Y-111863600D01*
%TO.N,POUT1*%
X122961000Y-115432300D02*
X125843900Y-115432300D01*
X144551000Y-118175500D02*
X146644500Y-120269000D01*
X81151100Y-109978600D02*
X83076100Y-108053600D01*
X136689700Y-118175500D02*
X144551000Y-118175500D01*
X127101200Y-116689600D02*
X135203800Y-116689600D01*
X115582300Y-108053600D02*
X122961000Y-115432300D01*
X146644500Y-120269000D02*
X149479000Y-120269000D01*
X83076100Y-108053600D02*
X115582300Y-108053600D01*
X135203800Y-116689600D02*
X136689700Y-118175500D01*
X125843900Y-115432300D02*
X127101200Y-116689600D01*
%TO.N,POUT0*%
X106933600Y-107418600D02*
X103885600Y-104370600D01*
X136931000Y-117616700D02*
X135445100Y-116130800D01*
X145973400Y-118785100D02*
X144805000Y-117616700D01*
X153288600Y-120563100D02*
X151510600Y-118785100D01*
X103885600Y-104370600D02*
X100094100Y-104370600D01*
X144805000Y-117616700D02*
X136931000Y-117616700D01*
X115823600Y-107418600D02*
X106933600Y-107418600D01*
X135445100Y-116130800D02*
X127342500Y-116130800D01*
X126034400Y-114822700D02*
X123227700Y-114822700D01*
X127342500Y-116130800D02*
X126034400Y-114822700D01*
X151510600Y-118785100D02*
X145973400Y-118785100D01*
X123227700Y-114822700D02*
X115823600Y-107418600D01*
X100094100Y-104370600D02*
X99903600Y-104561100D01*
D31*
%TO.N,Net-(IC11B--IN)*%
X157035100Y-117134100D02*
X150812100Y-117134100D01*
X157035100Y-117134100D02*
X157225600Y-117324600D01*
X150812100Y-117134100D02*
X149161100Y-115483100D01*
D34*
%TO.N,/ADIB\u002C PWM\u002C AFE connectors/AFE1N*%
X123557900Y-67845400D02*
X119842900Y-67845400D01*
X119842900Y-67845400D02*
X118501100Y-66503600D01*
X128761100Y-71223600D02*
X126936100Y-71223600D01*
X126936100Y-71223600D02*
X123557900Y-67845400D01*
X130041100Y-72503600D02*
X128761100Y-71223600D01*
%TO.N,/ADIB\u002C PWM\u002C AFE connectors/AFE2N*%
X132581100Y-72503600D02*
X131206800Y-73877900D01*
X126021700Y-73877900D02*
X131206800Y-73877900D01*
D26*
%TO.N,/DIB interface/DIB_CSB*%
X186055000Y-147320000D02*
X186055000Y-144907016D01*
X186055000Y-144907016D02*
X186054984Y-144907000D01*
%TO.N,Net-(RN1A-2)*%
X144017600Y-141247100D02*
X145261100Y-140003600D01*
X144017600Y-145201100D02*
X144017600Y-141247100D01*
D29*
%TO.N,Net-(Q9-G)*%
X107060600Y-109120400D02*
X110819800Y-109120400D01*
X110819800Y-109120400D02*
X111061100Y-109361700D01*
D32*
%TO.N,DOUT4*%
X169201700Y-120093200D02*
X169201700Y-121439400D01*
X194322300Y-109361700D02*
X194322300Y-107329700D01*
X194804900Y-109844300D02*
X194322300Y-109361700D01*
X166016000Y-124625100D02*
X139217400Y-124625100D01*
X169201700Y-121439400D02*
X166016000Y-124625100D01*
X170509800Y-116511800D02*
X170509800Y-118785100D01*
X196728127Y-104923873D02*
X196728127Y-102887749D01*
X170293900Y-116295900D02*
X170509800Y-116511800D01*
X170509800Y-118785100D02*
X169201700Y-120093200D01*
X194322300Y-107329700D02*
X196728127Y-104923873D01*
X139217400Y-124625100D02*
X138049000Y-125793500D01*
%TO.N,DOUT5*%
X139091148Y-124320300D02*
X139038348Y-124373100D01*
X139038348Y-124373100D02*
X136929400Y-124373100D01*
X136929400Y-124373100D02*
X135509000Y-125793500D01*
X168884200Y-121299700D02*
X165863600Y-124320300D01*
X194957300Y-107939300D02*
X194957300Y-107126500D01*
X197407355Y-102430679D02*
X197100165Y-102123489D01*
X165863600Y-124320300D02*
X139091148Y-124320300D01*
X197407355Y-104676445D02*
X197407355Y-102430679D01*
X194957300Y-107126500D02*
X197407355Y-104676445D01*
X168884200Y-119394700D02*
X168884200Y-121299700D01*
D26*
%TO.N,LEVEL_DIN0_3*%
X115087400Y-91338400D02*
X174536100Y-91338400D01*
X176602793Y-89271707D02*
X176602793Y-88579983D01*
X114490500Y-90741500D02*
X115087400Y-91338400D01*
X112649000Y-90741500D02*
X114490500Y-90741500D01*
X174536100Y-91338400D02*
X176602793Y-89271707D01*
%TO.N,LEVEL_DIN4_7*%
X174688500Y-91694000D02*
X115379500Y-91694000D01*
X177211204Y-89183400D02*
X177199100Y-89183400D01*
X177199100Y-89183400D02*
X174688500Y-91694000D01*
X115379500Y-91694000D02*
X114935000Y-92138500D01*
D31*
%TO.N,/MCU/FMC_D0*%
X195518621Y-83380857D02*
X199404225Y-87266461D01*
X194424300Y-70937277D02*
X194424300Y-77708025D01*
X194424300Y-77708025D02*
X195518621Y-78802347D01*
X199404225Y-87266461D02*
X199429309Y-87266461D01*
X195518621Y-78802347D02*
X195518621Y-83380857D01*
X195892577Y-69469000D02*
X194424300Y-70937277D01*
X196088000Y-69469000D02*
X195892577Y-69469000D01*
%TO.N,/MCU/FMC_D1*%
X199364602Y-86652102D02*
X199949336Y-86652102D01*
X194830700Y-72948800D02*
X194830700Y-77539689D01*
X195925021Y-83212521D02*
X199364602Y-86652102D01*
X198691500Y-69088000D02*
X194830700Y-72948800D01*
X194830700Y-77539689D02*
X195925021Y-78634011D01*
X195925021Y-78634011D02*
X195925021Y-83212521D01*
%TO.N,/MCU/FMC_A10*%
X204247821Y-84862390D02*
X204624402Y-84862390D01*
X201252565Y-87857646D02*
X204247821Y-84862390D01*
X204624402Y-84862390D02*
X205639965Y-83846827D01*
X205639965Y-83846827D02*
X205771750Y-83846827D01*
X201252565Y-92102803D02*
X201252565Y-87857646D01*
%TO.N,/MCU/FMC_A4*%
X201095848Y-93446600D02*
X199479710Y-93446600D01*
X199479710Y-93446600D02*
X197266102Y-95660208D01*
X216683500Y-75819000D02*
X216683500Y-80125208D01*
X209820412Y-86988296D02*
X207554152Y-86988296D01*
X216683500Y-80125208D02*
X209820412Y-86988296D01*
X207554152Y-86988296D02*
X201095848Y-93446600D01*
X197266102Y-95660208D02*
X197266102Y-95830912D01*
%TO.N,/MCU/FMC_A5*%
X201391184Y-93853000D02*
X200133149Y-93853000D01*
X204943284Y-90300900D02*
X201391184Y-93853000D01*
X197478237Y-96507912D02*
X197478237Y-96654017D01*
X216853980Y-74986269D02*
X217368400Y-75500689D01*
X207082544Y-90300900D02*
X204943284Y-90300900D01*
X200133149Y-93853000D02*
X197478237Y-96507912D01*
X217368400Y-80015044D02*
X207082544Y-90300900D01*
X217368400Y-75500689D02*
X217368400Y-80015044D01*
%TO.N,/MCU/FMC_A6*%
X204038912Y-89780511D02*
X203701858Y-89780511D01*
X207237527Y-86581896D02*
X204038912Y-89780511D01*
X216302200Y-74420352D02*
X215768100Y-74954452D01*
X209652076Y-86581896D02*
X207237527Y-86581896D01*
X215768100Y-80465872D02*
X209652076Y-86581896D01*
X215768100Y-74954452D02*
X215768100Y-80465872D01*
%TO.N,/MCU/FMC_A7*%
X215357800Y-74328307D02*
X215357800Y-80301436D01*
X215928890Y-73757217D02*
X215357800Y-74328307D01*
X204752829Y-86081590D02*
X203052937Y-87781482D01*
X203052937Y-87781482D02*
X203052937Y-90429431D01*
X209577646Y-86081590D02*
X204752829Y-86081590D01*
X215357800Y-80301436D02*
X209577646Y-86081590D01*
%TO.N,/MCU/FMC_A8*%
X202451895Y-87807788D02*
X204584493Y-85675190D01*
X214951400Y-80133100D02*
X214951400Y-73580326D01*
X202451895Y-91030474D02*
X202451895Y-87807788D01*
X214951400Y-73580326D02*
X215184059Y-73347667D01*
X204584493Y-85675190D02*
X209409310Y-85675190D01*
X209409310Y-85675190D02*
X214951400Y-80133100D01*
%TO.N,/MCU/FMC_A9*%
X204416157Y-85268790D02*
X201774895Y-87910052D01*
X206784822Y-83791178D02*
X205307210Y-85268790D01*
X207635746Y-82940254D02*
X207181399Y-82940254D01*
X206784822Y-83336831D02*
X206784822Y-83791178D01*
X201774895Y-87910052D02*
X201774895Y-91425195D01*
X205307210Y-85268790D02*
X204416157Y-85268790D01*
X207181399Y-82940254D02*
X206784822Y-83336831D01*
X201774895Y-91425195D02*
X201884284Y-91534584D01*
X214545000Y-76031000D02*
X207635746Y-82940254D01*
X214545000Y-72866485D02*
X214545000Y-76031000D01*
%TO.N,/MCU/FMC_A11*%
X213965600Y-73657635D02*
X203652577Y-83970658D01*
X200670815Y-92605578D02*
X200863202Y-92797965D01*
X200670815Y-87462783D02*
X200670815Y-92605578D01*
X213965600Y-71905124D02*
X213965600Y-73657635D01*
X213991862Y-71878862D02*
X213965600Y-71905124D01*
X203652577Y-84481021D02*
X200670815Y-87462783D01*
X203652577Y-83970658D02*
X203652577Y-84481021D01*
D26*
%TO.N,SLAVE_IRQ*%
X188770617Y-117841117D02*
X187629800Y-116700300D01*
X187629800Y-116700300D02*
X187629800Y-101231700D01*
X187629800Y-101231700D02*
X188468000Y-100393500D01*
D31*
%TO.N,SLAVE_SCK*%
X200977500Y-83058000D02*
X202993984Y-83058000D01*
X202993984Y-83058000D02*
X203610876Y-82441108D01*
X199580500Y-81661000D02*
X200977500Y-83058000D01*
D26*
%TO.N,MIO_MOSI*%
X166560100Y-95861600D02*
X168742600Y-95861600D01*
X167893600Y-108371100D02*
X169481100Y-106783600D01*
X170536557Y-87132011D02*
X176106149Y-81562419D01*
X166814100Y-78234000D02*
X169392200Y-78234000D01*
X141256600Y-96702001D02*
X141256600Y-97020315D01*
X169836700Y-78678500D02*
X173189500Y-78678500D01*
X157981100Y-72503600D02*
X157981100Y-73426900D01*
X169481100Y-106783600D02*
X169481100Y-96600100D01*
X157981100Y-73426900D02*
X159422700Y-74868500D01*
X159422700Y-74868500D02*
X163448600Y-74868500D01*
X143328901Y-94629700D02*
X141256600Y-96702001D01*
X169392200Y-78234000D02*
X169836700Y-78678500D01*
X169457700Y-96393000D02*
X169274000Y-96393000D01*
X168742600Y-95861600D02*
X169274000Y-96393000D01*
X169481100Y-96600100D02*
X169274000Y-96393000D01*
X165328200Y-94629700D02*
X143328901Y-94629700D01*
X166560100Y-95861600D02*
X165328200Y-94629700D01*
X163448600Y-74868500D02*
X166814100Y-78234000D01*
X176106149Y-81562419D02*
X176106149Y-81480849D01*
X169481100Y-96369600D02*
X169457700Y-96393000D01*
X167893600Y-113324100D02*
X167893600Y-108371100D01*
%TO.N,MIO_SCK*%
X169417600Y-108117100D02*
X170370100Y-107164600D01*
X165048800Y-94985300D02*
X144150048Y-94985300D01*
X144150048Y-94985300D02*
X142333854Y-96801494D01*
X170393500Y-79819500D02*
X176998894Y-79819500D01*
X168973100Y-113641600D02*
X169417600Y-113197100D01*
X169417600Y-113197100D02*
X169417600Y-108117100D01*
X177812197Y-80696303D02*
X177875697Y-80696303D01*
X176998894Y-79819500D02*
X177875697Y-80696303D01*
X156716100Y-71238600D02*
X156716100Y-73431900D01*
X155441100Y-69963600D02*
X156716100Y-71238600D01*
X166636300Y-78640400D02*
X169214400Y-78640400D01*
X166496600Y-97131600D02*
X166496600Y-96433100D01*
X158559100Y-75274900D02*
X163270800Y-75274900D01*
X170370100Y-107164600D02*
X170370100Y-97345900D01*
X166496600Y-96433100D02*
X165048800Y-94985300D01*
X170370100Y-97345900D02*
X170624500Y-97091500D01*
X171386500Y-87122000D02*
X177812197Y-80696303D01*
X169214400Y-78640400D02*
X170393500Y-79819500D01*
X156716100Y-73431900D02*
X158559100Y-75274900D01*
X163270800Y-75274900D02*
X166636300Y-78640400D01*
X170687600Y-97154600D02*
X170624500Y-97091500D01*
%TO.N,MIO_MISO*%
X169925600Y-95710899D02*
X169934800Y-95701699D01*
X176542300Y-80596200D02*
X176186700Y-80240600D01*
X169658900Y-80240600D02*
X168871500Y-79453200D01*
X154163400Y-73190600D02*
X157073200Y-76100400D01*
X169934800Y-86812266D02*
X169934800Y-89344500D01*
X176150866Y-80596200D02*
X169934800Y-86812266D01*
X154163400Y-73190600D02*
X154163400Y-71225900D01*
X152901100Y-69963600D02*
X154163400Y-71225900D01*
X169925600Y-106974100D02*
X169925600Y-95710899D01*
X168655600Y-112562100D02*
X168655600Y-108244100D01*
X168655600Y-108244100D02*
X169925600Y-106974100D01*
X162927900Y-76100400D02*
X166280700Y-79453200D01*
X176186700Y-80240600D02*
X169658900Y-80240600D01*
X176542300Y-80596200D02*
X176150866Y-80596200D01*
X166280700Y-79453200D02*
X168871500Y-79453200D01*
X157073200Y-76100400D02*
X162927900Y-76100400D01*
D32*
%TO.N,USEL20#4*%
X163791500Y-129859500D02*
X177366948Y-129859500D01*
X178066300Y-119138300D02*
X180403500Y-121475500D01*
X178066300Y-117908800D02*
X178066300Y-119138300D01*
X181692882Y-121375900D02*
X181644752Y-121375900D01*
X181146450Y-126079998D02*
X181146450Y-122181950D01*
X177139200Y-116981700D02*
X178066300Y-117908800D01*
X145281100Y-131963600D02*
X146305700Y-130939000D01*
X177139200Y-104588800D02*
X177139200Y-116981700D01*
X177366948Y-129859500D02*
X181146450Y-126079998D01*
X181644752Y-121375900D02*
X181618800Y-121349948D01*
X181618800Y-121709600D02*
X181618800Y-121349948D01*
X146305700Y-130939000D02*
X162712000Y-130939000D01*
X162712000Y-130939000D02*
X163791500Y-129859500D01*
X181146450Y-122181950D02*
X181618800Y-121709600D01*
X177165000Y-104563000D02*
X177139200Y-104588800D01*
%TO.N,USEL20#3*%
X192290700Y-110944273D02*
X192290700Y-116582100D01*
X193040000Y-105677941D02*
X193040000Y-110194973D01*
X192290700Y-116582100D02*
X192421600Y-116713000D01*
D26*
X193052700Y-80362772D02*
X192959033Y-80269105D01*
D32*
X193052700Y-87316676D02*
X193632000Y-87895976D01*
X193040000Y-110194973D02*
X192290700Y-110944273D01*
X193632000Y-105085941D02*
X193040000Y-105677941D01*
X193052700Y-80362772D02*
X193052700Y-87316676D01*
X193632000Y-87895976D02*
X193632000Y-105085941D01*
%TO.N,USEL20#1*%
X185054258Y-84389883D02*
X185054258Y-85773242D01*
X183261000Y-99033822D02*
X182157711Y-100137111D01*
X185054258Y-85773242D02*
X183261000Y-87566500D01*
X181089300Y-101472252D02*
X181089300Y-115696252D01*
X179806706Y-118292594D02*
X179641500Y-118457800D01*
X182157711Y-100403841D02*
X181089300Y-101472252D01*
X179806706Y-116978846D02*
X179806706Y-118292594D01*
X182157711Y-100137111D02*
X182157711Y-100403841D01*
X181089300Y-115696252D02*
X179806706Y-116978846D01*
X183261000Y-87566500D02*
X183261000Y-99033822D01*
D26*
%TO.N,/DIB interface/DIB_IRQ*%
X181292500Y-143700500D02*
X181292500Y-148082000D01*
X181292500Y-148082000D02*
X180657500Y-148717000D01*
%TO.N,SLAVE_SYNC*%
X177355100Y-131167600D02*
X180911100Y-131167600D01*
X189443146Y-98344900D02*
X187274200Y-100513846D01*
X187274200Y-117266202D02*
X187868403Y-117860405D01*
X187274200Y-100513846D02*
X187274200Y-117266202D01*
X180911100Y-131167600D02*
X180974600Y-131104100D01*
%TO.N,ADC_START{slash}SCL1*%
X174167400Y-80951800D02*
X173862600Y-81256600D01*
X167347500Y-80266000D02*
X165937800Y-80266000D01*
X153618800Y-73801700D02*
X152169500Y-73801700D01*
X150361100Y-69963600D02*
X151623400Y-71225900D01*
X168338100Y-81256600D02*
X167347500Y-80266000D01*
X162585000Y-76913200D02*
X165937800Y-80266000D01*
X156730300Y-76913200D02*
X162585000Y-76913200D01*
X156730300Y-76913200D02*
X153618800Y-73801700D01*
X173862600Y-81256600D02*
X168338100Y-81256600D01*
X152169500Y-73801700D02*
X151623400Y-73255600D01*
X151623400Y-73255600D02*
X151623400Y-71225900D01*
%TO.N,ADC_CLK{slash}SDA1*%
X159257600Y-71240100D02*
X157981100Y-69963600D01*
X159257600Y-73509600D02*
X160197400Y-74449400D01*
X160197400Y-74449400D02*
X163613700Y-74449400D01*
X159257600Y-71240100D02*
X159257600Y-73509600D01*
X169938300Y-77776800D02*
X166941100Y-77776800D01*
X163613700Y-74449400D02*
X166941100Y-77776800D01*
%TD*%
%TA.AperFunction,Conductor*%
%TO.N,-15V_ISO*%
G36*
X164995304Y-95435405D02*
G01*
X165652794Y-96092896D01*
X165671100Y-96137089D01*
X165671100Y-98984460D01*
X165652794Y-99028654D01*
X165637645Y-99039801D01*
X165549149Y-99086247D01*
X165429599Y-99192159D01*
X165429595Y-99192163D01*
X165338869Y-99323602D01*
X165282230Y-99472949D01*
X165282229Y-99472953D01*
X165262979Y-99631496D01*
X165262979Y-99631503D01*
X165282229Y-99790046D01*
X165282230Y-99790050D01*
X165282230Y-99790051D01*
X165282231Y-99790054D01*
X165299600Y-99835852D01*
X165338869Y-99939397D01*
X165429595Y-100070836D01*
X165429598Y-100070839D01*
X165549149Y-100176752D01*
X165637646Y-100223199D01*
X165668270Y-100259943D01*
X165671100Y-100278538D01*
X165671100Y-104499300D01*
X165652794Y-104543494D01*
X165608600Y-104561800D01*
X165464638Y-104561800D01*
X165309561Y-104600023D01*
X165168139Y-104674247D01*
X165048589Y-104780159D01*
X165048585Y-104780163D01*
X164957859Y-104911602D01*
X164901220Y-105060949D01*
X164901219Y-105060953D01*
X164881969Y-105219496D01*
X164881969Y-105219503D01*
X164901219Y-105378046D01*
X164901220Y-105378050D01*
X164901220Y-105378051D01*
X164901221Y-105378054D01*
X164931929Y-105459024D01*
X164957859Y-105527397D01*
X165048585Y-105658836D01*
X165048588Y-105658839D01*
X165168139Y-105764752D01*
X165309563Y-105838977D01*
X165464641Y-105877200D01*
X165464643Y-105877200D01*
X165608600Y-105877200D01*
X165652794Y-105895506D01*
X165671100Y-105939700D01*
X165671100Y-105954005D01*
X165670565Y-105962163D01*
X165654864Y-106081418D01*
X165650642Y-106097178D01*
X165606188Y-106204500D01*
X165598030Y-106218630D01*
X165527319Y-106310782D01*
X165515782Y-106322319D01*
X165423630Y-106393030D01*
X165409500Y-106401188D01*
X165302178Y-106445642D01*
X165286418Y-106449864D01*
X165167164Y-106465565D01*
X165159006Y-106466100D01*
X162177089Y-106466100D01*
X162132895Y-106447794D01*
X161610600Y-105925499D01*
X161592294Y-105881305D01*
X161592827Y-105873161D01*
X161595285Y-105854500D01*
X161576228Y-105709746D01*
X161520355Y-105574858D01*
X161431474Y-105459026D01*
X161431472Y-105459025D01*
X161431472Y-105459024D01*
X161396349Y-105432074D01*
X161315643Y-105370145D01*
X161315639Y-105370143D01*
X161180757Y-105314273D01*
X161180747Y-105314270D01*
X161036002Y-105295215D01*
X161035998Y-105295215D01*
X160891252Y-105314270D01*
X160891242Y-105314273D01*
X160756360Y-105370143D01*
X160640525Y-105459025D01*
X160551643Y-105574860D01*
X160495773Y-105709742D01*
X160495770Y-105709752D01*
X160476715Y-105854498D01*
X160476715Y-105854501D01*
X160495770Y-105999247D01*
X160495773Y-105999257D01*
X160536333Y-106097178D01*
X160551645Y-106134143D01*
X160640526Y-106249974D01*
X160756357Y-106338855D01*
X160773264Y-106345858D01*
X160807087Y-106379682D01*
X160807088Y-106427518D01*
X160773263Y-106461342D01*
X160749345Y-106466100D01*
X155769194Y-106466100D01*
X155761036Y-106465565D01*
X155641781Y-106449864D01*
X155626021Y-106445642D01*
X155518699Y-106401188D01*
X155504571Y-106393031D01*
X155412414Y-106322316D01*
X155400883Y-106310785D01*
X155330166Y-106218626D01*
X155322011Y-106204500D01*
X155277557Y-106097178D01*
X155273335Y-106081418D01*
X155262518Y-105999257D01*
X155257635Y-105962163D01*
X155257100Y-105954005D01*
X155257100Y-105219503D01*
X157579469Y-105219503D01*
X157598719Y-105378046D01*
X157598720Y-105378050D01*
X157598720Y-105378051D01*
X157598721Y-105378054D01*
X157629429Y-105459024D01*
X157655359Y-105527397D01*
X157746085Y-105658836D01*
X157746088Y-105658839D01*
X157865639Y-105764752D01*
X158007063Y-105838977D01*
X158162141Y-105877200D01*
X158162143Y-105877200D01*
X158321857Y-105877200D01*
X158321859Y-105877200D01*
X158476937Y-105838977D01*
X158618361Y-105764752D01*
X158737912Y-105658839D01*
X158828642Y-105527394D01*
X158885279Y-105378054D01*
X158886240Y-105370143D01*
X158904531Y-105219503D01*
X158904531Y-105219496D01*
X158885280Y-105060953D01*
X158885279Y-105060949D01*
X158885279Y-105060946D01*
X158828642Y-104911606D01*
X158828640Y-104911604D01*
X158828640Y-104911602D01*
X158737914Y-104780163D01*
X158737910Y-104780159D01*
X158618360Y-104674247D01*
X158476938Y-104600023D01*
X158321861Y-104561800D01*
X158321859Y-104561800D01*
X158162141Y-104561800D01*
X158162138Y-104561800D01*
X158007061Y-104600023D01*
X157865639Y-104674247D01*
X157746089Y-104780159D01*
X157746085Y-104780163D01*
X157655359Y-104911602D01*
X157598720Y-105060949D01*
X157598719Y-105060953D01*
X157579469Y-105219496D01*
X157579469Y-105219503D01*
X155257100Y-105219503D01*
X155257100Y-104116603D01*
X155547069Y-104116603D01*
X155566319Y-104275146D01*
X155566320Y-104275150D01*
X155566320Y-104275151D01*
X155566321Y-104275154D01*
X155611043Y-104393076D01*
X155622959Y-104424497D01*
X155713685Y-104555936D01*
X155713689Y-104555940D01*
X155833239Y-104661852D01*
X155974663Y-104736077D01*
X156129741Y-104774300D01*
X156129743Y-104774300D01*
X156289457Y-104774300D01*
X156289459Y-104774300D01*
X156444537Y-104736077D01*
X156585961Y-104661852D01*
X156705512Y-104555939D01*
X156796242Y-104424494D01*
X156852879Y-104275154D01*
X156872131Y-104116600D01*
X156852879Y-103958046D01*
X156796242Y-103808706D01*
X156796240Y-103808704D01*
X156796240Y-103808702D01*
X156705514Y-103677263D01*
X156705510Y-103677259D01*
X156585960Y-103571347D01*
X156444538Y-103497123D01*
X156289461Y-103458900D01*
X156289459Y-103458900D01*
X156129741Y-103458900D01*
X156129738Y-103458900D01*
X155974661Y-103497123D01*
X155833239Y-103571347D01*
X155713689Y-103677259D01*
X155713685Y-103677263D01*
X155622959Y-103808702D01*
X155566320Y-103958049D01*
X155566319Y-103958053D01*
X155547069Y-104116596D01*
X155547069Y-104116603D01*
X155257100Y-104116603D01*
X155257100Y-99734600D01*
X155275406Y-99690406D01*
X155319600Y-99672100D01*
X156656962Y-99672100D01*
X156701156Y-99690406D01*
X156708398Y-99699096D01*
X156729685Y-99729936D01*
X156729688Y-99729939D01*
X156849239Y-99835852D01*
X156990663Y-99910077D01*
X157145741Y-99948300D01*
X157145743Y-99948300D01*
X157305457Y-99948300D01*
X157305459Y-99948300D01*
X157460537Y-99910077D01*
X157601961Y-99835852D01*
X157721512Y-99729939D01*
X157812242Y-99598494D01*
X157868879Y-99449154D01*
X157869266Y-99445966D01*
X157888131Y-99290603D01*
X157888131Y-99290596D01*
X157868880Y-99132053D01*
X157868879Y-99132049D01*
X157868879Y-99132046D01*
X157812242Y-98982706D01*
X157812240Y-98982704D01*
X157812240Y-98982702D01*
X157721514Y-98851263D01*
X157721510Y-98851259D01*
X157601960Y-98745347D01*
X157460538Y-98671123D01*
X157305461Y-98632900D01*
X157305459Y-98632900D01*
X157145741Y-98632900D01*
X157145738Y-98632900D01*
X156990661Y-98671123D01*
X156849239Y-98745347D01*
X156729689Y-98851259D01*
X156729685Y-98851263D01*
X156708398Y-98882104D01*
X156668228Y-98908076D01*
X156656962Y-98909100D01*
X155319600Y-98909100D01*
X155275406Y-98890794D01*
X155257100Y-98846600D01*
X155257100Y-96306103D01*
X156563069Y-96306103D01*
X156582319Y-96464646D01*
X156582320Y-96464650D01*
X156582320Y-96464651D01*
X156582321Y-96464654D01*
X156620125Y-96564334D01*
X156638959Y-96613997D01*
X156729685Y-96745436D01*
X156729688Y-96745439D01*
X156849239Y-96851352D01*
X156990663Y-96925577D01*
X157145741Y-96963800D01*
X157145743Y-96963800D01*
X157305457Y-96963800D01*
X157305459Y-96963800D01*
X157460537Y-96925577D01*
X157601961Y-96851352D01*
X157721512Y-96745439D01*
X157812242Y-96613994D01*
X157868879Y-96464654D01*
X157888131Y-96306100D01*
X157878079Y-96223317D01*
X157868880Y-96147553D01*
X157868879Y-96147549D01*
X157868879Y-96147546D01*
X157812242Y-95998206D01*
X157812240Y-95998204D01*
X157812240Y-95998202D01*
X157721514Y-95866763D01*
X157721510Y-95866759D01*
X157601960Y-95760847D01*
X157460538Y-95686623D01*
X157305461Y-95648400D01*
X157305459Y-95648400D01*
X157145741Y-95648400D01*
X157145738Y-95648400D01*
X156990661Y-95686623D01*
X156849239Y-95760847D01*
X156729689Y-95866759D01*
X156729685Y-95866763D01*
X156638959Y-95998202D01*
X156582320Y-96147549D01*
X156582319Y-96147553D01*
X156563069Y-96306096D01*
X156563069Y-96306103D01*
X155257100Y-96306103D01*
X155257100Y-95929194D01*
X155257635Y-95921036D01*
X155264781Y-95866759D01*
X155273336Y-95801776D01*
X155277555Y-95786024D01*
X155322012Y-95678696D01*
X155330164Y-95664576D01*
X155400886Y-95572410D01*
X155412410Y-95560886D01*
X155504576Y-95490164D01*
X155518696Y-95482012D01*
X155626024Y-95437555D01*
X155641776Y-95433336D01*
X155761036Y-95417634D01*
X155769194Y-95417100D01*
X164951111Y-95417100D01*
X164995304Y-95435405D01*
G37*
%TD.AperFunction*%
%TD*%
%TA.AperFunction,Conductor*%
%TO.N,-15V_ISO*%
G36*
X165043094Y-112199406D02*
G01*
X165061400Y-112243600D01*
X165061400Y-113939082D01*
X165060070Y-113951908D01*
X165056784Y-113967579D01*
X165056783Y-113967582D01*
X165060920Y-114000758D01*
X165061400Y-114008490D01*
X165061400Y-114012008D01*
X165064833Y-114032587D01*
X165065205Y-114035138D01*
X165071485Y-114085515D01*
X165072963Y-114090478D01*
X165072850Y-114090511D01*
X165074245Y-114094862D01*
X165074355Y-114094825D01*
X165076036Y-114099720D01*
X165076037Y-114099724D01*
X165099799Y-114143633D01*
X165100211Y-114144394D01*
X165101392Y-114146690D01*
X165123679Y-114192279D01*
X165126690Y-114196496D01*
X165126593Y-114196565D01*
X165129329Y-114200234D01*
X165129422Y-114200162D01*
X165132600Y-114204245D01*
X165169970Y-114238646D01*
X165171834Y-114240435D01*
X165414398Y-114482999D01*
X165432704Y-114527193D01*
X165432170Y-114535348D01*
X165429715Y-114554001D01*
X165429715Y-114554002D01*
X165448770Y-114698747D01*
X165448771Y-114698753D01*
X165448772Y-114698754D01*
X165504645Y-114833643D01*
X165593526Y-114949474D01*
X165646647Y-114990235D01*
X165670565Y-115031662D01*
X165671100Y-115039820D01*
X165671100Y-115718282D01*
X165652794Y-115762476D01*
X165637646Y-115773622D01*
X165612642Y-115786745D01*
X165612640Y-115786746D01*
X165493089Y-115892659D01*
X165493085Y-115892663D01*
X165402359Y-116024102D01*
X165345720Y-116173449D01*
X165345719Y-116173453D01*
X165326469Y-116331996D01*
X165326469Y-116332003D01*
X165345719Y-116490546D01*
X165345720Y-116490550D01*
X165345720Y-116490551D01*
X165345721Y-116490554D01*
X165387172Y-116599852D01*
X165402359Y-116639897D01*
X165493085Y-116771336D01*
X165493088Y-116771339D01*
X165612639Y-116877252D01*
X165637646Y-116890376D01*
X165668270Y-116927121D01*
X165671100Y-116945716D01*
X165671100Y-121635995D01*
X165652794Y-121680189D01*
X165608600Y-121698495D01*
X165564406Y-121680189D01*
X165557164Y-121671499D01*
X165532014Y-121635063D01*
X165532010Y-121635059D01*
X165412460Y-121529147D01*
X165271038Y-121454923D01*
X165115961Y-121416700D01*
X165115959Y-121416700D01*
X164956241Y-121416700D01*
X164956238Y-121416700D01*
X164801161Y-121454923D01*
X164659739Y-121529147D01*
X164540189Y-121635059D01*
X164540185Y-121635063D01*
X164449459Y-121766502D01*
X164438330Y-121795847D01*
X164398164Y-121901759D01*
X164392820Y-121915849D01*
X164392819Y-121915853D01*
X164373569Y-122074396D01*
X164373569Y-122074403D01*
X164392819Y-122232946D01*
X164392820Y-122232950D01*
X164392820Y-122232951D01*
X164392821Y-122232954D01*
X164409753Y-122277600D01*
X164449459Y-122382297D01*
X164540185Y-122513736D01*
X164540188Y-122513739D01*
X164659739Y-122619652D01*
X164801163Y-122693877D01*
X164956241Y-122732100D01*
X164956243Y-122732100D01*
X165115957Y-122732100D01*
X165115959Y-122732100D01*
X165271037Y-122693877D01*
X165412461Y-122619652D01*
X165532012Y-122513739D01*
X165557164Y-122477298D01*
X165597334Y-122451328D01*
X165644104Y-122461367D01*
X165670076Y-122501538D01*
X165671100Y-122512804D01*
X165671100Y-122718005D01*
X165670565Y-122726163D01*
X165654864Y-122845418D01*
X165650642Y-122861178D01*
X165606188Y-122968500D01*
X165598030Y-122982630D01*
X165527319Y-123074782D01*
X165515782Y-123086319D01*
X165423630Y-123157030D01*
X165409500Y-123165188D01*
X165302178Y-123209642D01*
X165286418Y-123213864D01*
X165167164Y-123229565D01*
X165159006Y-123230100D01*
X155769194Y-123230100D01*
X155761036Y-123229565D01*
X155641781Y-123213864D01*
X155626021Y-123209642D01*
X155518699Y-123165188D01*
X155504571Y-123157031D01*
X155412414Y-123086316D01*
X155400883Y-123074785D01*
X155330166Y-122982626D01*
X155322011Y-122968500D01*
X155277557Y-122861178D01*
X155273335Y-122845418D01*
X155270364Y-122822852D01*
X155257635Y-122726163D01*
X155257100Y-122718005D01*
X155257100Y-122341103D01*
X156055069Y-122341103D01*
X156074319Y-122499646D01*
X156074320Y-122499650D01*
X156074320Y-122499651D01*
X156074321Y-122499654D01*
X156106876Y-122585494D01*
X156130959Y-122648997D01*
X156221685Y-122780436D01*
X156221688Y-122780439D01*
X156341239Y-122886352D01*
X156482663Y-122960577D01*
X156637741Y-122998800D01*
X156637743Y-122998800D01*
X156797457Y-122998800D01*
X156797459Y-122998800D01*
X156952537Y-122960577D01*
X157093961Y-122886352D01*
X157213512Y-122780439D01*
X157258877Y-122714716D01*
X157304240Y-122648997D01*
X157304240Y-122648996D01*
X157304242Y-122648994D01*
X157360879Y-122499654D01*
X157380131Y-122341100D01*
X157372421Y-122277603D01*
X157579069Y-122277603D01*
X157598319Y-122436146D01*
X157598320Y-122436150D01*
X157598320Y-122436151D01*
X157598321Y-122436154D01*
X157643043Y-122554076D01*
X157654959Y-122585497D01*
X157745685Y-122716936D01*
X157745688Y-122716939D01*
X157865239Y-122822852D01*
X158006663Y-122897077D01*
X158161741Y-122935300D01*
X158161743Y-122935300D01*
X158321457Y-122935300D01*
X158321459Y-122935300D01*
X158476537Y-122897077D01*
X158617961Y-122822852D01*
X158737512Y-122716939D01*
X158828242Y-122585494D01*
X158884879Y-122436154D01*
X158884880Y-122436146D01*
X158904131Y-122277603D01*
X158904131Y-122277596D01*
X158884880Y-122119053D01*
X158884879Y-122119049D01*
X158884879Y-122119046D01*
X158867948Y-122074403D01*
X162341569Y-122074403D01*
X162360819Y-122232946D01*
X162360820Y-122232950D01*
X162360820Y-122232951D01*
X162360821Y-122232954D01*
X162377753Y-122277600D01*
X162417459Y-122382297D01*
X162508185Y-122513736D01*
X162508188Y-122513739D01*
X162627739Y-122619652D01*
X162769163Y-122693877D01*
X162924241Y-122732100D01*
X162924243Y-122732100D01*
X163083957Y-122732100D01*
X163083959Y-122732100D01*
X163239037Y-122693877D01*
X163380461Y-122619652D01*
X163500012Y-122513739D01*
X163590742Y-122382294D01*
X163647379Y-122232954D01*
X163666631Y-122074400D01*
X163661629Y-122033206D01*
X163647380Y-121915853D01*
X163647379Y-121915849D01*
X163647379Y-121915846D01*
X163590742Y-121766506D01*
X163590740Y-121766504D01*
X163590740Y-121766502D01*
X163500014Y-121635063D01*
X163500010Y-121635059D01*
X163380460Y-121529147D01*
X163239038Y-121454923D01*
X163083961Y-121416700D01*
X163083959Y-121416700D01*
X162924241Y-121416700D01*
X162924238Y-121416700D01*
X162769161Y-121454923D01*
X162627739Y-121529147D01*
X162508189Y-121635059D01*
X162508185Y-121635063D01*
X162417459Y-121766502D01*
X162406330Y-121795847D01*
X162366164Y-121901759D01*
X162360820Y-121915849D01*
X162360819Y-121915853D01*
X162341569Y-122074396D01*
X162341569Y-122074403D01*
X158867948Y-122074403D01*
X158828242Y-121969706D01*
X158828240Y-121969704D01*
X158828240Y-121969702D01*
X158737514Y-121838263D01*
X158737510Y-121838259D01*
X158617960Y-121732347D01*
X158476538Y-121658123D01*
X158321461Y-121619900D01*
X158321459Y-121619900D01*
X158161741Y-121619900D01*
X158161738Y-121619900D01*
X158006661Y-121658123D01*
X157865239Y-121732347D01*
X157745689Y-121838259D01*
X157745685Y-121838263D01*
X157654959Y-121969702D01*
X157598320Y-122119049D01*
X157598319Y-122119053D01*
X157579069Y-122277596D01*
X157579069Y-122277603D01*
X157372421Y-122277603D01*
X157372420Y-122277596D01*
X157360880Y-122182553D01*
X157360879Y-122182549D01*
X157360879Y-122182546D01*
X157304242Y-122033206D01*
X157304240Y-122033204D01*
X157304240Y-122033202D01*
X157213514Y-121901763D01*
X157213510Y-121901759D01*
X157093960Y-121795847D01*
X156952538Y-121721623D01*
X156797461Y-121683400D01*
X156797459Y-121683400D01*
X156637741Y-121683400D01*
X156637738Y-121683400D01*
X156482661Y-121721623D01*
X156341239Y-121795847D01*
X156221689Y-121901759D01*
X156221685Y-121901763D01*
X156130959Y-122033202D01*
X156074320Y-122182549D01*
X156074319Y-122182553D01*
X156055069Y-122341096D01*
X156055069Y-122341103D01*
X155257100Y-122341103D01*
X155257100Y-119928103D01*
X157515569Y-119928103D01*
X157534819Y-120086646D01*
X157534820Y-120086650D01*
X157534820Y-120086651D01*
X157534821Y-120086654D01*
X157579543Y-120204576D01*
X157591459Y-120235997D01*
X157682185Y-120367436D01*
X157682188Y-120367439D01*
X157801739Y-120473352D01*
X157943163Y-120547577D01*
X158098241Y-120585800D01*
X158098243Y-120585800D01*
X158257957Y-120585800D01*
X158257959Y-120585800D01*
X158413037Y-120547577D01*
X158554461Y-120473352D01*
X158674012Y-120367439D01*
X158764742Y-120235994D01*
X158821379Y-120086654D01*
X158840631Y-119928100D01*
X158821379Y-119769546D01*
X158764742Y-119620206D01*
X158764740Y-119620204D01*
X158764740Y-119620202D01*
X158674014Y-119488763D01*
X158674010Y-119488759D01*
X158554460Y-119382847D01*
X158413038Y-119308623D01*
X158257961Y-119270400D01*
X158257959Y-119270400D01*
X158098241Y-119270400D01*
X158098238Y-119270400D01*
X157943161Y-119308623D01*
X157801739Y-119382847D01*
X157682189Y-119488759D01*
X157682185Y-119488763D01*
X157591459Y-119620202D01*
X157534820Y-119769549D01*
X157534819Y-119769553D01*
X157515569Y-119928096D01*
X157515569Y-119928103D01*
X155257100Y-119928103D01*
X155257100Y-117578100D01*
X155275406Y-117533906D01*
X155319600Y-117515600D01*
X156551485Y-117515600D01*
X156595679Y-117533906D01*
X156609923Y-117555937D01*
X156638957Y-117632493D01*
X156729685Y-117763936D01*
X156729688Y-117763939D01*
X156849239Y-117869852D01*
X156990663Y-117944077D01*
X157145741Y-117982300D01*
X157145743Y-117982300D01*
X157305457Y-117982300D01*
X157305459Y-117982300D01*
X157460537Y-117944077D01*
X157601961Y-117869852D01*
X157721512Y-117763939D01*
X157812242Y-117632494D01*
X157868879Y-117483154D01*
X157888131Y-117324600D01*
X157868879Y-117166046D01*
X157812242Y-117016706D01*
X157812240Y-117016704D01*
X157812240Y-117016702D01*
X157721514Y-116885263D01*
X157721510Y-116885259D01*
X157601960Y-116779347D01*
X157536404Y-116744941D01*
X157505779Y-116708194D01*
X157510108Y-116660555D01*
X157536404Y-116634259D01*
X157542232Y-116631200D01*
X157601961Y-116599852D01*
X157721512Y-116493939D01*
X157812242Y-116362494D01*
X157868879Y-116213154D01*
X157873700Y-116173449D01*
X157888131Y-116054603D01*
X157888131Y-116054596D01*
X157868880Y-115896053D01*
X157868879Y-115896049D01*
X157868879Y-115896046D01*
X157812242Y-115746706D01*
X157812240Y-115746704D01*
X157812240Y-115746702D01*
X157721514Y-115615263D01*
X157721510Y-115615259D01*
X157601960Y-115509347D01*
X157460538Y-115435123D01*
X157305461Y-115396900D01*
X157305459Y-115396900D01*
X157145741Y-115396900D01*
X157145738Y-115396900D01*
X156990661Y-115435123D01*
X156849239Y-115509347D01*
X156729689Y-115615259D01*
X156729685Y-115615263D01*
X156708398Y-115646104D01*
X156668228Y-115672076D01*
X156656962Y-115673100D01*
X155319600Y-115673100D01*
X155275406Y-115654794D01*
X155257100Y-115610600D01*
X155257100Y-113070103D01*
X156563069Y-113070103D01*
X156582319Y-113228646D01*
X156582320Y-113228650D01*
X156582320Y-113228651D01*
X156582321Y-113228654D01*
X156627043Y-113346576D01*
X156638959Y-113377997D01*
X156729685Y-113509436D01*
X156729688Y-113509439D01*
X156849239Y-113615352D01*
X156990663Y-113689577D01*
X157145741Y-113727800D01*
X157145743Y-113727800D01*
X157305457Y-113727800D01*
X157305459Y-113727800D01*
X157460537Y-113689577D01*
X157601961Y-113615352D01*
X157721512Y-113509439D01*
X157812242Y-113377994D01*
X157868879Y-113228654D01*
X157888131Y-113070100D01*
X157868879Y-112911546D01*
X157812242Y-112762206D01*
X157812240Y-112762204D01*
X157812240Y-112762202D01*
X157721514Y-112630763D01*
X157721510Y-112630759D01*
X157601960Y-112524847D01*
X157460538Y-112450623D01*
X157305461Y-112412400D01*
X157305459Y-112412400D01*
X157145741Y-112412400D01*
X157145738Y-112412400D01*
X156990661Y-112450623D01*
X156849239Y-112524847D01*
X156729689Y-112630759D01*
X156729685Y-112630763D01*
X156638959Y-112762202D01*
X156582320Y-112911549D01*
X156582319Y-112911553D01*
X156563069Y-113070096D01*
X156563069Y-113070103D01*
X155257100Y-113070103D01*
X155257100Y-112693194D01*
X155257635Y-112685036D01*
X155264781Y-112630759D01*
X155273336Y-112565776D01*
X155277555Y-112550024D01*
X155322012Y-112442696D01*
X155330164Y-112428576D01*
X155400886Y-112336410D01*
X155412410Y-112324886D01*
X155504576Y-112254164D01*
X155518696Y-112246012D01*
X155626024Y-112201555D01*
X155641776Y-112197336D01*
X155761036Y-112181634D01*
X155769194Y-112181100D01*
X164998900Y-112181100D01*
X165043094Y-112199406D01*
G37*
%TD.AperFunction*%
%TD*%
M02*
