%TF.GenerationSoftware,KiCad,Pcbnew,7.0.10-7.0.10~ubuntu22.04.1*%
%TF.CreationDate,2024-01-19T15:41:50+01:00*%
%TF.ProjectId,EEZ DIB MIO168,45455a20-4449-4422-904d-494f3136382e,r3B1*%
%TF.SameCoordinates,Original*%
%TF.FileFunction,Soldermask,Top*%
%TF.FilePolarity,Negative*%
%FSLAX46Y46*%
G04 Gerber Fmt 4.6, Leading zero omitted, Abs format (unit mm)*
G04 Created by KiCad (PCBNEW 7.0.10-7.0.10~ubuntu22.04.1) date 2024-01-19 15:41:50*
%MOMM*%
%LPD*%
G01*
G04 APERTURE LIST*
G04 Aperture macros list*
%AMRoundRect*
0 Rectangle with rounded corners*
0 $1 Rounding radius*
0 $2 $3 $4 $5 $6 $7 $8 $9 X,Y pos of 4 corners*
0 Add a 4 corners polygon primitive as box body*
4,1,4,$2,$3,$4,$5,$6,$7,$8,$9,$2,$3,0*
0 Add four circle primitives for the rounded corners*
1,1,$1+$1,$2,$3*
1,1,$1+$1,$4,$5*
1,1,$1+$1,$6,$7*
1,1,$1+$1,$8,$9*
0 Add four rect primitives between the rounded corners*
20,1,$1+$1,$2,$3,$4,$5,0*
20,1,$1+$1,$4,$5,$6,$7,0*
20,1,$1+$1,$6,$7,$8,$9,0*
20,1,$1+$1,$8,$9,$2,$3,0*%
%AMFreePoly0*
4,1,25,0.546036,1.258373,0.550938,1.253882,1.253882,0.550938,1.275910,0.503697,1.276200,0.497056,1.276200,-0.497056,1.258373,-0.546036,1.253882,-0.550938,0.550938,-1.253882,0.503697,-1.275910,0.497056,-1.276200,-0.497056,-1.276200,-0.546036,-1.258373,-0.550938,-1.253882,-1.253882,-0.550938,-1.275910,-0.503697,-1.276200,-0.497056,-1.276200,0.497056,-1.258373,0.546036,-1.253882,0.550938,
-0.550938,1.253882,-0.503697,1.275910,-0.497056,1.276200,0.497056,1.276200,0.546036,1.258373,0.546036,1.258373,$1*%
%AMFreePoly1*
4,1,25,0.359640,0.808373,0.364542,0.803882,0.803882,0.364542,0.825910,0.317301,0.826200,0.310660,0.826200,-0.310660,0.808373,-0.359640,0.803882,-0.364542,0.364542,-0.803882,0.317301,-0.825910,0.310660,-0.826200,-0.310660,-0.826200,-0.359640,-0.808373,-0.364542,-0.803882,-0.803882,-0.364542,-0.825910,-0.317301,-0.826200,-0.310660,-0.826200,0.310660,-0.808373,0.359640,-0.803882,0.364542,
-0.364542,0.803882,-0.317301,0.825910,-0.310660,0.826200,0.310660,0.826200,0.359640,0.808373,0.359640,0.808373,$1*%
%AMFreePoly2*
4,1,25,0.297508,0.658373,0.302410,0.653882,0.653882,0.302410,0.675910,0.255169,0.676200,0.248528,0.676200,-0.248528,0.658373,-0.297508,0.653882,-0.302410,0.302410,-0.653882,0.255169,-0.675910,0.248528,-0.676200,-0.248528,-0.676200,-0.297508,-0.658373,-0.302410,-0.653882,-0.653882,-0.302410,-0.675910,-0.255169,-0.676200,-0.248528,-0.676200,0.248528,-0.658373,0.297508,-0.653882,0.302410,
-0.302410,0.653882,-0.255169,0.675910,-0.248528,0.676200,0.248528,0.676200,0.297508,0.658373,0.297508,0.658373,$1*%
%AMFreePoly3*
4,1,17,0.307927,0.679901,0.679901,0.307927,0.698500,0.263026,0.698500,-0.263026,0.679901,-0.307927,0.307927,-0.679901,0.263026,-0.698500,-0.263026,-0.698500,-0.307927,-0.679901,-0.679901,-0.307927,-0.698500,-0.263026,-0.698500,0.263026,-0.679901,0.307927,-0.307927,0.679901,-0.263026,0.698500,0.263026,0.698500,0.307927,0.679901,0.307927,0.679901,$1*%
%AMFreePoly4*
4,1,17,0.355561,0.794901,0.794901,0.355561,0.813500,0.310660,0.813500,-0.310660,0.794901,-0.355561,0.355561,-0.794901,0.310660,-0.813500,-0.310660,-0.813500,-0.355561,-0.794901,-0.794901,-0.355561,-0.813500,-0.310660,-0.813500,0.310660,-0.794901,0.355561,-0.355561,0.794901,-0.310660,0.813500,0.310660,0.813500,0.355561,0.794901,0.355561,0.794901,$1*%
%AMFreePoly5*
4,1,17,0.448759,1.019901,1.019901,0.448759,1.038500,0.403858,1.038500,-0.403858,1.019901,-0.448759,0.448759,-1.019901,0.403858,-1.038500,-0.403858,-1.038500,-0.448759,-1.019901,-1.019901,-0.448759,-1.038500,-0.403858,-1.038500,0.403858,-1.019901,0.448759,-0.448759,1.019901,-0.403858,1.038500,0.403858,1.038500,0.448759,1.019901,0.448759,1.019901,$1*%
G04 Aperture macros list end*
%ADD10C,1.327913*%
%ADD11C,1.270000*%
%ADD12RoundRect,0.250000X0.262500X0.450000X-0.262500X0.450000X-0.262500X-0.450000X0.262500X-0.450000X0*%
%ADD13RoundRect,0.061553X0.301947X-0.776947X0.301947X0.776947X-0.301947X0.776947X-0.301947X-0.776947X0*%
%ADD14RoundRect,0.066675X0.200025X-0.492125X0.200025X0.492125X-0.200025X0.492125X-0.200025X-0.492125X0*%
%ADD15FreePoly0,270.000000*%
%ADD16RoundRect,0.250000X-0.312500X-0.625000X0.312500X-0.625000X0.312500X0.625000X-0.312500X0.625000X0*%
%ADD17R,0.762000X1.092200*%
%ADD18RoundRect,0.225000X0.017678X-0.335876X0.335876X-0.017678X-0.017678X0.335876X-0.335876X0.017678X0*%
%ADD19C,2.227000*%
%ADD20RoundRect,0.250000X-0.250000X-0.475000X0.250000X-0.475000X0.250000X0.475000X-0.250000X0.475000X0*%
%ADD21RoundRect,0.057252X0.706248X-0.506248X0.706248X0.506248X-0.706248X0.506248X-0.706248X-0.506248X0*%
%ADD22RoundRect,0.250000X0.450000X-0.262500X0.450000X0.262500X-0.450000X0.262500X-0.450000X-0.262500X0*%
%ADD23RoundRect,0.225000X-0.250000X0.225000X-0.250000X-0.225000X0.250000X-0.225000X0.250000X0.225000X0*%
%ADD24RoundRect,0.061553X0.776947X0.301947X-0.776947X0.301947X-0.776947X-0.301947X0.776947X-0.301947X0*%
%ADD25RoundRect,0.250000X0.250000X0.475000X-0.250000X0.475000X-0.250000X-0.475000X0.250000X-0.475000X0*%
%ADD26RoundRect,0.071581X0.753919X0.322119X-0.753919X0.322119X-0.753919X-0.322119X0.753919X-0.322119X0*%
%ADD27RoundRect,0.055408X-0.708092X-0.708092X0.708092X-0.708092X0.708092X0.708092X-0.708092X0.708092X0*%
%ADD28RoundRect,0.066675X0.492125X0.200025X-0.492125X0.200025X-0.492125X-0.200025X0.492125X-0.200025X0*%
%ADD29RoundRect,0.250000X-0.262500X-0.450000X0.262500X-0.450000X0.262500X0.450000X-0.262500X0.450000X0*%
%ADD30RoundRect,0.250000X-0.450000X0.262500X-0.450000X-0.262500X0.450000X-0.262500X0.450000X0.262500X0*%
%ADD31RoundRect,0.063703X-0.176777X0.530043X-0.530043X0.176777X0.176777X-0.530043X0.530043X-0.176777X0*%
%ADD32RoundRect,0.055408X0.708092X0.708092X-0.708092X0.708092X-0.708092X-0.708092X0.708092X-0.708092X0*%
%ADD33RoundRect,0.250000X-0.503814X-0.132583X-0.132583X-0.503814X0.503814X0.132583X0.132583X0.503814X0*%
%ADD34RoundRect,0.508000X0.000000X0.000000X0.000000X0.000000X0.000000X0.000000X0.000000X0.000000X0*%
%ADD35RoundRect,0.250000X0.475000X-0.250000X0.475000X0.250000X-0.475000X0.250000X-0.475000X-0.250000X0*%
%ADD36RoundRect,0.061553X0.501947X-0.301947X0.501947X0.301947X-0.501947X0.301947X-0.501947X-0.301947X0*%
%ADD37RoundRect,0.225000X0.250000X-0.225000X0.250000X0.225000X-0.250000X0.225000X-0.250000X-0.225000X0*%
%ADD38RoundRect,0.057252X0.506248X0.706248X-0.506248X0.706248X-0.506248X-0.706248X0.506248X-0.706248X0*%
%ADD39RoundRect,0.076200X-0.750000X-0.750000X0.750000X-0.750000X0.750000X0.750000X-0.750000X0.750000X0*%
%ADD40FreePoly1,0.000000*%
%ADD41RoundRect,0.250000X-0.475000X0.250000X-0.475000X-0.250000X0.475000X-0.250000X0.475000X0.250000X0*%
%ADD42RoundRect,0.063703X-0.600754X-0.247487X-0.247487X-0.600754X0.600754X0.247487X0.247487X0.600754X0*%
%ADD43RoundRect,0.063703X0.600754X0.247487X0.247487X0.600754X-0.600754X-0.247487X-0.247487X-0.600754X0*%
%ADD44RoundRect,0.250000X0.159099X-0.512652X0.512652X-0.159099X-0.159099X0.512652X-0.512652X0.159099X0*%
%ADD45RoundRect,0.225000X0.225000X0.250000X-0.225000X0.250000X-0.225000X-0.250000X0.225000X-0.250000X0*%
%ADD46RoundRect,0.250000X-0.512652X-0.159099X-0.159099X-0.512652X0.512652X0.159099X0.159099X0.512652X0*%
%ADD47RoundRect,0.250000X0.650000X-0.325000X0.650000X0.325000X-0.650000X0.325000X-0.650000X-0.325000X0*%
%ADD48RoundRect,0.225000X-0.017678X0.335876X-0.335876X0.017678X0.017678X-0.335876X0.335876X-0.017678X0*%
%ADD49RoundRect,0.055408X0.708092X-0.708092X0.708092X0.708092X-0.708092X0.708092X-0.708092X-0.708092X0*%
%ADD50RoundRect,0.055408X1.108092X0.708092X-1.108092X0.708092X-1.108092X-0.708092X1.108092X-0.708092X0*%
%ADD51RoundRect,0.225000X-0.335876X-0.017678X-0.017678X-0.335876X0.335876X0.017678X0.017678X0.335876X0*%
%ADD52RoundRect,0.076200X-0.600000X-0.600000X0.600000X-0.600000X0.600000X0.600000X-0.600000X0.600000X0*%
%ADD53FreePoly2,0.000000*%
%ADD54RoundRect,0.061553X-0.301947X0.776947X-0.301947X-0.776947X0.301947X-0.776947X0.301947X0.776947X0*%
%ADD55RoundRect,0.057252X0.906248X0.506248X-0.906248X0.506248X-0.906248X-0.506248X0.906248X-0.506248X0*%
%ADD56RoundRect,0.055408X-0.282843X-1.284236X1.284236X0.282843X0.282843X1.284236X-1.284236X-0.282843X0*%
%ADD57RoundRect,0.068943X0.832757X0.172357X-0.832757X0.172357X-0.832757X-0.172357X0.832757X-0.172357X0*%
%ADD58RoundRect,0.053474X1.216526X2.651626X-1.216526X2.651626X-1.216526X-2.651626X1.216526X-2.651626X0*%
%ADD59C,1.397000*%
%ADD60FreePoly3,90.000000*%
%ADD61RoundRect,0.054591X-0.859809X1.240809X-0.859809X-1.240809X0.859809X-1.240809X0.859809X1.240809X0*%
%ADD62RoundRect,0.225000X-0.225000X-0.250000X0.225000X-0.250000X0.225000X0.250000X-0.225000X0.250000X0*%
%ADD63RoundRect,0.063703X0.249797X0.499797X-0.249797X0.499797X-0.249797X-0.499797X0.249797X-0.499797X0*%
%ADD64RoundRect,0.055763X0.657737X0.757737X-0.657737X0.757737X-0.657737X-0.757737X0.657737X-0.757737X0*%
%ADD65RoundRect,0.032160X0.369840X-1.019840X0.369840X1.019840X-0.369840X1.019840X-0.369840X-1.019840X0*%
%ADD66RoundRect,0.057252X0.556248X-0.506248X0.556248X0.506248X-0.556248X0.506248X-0.556248X-0.506248X0*%
%ADD67RoundRect,0.225000X0.335876X0.017678X0.017678X0.335876X-0.335876X-0.017678X-0.017678X-0.335876X0*%
%ADD68RoundRect,0.054832X0.070711X-1.214340X1.214340X-0.070711X-0.070711X1.214340X-1.214340X0.070711X0*%
%ADD69RoundRect,0.057252X-0.556248X0.506248X-0.556248X-0.506248X0.556248X-0.506248X0.556248X0.506248X0*%
%ADD70C,5.652400*%
%ADD71RoundRect,0.250000X-0.325000X-0.650000X0.325000X-0.650000X0.325000X0.650000X-0.325000X0.650000X0*%
%ADD72RoundRect,0.071581X0.322119X-0.753919X0.322119X0.753919X-0.322119X0.753919X-0.322119X-0.753919X0*%
%ADD73RoundRect,0.076200X-0.774700X-0.114300X0.774700X-0.114300X0.774700X0.114300X-0.774700X0.114300X0*%
%ADD74RoundRect,0.063500X0.750000X0.750000X-0.750000X0.750000X-0.750000X-0.750000X0.750000X-0.750000X0*%
%ADD75FreePoly4,180.000000*%
%ADD76RoundRect,0.054591X0.859809X-1.240809X0.859809X1.240809X-0.859809X1.240809X-0.859809X-1.240809X0*%
%ADD77RoundRect,0.057252X0.506248X0.556248X-0.506248X0.556248X-0.506248X-0.556248X0.506248X-0.556248X0*%
%ADD78RoundRect,0.061383X-0.776817X-0.306917X0.776817X-0.306917X0.776817X0.306917X-0.776817X0.306917X0*%
%ADD79RoundRect,0.250000X0.325000X0.650000X-0.325000X0.650000X-0.325000X-0.650000X0.325000X-0.650000X0*%
%ADD80RoundRect,0.250000X-0.159099X0.512652X-0.512652X0.159099X0.159099X-0.512652X0.512652X-0.159099X0*%
%ADD81RoundRect,0.069233X-0.353553X-0.592933X0.592933X0.353553X0.353553X0.592933X-0.592933X-0.353553X0*%
%ADD82RoundRect,0.069233X0.592933X-0.353553X-0.353553X0.592933X-0.592933X0.353553X0.353553X-0.592933X0*%
%ADD83RoundRect,0.069233X0.353553X0.592933X-0.592933X-0.353553X-0.353553X-0.592933X0.592933X0.353553X0*%
%ADD84RoundRect,0.069233X-0.592933X0.353553X0.353553X-0.592933X0.592933X-0.353553X-0.353553X0.592933X0*%
%ADD85RoundRect,0.057252X-0.506248X-0.706248X0.506248X-0.706248X0.506248X0.706248X-0.506248X0.706248X0*%
%ADD86RoundRect,0.063703X0.530043X0.176777X0.176777X0.530043X-0.530043X-0.176777X-0.176777X-0.530043X0*%
%ADD87RoundRect,0.062345X0.280555X-0.661555X0.280555X0.661555X-0.280555X0.661555X-0.280555X-0.661555X0*%
%ADD88RoundRect,0.063703X-0.249797X-0.499797X0.249797X-0.499797X0.249797X0.499797X-0.249797X0.499797X0*%
%ADD89RoundRect,0.057252X-0.506248X-0.556248X0.506248X-0.556248X0.506248X0.556248X-0.506248X0.556248X0*%
%ADD90RoundRect,0.062345X0.661555X0.280555X-0.661555X0.280555X-0.661555X-0.280555X0.661555X-0.280555X0*%
%ADD91RoundRect,0.250000X-0.132583X0.503814X-0.503814X0.132583X0.132583X-0.503814X0.503814X-0.132583X0*%
%ADD92FreePoly5,180.000000*%
%ADD93C,2.077000*%
%ADD94RoundRect,0.057252X0.035355X-0.751298X0.751298X-0.035355X-0.035355X0.751298X-0.751298X0.035355X0*%
%ADD95RoundRect,0.068943X-0.172357X0.832757X-0.172357X-0.832757X0.172357X-0.832757X0.172357X0.832757X0*%
%ADD96C,2.387600*%
%ADD97C,0.990600*%
%ADD98RoundRect,0.457200X0.000000X0.000000X0.000000X0.000000X0.000000X0.000000X0.000000X0.000000X0*%
%ADD99RoundRect,0.250000X0.132583X-0.503814X0.503814X-0.132583X-0.132583X0.503814X-0.503814X0.132583X0*%
%ADD100RoundRect,0.076200X0.571500X0.114300X-0.571500X0.114300X-0.571500X-0.114300X0.571500X-0.114300X0*%
G04 APERTURE END LIST*
%TO.C,FM4*%
D10*
X219663956Y-150000000D02*
G75*
G03*
X218336044Y-150000000I-663956J0D01*
G01*
X218336044Y-150000000D02*
G75*
G03*
X219663956Y-150000000I663956J0D01*
G01*
%TO.C,FM3*%
X219663956Y-60000000D02*
G75*
G03*
X218336044Y-60000000I-663956J0D01*
G01*
X218336044Y-60000000D02*
G75*
G03*
X219663956Y-60000000I663956J0D01*
G01*
%TO.C,FM2*%
X78663956Y-141000000D02*
G75*
G03*
X77336044Y-141000000I-663956J0D01*
G01*
X77336044Y-141000000D02*
G75*
G03*
X78663956Y-141000000I663956J0D01*
G01*
%TO.C,FM1*%
X78663956Y-69000000D02*
G75*
G03*
X77336044Y-69000000I-663956J0D01*
G01*
X77336044Y-69000000D02*
G75*
G03*
X78663956Y-69000000I663956J0D01*
G01*
%TD*%
D11*
%TO.C,TP12*%
X99060000Y-116840000D03*
%TD*%
%TO.C,TP11*%
X99060000Y-109220000D03*
%TD*%
%TO.C,TP20*%
X83820000Y-101600000D03*
%TD*%
%TO.C,TP19*%
X83820000Y-99060000D03*
%TD*%
%TO.C,TP18*%
X83820000Y-93980000D03*
%TD*%
%TO.C,TP17*%
X83820000Y-91440000D03*
%TD*%
%TO.C,TP16*%
X83820000Y-86360000D03*
%TD*%
%TO.C,TP15*%
X83820000Y-83820000D03*
%TD*%
%TO.C,TP14*%
X83820000Y-78740000D03*
%TD*%
%TO.C,TP13*%
X83820000Y-76200000D03*
%TD*%
%TO.C,TP3*%
X203200000Y-139700000D03*
%TD*%
%TO.C,TP10*%
X187960000Y-76200000D03*
%TD*%
%TO.C,TP9*%
X187960000Y-73660000D03*
%TD*%
%TO.C,TP8*%
X187960000Y-71120000D03*
%TD*%
%TO.C,TP1*%
X198120000Y-139700000D03*
%TD*%
%TO.C,TP2*%
X200660000Y-139700000D03*
%TD*%
%TO.C,TP4*%
X218440000Y-101600000D03*
%TD*%
%TO.C,TP6*%
X218440000Y-106680000D03*
%TD*%
%TO.C,TP5*%
X218440000Y-104140000D03*
%TD*%
D12*
%TO.C,R2*%
X86574000Y-70548500D03*
X84749000Y-70548500D03*
%TD*%
%TO.C,R1*%
X90003000Y-70548500D03*
X88178000Y-70548500D03*
%TD*%
D13*
%TO.C,IC17*%
X134244000Y-127096500D03*
X135514000Y-127096500D03*
X136784000Y-127096500D03*
X138054000Y-127096500D03*
X138054000Y-121696500D03*
X136784000Y-121696500D03*
X135514000Y-121696500D03*
X134244000Y-121696500D03*
%TD*%
D14*
%TO.C,Q1*%
X111998600Y-78234000D03*
X112648600Y-78234000D03*
X113298600Y-78234000D03*
X113298600Y-75897200D03*
X112648600Y-75897200D03*
X111998600Y-75897200D03*
%TD*%
D12*
%TO.C,R8*%
X160106600Y-109577600D03*
X158281600Y-109577600D03*
%TD*%
D15*
%TO.C,J1*%
X213677100Y-146915600D03*
X208597100Y-146915600D03*
%TD*%
D16*
%TO.C,R34*%
X86739000Y-97663000D03*
X89664000Y-97663000D03*
%TD*%
D12*
%TO.C,R60*%
X119974600Y-121261600D03*
X118149600Y-121261600D03*
%TD*%
D17*
%TO.C,TVS1*%
X143637000Y-100027200D03*
X143637000Y-102745000D03*
%TD*%
D12*
%TO.C,R47*%
X108989100Y-96750600D03*
X107164100Y-96750600D03*
%TD*%
D18*
%TO.C,C36*%
X209446092Y-93234608D03*
X210542108Y-92138592D03*
%TD*%
D19*
%TO.C,X4*%
X81100000Y-100835000D03*
X81100000Y-97025000D03*
X81100000Y-93215000D03*
X81100000Y-89405000D03*
X81100000Y-85595000D03*
X81100000Y-81785000D03*
X81100000Y-77975000D03*
X81100000Y-74165000D03*
%TD*%
D20*
%TO.C,C9*%
X210949100Y-124881100D03*
X212849100Y-124881100D03*
%TD*%
D21*
%TO.C,D20*%
X103906100Y-94906600D03*
X103906100Y-93006600D03*
X101706100Y-93956600D03*
%TD*%
D22*
%TO.C,R16*%
X133032100Y-102298600D03*
X133032100Y-100473600D03*
%TD*%
D23*
%TO.C,C20*%
X173164100Y-139409600D03*
X173164100Y-140959600D03*
%TD*%
D12*
%TO.C,R45*%
X108989100Y-92813600D03*
X107164100Y-92813600D03*
%TD*%
D24*
%TO.C,IC4*%
X217583600Y-116176600D03*
X217583600Y-114906600D03*
X217583600Y-113636600D03*
X217583600Y-112366600D03*
X212183600Y-112366600D03*
X212183600Y-113636600D03*
X212183600Y-114906600D03*
X212183600Y-116176600D03*
%TD*%
D25*
%TO.C,C87*%
X177035100Y-91861100D03*
X175135100Y-91861100D03*
%TD*%
D26*
%TO.C,Q10*%
X111569100Y-118988300D03*
X111569100Y-117057900D03*
X109410100Y-118023100D03*
%TD*%
D23*
%TO.C,C56*%
X165798100Y-120219900D03*
X165798100Y-121769900D03*
%TD*%
D27*
%TO.C,D5*%
X208719500Y-122555000D03*
X204919500Y-122555000D03*
%TD*%
D21*
%TO.C,D17*%
X103906100Y-83857600D03*
X103906100Y-81957600D03*
X101706100Y-82907600D03*
%TD*%
D28*
%TO.C,Q5*%
X165086900Y-86897700D03*
X165086900Y-86247700D03*
X165086900Y-85597700D03*
X162750100Y-85597700D03*
X162750100Y-86247700D03*
X162750100Y-86897700D03*
%TD*%
D12*
%TO.C,R49*%
X108989100Y-100687600D03*
X107164100Y-100687600D03*
%TD*%
D29*
%TO.C,R38*%
X107164100Y-79034100D03*
X108989100Y-79034100D03*
%TD*%
%TO.C,R44*%
X107164100Y-90845100D03*
X108989100Y-90845100D03*
%TD*%
D30*
%TO.C,R56*%
X112343800Y-110506600D03*
X112343800Y-112331600D03*
%TD*%
D23*
%TO.C,C58*%
X157416100Y-103468600D03*
X157416100Y-105018600D03*
%TD*%
D25*
%TO.C,C7*%
X208531100Y-124817600D03*
X206631100Y-124817600D03*
%TD*%
D31*
%TO.C,RN4*%
X179994653Y-81542465D03*
X179358257Y-82178861D03*
X178721861Y-82815257D03*
X178085465Y-83451653D03*
X179287547Y-84653735D03*
X179923943Y-84017339D03*
X180560339Y-83380943D03*
X181196735Y-82744547D03*
%TD*%
D32*
%TO.C,D8*%
X210634100Y-122555000D03*
X214434100Y-122555000D03*
%TD*%
D16*
%TO.C,R32*%
X86739000Y-82931000D03*
X89664000Y-82931000D03*
%TD*%
D33*
%TO.C,R4*%
X176455865Y-84929365D03*
X177746335Y-86219835D03*
%TD*%
D16*
%TO.C,R27*%
X86739000Y-79248000D03*
X89664000Y-79248000D03*
%TD*%
D34*
%TO.C,FM4*%
X219000000Y-150000000D03*
%TD*%
D35*
%TO.C,C4*%
X196341600Y-127164600D03*
X196341600Y-125264600D03*
%TD*%
D36*
%TO.C,IC1*%
X216747100Y-130852600D03*
X216747100Y-131802600D03*
X216747100Y-132752596D03*
X219497100Y-132752596D03*
X219497100Y-131802600D03*
X219497100Y-130852600D03*
%TD*%
D35*
%TO.C,C68*%
X96837100Y-107225600D03*
X96837100Y-105325600D03*
%TD*%
D25*
%TO.C,C89*%
X173098100Y-88622600D03*
X171198100Y-88622600D03*
%TD*%
D35*
%TO.C,C62*%
X159258000Y-105280500D03*
X159258000Y-103380500D03*
%TD*%
D37*
%TO.C,C70*%
X139954000Y-110987600D03*
X139954000Y-109437600D03*
%TD*%
D38*
%TO.C,D11*%
X147317100Y-100222600D03*
X145417100Y-100222600D03*
X146367100Y-102422600D03*
%TD*%
D39*
%TO.C,X1*%
X129980000Y-142540000D03*
D40*
X129980000Y-140000000D03*
X132520000Y-142540000D03*
X132520000Y-140000000D03*
X135060000Y-142540000D03*
X135060000Y-140000000D03*
X137600000Y-142540000D03*
X137600000Y-140000000D03*
X140140000Y-142540000D03*
X140140000Y-140000000D03*
X142680000Y-142540000D03*
X142680000Y-140000000D03*
X145220000Y-142540000D03*
X145220000Y-140000000D03*
X147760000Y-142540000D03*
X147760000Y-140000000D03*
X150300000Y-142540000D03*
X150300000Y-140000000D03*
X152840000Y-142540000D03*
X152840000Y-140000000D03*
X155380000Y-142540000D03*
X155380000Y-140000000D03*
X157920000Y-142540000D03*
X157920000Y-140000000D03*
X160460000Y-142540000D03*
X160460000Y-140000000D03*
X163000000Y-142540000D03*
X163000000Y-140000000D03*
%TD*%
D34*
%TO.C,FM3*%
X219000000Y-60000000D03*
%TD*%
D41*
%TO.C,C71*%
X138937600Y-100436100D03*
X138937600Y-102336100D03*
%TD*%
D29*
%TO.C,R57*%
X109196100Y-108307600D03*
X111021100Y-108307600D03*
%TD*%
D37*
%TO.C,C69*%
X140779100Y-102542100D03*
X140779100Y-100992100D03*
%TD*%
D23*
%TO.C,C21*%
X174688100Y-130710100D03*
X174688100Y-132260100D03*
%TD*%
D42*
%TO.C,IC10*%
X196209947Y-68164732D03*
X196775632Y-68730418D03*
X197341317Y-69296103D03*
X197907003Y-69861789D03*
X198472688Y-70427474D03*
X199038374Y-70993160D03*
X199604059Y-71558845D03*
X200169745Y-72124530D03*
X200735430Y-72690216D03*
X201301115Y-73255901D03*
X201866801Y-73821587D03*
X202432486Y-74387272D03*
X202998172Y-74952958D03*
X203563857Y-75518643D03*
X204129542Y-76084328D03*
X204695228Y-76650014D03*
X205260913Y-77215699D03*
X205826599Y-77781385D03*
X206392284Y-78347070D03*
X206957970Y-78912755D03*
X207523655Y-79478441D03*
X208089340Y-80044126D03*
X208655026Y-80609812D03*
X209220711Y-81175497D03*
X209786397Y-81741183D03*
X210352082Y-82306868D03*
X210917768Y-82872553D03*
D43*
X218699053Y-75091268D03*
X218133368Y-74525582D03*
X217567683Y-73959897D03*
X217001997Y-73394211D03*
X216436312Y-72828526D03*
X215870626Y-72262840D03*
X215304941Y-71697155D03*
X214739255Y-71131470D03*
X214173570Y-70565784D03*
X213607885Y-70000099D03*
X213042199Y-69434413D03*
X212476514Y-68868728D03*
X211910828Y-68303042D03*
X211345143Y-67737357D03*
X210779458Y-67171672D03*
X210213772Y-66605986D03*
X209648087Y-66040301D03*
X209082401Y-65474615D03*
X208516716Y-64908930D03*
X207951030Y-64343245D03*
X207385345Y-63777559D03*
X206819660Y-63211874D03*
X206253974Y-62646188D03*
X205688289Y-62080503D03*
X205122603Y-61514817D03*
X204556918Y-60949132D03*
X203991232Y-60383447D03*
%TD*%
D29*
%TO.C,R12*%
X153519100Y-118531100D03*
X155344100Y-118531100D03*
%TD*%
D44*
%TO.C,C33*%
X207417749Y-97128251D03*
X208761251Y-95784749D03*
%TD*%
D20*
%TO.C,C11*%
X201043100Y-120436100D03*
X202943100Y-120436100D03*
%TD*%
D22*
%TO.C,R23*%
X126555100Y-102235100D03*
X126555100Y-100410100D03*
%TD*%
D16*
%TO.C,R28*%
X86739000Y-86614000D03*
X89664000Y-86614000D03*
%TD*%
D14*
%TO.C,Q2*%
X111998600Y-86108000D03*
X112648600Y-86108000D03*
X113298600Y-86108000D03*
X113298600Y-83771200D03*
X112648600Y-83771200D03*
X111998600Y-83771200D03*
%TD*%
D45*
%TO.C,C59*%
X155715000Y-110871000D03*
X154165000Y-110871000D03*
%TD*%
D35*
%TO.C,C54*%
X163957000Y-122044500D03*
X163957000Y-120144500D03*
%TD*%
D29*
%TO.C,R58*%
X114212600Y-121261600D03*
X116037600Y-121261600D03*
%TD*%
D46*
%TO.C,C90*%
X199035349Y-105476849D03*
X200378851Y-106820351D03*
%TD*%
D47*
%TO.C,C83*%
X104711500Y-69991500D03*
X104711500Y-67041500D03*
%TD*%
D13*
%TO.C,IC20*%
X149484000Y-127096500D03*
X150754000Y-127096500D03*
X152024000Y-127096500D03*
X153294000Y-127096500D03*
X153294000Y-121696500D03*
X152024000Y-121696500D03*
X150754000Y-121696500D03*
X149484000Y-121696500D03*
%TD*%
D30*
%TO.C,R17*%
X124586600Y-112221100D03*
X124586600Y-114046100D03*
%TD*%
D48*
%TO.C,C24*%
X192851008Y-110375792D03*
X191754992Y-111471808D03*
%TD*%
D23*
%TO.C,C50*%
X133032100Y-111977600D03*
X133032100Y-113527600D03*
%TD*%
D35*
%TO.C,C67*%
X96837100Y-111607100D03*
X96837100Y-109707100D03*
%TD*%
D21*
%TO.C,D16*%
X103906100Y-80174600D03*
X103906100Y-78274600D03*
X101706100Y-79224600D03*
%TD*%
D49*
%TO.C,D3*%
X200405600Y-130728100D03*
X200405600Y-134528100D03*
%TD*%
D25*
%TO.C,C13*%
X206943600Y-118086600D03*
X205043600Y-118086600D03*
%TD*%
D12*
%TO.C,R64*%
X128420100Y-75630500D03*
X126595100Y-75630500D03*
%TD*%
D50*
%TO.C,L1*%
X210589100Y-140465600D03*
X210589100Y-143205600D03*
X218289100Y-143205600D03*
X218289100Y-140465600D03*
%TD*%
D23*
%TO.C,C18*%
X171449600Y-140806600D03*
X171449600Y-142356600D03*
%TD*%
D16*
%TO.C,R30*%
X86739000Y-101346000D03*
X89664000Y-101346000D03*
%TD*%
D18*
%TO.C,C38*%
X186268592Y-81868108D03*
X187364608Y-80772092D03*
%TD*%
D21*
%TO.C,D19*%
X103906100Y-91223600D03*
X103906100Y-89323600D03*
X101706100Y-90273600D03*
%TD*%
D20*
%TO.C,C15*%
X212473500Y-103187500D03*
X214373500Y-103187500D03*
%TD*%
%TO.C,C65*%
X153481600Y-97195100D03*
X155381600Y-97195100D03*
%TD*%
D35*
%TO.C,C64*%
X159258000Y-122108000D03*
X159258000Y-120208000D03*
%TD*%
D23*
%TO.C,C55*%
X166369600Y-103468600D03*
X166369600Y-105018600D03*
%TD*%
D51*
%TO.C,C43*%
X196405500Y-70739000D03*
X197501516Y-71835016D03*
%TD*%
D29*
%TO.C,R10*%
X153519100Y-101132100D03*
X155344100Y-101132100D03*
%TD*%
D24*
%TO.C,IC3*%
X209519100Y-116113100D03*
X209519100Y-114843100D03*
X209519100Y-113573100D03*
X209519100Y-112303100D03*
X204119100Y-112303100D03*
X204119100Y-113573100D03*
X204119100Y-114843100D03*
X204119100Y-116113100D03*
%TD*%
D52*
%TO.C,X7*%
X136500000Y-66500000D03*
D53*
X136500000Y-64500000D03*
X138500000Y-66500000D03*
X138500000Y-64500000D03*
X140500000Y-66500000D03*
X140500000Y-64500000D03*
X142500000Y-66500000D03*
X142500000Y-64500000D03*
X144500000Y-66500000D03*
X144500000Y-64500000D03*
%TD*%
D30*
%TO.C,R25*%
X124586600Y-100410100D03*
X124586600Y-102235100D03*
%TD*%
D12*
%TO.C,R35*%
X108989100Y-73128600D03*
X107164100Y-73128600D03*
%TD*%
D29*
%TO.C,R42*%
X107164100Y-86908100D03*
X108989100Y-86908100D03*
%TD*%
D54*
%TO.C,IC5*%
X169666600Y-137332200D03*
X168396600Y-137332200D03*
X167126600Y-137332200D03*
X165856600Y-137332200D03*
X165856600Y-142732200D03*
X167126600Y-142732200D03*
X168396600Y-142732200D03*
X169666600Y-142732200D03*
%TD*%
D55*
%TO.C,TR1*%
X214460600Y-134342600D03*
X214460600Y-131802600D03*
X214460600Y-129262600D03*
X202860600Y-129262600D03*
X202860600Y-131802600D03*
X202860600Y-134342600D03*
%TD*%
D30*
%TO.C,R13*%
X138239100Y-109300100D03*
X138239100Y-111125100D03*
%TD*%
D32*
%TO.C,D26*%
X103446100Y-118531100D03*
X107246100Y-118531100D03*
%TD*%
D25*
%TO.C,C85*%
X177035100Y-95798100D03*
X175135100Y-95798100D03*
%TD*%
D30*
%TO.C,R26*%
X122618100Y-108284100D03*
X122618100Y-110109100D03*
%TD*%
D35*
%TO.C,C76*%
X96837100Y-120560600D03*
X96837100Y-118660600D03*
%TD*%
D16*
%TO.C,R31*%
X86739000Y-75565000D03*
X89664000Y-75565000D03*
%TD*%
D56*
%TO.C,Y1*%
X178678597Y-111863370D03*
X183126299Y-107415668D03*
X181365603Y-105640830D03*
X176910830Y-110095603D03*
%TD*%
D57*
%TO.C,IC13*%
X164490000Y-118423100D03*
X164490000Y-117773100D03*
X164490000Y-117123103D03*
X164490000Y-116473100D03*
X164490000Y-115823103D03*
X164490000Y-115173100D03*
X164490000Y-114523104D03*
X164490000Y-113873100D03*
X164490000Y-113223104D03*
X164490000Y-112573100D03*
X164490000Y-111923104D03*
X164490000Y-111273100D03*
X158851200Y-111273100D03*
X158851200Y-111923100D03*
X158851200Y-112573100D03*
X158851200Y-113223100D03*
X158851200Y-113873100D03*
X158851200Y-114523100D03*
X158851200Y-115173096D03*
X158851200Y-115823100D03*
X158851200Y-116473096D03*
X158851200Y-117123100D03*
X158851200Y-117773096D03*
X158851200Y-118423100D03*
D58*
X161670600Y-114848100D03*
%TD*%
D12*
%TO.C,R39*%
X108989100Y-81002600D03*
X107164100Y-81002600D03*
%TD*%
D59*
%TO.C,JP3*%
X96869100Y-130532600D03*
X98869100Y-130532600D03*
D60*
X100869100Y-130532600D03*
%TD*%
D61*
%TO.C,ZD2*%
X103631600Y-135267700D03*
X103631600Y-131305300D03*
%TD*%
D45*
%TO.C,C2*%
X218516500Y-134683500D03*
X216966500Y-134683500D03*
%TD*%
%TO.C,C39*%
X155524500Y-86931500D03*
X153974500Y-86931500D03*
%TD*%
D32*
%TO.C,D6*%
X204919100Y-120626600D03*
X208719100Y-120626600D03*
%TD*%
D51*
%TO.C,C48*%
X211414992Y-65491992D03*
X212511008Y-66588008D03*
%TD*%
D13*
%TO.C,IC18*%
X141864000Y-127096500D03*
X143134000Y-127096500D03*
X144404000Y-127096500D03*
X145674000Y-127096500D03*
X145674000Y-121696500D03*
X144404000Y-121696500D03*
X143134000Y-121696500D03*
X141864000Y-121696500D03*
%TD*%
D30*
%TO.C,R20*%
X129222100Y-112602100D03*
X129222100Y-114427100D03*
%TD*%
D22*
%TO.C,R6*%
X168592100Y-105537100D03*
X168592100Y-103712100D03*
%TD*%
D17*
%TO.C,TVS2*%
X142049500Y-113044700D03*
X142049500Y-115762500D03*
%TD*%
D45*
%TO.C,C57*%
X156159100Y-93385100D03*
X154609100Y-93385100D03*
%TD*%
D35*
%TO.C,C75*%
X96837100Y-116052100D03*
X96837100Y-114152100D03*
%TD*%
D27*
%TO.C,D25*%
X107246100Y-116586000D03*
X103446100Y-116586000D03*
%TD*%
D62*
%TO.C,C51*%
X166737600Y-101322600D03*
X168287600Y-101322600D03*
%TD*%
D21*
%TO.C,D18*%
X103906100Y-87540600D03*
X103906100Y-85640600D03*
X101706100Y-86590600D03*
%TD*%
D63*
%TO.C,RN1*%
X190643100Y-141430100D03*
X189743100Y-141430100D03*
X188843100Y-141430100D03*
X187943100Y-141430100D03*
X187943100Y-143130100D03*
X188843100Y-143130100D03*
X189743100Y-143130100D03*
X190643100Y-143130100D03*
%TD*%
D51*
%TO.C,C40*%
X182077592Y-103187592D03*
X183173608Y-104283608D03*
%TD*%
D64*
%TO.C,JP1*%
X183202500Y-144907000D03*
X181302500Y-144907000D03*
X185102500Y-144907000D03*
%TD*%
D21*
%TO.C,D15*%
X103906100Y-76491600D03*
X103906100Y-74591600D03*
X101706100Y-75541600D03*
%TD*%
D20*
%TO.C,C61*%
X153481600Y-95226600D03*
X155381600Y-95226600D03*
%TD*%
D65*
%TO.C,IC6*%
X185483100Y-139215600D03*
X186753100Y-139215600D03*
X188023100Y-139215600D03*
X189293100Y-139215600D03*
X190563100Y-139215600D03*
X191833100Y-139215600D03*
X193103100Y-139215600D03*
X194373100Y-139215600D03*
X194373100Y-134295600D03*
X193103100Y-134295600D03*
X191833100Y-134295600D03*
X190563100Y-134295600D03*
X189293100Y-134295600D03*
X188023100Y-134295600D03*
X186753100Y-134295600D03*
X185483100Y-134295600D03*
%TD*%
D30*
%TO.C,R21*%
X124586600Y-104359800D03*
X124586600Y-106184800D03*
%TD*%
D37*
%TO.C,C49*%
X128714100Y-102478600D03*
X128714100Y-100928600D03*
%TD*%
D25*
%TO.C,C12*%
X217929500Y-120586500D03*
X216029500Y-120586500D03*
%TD*%
D62*
%TO.C,C72*%
X135876600Y-116880100D03*
X137426600Y-116880100D03*
%TD*%
D17*
%TO.C,TVS4*%
X120421000Y-111711200D03*
X120421000Y-108993400D03*
%TD*%
D66*
%TO.C,L7*%
X136905600Y-102553600D03*
X136905600Y-100853600D03*
%TD*%
D16*
%TO.C,R29*%
X86739000Y-93980000D03*
X89664000Y-93980000D03*
%TD*%
D22*
%TO.C,R52*%
X100202600Y-69723100D03*
X100202600Y-67898100D03*
%TD*%
D51*
%TO.C,C37*%
X200746592Y-81597592D03*
X201842608Y-82693608D03*
%TD*%
D34*
%TO.C,FM2*%
X78000000Y-141000000D03*
%TD*%
D67*
%TO.C,C25*%
X184698008Y-101576508D03*
X183601992Y-100480492D03*
%TD*%
D68*
%TO.C,C32*%
X211417151Y-94057549D03*
X213397049Y-92077651D03*
%TD*%
D29*
%TO.C,R46*%
X107164100Y-94782100D03*
X108989100Y-94782100D03*
%TD*%
D12*
%TO.C,R7*%
X160741600Y-92750100D03*
X158916600Y-92750100D03*
%TD*%
D13*
%TO.C,IC19*%
X129100100Y-109737600D03*
X130370100Y-109737600D03*
X131640100Y-109737600D03*
X132910100Y-109737600D03*
X132910100Y-104337600D03*
X131640100Y-104337600D03*
X130370100Y-104337600D03*
X129100100Y-104337600D03*
%TD*%
D62*
%TO.C,C10*%
X212648500Y-109220000D03*
X214198500Y-109220000D03*
%TD*%
D38*
%TO.C,D12*%
X145729600Y-113303600D03*
X143829600Y-113303600D03*
X144779600Y-115503600D03*
%TD*%
D67*
%TO.C,C41*%
X185459608Y-106569608D03*
X184363592Y-105473592D03*
%TD*%
D22*
%TO.C,R19*%
X131063600Y-102298600D03*
X131063600Y-100473600D03*
%TD*%
D57*
%TO.C,IC12*%
X164490000Y-101722600D03*
X164490000Y-101072600D03*
X164490000Y-100422603D03*
X164490000Y-99772600D03*
X164490000Y-99122603D03*
X164490000Y-98472600D03*
X164490000Y-97822604D03*
X164490000Y-97172600D03*
X164490000Y-96522604D03*
X164490000Y-95872600D03*
X164490000Y-95222604D03*
X164490000Y-94572600D03*
X158851200Y-94572600D03*
X158851200Y-95222600D03*
X158851200Y-95872600D03*
X158851200Y-96522600D03*
X158851200Y-97172600D03*
X158851200Y-97822600D03*
X158851200Y-98472596D03*
X158851200Y-99122600D03*
X158851200Y-99772596D03*
X158851200Y-100422600D03*
X158851200Y-101072596D03*
X158851200Y-101722600D03*
D58*
X161670600Y-98147600D03*
%TD*%
D69*
%TO.C,L6*%
X147510100Y-113553600D03*
X147510100Y-115253600D03*
%TD*%
D32*
%TO.C,D7*%
X216095500Y-122555000D03*
X219895500Y-122555000D03*
%TD*%
D70*
%TO.C,KK1*%
X86500000Y-63000000D03*
%TD*%
D12*
%TO.C,R63*%
X129296400Y-66753200D03*
X127471400Y-66753200D03*
%TD*%
D59*
%TO.C,JP2*%
X96869100Y-125706600D03*
X98869100Y-125706600D03*
D60*
X100869100Y-125706600D03*
%TD*%
D41*
%TO.C,C82*%
X162839000Y-81805200D03*
X162839000Y-83705200D03*
%TD*%
D25*
%TO.C,C14*%
X215135100Y-118086600D03*
X213235100Y-118086600D03*
%TD*%
D22*
%TO.C,R18*%
X131190600Y-114427100D03*
X131190600Y-112602100D03*
%TD*%
D52*
%TO.C,X5*%
X116500000Y-66500000D03*
D53*
X116500000Y-64500000D03*
X118500000Y-66500000D03*
X118500000Y-64500000D03*
X120500000Y-66500000D03*
X120500000Y-64500000D03*
X122500000Y-66500000D03*
X122500000Y-64500000D03*
X124500000Y-66500000D03*
X124500000Y-64500000D03*
%TD*%
D37*
%TO.C,C81*%
X106616500Y-70117000D03*
X106616500Y-68567000D03*
%TD*%
%TO.C,C77*%
X151193100Y-110860600D03*
X151193100Y-109310600D03*
%TD*%
D71*
%TO.C,C3*%
X215441000Y-136588500D03*
X218391000Y-136588500D03*
%TD*%
D72*
%TO.C,Q9*%
X105066700Y-112498600D03*
X106997100Y-112498600D03*
X106031900Y-110339600D03*
%TD*%
D35*
%TO.C,C73*%
X126555100Y-106209600D03*
X126555100Y-104309600D03*
%TD*%
D73*
%TO.C,IC15*%
X135254600Y-104259600D03*
X135254600Y-104759600D03*
X135254600Y-105259600D03*
X135254600Y-105759600D03*
X135254600Y-106259600D03*
X139445600Y-106259600D03*
X139445600Y-105759600D03*
X139445600Y-105259600D03*
X139445600Y-104759600D03*
X139445600Y-104259600D03*
%TD*%
D62*
%TO.C,C52*%
X166737600Y-118150100D03*
X168287600Y-118150100D03*
%TD*%
D74*
%TO.C,X8*%
X160520000Y-134500000D03*
D75*
X160520000Y-131960000D03*
X157980000Y-134500000D03*
X157980000Y-131960000D03*
X155440000Y-134500000D03*
X155440000Y-131960000D03*
X152900000Y-134500000D03*
X152900000Y-131960000D03*
X150360000Y-134500000D03*
X150360000Y-131960000D03*
X147820000Y-134500000D03*
X147820000Y-131960000D03*
X145280000Y-134500000D03*
X145280000Y-131960000D03*
X142740000Y-134500000D03*
X142740000Y-131960000D03*
X140200000Y-134500000D03*
X140200000Y-131960000D03*
X137660000Y-134500000D03*
X137660000Y-131960000D03*
X135120000Y-134500000D03*
X135120000Y-131960000D03*
X132580000Y-134500000D03*
X132580000Y-131960000D03*
X130040000Y-134500000D03*
X130040000Y-131960000D03*
X127500000Y-134500000D03*
X127500000Y-131960000D03*
%TD*%
D76*
%TO.C,ZD1*%
X103631600Y-124550900D03*
X103631600Y-128513300D03*
%TD*%
D29*
%TO.C,R48*%
X107164100Y-98719100D03*
X108989100Y-98719100D03*
%TD*%
%TO.C,R40*%
X107164100Y-82971100D03*
X108989100Y-82971100D03*
%TD*%
D77*
%TO.C,L3*%
X218654600Y-118086600D03*
X216954600Y-118086600D03*
%TD*%
D12*
%TO.C,R53*%
X97749600Y-65826100D03*
X95924600Y-65826100D03*
%TD*%
D49*
%TO.C,D4*%
X200405600Y-125267100D03*
X200405600Y-129067100D03*
%TD*%
D12*
%TO.C,R54*%
X111338600Y-114594100D03*
X109513600Y-114594100D03*
%TD*%
D18*
%TO.C,C29*%
X194650992Y-77383008D03*
X195747008Y-76286992D03*
%TD*%
D35*
%TO.C,C74*%
X126555100Y-110159300D03*
X126555100Y-108259300D03*
%TD*%
D22*
%TO.C,R15*%
X122618100Y-106184800D03*
X122618100Y-104359800D03*
%TD*%
D29*
%TO.C,R61*%
X96940600Y-123420600D03*
X98765600Y-123420600D03*
%TD*%
%TO.C,R36*%
X107164100Y-75097100D03*
X108989100Y-75097100D03*
%TD*%
D49*
%TO.C,D1*%
X198437100Y-130728100D03*
X198437100Y-134528100D03*
%TD*%
D14*
%TO.C,Q4*%
X111744600Y-101856000D03*
X112394600Y-101856000D03*
X113044600Y-101856000D03*
X113044600Y-99519200D03*
X112394600Y-99519200D03*
X111744600Y-99519200D03*
%TD*%
D26*
%TO.C,IC21*%
X97916600Y-69712300D03*
X97916600Y-67781900D03*
X95757600Y-68747100D03*
%TD*%
D78*
%TO.C,IC23*%
X118173100Y-68480400D03*
X118173100Y-69750400D03*
X118173100Y-71020400D03*
X118173100Y-72290400D03*
X118173100Y-73560400D03*
X118173100Y-74830400D03*
X118173100Y-76100400D03*
X118173100Y-77370400D03*
X123557900Y-77370400D03*
X123557900Y-76100400D03*
X123557900Y-74830400D03*
X123557900Y-73560400D03*
X123557900Y-72290400D03*
X123557900Y-71020400D03*
X123557900Y-69750400D03*
X123557900Y-68480400D03*
%TD*%
D65*
%TO.C,IC7*%
X174878600Y-139215600D03*
X176148600Y-139215600D03*
X177418600Y-139215600D03*
X178688600Y-139215600D03*
X179958600Y-139215600D03*
X181228600Y-139215600D03*
X182498600Y-139215600D03*
X183768600Y-139215600D03*
X183768600Y-134295600D03*
X182498600Y-134295600D03*
X181228600Y-134295600D03*
X179958600Y-134295600D03*
X178688600Y-134295600D03*
X177418600Y-134295600D03*
X176148600Y-134295600D03*
X174878600Y-134295600D03*
%TD*%
D51*
%TO.C,C28*%
X204620092Y-85407592D03*
X205716108Y-86503608D03*
%TD*%
D29*
%TO.C,R11*%
X153519100Y-116562600D03*
X155344100Y-116562600D03*
%TD*%
D79*
%TO.C,C1*%
X87771500Y-68389500D03*
X84821500Y-68389500D03*
%TD*%
D80*
%TO.C,C31*%
X199553751Y-77306249D03*
X198210249Y-78649751D03*
%TD*%
D48*
%TO.C,C26*%
X197473808Y-106667392D03*
X196377792Y-107763408D03*
%TD*%
D37*
%TO.C,C91*%
X111823100Y-130405900D03*
X111823100Y-128855900D03*
%TD*%
D21*
%TO.C,D24*%
X108414600Y-131482600D03*
X108414600Y-129582600D03*
X106214600Y-130532600D03*
%TD*%
D51*
%TO.C,C34*%
X187640192Y-104724292D03*
X188736208Y-105820308D03*
%TD*%
D21*
%TO.C,D21*%
X103906100Y-98589600D03*
X103906100Y-96689600D03*
X101706100Y-97639600D03*
%TD*%
D23*
%TO.C,C19*%
X185483100Y-141378100D03*
X185483100Y-142928100D03*
%TD*%
D48*
%TO.C,C27*%
X205653008Y-98511992D03*
X204556992Y-99608008D03*
%TD*%
D81*
%TO.C,IC8*%
X179974406Y-93821925D03*
X180327960Y-94175479D03*
X180681513Y-94529032D03*
X181035066Y-94882585D03*
X181388620Y-95236139D03*
X181742173Y-95589692D03*
X182095726Y-95943246D03*
X182449280Y-96296799D03*
X182802833Y-96650352D03*
X183156387Y-97003906D03*
X183509940Y-97357459D03*
X183863493Y-97711013D03*
X184217047Y-98064566D03*
X184570600Y-98418119D03*
X184924154Y-98771673D03*
X185277707Y-99125226D03*
X185631260Y-99478779D03*
X185984814Y-99832333D03*
X186338367Y-100185886D03*
X186691921Y-100539440D03*
X187045474Y-100892993D03*
X187399027Y-101246546D03*
X187752581Y-101600100D03*
X188106134Y-101953653D03*
X188459687Y-102307207D03*
X188813241Y-102660760D03*
X189166794Y-103014313D03*
X189520348Y-103367867D03*
X189873901Y-103721420D03*
X190227454Y-104074974D03*
X190581008Y-104428527D03*
X190934561Y-104782080D03*
X191288115Y-105135634D03*
X191641668Y-105489187D03*
X191995221Y-105842740D03*
X192348775Y-106196294D03*
D82*
X195000425Y-106196294D03*
X195353979Y-105842740D03*
X195707532Y-105489187D03*
X196061085Y-105135634D03*
X196414639Y-104782080D03*
X196768192Y-104428527D03*
X197121746Y-104074974D03*
X197475299Y-103721420D03*
X197828852Y-103367867D03*
X198182406Y-103014313D03*
X198535959Y-102660760D03*
X198889513Y-102307207D03*
X199243066Y-101953653D03*
X199596619Y-101600100D03*
X199950173Y-101246546D03*
X200303726Y-100892993D03*
X200657279Y-100539440D03*
X201010833Y-100185886D03*
X201364386Y-99832333D03*
X201717940Y-99478779D03*
X202071493Y-99125226D03*
X202425046Y-98771673D03*
X202778600Y-98418119D03*
X203132153Y-98064566D03*
X203485707Y-97711013D03*
X203839260Y-97357459D03*
X204192813Y-97003906D03*
X204546367Y-96650352D03*
X204899920Y-96296799D03*
X205253474Y-95943246D03*
X205607027Y-95589692D03*
X205960580Y-95236139D03*
X206314134Y-94882585D03*
X206667687Y-94529032D03*
X207021240Y-94175479D03*
X207374794Y-93821925D03*
D83*
X207374794Y-91170275D03*
X207021240Y-90816721D03*
X206667687Y-90463168D03*
X206314134Y-90109615D03*
X205960580Y-89756061D03*
X205607027Y-89402508D03*
X205253474Y-89048954D03*
X204899920Y-88695401D03*
X204546367Y-88341848D03*
X204192813Y-87988294D03*
X203839260Y-87634741D03*
X203485707Y-87281187D03*
X203132153Y-86927634D03*
X202778600Y-86574081D03*
X202425046Y-86220527D03*
X202071493Y-85866974D03*
X201717940Y-85513421D03*
X201364386Y-85159867D03*
X201010833Y-84806314D03*
X200657279Y-84452760D03*
X200303726Y-84099207D03*
X199950173Y-83745654D03*
X199596619Y-83392100D03*
X199243066Y-83038547D03*
X198889513Y-82684993D03*
X198535959Y-82331440D03*
X198182406Y-81977887D03*
X197828852Y-81624333D03*
X197475299Y-81270780D03*
X197121746Y-80917226D03*
X196768192Y-80563673D03*
X196414639Y-80210120D03*
X196061085Y-79856566D03*
X195707532Y-79503013D03*
X195353979Y-79149460D03*
X195000425Y-78795906D03*
D84*
X192348775Y-78795906D03*
X191995221Y-79149460D03*
X191641668Y-79503013D03*
X191288115Y-79856566D03*
X190934561Y-80210120D03*
X190581008Y-80563673D03*
X190227454Y-80917226D03*
X189873901Y-81270780D03*
X189520348Y-81624333D03*
X189166794Y-81977887D03*
X188813241Y-82331440D03*
X188459687Y-82684993D03*
X188106134Y-83038547D03*
X187752581Y-83392100D03*
X187399027Y-83745654D03*
X187045474Y-84099207D03*
X186691921Y-84452760D03*
X186338367Y-84806314D03*
X185984814Y-85159867D03*
X185631260Y-85513421D03*
X185277707Y-85866974D03*
X184924154Y-86220527D03*
X184570600Y-86574081D03*
X184217047Y-86927634D03*
X183863493Y-87281187D03*
X183509940Y-87634741D03*
X183156387Y-87988294D03*
X182802833Y-88341848D03*
X182449280Y-88695401D03*
X182095726Y-89048954D03*
X181742173Y-89402508D03*
X181388620Y-89756061D03*
X181035066Y-90109615D03*
X180681513Y-90463168D03*
X180327960Y-90816721D03*
X179974406Y-91170275D03*
%TD*%
D85*
%TO.C,Q6*%
X108460100Y-112519100D03*
X109410100Y-110319100D03*
X110360100Y-112519100D03*
%TD*%
D29*
%TO.C,R50*%
X107164100Y-102656100D03*
X108989100Y-102656100D03*
%TD*%
D20*
%TO.C,C63*%
X153481600Y-112625600D03*
X155381600Y-112625600D03*
%TD*%
D49*
%TO.C,D2*%
X198437100Y-125267100D03*
X198437100Y-129067100D03*
%TD*%
D38*
%TO.C,D14*%
X103311600Y-112097100D03*
X101411600Y-112097100D03*
X102361600Y-114297100D03*
%TD*%
D41*
%TO.C,C84*%
X164807500Y-81805200D03*
X164807500Y-83705200D03*
%TD*%
D86*
%TO.C,RN3*%
X211014688Y-89158188D03*
X210378292Y-88521792D03*
X209741896Y-87885396D03*
X209105500Y-87249000D03*
X207903418Y-88451082D03*
X208539814Y-89087478D03*
X209176210Y-89723874D03*
X209812606Y-90360270D03*
%TD*%
D80*
%TO.C,C23*%
X191399951Y-109210649D03*
X190056449Y-110554151D03*
%TD*%
D21*
%TO.C,D23*%
X104330500Y-122423000D03*
X104330500Y-120523000D03*
X102130500Y-121473000D03*
%TD*%
D27*
%TO.C,D10*%
X214434100Y-120626600D03*
X210634100Y-120626600D03*
%TD*%
D87*
%TO.C,IC2*%
X212498500Y-107494800D03*
X213448500Y-107494800D03*
X214398500Y-107494800D03*
X214398500Y-105107200D03*
X212498500Y-105107200D03*
%TD*%
D23*
%TO.C,C78*%
X143890600Y-105119600D03*
X143890600Y-106669600D03*
%TD*%
D74*
%TO.C,X6*%
X160520000Y-72500000D03*
D75*
X160520000Y-69960000D03*
X157980000Y-72500000D03*
X157980000Y-69960000D03*
X155440000Y-72500000D03*
X155440000Y-69960000D03*
X152900000Y-72500000D03*
X152900000Y-69960000D03*
X150360000Y-72500000D03*
X150360000Y-69960000D03*
X147820000Y-72500000D03*
X147820000Y-69960000D03*
X145280000Y-72500000D03*
X145280000Y-69960000D03*
X142740000Y-72500000D03*
X142740000Y-69960000D03*
X140200000Y-72500000D03*
X140200000Y-69960000D03*
X137660000Y-72500000D03*
X137660000Y-69960000D03*
X135120000Y-72500000D03*
X135120000Y-69960000D03*
X132580000Y-72500000D03*
X132580000Y-69960000D03*
X130040000Y-72500000D03*
X130040000Y-69960000D03*
X127500000Y-72500000D03*
X127500000Y-69960000D03*
%TD*%
D88*
%TO.C,RN2*%
X167407200Y-135649800D03*
X168307200Y-135649800D03*
X169207200Y-135649800D03*
X170107200Y-135649800D03*
X170107200Y-133949800D03*
X169207200Y-133949800D03*
X168307200Y-133949800D03*
X167407200Y-133949800D03*
%TD*%
D89*
%TO.C,L2*%
X200952600Y-118086600D03*
X202652600Y-118086600D03*
%TD*%
D67*
%TO.C,C42*%
X194858008Y-69064508D03*
X193761992Y-67968492D03*
%TD*%
D90*
%TO.C,IC16*%
X137781900Y-115163100D03*
X137781900Y-114213100D03*
X137781900Y-113263100D03*
X135394300Y-113263100D03*
X135394300Y-115163100D03*
%TD*%
D91*
%TO.C,R3*%
X189811335Y-107662365D03*
X188520865Y-108952835D03*
%TD*%
D92*
%TO.C,X3*%
X93850000Y-106165000D03*
D93*
X93850000Y-109975000D03*
X93850000Y-113785000D03*
X93850000Y-117595000D03*
X93850000Y-121405000D03*
X93850000Y-125215000D03*
X93850000Y-129025000D03*
X93850000Y-132835000D03*
X81150000Y-106165000D03*
X81150000Y-109975000D03*
X81150000Y-113785000D03*
X81150000Y-117595000D03*
X81150000Y-121405000D03*
X81150000Y-125215000D03*
X81150000Y-129025000D03*
X81150000Y-132835000D03*
%TD*%
D67*
%TO.C,C47*%
X207685008Y-61698508D03*
X206588992Y-60602492D03*
%TD*%
D18*
%TO.C,C30*%
X183093592Y-85043108D03*
X184189608Y-83947092D03*
%TD*%
D94*
%TO.C,L4*%
X187739559Y-112655141D03*
X188941641Y-111453059D03*
%TD*%
D95*
%TO.C,IC22*%
X111931600Y-121426700D03*
X111281600Y-121426700D03*
X110631600Y-121426700D03*
X109981600Y-121426700D03*
X109331600Y-121426700D03*
X108681600Y-121426700D03*
X108031600Y-121426700D03*
X108031600Y-127065500D03*
X108681600Y-127065500D03*
X109331600Y-127065500D03*
X109981600Y-127065500D03*
X110631600Y-127065500D03*
X111281600Y-127065500D03*
X111931600Y-127065500D03*
%TD*%
D23*
%TO.C,C17*%
X219519100Y-114517600D03*
X219519100Y-116067600D03*
%TD*%
D29*
%TO.C,R59*%
X113133100Y-108307600D03*
X114958100Y-108307600D03*
%TD*%
D25*
%TO.C,C86*%
X177035100Y-93829600D03*
X175135100Y-93829600D03*
%TD*%
D12*
%TO.C,R37*%
X108989100Y-77065600D03*
X107164100Y-77065600D03*
%TD*%
D25*
%TO.C,C88*%
X173098100Y-90591100D03*
X171198100Y-90591100D03*
%TD*%
D12*
%TO.C,R43*%
X108989100Y-88876600D03*
X107164100Y-88876600D03*
%TD*%
D96*
%TO.C,X2*%
X182816500Y-77279500D03*
D97*
X182816500Y-74739500D03*
D96*
X182816500Y-72199500D03*
X179641500Y-77279500D03*
X179641500Y-72199500D03*
D97*
X177736500Y-75755500D03*
X177736500Y-73723500D03*
D98*
X181546500Y-74104500D03*
X181546500Y-75374500D03*
X180276500Y-74104500D03*
X180276500Y-75374500D03*
X179006500Y-74104500D03*
X179006500Y-75374500D03*
%TD*%
D99*
%TO.C,R5*%
X183948865Y-110794335D03*
X185239335Y-109503865D03*
%TD*%
D20*
%TO.C,C8*%
X214886100Y-124881100D03*
X216786100Y-124881100D03*
%TD*%
D22*
%TO.C,R24*%
X124586600Y-110109100D03*
X124586600Y-108284100D03*
%TD*%
D66*
%TO.C,L5*%
X149161100Y-102236100D03*
X149161100Y-100536100D03*
%TD*%
D11*
%TO.C,TP7*%
X218440000Y-109220000D03*
%TD*%
D13*
%TO.C,IC14*%
X126624000Y-127096500D03*
X127894000Y-127096500D03*
X129164000Y-127096500D03*
X130434000Y-127096500D03*
X130434000Y-121696500D03*
X129164000Y-121696500D03*
X127894000Y-121696500D03*
X126624000Y-121696500D03*
%TD*%
D17*
%TO.C,TVS3*%
X122567300Y-97741200D03*
X122567300Y-100459000D03*
%TD*%
D30*
%TO.C,R51*%
X102171100Y-67898100D03*
X102171100Y-69723100D03*
%TD*%
D35*
%TO.C,C79*%
X164807500Y-90690200D03*
X164807500Y-88790200D03*
%TD*%
D20*
%TO.C,C6*%
X202694100Y-124817600D03*
X204594100Y-124817600D03*
%TD*%
D51*
%TO.C,C46*%
X209994500Y-84328000D03*
X211090516Y-85424016D03*
%TD*%
D38*
%TO.C,D13*%
X103311600Y-106826600D03*
X101411600Y-106826600D03*
X102361600Y-109026600D03*
%TD*%
D27*
%TO.C,D9*%
X203258100Y-122404600D03*
X199458100Y-122404600D03*
%TD*%
D35*
%TO.C,C80*%
X162826300Y-90690200D03*
X162826300Y-88790200D03*
%TD*%
D72*
%TO.C,Q11*%
X119049400Y-119039100D03*
X120979800Y-119039100D03*
X120014600Y-116880100D03*
%TD*%
D30*
%TO.C,R22*%
X126555100Y-112221100D03*
X126555100Y-114046100D03*
%TD*%
D54*
%TO.C,IC11*%
X149346600Y-105099600D03*
X148076600Y-105099600D03*
X146806600Y-105099600D03*
X145536600Y-105099600D03*
X145536600Y-110499600D03*
X146806600Y-110499600D03*
X148076600Y-110499600D03*
X149346600Y-110499600D03*
%TD*%
D34*
%TO.C,FM1*%
X78000000Y-69000000D03*
%TD*%
D16*
%TO.C,R33*%
X86739000Y-90297000D03*
X89664000Y-90297000D03*
%TD*%
D70*
%TO.C,KK2*%
X86500000Y-147000000D03*
%TD*%
D51*
%TO.C,C44*%
X199857992Y-74254992D03*
X200954008Y-75351008D03*
%TD*%
%TO.C,C45*%
X202628500Y-76898500D03*
X203724516Y-77994516D03*
%TD*%
D38*
%TO.C,Q7*%
X115313100Y-117050100D03*
X114363100Y-119250100D03*
X113413100Y-117050100D03*
%TD*%
D12*
%TO.C,R41*%
X108989100Y-84939600D03*
X107164100Y-84939600D03*
%TD*%
D35*
%TO.C,C53*%
X164528500Y-105280500D03*
X164528500Y-103380500D03*
%TD*%
D23*
%TO.C,C60*%
X157416100Y-120740600D03*
X157416100Y-122290600D03*
%TD*%
D100*
%TO.C,IC9*%
X158350300Y-85747500D03*
X158350300Y-85247500D03*
X158350300Y-84747500D03*
X158350300Y-84247500D03*
X155607100Y-84247500D03*
X155607100Y-84747500D03*
X155607100Y-85247500D03*
X155607100Y-85747500D03*
%TD*%
D22*
%TO.C,R14*%
X136270600Y-111125100D03*
X136270600Y-109300100D03*
%TD*%
D48*
%TO.C,C35*%
X202224008Y-101940992D03*
X201127992Y-103037008D03*
%TD*%
D23*
%TO.C,C22*%
X185483100Y-130710100D03*
X185483100Y-132260100D03*
%TD*%
D62*
%TO.C,C16*%
X209663600Y-117959600D03*
X211213600Y-117959600D03*
%TD*%
D41*
%TO.C,C5*%
X196341600Y-131995600D03*
X196341600Y-133895600D03*
%TD*%
D29*
%TO.C,R9*%
X153519100Y-99163600D03*
X155344100Y-99163600D03*
%TD*%
D85*
%TO.C,Q8*%
X114213200Y-112519100D03*
X115163200Y-110319100D03*
X116113200Y-112519100D03*
%TD*%
D29*
%TO.C,R62*%
X96940600Y-132755100D03*
X98765600Y-132755100D03*
%TD*%
D20*
%TO.C,C66*%
X153481600Y-114594100D03*
X155381600Y-114594100D03*
%TD*%
D21*
%TO.C,D22*%
X103906100Y-102272600D03*
X103906100Y-100372600D03*
X101706100Y-101322600D03*
%TD*%
D14*
%TO.C,Q3*%
X111998600Y-93982000D03*
X112648600Y-93982000D03*
X113298600Y-93982000D03*
X113298600Y-91645200D03*
X112648600Y-91645200D03*
X111998600Y-91645200D03*
%TD*%
D29*
%TO.C,R55*%
X113450600Y-114594100D03*
X115275600Y-114594100D03*
%TD*%
M02*
