%TF.GenerationSoftware,KiCad,Pcbnew,7.0.10-7.0.10~ubuntu22.04.1*%
%TF.CreationDate,2024-01-19T15:41:53+01:00*%
%TF.ProjectId,EEZ DIB MIO168,45455a20-4449-4422-904d-494f3136382e,r3B1*%
%TF.SameCoordinates,Original*%
%TF.FileFunction,Drillmap*%
%TF.FilePolarity,Positive*%
%FSLAX45Y45*%
G04 Gerber Fmt 4.5, Leading zero omitted, Abs format (unit mm)*
G04 Created by KiCad (PCBNEW 7.0.10-7.0.10~ubuntu22.04.1) date 2024-01-19 15:41:53*
%MOMM*%
%LPD*%
G01*
G04 APERTURE LIST*
%ADD10C,0.100000*%
%ADD11C,0.200000*%
%ADD12C,0.238760*%
G04 APERTURE END LIST*
D10*
X8200110Y-6650360D02*
X7700110Y-6650360D01*
X22150110Y-5900360D02*
G75*
G03*
X22000110Y-5750360I-150000J0D01*
G01*
X7700110Y-6650360D02*
G75*
G03*
X7550110Y-6800360I0J-150000D01*
G01*
X22150110Y-15100360D02*
X22150110Y-5900360D01*
X8350110Y-5750360D02*
G75*
G03*
X8200110Y-5900360I0J-150000D01*
G01*
X7550110Y-14200360D02*
X7550110Y-6800360D01*
X8200110Y-6650360D02*
X8200110Y-5900360D01*
X22000110Y-15250360D02*
G75*
G03*
X22150110Y-15100360I0J150000D01*
G01*
X8200110Y-14350360D02*
X7700110Y-14350360D01*
X8200110Y-15100360D02*
G75*
G03*
X8350110Y-15250360I150000J0D01*
G01*
X8350110Y-5750360D02*
X22000110Y-5750360D01*
X8200110Y-15100360D02*
X8200110Y-14350360D01*
X7550110Y-14200360D02*
G75*
G03*
X7700110Y-14350360I150000J0D01*
G01*
X22000110Y-15250360D02*
X8350110Y-15250360D01*
D11*
D10*
X17724120Y-7322820D02*
X17823180Y-7421880D01*
X17823180Y-7322820D02*
X17724120Y-7421880D01*
X17724120Y-7526020D02*
X17823180Y-7625080D01*
X17823180Y-7526020D02*
X17724120Y-7625080D01*
X18232120Y-7424420D02*
X18331180Y-7523480D01*
X18331180Y-7424420D02*
X18232120Y-7523480D01*
D12*
X18083530Y-7219950D02*
G75*
G03*
X17844770Y-7219950I-119380J0D01*
G01*
X17844770Y-7219950D02*
G75*
G03*
X18083530Y-7219950I119380J0D01*
G01*
X18083530Y-7727950D02*
G75*
G03*
X17844770Y-7727950I-119380J0D01*
G01*
X17844770Y-7727950D02*
G75*
G03*
X18083530Y-7727950I119380J0D01*
G01*
X18401030Y-7219950D02*
G75*
G03*
X18162270Y-7219950I-119380J0D01*
G01*
X18162270Y-7219950D02*
G75*
G03*
X18401030Y-7219950I119380J0D01*
G01*
X18401030Y-7727950D02*
G75*
G03*
X18162270Y-7727950I-119380J0D01*
G01*
X18162270Y-7727950D02*
G75*
G03*
X18401030Y-7727950I119380J0D01*
G01*
D11*
X7805887Y-15566844D02*
X7805887Y-15366844D01*
X7805887Y-15366844D02*
X7853506Y-15366844D01*
X7853506Y-15366844D02*
X7882077Y-15376368D01*
X7882077Y-15376368D02*
X7901125Y-15395415D01*
X7901125Y-15395415D02*
X7910649Y-15414463D01*
X7910649Y-15414463D02*
X7920172Y-15452558D01*
X7920172Y-15452558D02*
X7920172Y-15481129D01*
X7920172Y-15481129D02*
X7910649Y-15519225D01*
X7910649Y-15519225D02*
X7901125Y-15538272D01*
X7901125Y-15538272D02*
X7882077Y-15557320D01*
X7882077Y-15557320D02*
X7853506Y-15566844D01*
X7853506Y-15566844D02*
X7805887Y-15566844D01*
X8005887Y-15566844D02*
X8005887Y-15433510D01*
X8005887Y-15471606D02*
X8015411Y-15452558D01*
X8015411Y-15452558D02*
X8024934Y-15443034D01*
X8024934Y-15443034D02*
X8043982Y-15433510D01*
X8043982Y-15433510D02*
X8063030Y-15433510D01*
X8129696Y-15566844D02*
X8129696Y-15433510D01*
X8129696Y-15366844D02*
X8120172Y-15376368D01*
X8120172Y-15376368D02*
X8129696Y-15385891D01*
X8129696Y-15385891D02*
X8139220Y-15376368D01*
X8139220Y-15376368D02*
X8129696Y-15366844D01*
X8129696Y-15366844D02*
X8129696Y-15385891D01*
X8253506Y-15566844D02*
X8234458Y-15557320D01*
X8234458Y-15557320D02*
X8224934Y-15538272D01*
X8224934Y-15538272D02*
X8224934Y-15366844D01*
X8358268Y-15566844D02*
X8339220Y-15557320D01*
X8339220Y-15557320D02*
X8329696Y-15538272D01*
X8329696Y-15538272D02*
X8329696Y-15366844D01*
X8586839Y-15566844D02*
X8586839Y-15366844D01*
X8586839Y-15366844D02*
X8653506Y-15509701D01*
X8653506Y-15509701D02*
X8720173Y-15366844D01*
X8720173Y-15366844D02*
X8720173Y-15566844D01*
X8901125Y-15566844D02*
X8901125Y-15462082D01*
X8901125Y-15462082D02*
X8891601Y-15443034D01*
X8891601Y-15443034D02*
X8872554Y-15433510D01*
X8872554Y-15433510D02*
X8834458Y-15433510D01*
X8834458Y-15433510D02*
X8815411Y-15443034D01*
X8901125Y-15557320D02*
X8882077Y-15566844D01*
X8882077Y-15566844D02*
X8834458Y-15566844D01*
X8834458Y-15566844D02*
X8815411Y-15557320D01*
X8815411Y-15557320D02*
X8805887Y-15538272D01*
X8805887Y-15538272D02*
X8805887Y-15519225D01*
X8805887Y-15519225D02*
X8815411Y-15500177D01*
X8815411Y-15500177D02*
X8834458Y-15490653D01*
X8834458Y-15490653D02*
X8882077Y-15490653D01*
X8882077Y-15490653D02*
X8901125Y-15481129D01*
X8996363Y-15433510D02*
X8996363Y-15633510D01*
X8996363Y-15443034D02*
X9015411Y-15433510D01*
X9015411Y-15433510D02*
X9053506Y-15433510D01*
X9053506Y-15433510D02*
X9072554Y-15443034D01*
X9072554Y-15443034D02*
X9082077Y-15452558D01*
X9082077Y-15452558D02*
X9091601Y-15471606D01*
X9091601Y-15471606D02*
X9091601Y-15528748D01*
X9091601Y-15528748D02*
X9082077Y-15547796D01*
X9082077Y-15547796D02*
X9072554Y-15557320D01*
X9072554Y-15557320D02*
X9053506Y-15566844D01*
X9053506Y-15566844D02*
X9015411Y-15566844D01*
X9015411Y-15566844D02*
X8996363Y-15557320D01*
X9177315Y-15547796D02*
X9186839Y-15557320D01*
X9186839Y-15557320D02*
X9177315Y-15566844D01*
X9177315Y-15566844D02*
X9167792Y-15557320D01*
X9167792Y-15557320D02*
X9177315Y-15547796D01*
X9177315Y-15547796D02*
X9177315Y-15566844D01*
X9177315Y-15443034D02*
X9186839Y-15452558D01*
X9186839Y-15452558D02*
X9177315Y-15462082D01*
X9177315Y-15462082D02*
X9167792Y-15452558D01*
X9167792Y-15452558D02*
X9177315Y-15443034D01*
X9177315Y-15443034D02*
X9177315Y-15462082D01*
D10*
X7446050Y-15845830D02*
X7545110Y-15944890D01*
X7545110Y-15845830D02*
X7446050Y-15944890D01*
D11*
X7843982Y-15786844D02*
X7863030Y-15786844D01*
X7863030Y-15786844D02*
X7882077Y-15796368D01*
X7882077Y-15796368D02*
X7891601Y-15805891D01*
X7891601Y-15805891D02*
X7901125Y-15824939D01*
X7901125Y-15824939D02*
X7910649Y-15863034D01*
X7910649Y-15863034D02*
X7910649Y-15910653D01*
X7910649Y-15910653D02*
X7901125Y-15948748D01*
X7901125Y-15948748D02*
X7891601Y-15967796D01*
X7891601Y-15967796D02*
X7882077Y-15977320D01*
X7882077Y-15977320D02*
X7863030Y-15986844D01*
X7863030Y-15986844D02*
X7843982Y-15986844D01*
X7843982Y-15986844D02*
X7824934Y-15977320D01*
X7824934Y-15977320D02*
X7815411Y-15967796D01*
X7815411Y-15967796D02*
X7805887Y-15948748D01*
X7805887Y-15948748D02*
X7796363Y-15910653D01*
X7796363Y-15910653D02*
X7796363Y-15863034D01*
X7796363Y-15863034D02*
X7805887Y-15824939D01*
X7805887Y-15824939D02*
X7815411Y-15805891D01*
X7815411Y-15805891D02*
X7824934Y-15796368D01*
X7824934Y-15796368D02*
X7843982Y-15786844D01*
X7996363Y-15967796D02*
X8005887Y-15977320D01*
X8005887Y-15977320D02*
X7996363Y-15986844D01*
X7996363Y-15986844D02*
X7986839Y-15977320D01*
X7986839Y-15977320D02*
X7996363Y-15967796D01*
X7996363Y-15967796D02*
X7996363Y-15986844D01*
X8101125Y-15986844D02*
X8139220Y-15986844D01*
X8139220Y-15986844D02*
X8158268Y-15977320D01*
X8158268Y-15977320D02*
X8167792Y-15967796D01*
X8167792Y-15967796D02*
X8186839Y-15939225D01*
X8186839Y-15939225D02*
X8196363Y-15901129D01*
X8196363Y-15901129D02*
X8196363Y-15824939D01*
X8196363Y-15824939D02*
X8186839Y-15805891D01*
X8186839Y-15805891D02*
X8177315Y-15796368D01*
X8177315Y-15796368D02*
X8158268Y-15786844D01*
X8158268Y-15786844D02*
X8120172Y-15786844D01*
X8120172Y-15786844D02*
X8101125Y-15796368D01*
X8101125Y-15796368D02*
X8091601Y-15805891D01*
X8091601Y-15805891D02*
X8082077Y-15824939D01*
X8082077Y-15824939D02*
X8082077Y-15872558D01*
X8082077Y-15872558D02*
X8091601Y-15891606D01*
X8091601Y-15891606D02*
X8101125Y-15901129D01*
X8101125Y-15901129D02*
X8120172Y-15910653D01*
X8120172Y-15910653D02*
X8158268Y-15910653D01*
X8158268Y-15910653D02*
X8177315Y-15901129D01*
X8177315Y-15901129D02*
X8186839Y-15891606D01*
X8186839Y-15891606D02*
X8196363Y-15872558D01*
X8291601Y-15986844D02*
X8329696Y-15986844D01*
X8329696Y-15986844D02*
X8348744Y-15977320D01*
X8348744Y-15977320D02*
X8358268Y-15967796D01*
X8358268Y-15967796D02*
X8377315Y-15939225D01*
X8377315Y-15939225D02*
X8386839Y-15901129D01*
X8386839Y-15901129D02*
X8386839Y-15824939D01*
X8386839Y-15824939D02*
X8377315Y-15805891D01*
X8377315Y-15805891D02*
X8367792Y-15796368D01*
X8367792Y-15796368D02*
X8348744Y-15786844D01*
X8348744Y-15786844D02*
X8310649Y-15786844D01*
X8310649Y-15786844D02*
X8291601Y-15796368D01*
X8291601Y-15796368D02*
X8282077Y-15805891D01*
X8282077Y-15805891D02*
X8272553Y-15824939D01*
X8272553Y-15824939D02*
X8272553Y-15872558D01*
X8272553Y-15872558D02*
X8282077Y-15891606D01*
X8282077Y-15891606D02*
X8291601Y-15901129D01*
X8291601Y-15901129D02*
X8310649Y-15910653D01*
X8310649Y-15910653D02*
X8348744Y-15910653D01*
X8348744Y-15910653D02*
X8367792Y-15901129D01*
X8367792Y-15901129D02*
X8377315Y-15891606D01*
X8377315Y-15891606D02*
X8386839Y-15872558D01*
X8577315Y-15986844D02*
X8463030Y-15986844D01*
X8520173Y-15986844D02*
X8520173Y-15786844D01*
X8520173Y-15786844D02*
X8501125Y-15815415D01*
X8501125Y-15815415D02*
X8482077Y-15834463D01*
X8482077Y-15834463D02*
X8463030Y-15843987D01*
X8663030Y-15986844D02*
X8663030Y-15853510D01*
X8663030Y-15872558D02*
X8672554Y-15863034D01*
X8672554Y-15863034D02*
X8691601Y-15853510D01*
X8691601Y-15853510D02*
X8720173Y-15853510D01*
X8720173Y-15853510D02*
X8739220Y-15863034D01*
X8739220Y-15863034D02*
X8748744Y-15882082D01*
X8748744Y-15882082D02*
X8748744Y-15986844D01*
X8748744Y-15882082D02*
X8758268Y-15863034D01*
X8758268Y-15863034D02*
X8777315Y-15853510D01*
X8777315Y-15853510D02*
X8805887Y-15853510D01*
X8805887Y-15853510D02*
X8824935Y-15863034D01*
X8824935Y-15863034D02*
X8834458Y-15882082D01*
X8834458Y-15882082D02*
X8834458Y-15986844D01*
X8929696Y-15986844D02*
X8929696Y-15853510D01*
X8929696Y-15872558D02*
X8939220Y-15863034D01*
X8939220Y-15863034D02*
X8958268Y-15853510D01*
X8958268Y-15853510D02*
X8986839Y-15853510D01*
X8986839Y-15853510D02*
X9005887Y-15863034D01*
X9005887Y-15863034D02*
X9015411Y-15882082D01*
X9015411Y-15882082D02*
X9015411Y-15986844D01*
X9015411Y-15882082D02*
X9024935Y-15863034D01*
X9024935Y-15863034D02*
X9043982Y-15853510D01*
X9043982Y-15853510D02*
X9072554Y-15853510D01*
X9072554Y-15853510D02*
X9091601Y-15863034D01*
X9091601Y-15863034D02*
X9101125Y-15882082D01*
X9101125Y-15882082D02*
X9101125Y-15986844D01*
X9491601Y-15777320D02*
X9320173Y-16034463D01*
X9748744Y-15786844D02*
X9767792Y-15786844D01*
X9767792Y-15786844D02*
X9786839Y-15796368D01*
X9786839Y-15796368D02*
X9796363Y-15805891D01*
X9796363Y-15805891D02*
X9805887Y-15824939D01*
X9805887Y-15824939D02*
X9815411Y-15863034D01*
X9815411Y-15863034D02*
X9815411Y-15910653D01*
X9815411Y-15910653D02*
X9805887Y-15948748D01*
X9805887Y-15948748D02*
X9796363Y-15967796D01*
X9796363Y-15967796D02*
X9786839Y-15977320D01*
X9786839Y-15977320D02*
X9767792Y-15986844D01*
X9767792Y-15986844D02*
X9748744Y-15986844D01*
X9748744Y-15986844D02*
X9729697Y-15977320D01*
X9729697Y-15977320D02*
X9720173Y-15967796D01*
X9720173Y-15967796D02*
X9710649Y-15948748D01*
X9710649Y-15948748D02*
X9701125Y-15910653D01*
X9701125Y-15910653D02*
X9701125Y-15863034D01*
X9701125Y-15863034D02*
X9710649Y-15824939D01*
X9710649Y-15824939D02*
X9720173Y-15805891D01*
X9720173Y-15805891D02*
X9729697Y-15796368D01*
X9729697Y-15796368D02*
X9748744Y-15786844D01*
X9901125Y-15967796D02*
X9910649Y-15977320D01*
X9910649Y-15977320D02*
X9901125Y-15986844D01*
X9901125Y-15986844D02*
X9891601Y-15977320D01*
X9891601Y-15977320D02*
X9901125Y-15967796D01*
X9901125Y-15967796D02*
X9901125Y-15986844D01*
X10034458Y-15786844D02*
X10053506Y-15786844D01*
X10053506Y-15786844D02*
X10072554Y-15796368D01*
X10072554Y-15796368D02*
X10082078Y-15805891D01*
X10082078Y-15805891D02*
X10091601Y-15824939D01*
X10091601Y-15824939D02*
X10101125Y-15863034D01*
X10101125Y-15863034D02*
X10101125Y-15910653D01*
X10101125Y-15910653D02*
X10091601Y-15948748D01*
X10091601Y-15948748D02*
X10082078Y-15967796D01*
X10082078Y-15967796D02*
X10072554Y-15977320D01*
X10072554Y-15977320D02*
X10053506Y-15986844D01*
X10053506Y-15986844D02*
X10034458Y-15986844D01*
X10034458Y-15986844D02*
X10015411Y-15977320D01*
X10015411Y-15977320D02*
X10005887Y-15967796D01*
X10005887Y-15967796D02*
X9996363Y-15948748D01*
X9996363Y-15948748D02*
X9986839Y-15910653D01*
X9986839Y-15910653D02*
X9986839Y-15863034D01*
X9986839Y-15863034D02*
X9996363Y-15824939D01*
X9996363Y-15824939D02*
X10005887Y-15805891D01*
X10005887Y-15805891D02*
X10015411Y-15796368D01*
X10015411Y-15796368D02*
X10034458Y-15786844D01*
X10167792Y-15786844D02*
X10291601Y-15786844D01*
X10291601Y-15786844D02*
X10224935Y-15863034D01*
X10224935Y-15863034D02*
X10253506Y-15863034D01*
X10253506Y-15863034D02*
X10272554Y-15872558D01*
X10272554Y-15872558D02*
X10282078Y-15882082D01*
X10282078Y-15882082D02*
X10291601Y-15901129D01*
X10291601Y-15901129D02*
X10291601Y-15948748D01*
X10291601Y-15948748D02*
X10282078Y-15967796D01*
X10282078Y-15967796D02*
X10272554Y-15977320D01*
X10272554Y-15977320D02*
X10253506Y-15986844D01*
X10253506Y-15986844D02*
X10196363Y-15986844D01*
X10196363Y-15986844D02*
X10177316Y-15977320D01*
X10177316Y-15977320D02*
X10167792Y-15967796D01*
X10386839Y-15986844D02*
X10424935Y-15986844D01*
X10424935Y-15986844D02*
X10443982Y-15977320D01*
X10443982Y-15977320D02*
X10453506Y-15967796D01*
X10453506Y-15967796D02*
X10472554Y-15939225D01*
X10472554Y-15939225D02*
X10482078Y-15901129D01*
X10482078Y-15901129D02*
X10482078Y-15824939D01*
X10482078Y-15824939D02*
X10472554Y-15805891D01*
X10472554Y-15805891D02*
X10463030Y-15796368D01*
X10463030Y-15796368D02*
X10443982Y-15786844D01*
X10443982Y-15786844D02*
X10405887Y-15786844D01*
X10405887Y-15786844D02*
X10386839Y-15796368D01*
X10386839Y-15796368D02*
X10377316Y-15805891D01*
X10377316Y-15805891D02*
X10367792Y-15824939D01*
X10367792Y-15824939D02*
X10367792Y-15872558D01*
X10367792Y-15872558D02*
X10377316Y-15891606D01*
X10377316Y-15891606D02*
X10386839Y-15901129D01*
X10386839Y-15901129D02*
X10405887Y-15910653D01*
X10405887Y-15910653D02*
X10443982Y-15910653D01*
X10443982Y-15910653D02*
X10463030Y-15901129D01*
X10463030Y-15901129D02*
X10472554Y-15891606D01*
X10472554Y-15891606D02*
X10482078Y-15872558D01*
X10605887Y-15786844D02*
X10624935Y-15786844D01*
X10624935Y-15786844D02*
X10643982Y-15796368D01*
X10643982Y-15796368D02*
X10653506Y-15805891D01*
X10653506Y-15805891D02*
X10663030Y-15824939D01*
X10663030Y-15824939D02*
X10672554Y-15863034D01*
X10672554Y-15863034D02*
X10672554Y-15910653D01*
X10672554Y-15910653D02*
X10663030Y-15948748D01*
X10663030Y-15948748D02*
X10653506Y-15967796D01*
X10653506Y-15967796D02*
X10643982Y-15977320D01*
X10643982Y-15977320D02*
X10624935Y-15986844D01*
X10624935Y-15986844D02*
X10605887Y-15986844D01*
X10605887Y-15986844D02*
X10586839Y-15977320D01*
X10586839Y-15977320D02*
X10577316Y-15967796D01*
X10577316Y-15967796D02*
X10567792Y-15948748D01*
X10567792Y-15948748D02*
X10558268Y-15910653D01*
X10558268Y-15910653D02*
X10558268Y-15863034D01*
X10558268Y-15863034D02*
X10567792Y-15824939D01*
X10567792Y-15824939D02*
X10577316Y-15805891D01*
X10577316Y-15805891D02*
X10586839Y-15796368D01*
X10586839Y-15796368D02*
X10605887Y-15786844D01*
X10748744Y-15786844D02*
X10748744Y-15824939D01*
X10824935Y-15786844D02*
X10824935Y-15824939D01*
X11120173Y-16063034D02*
X11110649Y-16053510D01*
X11110649Y-16053510D02*
X11091601Y-16024939D01*
X11091601Y-16024939D02*
X11082078Y-16005891D01*
X11082078Y-16005891D02*
X11072554Y-15977320D01*
X11072554Y-15977320D02*
X11063030Y-15929701D01*
X11063030Y-15929701D02*
X11063030Y-15891606D01*
X11063030Y-15891606D02*
X11072554Y-15843987D01*
X11072554Y-15843987D02*
X11082078Y-15815415D01*
X11082078Y-15815415D02*
X11091601Y-15796368D01*
X11091601Y-15796368D02*
X11110649Y-15767796D01*
X11110649Y-15767796D02*
X11120173Y-15758272D01*
X11177316Y-15786844D02*
X11301125Y-15786844D01*
X11301125Y-15786844D02*
X11234458Y-15863034D01*
X11234458Y-15863034D02*
X11263030Y-15863034D01*
X11263030Y-15863034D02*
X11282078Y-15872558D01*
X11282078Y-15872558D02*
X11291601Y-15882082D01*
X11291601Y-15882082D02*
X11301125Y-15901129D01*
X11301125Y-15901129D02*
X11301125Y-15948748D01*
X11301125Y-15948748D02*
X11291601Y-15967796D01*
X11291601Y-15967796D02*
X11282078Y-15977320D01*
X11282078Y-15977320D02*
X11263030Y-15986844D01*
X11263030Y-15986844D02*
X11205887Y-15986844D01*
X11205887Y-15986844D02*
X11186839Y-15977320D01*
X11186839Y-15977320D02*
X11177316Y-15967796D01*
X11539220Y-15986844D02*
X11539220Y-15786844D01*
X11624935Y-15986844D02*
X11624935Y-15882082D01*
X11624935Y-15882082D02*
X11615411Y-15863034D01*
X11615411Y-15863034D02*
X11596363Y-15853510D01*
X11596363Y-15853510D02*
X11567792Y-15853510D01*
X11567792Y-15853510D02*
X11548744Y-15863034D01*
X11548744Y-15863034D02*
X11539220Y-15872558D01*
X11748744Y-15986844D02*
X11729697Y-15977320D01*
X11729697Y-15977320D02*
X11720173Y-15967796D01*
X11720173Y-15967796D02*
X11710649Y-15948748D01*
X11710649Y-15948748D02*
X11710649Y-15891606D01*
X11710649Y-15891606D02*
X11720173Y-15872558D01*
X11720173Y-15872558D02*
X11729697Y-15863034D01*
X11729697Y-15863034D02*
X11748744Y-15853510D01*
X11748744Y-15853510D02*
X11777316Y-15853510D01*
X11777316Y-15853510D02*
X11796363Y-15863034D01*
X11796363Y-15863034D02*
X11805887Y-15872558D01*
X11805887Y-15872558D02*
X11815411Y-15891606D01*
X11815411Y-15891606D02*
X11815411Y-15948748D01*
X11815411Y-15948748D02*
X11805887Y-15967796D01*
X11805887Y-15967796D02*
X11796363Y-15977320D01*
X11796363Y-15977320D02*
X11777316Y-15986844D01*
X11777316Y-15986844D02*
X11748744Y-15986844D01*
X11929697Y-15986844D02*
X11910649Y-15977320D01*
X11910649Y-15977320D02*
X11901125Y-15958272D01*
X11901125Y-15958272D02*
X11901125Y-15786844D01*
X12082078Y-15977320D02*
X12063030Y-15986844D01*
X12063030Y-15986844D02*
X12024935Y-15986844D01*
X12024935Y-15986844D02*
X12005887Y-15977320D01*
X12005887Y-15977320D02*
X11996363Y-15958272D01*
X11996363Y-15958272D02*
X11996363Y-15882082D01*
X11996363Y-15882082D02*
X12005887Y-15863034D01*
X12005887Y-15863034D02*
X12024935Y-15853510D01*
X12024935Y-15853510D02*
X12063030Y-15853510D01*
X12063030Y-15853510D02*
X12082078Y-15863034D01*
X12082078Y-15863034D02*
X12091601Y-15882082D01*
X12091601Y-15882082D02*
X12091601Y-15901129D01*
X12091601Y-15901129D02*
X11996363Y-15920177D01*
X12167792Y-15977320D02*
X12186840Y-15986844D01*
X12186840Y-15986844D02*
X12224935Y-15986844D01*
X12224935Y-15986844D02*
X12243982Y-15977320D01*
X12243982Y-15977320D02*
X12253506Y-15958272D01*
X12253506Y-15958272D02*
X12253506Y-15948748D01*
X12253506Y-15948748D02*
X12243982Y-15929701D01*
X12243982Y-15929701D02*
X12224935Y-15920177D01*
X12224935Y-15920177D02*
X12196363Y-15920177D01*
X12196363Y-15920177D02*
X12177316Y-15910653D01*
X12177316Y-15910653D02*
X12167792Y-15891606D01*
X12167792Y-15891606D02*
X12167792Y-15882082D01*
X12167792Y-15882082D02*
X12177316Y-15863034D01*
X12177316Y-15863034D02*
X12196363Y-15853510D01*
X12196363Y-15853510D02*
X12224935Y-15853510D01*
X12224935Y-15853510D02*
X12243982Y-15863034D01*
X12320173Y-16063034D02*
X12329697Y-16053510D01*
X12329697Y-16053510D02*
X12348744Y-16024939D01*
X12348744Y-16024939D02*
X12358268Y-16005891D01*
X12358268Y-16005891D02*
X12367792Y-15977320D01*
X12367792Y-15977320D02*
X12377316Y-15929701D01*
X12377316Y-15929701D02*
X12377316Y-15891606D01*
X12377316Y-15891606D02*
X12367792Y-15843987D01*
X12367792Y-15843987D02*
X12358268Y-15815415D01*
X12358268Y-15815415D02*
X12348744Y-15796368D01*
X12348744Y-15796368D02*
X12329697Y-15767796D01*
X12329697Y-15767796D02*
X12320173Y-15758272D01*
X12682078Y-16063034D02*
X12672554Y-16053510D01*
X12672554Y-16053510D02*
X12653506Y-16024939D01*
X12653506Y-16024939D02*
X12643982Y-16005891D01*
X12643982Y-16005891D02*
X12634459Y-15977320D01*
X12634459Y-15977320D02*
X12624935Y-15929701D01*
X12624935Y-15929701D02*
X12624935Y-15891606D01*
X12624935Y-15891606D02*
X12634459Y-15843987D01*
X12634459Y-15843987D02*
X12643982Y-15815415D01*
X12643982Y-15815415D02*
X12653506Y-15796368D01*
X12653506Y-15796368D02*
X12672554Y-15767796D01*
X12672554Y-15767796D02*
X12682078Y-15758272D01*
X12758268Y-15853510D02*
X12758268Y-15986844D01*
X12758268Y-15872558D02*
X12767792Y-15863034D01*
X12767792Y-15863034D02*
X12786840Y-15853510D01*
X12786840Y-15853510D02*
X12815411Y-15853510D01*
X12815411Y-15853510D02*
X12834459Y-15863034D01*
X12834459Y-15863034D02*
X12843982Y-15882082D01*
X12843982Y-15882082D02*
X12843982Y-15986844D01*
X12967792Y-15986844D02*
X12948744Y-15977320D01*
X12948744Y-15977320D02*
X12939221Y-15967796D01*
X12939221Y-15967796D02*
X12929697Y-15948748D01*
X12929697Y-15948748D02*
X12929697Y-15891606D01*
X12929697Y-15891606D02*
X12939221Y-15872558D01*
X12939221Y-15872558D02*
X12948744Y-15863034D01*
X12948744Y-15863034D02*
X12967792Y-15853510D01*
X12967792Y-15853510D02*
X12996363Y-15853510D01*
X12996363Y-15853510D02*
X13015411Y-15863034D01*
X13015411Y-15863034D02*
X13024935Y-15872558D01*
X13024935Y-15872558D02*
X13034459Y-15891606D01*
X13034459Y-15891606D02*
X13034459Y-15948748D01*
X13034459Y-15948748D02*
X13024935Y-15967796D01*
X13024935Y-15967796D02*
X13015411Y-15977320D01*
X13015411Y-15977320D02*
X12996363Y-15986844D01*
X12996363Y-15986844D02*
X12967792Y-15986844D01*
X13091602Y-15853510D02*
X13167792Y-15853510D01*
X13120173Y-15786844D02*
X13120173Y-15958272D01*
X13120173Y-15958272D02*
X13129697Y-15977320D01*
X13129697Y-15977320D02*
X13148744Y-15986844D01*
X13148744Y-15986844D02*
X13167792Y-15986844D01*
X13386840Y-15853510D02*
X13386840Y-16053510D01*
X13386840Y-15863034D02*
X13405887Y-15853510D01*
X13405887Y-15853510D02*
X13443983Y-15853510D01*
X13443983Y-15853510D02*
X13463030Y-15863034D01*
X13463030Y-15863034D02*
X13472554Y-15872558D01*
X13472554Y-15872558D02*
X13482078Y-15891606D01*
X13482078Y-15891606D02*
X13482078Y-15948748D01*
X13482078Y-15948748D02*
X13472554Y-15967796D01*
X13472554Y-15967796D02*
X13463030Y-15977320D01*
X13463030Y-15977320D02*
X13443983Y-15986844D01*
X13443983Y-15986844D02*
X13405887Y-15986844D01*
X13405887Y-15986844D02*
X13386840Y-15977320D01*
X13596363Y-15986844D02*
X13577316Y-15977320D01*
X13577316Y-15977320D02*
X13567792Y-15958272D01*
X13567792Y-15958272D02*
X13567792Y-15786844D01*
X13758268Y-15986844D02*
X13758268Y-15882082D01*
X13758268Y-15882082D02*
X13748744Y-15863034D01*
X13748744Y-15863034D02*
X13729697Y-15853510D01*
X13729697Y-15853510D02*
X13691602Y-15853510D01*
X13691602Y-15853510D02*
X13672554Y-15863034D01*
X13758268Y-15977320D02*
X13739221Y-15986844D01*
X13739221Y-15986844D02*
X13691602Y-15986844D01*
X13691602Y-15986844D02*
X13672554Y-15977320D01*
X13672554Y-15977320D02*
X13663030Y-15958272D01*
X13663030Y-15958272D02*
X13663030Y-15939225D01*
X13663030Y-15939225D02*
X13672554Y-15920177D01*
X13672554Y-15920177D02*
X13691602Y-15910653D01*
X13691602Y-15910653D02*
X13739221Y-15910653D01*
X13739221Y-15910653D02*
X13758268Y-15901129D01*
X13824935Y-15853510D02*
X13901125Y-15853510D01*
X13853506Y-15786844D02*
X13853506Y-15958272D01*
X13853506Y-15958272D02*
X13863030Y-15977320D01*
X13863030Y-15977320D02*
X13882078Y-15986844D01*
X13882078Y-15986844D02*
X13901125Y-15986844D01*
X14043983Y-15977320D02*
X14024935Y-15986844D01*
X14024935Y-15986844D02*
X13986840Y-15986844D01*
X13986840Y-15986844D02*
X13967792Y-15977320D01*
X13967792Y-15977320D02*
X13958268Y-15958272D01*
X13958268Y-15958272D02*
X13958268Y-15882082D01*
X13958268Y-15882082D02*
X13967792Y-15863034D01*
X13967792Y-15863034D02*
X13986840Y-15853510D01*
X13986840Y-15853510D02*
X14024935Y-15853510D01*
X14024935Y-15853510D02*
X14043983Y-15863034D01*
X14043983Y-15863034D02*
X14053506Y-15882082D01*
X14053506Y-15882082D02*
X14053506Y-15901129D01*
X14053506Y-15901129D02*
X13958268Y-15920177D01*
X14224935Y-15986844D02*
X14224935Y-15786844D01*
X14224935Y-15977320D02*
X14205887Y-15986844D01*
X14205887Y-15986844D02*
X14167792Y-15986844D01*
X14167792Y-15986844D02*
X14148744Y-15977320D01*
X14148744Y-15977320D02*
X14139221Y-15967796D01*
X14139221Y-15967796D02*
X14129697Y-15948748D01*
X14129697Y-15948748D02*
X14129697Y-15891606D01*
X14129697Y-15891606D02*
X14139221Y-15872558D01*
X14139221Y-15872558D02*
X14148744Y-15863034D01*
X14148744Y-15863034D02*
X14167792Y-15853510D01*
X14167792Y-15853510D02*
X14205887Y-15853510D01*
X14205887Y-15853510D02*
X14224935Y-15863034D01*
X14301125Y-16063034D02*
X14310649Y-16053510D01*
X14310649Y-16053510D02*
X14329697Y-16024939D01*
X14329697Y-16024939D02*
X14339221Y-16005891D01*
X14339221Y-16005891D02*
X14348744Y-15977320D01*
X14348744Y-15977320D02*
X14358268Y-15929701D01*
X14358268Y-15929701D02*
X14358268Y-15891606D01*
X14358268Y-15891606D02*
X14348744Y-15843987D01*
X14348744Y-15843987D02*
X14339221Y-15815415D01*
X14339221Y-15815415D02*
X14329697Y-15796368D01*
X14329697Y-15796368D02*
X14310649Y-15767796D01*
X14310649Y-15767796D02*
X14301125Y-15758272D01*
X7545110Y-16159360D02*
G75*
G03*
X7345110Y-16159360I-100000J0D01*
G01*
X7345110Y-16159360D02*
G75*
G03*
X7545110Y-16159360I100000J0D01*
G01*
X7796363Y-16069891D02*
X7805887Y-16060368D01*
X7805887Y-16060368D02*
X7824934Y-16050844D01*
X7824934Y-16050844D02*
X7872553Y-16050844D01*
X7872553Y-16050844D02*
X7891601Y-16060368D01*
X7891601Y-16060368D02*
X7901125Y-16069891D01*
X7901125Y-16069891D02*
X7910649Y-16088939D01*
X7910649Y-16088939D02*
X7910649Y-16107987D01*
X7910649Y-16107987D02*
X7901125Y-16136558D01*
X7901125Y-16136558D02*
X7786839Y-16250844D01*
X7786839Y-16250844D02*
X7910649Y-16250844D01*
X7996363Y-16231796D02*
X8005887Y-16241320D01*
X8005887Y-16241320D02*
X7996363Y-16250844D01*
X7996363Y-16250844D02*
X7986839Y-16241320D01*
X7986839Y-16241320D02*
X7996363Y-16231796D01*
X7996363Y-16231796D02*
X7996363Y-16250844D01*
X8072553Y-16050844D02*
X8196363Y-16050844D01*
X8196363Y-16050844D02*
X8129696Y-16127034D01*
X8129696Y-16127034D02*
X8158268Y-16127034D01*
X8158268Y-16127034D02*
X8177315Y-16136558D01*
X8177315Y-16136558D02*
X8186839Y-16146082D01*
X8186839Y-16146082D02*
X8196363Y-16165129D01*
X8196363Y-16165129D02*
X8196363Y-16212748D01*
X8196363Y-16212748D02*
X8186839Y-16231796D01*
X8186839Y-16231796D02*
X8177315Y-16241320D01*
X8177315Y-16241320D02*
X8158268Y-16250844D01*
X8158268Y-16250844D02*
X8101125Y-16250844D01*
X8101125Y-16250844D02*
X8082077Y-16241320D01*
X8082077Y-16241320D02*
X8072553Y-16231796D01*
X8310649Y-16136558D02*
X8291601Y-16127034D01*
X8291601Y-16127034D02*
X8282077Y-16117510D01*
X8282077Y-16117510D02*
X8272553Y-16098463D01*
X8272553Y-16098463D02*
X8272553Y-16088939D01*
X8272553Y-16088939D02*
X8282077Y-16069891D01*
X8282077Y-16069891D02*
X8291601Y-16060368D01*
X8291601Y-16060368D02*
X8310649Y-16050844D01*
X8310649Y-16050844D02*
X8348744Y-16050844D01*
X8348744Y-16050844D02*
X8367792Y-16060368D01*
X8367792Y-16060368D02*
X8377315Y-16069891D01*
X8377315Y-16069891D02*
X8386839Y-16088939D01*
X8386839Y-16088939D02*
X8386839Y-16098463D01*
X8386839Y-16098463D02*
X8377315Y-16117510D01*
X8377315Y-16117510D02*
X8367792Y-16127034D01*
X8367792Y-16127034D02*
X8348744Y-16136558D01*
X8348744Y-16136558D02*
X8310649Y-16136558D01*
X8310649Y-16136558D02*
X8291601Y-16146082D01*
X8291601Y-16146082D02*
X8282077Y-16155606D01*
X8282077Y-16155606D02*
X8272553Y-16174653D01*
X8272553Y-16174653D02*
X8272553Y-16212748D01*
X8272553Y-16212748D02*
X8282077Y-16231796D01*
X8282077Y-16231796D02*
X8291601Y-16241320D01*
X8291601Y-16241320D02*
X8310649Y-16250844D01*
X8310649Y-16250844D02*
X8348744Y-16250844D01*
X8348744Y-16250844D02*
X8367792Y-16241320D01*
X8367792Y-16241320D02*
X8377315Y-16231796D01*
X8377315Y-16231796D02*
X8386839Y-16212748D01*
X8386839Y-16212748D02*
X8386839Y-16174653D01*
X8386839Y-16174653D02*
X8377315Y-16155606D01*
X8377315Y-16155606D02*
X8367792Y-16146082D01*
X8367792Y-16146082D02*
X8348744Y-16136558D01*
X8501125Y-16136558D02*
X8482077Y-16127034D01*
X8482077Y-16127034D02*
X8472554Y-16117510D01*
X8472554Y-16117510D02*
X8463030Y-16098463D01*
X8463030Y-16098463D02*
X8463030Y-16088939D01*
X8463030Y-16088939D02*
X8472554Y-16069891D01*
X8472554Y-16069891D02*
X8482077Y-16060368D01*
X8482077Y-16060368D02*
X8501125Y-16050844D01*
X8501125Y-16050844D02*
X8539220Y-16050844D01*
X8539220Y-16050844D02*
X8558268Y-16060368D01*
X8558268Y-16060368D02*
X8567792Y-16069891D01*
X8567792Y-16069891D02*
X8577315Y-16088939D01*
X8577315Y-16088939D02*
X8577315Y-16098463D01*
X8577315Y-16098463D02*
X8567792Y-16117510D01*
X8567792Y-16117510D02*
X8558268Y-16127034D01*
X8558268Y-16127034D02*
X8539220Y-16136558D01*
X8539220Y-16136558D02*
X8501125Y-16136558D01*
X8501125Y-16136558D02*
X8482077Y-16146082D01*
X8482077Y-16146082D02*
X8472554Y-16155606D01*
X8472554Y-16155606D02*
X8463030Y-16174653D01*
X8463030Y-16174653D02*
X8463030Y-16212748D01*
X8463030Y-16212748D02*
X8472554Y-16231796D01*
X8472554Y-16231796D02*
X8482077Y-16241320D01*
X8482077Y-16241320D02*
X8501125Y-16250844D01*
X8501125Y-16250844D02*
X8539220Y-16250844D01*
X8539220Y-16250844D02*
X8558268Y-16241320D01*
X8558268Y-16241320D02*
X8567792Y-16231796D01*
X8567792Y-16231796D02*
X8577315Y-16212748D01*
X8577315Y-16212748D02*
X8577315Y-16174653D01*
X8577315Y-16174653D02*
X8567792Y-16155606D01*
X8567792Y-16155606D02*
X8558268Y-16146082D01*
X8558268Y-16146082D02*
X8539220Y-16136558D01*
X8663030Y-16250844D02*
X8663030Y-16117510D01*
X8663030Y-16136558D02*
X8672554Y-16127034D01*
X8672554Y-16127034D02*
X8691601Y-16117510D01*
X8691601Y-16117510D02*
X8720173Y-16117510D01*
X8720173Y-16117510D02*
X8739220Y-16127034D01*
X8739220Y-16127034D02*
X8748744Y-16146082D01*
X8748744Y-16146082D02*
X8748744Y-16250844D01*
X8748744Y-16146082D02*
X8758268Y-16127034D01*
X8758268Y-16127034D02*
X8777315Y-16117510D01*
X8777315Y-16117510D02*
X8805887Y-16117510D01*
X8805887Y-16117510D02*
X8824935Y-16127034D01*
X8824935Y-16127034D02*
X8834458Y-16146082D01*
X8834458Y-16146082D02*
X8834458Y-16250844D01*
X8929696Y-16250844D02*
X8929696Y-16117510D01*
X8929696Y-16136558D02*
X8939220Y-16127034D01*
X8939220Y-16127034D02*
X8958268Y-16117510D01*
X8958268Y-16117510D02*
X8986839Y-16117510D01*
X8986839Y-16117510D02*
X9005887Y-16127034D01*
X9005887Y-16127034D02*
X9015411Y-16146082D01*
X9015411Y-16146082D02*
X9015411Y-16250844D01*
X9015411Y-16146082D02*
X9024935Y-16127034D01*
X9024935Y-16127034D02*
X9043982Y-16117510D01*
X9043982Y-16117510D02*
X9072554Y-16117510D01*
X9072554Y-16117510D02*
X9091601Y-16127034D01*
X9091601Y-16127034D02*
X9101125Y-16146082D01*
X9101125Y-16146082D02*
X9101125Y-16250844D01*
X9491601Y-16041320D02*
X9320173Y-16298463D01*
X9748744Y-16050844D02*
X9767792Y-16050844D01*
X9767792Y-16050844D02*
X9786839Y-16060368D01*
X9786839Y-16060368D02*
X9796363Y-16069891D01*
X9796363Y-16069891D02*
X9805887Y-16088939D01*
X9805887Y-16088939D02*
X9815411Y-16127034D01*
X9815411Y-16127034D02*
X9815411Y-16174653D01*
X9815411Y-16174653D02*
X9805887Y-16212748D01*
X9805887Y-16212748D02*
X9796363Y-16231796D01*
X9796363Y-16231796D02*
X9786839Y-16241320D01*
X9786839Y-16241320D02*
X9767792Y-16250844D01*
X9767792Y-16250844D02*
X9748744Y-16250844D01*
X9748744Y-16250844D02*
X9729697Y-16241320D01*
X9729697Y-16241320D02*
X9720173Y-16231796D01*
X9720173Y-16231796D02*
X9710649Y-16212748D01*
X9710649Y-16212748D02*
X9701125Y-16174653D01*
X9701125Y-16174653D02*
X9701125Y-16127034D01*
X9701125Y-16127034D02*
X9710649Y-16088939D01*
X9710649Y-16088939D02*
X9720173Y-16069891D01*
X9720173Y-16069891D02*
X9729697Y-16060368D01*
X9729697Y-16060368D02*
X9748744Y-16050844D01*
X9901125Y-16231796D02*
X9910649Y-16241320D01*
X9910649Y-16241320D02*
X9901125Y-16250844D01*
X9901125Y-16250844D02*
X9891601Y-16241320D01*
X9891601Y-16241320D02*
X9901125Y-16231796D01*
X9901125Y-16231796D02*
X9901125Y-16250844D01*
X10034458Y-16050844D02*
X10053506Y-16050844D01*
X10053506Y-16050844D02*
X10072554Y-16060368D01*
X10072554Y-16060368D02*
X10082078Y-16069891D01*
X10082078Y-16069891D02*
X10091601Y-16088939D01*
X10091601Y-16088939D02*
X10101125Y-16127034D01*
X10101125Y-16127034D02*
X10101125Y-16174653D01*
X10101125Y-16174653D02*
X10091601Y-16212748D01*
X10091601Y-16212748D02*
X10082078Y-16231796D01*
X10082078Y-16231796D02*
X10072554Y-16241320D01*
X10072554Y-16241320D02*
X10053506Y-16250844D01*
X10053506Y-16250844D02*
X10034458Y-16250844D01*
X10034458Y-16250844D02*
X10015411Y-16241320D01*
X10015411Y-16241320D02*
X10005887Y-16231796D01*
X10005887Y-16231796D02*
X9996363Y-16212748D01*
X9996363Y-16212748D02*
X9986839Y-16174653D01*
X9986839Y-16174653D02*
X9986839Y-16127034D01*
X9986839Y-16127034D02*
X9996363Y-16088939D01*
X9996363Y-16088939D02*
X10005887Y-16069891D01*
X10005887Y-16069891D02*
X10015411Y-16060368D01*
X10015411Y-16060368D02*
X10034458Y-16050844D01*
X10196363Y-16250844D02*
X10234458Y-16250844D01*
X10234458Y-16250844D02*
X10253506Y-16241320D01*
X10253506Y-16241320D02*
X10263030Y-16231796D01*
X10263030Y-16231796D02*
X10282078Y-16203225D01*
X10282078Y-16203225D02*
X10291601Y-16165129D01*
X10291601Y-16165129D02*
X10291601Y-16088939D01*
X10291601Y-16088939D02*
X10282078Y-16069891D01*
X10282078Y-16069891D02*
X10272554Y-16060368D01*
X10272554Y-16060368D02*
X10253506Y-16050844D01*
X10253506Y-16050844D02*
X10215411Y-16050844D01*
X10215411Y-16050844D02*
X10196363Y-16060368D01*
X10196363Y-16060368D02*
X10186839Y-16069891D01*
X10186839Y-16069891D02*
X10177316Y-16088939D01*
X10177316Y-16088939D02*
X10177316Y-16136558D01*
X10177316Y-16136558D02*
X10186839Y-16155606D01*
X10186839Y-16155606D02*
X10196363Y-16165129D01*
X10196363Y-16165129D02*
X10215411Y-16174653D01*
X10215411Y-16174653D02*
X10253506Y-16174653D01*
X10253506Y-16174653D02*
X10272554Y-16165129D01*
X10272554Y-16165129D02*
X10282078Y-16155606D01*
X10282078Y-16155606D02*
X10291601Y-16136558D01*
X10463030Y-16117510D02*
X10463030Y-16250844D01*
X10415411Y-16041320D02*
X10367792Y-16184177D01*
X10367792Y-16184177D02*
X10491601Y-16184177D01*
X10605887Y-16050844D02*
X10624935Y-16050844D01*
X10624935Y-16050844D02*
X10643982Y-16060368D01*
X10643982Y-16060368D02*
X10653506Y-16069891D01*
X10653506Y-16069891D02*
X10663030Y-16088939D01*
X10663030Y-16088939D02*
X10672554Y-16127034D01*
X10672554Y-16127034D02*
X10672554Y-16174653D01*
X10672554Y-16174653D02*
X10663030Y-16212748D01*
X10663030Y-16212748D02*
X10653506Y-16231796D01*
X10653506Y-16231796D02*
X10643982Y-16241320D01*
X10643982Y-16241320D02*
X10624935Y-16250844D01*
X10624935Y-16250844D02*
X10605887Y-16250844D01*
X10605887Y-16250844D02*
X10586839Y-16241320D01*
X10586839Y-16241320D02*
X10577316Y-16231796D01*
X10577316Y-16231796D02*
X10567792Y-16212748D01*
X10567792Y-16212748D02*
X10558268Y-16174653D01*
X10558268Y-16174653D02*
X10558268Y-16127034D01*
X10558268Y-16127034D02*
X10567792Y-16088939D01*
X10567792Y-16088939D02*
X10577316Y-16069891D01*
X10577316Y-16069891D02*
X10586839Y-16060368D01*
X10586839Y-16060368D02*
X10605887Y-16050844D01*
X10748744Y-16050844D02*
X10748744Y-16088939D01*
X10824935Y-16050844D02*
X10824935Y-16088939D01*
X11120173Y-16327034D02*
X11110649Y-16317510D01*
X11110649Y-16317510D02*
X11091601Y-16288939D01*
X11091601Y-16288939D02*
X11082078Y-16269891D01*
X11082078Y-16269891D02*
X11072554Y-16241320D01*
X11072554Y-16241320D02*
X11063030Y-16193701D01*
X11063030Y-16193701D02*
X11063030Y-16155606D01*
X11063030Y-16155606D02*
X11072554Y-16107987D01*
X11072554Y-16107987D02*
X11082078Y-16079415D01*
X11082078Y-16079415D02*
X11091601Y-16060368D01*
X11091601Y-16060368D02*
X11110649Y-16031796D01*
X11110649Y-16031796D02*
X11120173Y-16022272D01*
X11282078Y-16117510D02*
X11282078Y-16250844D01*
X11234458Y-16041320D02*
X11186839Y-16184177D01*
X11186839Y-16184177D02*
X11310649Y-16184177D01*
X11539220Y-16250844D02*
X11539220Y-16050844D01*
X11624935Y-16250844D02*
X11624935Y-16146082D01*
X11624935Y-16146082D02*
X11615411Y-16127034D01*
X11615411Y-16127034D02*
X11596363Y-16117510D01*
X11596363Y-16117510D02*
X11567792Y-16117510D01*
X11567792Y-16117510D02*
X11548744Y-16127034D01*
X11548744Y-16127034D02*
X11539220Y-16136558D01*
X11748744Y-16250844D02*
X11729697Y-16241320D01*
X11729697Y-16241320D02*
X11720173Y-16231796D01*
X11720173Y-16231796D02*
X11710649Y-16212748D01*
X11710649Y-16212748D02*
X11710649Y-16155606D01*
X11710649Y-16155606D02*
X11720173Y-16136558D01*
X11720173Y-16136558D02*
X11729697Y-16127034D01*
X11729697Y-16127034D02*
X11748744Y-16117510D01*
X11748744Y-16117510D02*
X11777316Y-16117510D01*
X11777316Y-16117510D02*
X11796363Y-16127034D01*
X11796363Y-16127034D02*
X11805887Y-16136558D01*
X11805887Y-16136558D02*
X11815411Y-16155606D01*
X11815411Y-16155606D02*
X11815411Y-16212748D01*
X11815411Y-16212748D02*
X11805887Y-16231796D01*
X11805887Y-16231796D02*
X11796363Y-16241320D01*
X11796363Y-16241320D02*
X11777316Y-16250844D01*
X11777316Y-16250844D02*
X11748744Y-16250844D01*
X11929697Y-16250844D02*
X11910649Y-16241320D01*
X11910649Y-16241320D02*
X11901125Y-16222272D01*
X11901125Y-16222272D02*
X11901125Y-16050844D01*
X12082078Y-16241320D02*
X12063030Y-16250844D01*
X12063030Y-16250844D02*
X12024935Y-16250844D01*
X12024935Y-16250844D02*
X12005887Y-16241320D01*
X12005887Y-16241320D02*
X11996363Y-16222272D01*
X11996363Y-16222272D02*
X11996363Y-16146082D01*
X11996363Y-16146082D02*
X12005887Y-16127034D01*
X12005887Y-16127034D02*
X12024935Y-16117510D01*
X12024935Y-16117510D02*
X12063030Y-16117510D01*
X12063030Y-16117510D02*
X12082078Y-16127034D01*
X12082078Y-16127034D02*
X12091601Y-16146082D01*
X12091601Y-16146082D02*
X12091601Y-16165129D01*
X12091601Y-16165129D02*
X11996363Y-16184177D01*
X12167792Y-16241320D02*
X12186840Y-16250844D01*
X12186840Y-16250844D02*
X12224935Y-16250844D01*
X12224935Y-16250844D02*
X12243982Y-16241320D01*
X12243982Y-16241320D02*
X12253506Y-16222272D01*
X12253506Y-16222272D02*
X12253506Y-16212748D01*
X12253506Y-16212748D02*
X12243982Y-16193701D01*
X12243982Y-16193701D02*
X12224935Y-16184177D01*
X12224935Y-16184177D02*
X12196363Y-16184177D01*
X12196363Y-16184177D02*
X12177316Y-16174653D01*
X12177316Y-16174653D02*
X12167792Y-16155606D01*
X12167792Y-16155606D02*
X12167792Y-16146082D01*
X12167792Y-16146082D02*
X12177316Y-16127034D01*
X12177316Y-16127034D02*
X12196363Y-16117510D01*
X12196363Y-16117510D02*
X12224935Y-16117510D01*
X12224935Y-16117510D02*
X12243982Y-16127034D01*
X12320173Y-16327034D02*
X12329697Y-16317510D01*
X12329697Y-16317510D02*
X12348744Y-16288939D01*
X12348744Y-16288939D02*
X12358268Y-16269891D01*
X12358268Y-16269891D02*
X12367792Y-16241320D01*
X12367792Y-16241320D02*
X12377316Y-16193701D01*
X12377316Y-16193701D02*
X12377316Y-16155606D01*
X12377316Y-16155606D02*
X12367792Y-16107987D01*
X12367792Y-16107987D02*
X12358268Y-16079415D01*
X12358268Y-16079415D02*
X12348744Y-16060368D01*
X12348744Y-16060368D02*
X12329697Y-16031796D01*
X12329697Y-16031796D02*
X12320173Y-16022272D01*
X12682078Y-16327034D02*
X12672554Y-16317510D01*
X12672554Y-16317510D02*
X12653506Y-16288939D01*
X12653506Y-16288939D02*
X12643982Y-16269891D01*
X12643982Y-16269891D02*
X12634459Y-16241320D01*
X12634459Y-16241320D02*
X12624935Y-16193701D01*
X12624935Y-16193701D02*
X12624935Y-16155606D01*
X12624935Y-16155606D02*
X12634459Y-16107987D01*
X12634459Y-16107987D02*
X12643982Y-16079415D01*
X12643982Y-16079415D02*
X12653506Y-16060368D01*
X12653506Y-16060368D02*
X12672554Y-16031796D01*
X12672554Y-16031796D02*
X12682078Y-16022272D01*
X12758268Y-16117510D02*
X12758268Y-16250844D01*
X12758268Y-16136558D02*
X12767792Y-16127034D01*
X12767792Y-16127034D02*
X12786840Y-16117510D01*
X12786840Y-16117510D02*
X12815411Y-16117510D01*
X12815411Y-16117510D02*
X12834459Y-16127034D01*
X12834459Y-16127034D02*
X12843982Y-16146082D01*
X12843982Y-16146082D02*
X12843982Y-16250844D01*
X12967792Y-16250844D02*
X12948744Y-16241320D01*
X12948744Y-16241320D02*
X12939221Y-16231796D01*
X12939221Y-16231796D02*
X12929697Y-16212748D01*
X12929697Y-16212748D02*
X12929697Y-16155606D01*
X12929697Y-16155606D02*
X12939221Y-16136558D01*
X12939221Y-16136558D02*
X12948744Y-16127034D01*
X12948744Y-16127034D02*
X12967792Y-16117510D01*
X12967792Y-16117510D02*
X12996363Y-16117510D01*
X12996363Y-16117510D02*
X13015411Y-16127034D01*
X13015411Y-16127034D02*
X13024935Y-16136558D01*
X13024935Y-16136558D02*
X13034459Y-16155606D01*
X13034459Y-16155606D02*
X13034459Y-16212748D01*
X13034459Y-16212748D02*
X13024935Y-16231796D01*
X13024935Y-16231796D02*
X13015411Y-16241320D01*
X13015411Y-16241320D02*
X12996363Y-16250844D01*
X12996363Y-16250844D02*
X12967792Y-16250844D01*
X13091602Y-16117510D02*
X13167792Y-16117510D01*
X13120173Y-16050844D02*
X13120173Y-16222272D01*
X13120173Y-16222272D02*
X13129697Y-16241320D01*
X13129697Y-16241320D02*
X13148744Y-16250844D01*
X13148744Y-16250844D02*
X13167792Y-16250844D01*
X13386840Y-16117510D02*
X13386840Y-16317510D01*
X13386840Y-16127034D02*
X13405887Y-16117510D01*
X13405887Y-16117510D02*
X13443983Y-16117510D01*
X13443983Y-16117510D02*
X13463030Y-16127034D01*
X13463030Y-16127034D02*
X13472554Y-16136558D01*
X13472554Y-16136558D02*
X13482078Y-16155606D01*
X13482078Y-16155606D02*
X13482078Y-16212748D01*
X13482078Y-16212748D02*
X13472554Y-16231796D01*
X13472554Y-16231796D02*
X13463030Y-16241320D01*
X13463030Y-16241320D02*
X13443983Y-16250844D01*
X13443983Y-16250844D02*
X13405887Y-16250844D01*
X13405887Y-16250844D02*
X13386840Y-16241320D01*
X13596363Y-16250844D02*
X13577316Y-16241320D01*
X13577316Y-16241320D02*
X13567792Y-16222272D01*
X13567792Y-16222272D02*
X13567792Y-16050844D01*
X13758268Y-16250844D02*
X13758268Y-16146082D01*
X13758268Y-16146082D02*
X13748744Y-16127034D01*
X13748744Y-16127034D02*
X13729697Y-16117510D01*
X13729697Y-16117510D02*
X13691602Y-16117510D01*
X13691602Y-16117510D02*
X13672554Y-16127034D01*
X13758268Y-16241320D02*
X13739221Y-16250844D01*
X13739221Y-16250844D02*
X13691602Y-16250844D01*
X13691602Y-16250844D02*
X13672554Y-16241320D01*
X13672554Y-16241320D02*
X13663030Y-16222272D01*
X13663030Y-16222272D02*
X13663030Y-16203225D01*
X13663030Y-16203225D02*
X13672554Y-16184177D01*
X13672554Y-16184177D02*
X13691602Y-16174653D01*
X13691602Y-16174653D02*
X13739221Y-16174653D01*
X13739221Y-16174653D02*
X13758268Y-16165129D01*
X13824935Y-16117510D02*
X13901125Y-16117510D01*
X13853506Y-16050844D02*
X13853506Y-16222272D01*
X13853506Y-16222272D02*
X13863030Y-16241320D01*
X13863030Y-16241320D02*
X13882078Y-16250844D01*
X13882078Y-16250844D02*
X13901125Y-16250844D01*
X14043983Y-16241320D02*
X14024935Y-16250844D01*
X14024935Y-16250844D02*
X13986840Y-16250844D01*
X13986840Y-16250844D02*
X13967792Y-16241320D01*
X13967792Y-16241320D02*
X13958268Y-16222272D01*
X13958268Y-16222272D02*
X13958268Y-16146082D01*
X13958268Y-16146082D02*
X13967792Y-16127034D01*
X13967792Y-16127034D02*
X13986840Y-16117510D01*
X13986840Y-16117510D02*
X14024935Y-16117510D01*
X14024935Y-16117510D02*
X14043983Y-16127034D01*
X14043983Y-16127034D02*
X14053506Y-16146082D01*
X14053506Y-16146082D02*
X14053506Y-16165129D01*
X14053506Y-16165129D02*
X13958268Y-16184177D01*
X14224935Y-16250844D02*
X14224935Y-16050844D01*
X14224935Y-16241320D02*
X14205887Y-16250844D01*
X14205887Y-16250844D02*
X14167792Y-16250844D01*
X14167792Y-16250844D02*
X14148744Y-16241320D01*
X14148744Y-16241320D02*
X14139221Y-16231796D01*
X14139221Y-16231796D02*
X14129697Y-16212748D01*
X14129697Y-16212748D02*
X14129697Y-16155606D01*
X14129697Y-16155606D02*
X14139221Y-16136558D01*
X14139221Y-16136558D02*
X14148744Y-16127034D01*
X14148744Y-16127034D02*
X14167792Y-16117510D01*
X14167792Y-16117510D02*
X14205887Y-16117510D01*
X14205887Y-16117510D02*
X14224935Y-16127034D01*
X14301125Y-16327034D02*
X14310649Y-16317510D01*
X14310649Y-16317510D02*
X14329697Y-16288939D01*
X14329697Y-16288939D02*
X14339221Y-16269891D01*
X14339221Y-16269891D02*
X14348744Y-16241320D01*
X14348744Y-16241320D02*
X14358268Y-16193701D01*
X14358268Y-16193701D02*
X14358268Y-16155606D01*
X14358268Y-16155606D02*
X14348744Y-16107987D01*
X14348744Y-16107987D02*
X14339221Y-16079415D01*
X14339221Y-16079415D02*
X14329697Y-16060368D01*
X14329697Y-16060368D02*
X14310649Y-16031796D01*
X14310649Y-16031796D02*
X14301125Y-16022272D01*
M02*
